<?xml version="1.0" encoding="UTF-8"?>
<!DOCTYPE svg PUBLIC "-//W3C//DTD SVG 1.1//EN" "http://www.w3.org/Graphics/SVG/1.1/DTD/svg11.dtd">
<!-- Creator: CorelDRAW 2019 (64-Bit) -->
<svg xmlns="http://www.w3.org/2000/svg" xml:space="preserve" width="18.782mm" height="6.8007mm" version="1.1" style="shape-rendering:geometricPrecision; text-rendering:geometricPrecision; image-rendering:optimizeQuality; fill-rule:evenodd; clip-rule:evenodd"
viewBox="0 0 1846.1 668.45"
 xmlns:xlink="http://www.w3.org/1999/xlink"
 xmlns:xodm="http://www.corel.com/coreldraw/odm/2003">
 <defs>
  <style type="text/css">
   <![CDATA[
    .str0 {stroke:#142142;stroke-width:26.01;stroke-miterlimit:22.9256;stroke-opacity:0.788235}
    .fil1 {fill:none}
    .fil0 {fill:#142142;fill-rule:nonzero}
   ]]>
  </style>
 </defs>
 <g id="Capa_x0020_1">
  <metadata id="CorelCorpID_0Corel-Layer"/>
  <g id="_1314186208">
   <path class="fil0" d="M56.29 16.99l-14.73 41.39 30.14 0 -15.4 -41.39zm-2.34 -15.65l9.85 0 35.82 93.45 8.98 1.82 0 6.12 -33.92 0 0 -6.12 9.26 -0.72 1.09 -2.12 -10.8 -28.51 -35.22 0 -10.64 28.51 1.54 2.12 9.68 0.72 0 6.12 -29.25 0 0 -6.12 8.62 -1.82 34.99 -93.45zm63.56 101.39l0 -6.12 9.41 -0.75 2.55 -2.11 0 -82.25 -2.55 -2.12 -9.41 -0.86 0 -5.98 36.44 0 0 5.98 -8.51 0.86 -2.54 2.12 0 84.36 33.72 0 2.11 -2.41 2.54 -17.9 7.76 0 0 27.18 -71.53 0zm109.55 -93.33l0 41.67c1.49,0.05 2.94,0.07 4.31,0.1 1.35,0.02 2.66,0.05 3.9,0.05 9.24,0 15.93,-1.62 20.14,-4.89 4.21,-3.25 6.29,-8.5 6.29,-15.7 0,-7.44 -2.16,-12.85 -6.47,-16.21 -4.33,-3.35 -11.32,-5.02 -20.98,-5.02l-7.19 0zm-24.49 -6.87l38.08 0c12.23,0 21.28,2.19 27.16,6.6 5.9,4.4 8.84,11.15 8.84,20.26 0,6.45 -2.02,11.78 -6.07,15.93 -4.03,4.16 -10.08,7.12 -18.12,8.86 3.76,1.02 6.9,2.34 9.44,3.98 2.52,1.62 4.53,3.66 5.98,6.07 1.66,2.68 3.09,6.62 4.23,11.79 1.17,5.18 2.11,8.61 2.79,10.3 1.51,4.09 3.58,6.87 6.19,8.36 2.64,1.47 7.05,2.22 13.22,2.22l1.32 0 0 5.67c-2.24,0.44 -4.31,0.8 -6.2,1.02 -1.91,0.22 -3.71,0.32 -5.4,0.32 -3.46,0 -6.42,-0.35 -8.89,-1.07 -2.47,-0.7 -4.53,-1.8 -6.24,-3.26 -3.54,-3.12 -6.48,-9.18 -8.82,-18.24 -0.86,-3.26 -1.56,-5.7 -2.11,-7.29 -2,-6.07 -4.68,-10.28 -8.04,-12.62 -3.38,-2.34 -8.48,-3.51 -15.33,-3.51 -1.46,0 -3.8,0.08 -6.99,0.23l-0.52 0.08 0 35.53 2.54 2.12 8.51 0.72 0 6.12 -35.54 0 0 -6.12 8.49 -0.72 2.57 -2.12 0 -82.25 -2.57 -2.11 -8.49 -0.89 0 -5.98zm102.97 100.2l0 -6.12 8.49 -0.75 2.57 -2.11 0 -82.23 -2.57 -2.11 -8.49 -0.89 0 -5.98 71.53 0 0 21.8 -8.35 0 -2.12 -12.67 -2.03 -2.26 -34.52 0 0 37.78 24.48 0 2.12 -2.12 1.46 -10.87 7.02 0 0 32.85 -7.02 0 -1.46 -10.75 -2.12 -2.24 -24.48 0 0 41.81 39.99 0 2.11 -2.41 2.54 -15.06 7.76 0 0 24.34 -76.9 0zm132.37 -85.74l-14.73 41.39 30.14 0 -15.4 -41.39zm-2.34 -15.65l9.85 0 35.82 93.45 8.98 1.82 0 6.12 -33.92 0 0 -6.12 9.26 -0.72 1.09 -2.12 -10.8 -28.51 -35.22 0 -10.64 28.51 1.54 2.12 9.68 0.72 0 6.12 -29.25 0 0 -6.12 8.62 -1.82 34.99 -93.45zm88.95 8.06l0 86.46 11.79 0c13.61,0 23.8,-3.58 30.51,-10.75 6.74,-7.17 10.1,-18.02 10.1,-32.55 0,-14.53 -3.33,-25.36 -10.03,-32.48 -6.67,-7.12 -16.88,-10.67 -30.59,-10.67l-11.79 0zm12.39 -6.87c17.5,0 31.06,4.35 40.66,13.09 9.63,8.74 14.44,21.03 14.44,36.93 0,8.87 -1.57,16.73 -4.71,23.6 -3.14,6.87 -7.78,12.64 -13.96,17.32 -4.35,3.31 -9.31,5.67 -14.78,7.12 -5.5,1.43 -12.72,2.14 -21.65,2.14l-36.89 0 0 -6.12 8.49 -0.75 2.57 -2.11 0 -82.23 -2.57 -2.11 -8.49 -0.89 0 -5.98 36.89 0zm63.6 0l34.67 0 0 5.98 -8.54 0.86 -1.51 1.7 22.89 41.04 25.11 -39.9 -1.4 -2.11 -9.11 -1.59 0 -5.98 30.47 0 0 5.98 -9.11 1.89 -31.06 49.75 0 33.62 2.42 2.12 10.12 0.72 0 6.12 -38.68 0 0 -6.12 10.13 -0.72 2.41 -2.12 0 -31.65 -29.71 -52.14 -9.1 -1.46 0 -5.98zm225.24 96.77c-4.9,1.69 -9.93,2.98 -15.03,3.88 -5.1,0.89 -10.13,1.34 -15.09,1.34 -4.9,0 -9.5,-0.52 -13.79,-1.54 -4.28,-1.01 -8.16,-2.49 -11.67,-4.42 -8.01,-4.58 -14.33,-10.95 -18.91,-19.14 -4.61,-8.2 -6.9,-17.13 -6.9,-26.86 0,-15.55 4.76,-28.07 14.26,-37.58 9.5,-9.49 22.03,-14.23 37.58,-14.23 4.48,0 9.19,0.42 14.11,1.27 4.95,0.85 10.08,2.11 15.43,3.8l0 23 -8.36 0 -2.24 -13.59 -1.99 -2.68c-2.86,-1.32 -5.65,-2.29 -8.36,-2.94 -2.74,-0.62 -5.5,-0.94 -8.32,-0.94 -11.27,0 -20.21,3.83 -26.82,11.52 -6.6,7.7 -9.91,18.14 -9.91,31.36 0,14.06 3.46,25.08 10.35,33.07 6.9,7.98 16.45,11.99 28.65,11.99 2.13,0 4.28,-0.15 6.44,-0.47 2.17,-0.32 4.33,-0.83 6.53,-1.49l2.34 -2.34 3.64 -16.6 8.06 0 0 23.6zm67.73 -91.24c-10.01,0 -17.97,4.01 -23.87,12 -5.9,8.01 -8.87,18.83 -8.87,32.49 0,13.61 2.99,24.46 8.93,32.53 5.95,8.09 13.89,12.12 23.8,12.12 9.83,0 17.69,-4.06 23.64,-12.15 5.93,-8.09 8.89,-18.94 8.89,-32.5 0,-13.55 -2.96,-24.36 -8.89,-32.43 -5.95,-8.04 -13.81,-12.07 -23.64,-12.07zm0.02 -8.06c6.35,0 12.3,1.09 17.77,3.28 5.5,2.19 10.51,5.46 15.04,9.83 5.05,4.9 8.88,10.7 11.47,17.35 2.61,6.67 3.9,14.04 3.9,22.1 0,5.55 -0.62,10.78 -1.89,15.69 -1.27,4.89 -3.16,9.52 -5.7,13.83 -4.23,7.24 -9.91,12.9 -17.04,16.96 -7.15,4.05 -15.01,6.09 -23.55,6.09 -6.37,0 -12.36,-1.09 -17.99,-3.28 -5.6,-2.19 -10.58,-5.38 -14.91,-9.55 -5.05,-4.9 -8.89,-10.7 -11.47,-17.43 -2.61,-6.69 -3.91,-14.13 -3.91,-22.3 0,-8.11 1.3,-15.5 3.86,-22.14 2.59,-6.67 6.37,-12.41 11.37,-17.3 4.48,-4.32 9.5,-7.59 15.06,-9.8 5.57,-2.22 11.57,-3.31 17.99,-3.31zm115.64 8.06c-10.01,0 -17.97,4.01 -23.87,12 -5.9,8.01 -8.87,18.83 -8.87,32.49 0,13.61 2.99,24.46 8.93,32.53 5.95,8.09 13.89,12.12 23.8,12.12 9.83,0 17.69,-4.06 23.64,-12.15 5.93,-8.09 8.89,-18.94 8.89,-32.5 0,-13.55 -2.96,-24.36 -8.89,-32.43 -5.95,-8.04 -13.81,-12.07 -23.64,-12.07zm0.02 -8.06c6.35,0 12.3,1.09 17.77,3.28 5.5,2.19 10.51,5.46 15.04,9.83 5.05,4.9 8.88,10.7 11.47,17.35 2.61,6.67 3.9,14.04 3.9,22.1 0,5.55 -0.62,10.78 -1.89,15.69 -1.27,4.89 -3.16,9.52 -5.7,13.83 -4.23,7.24 -9.91,12.9 -17.04,16.96 -7.15,4.05 -15.01,6.09 -23.55,6.09 -6.37,0 -12.36,-1.09 -17.99,-3.28 -5.6,-2.19 -10.58,-5.38 -14.91,-9.55 -5.05,-4.9 -8.89,-10.7 -11.47,-17.43 -2.61,-6.69 -3.91,-14.13 -3.91,-22.3 0,-8.11 1.3,-15.5 3.86,-22.14 2.59,-6.67 6.37,-12.41 11.37,-17.3 4.48,-4.32 9.5,-7.59 15.06,-9.8 5.57,-2.22 11.57,-3.31 17.99,-3.31zm65.88 102.73l0 -6.12 8.49 -0.72 2.57 -2.12 0 -82.27 -2.57 -2.12 -8.49 -0.86 0 -5.98 36.29 0 0 5.98 -9.26 0.86 -2.54 2.12 0 40.47 5.67 0 33.17 -40.47 -0.86 -2.12 -8.39 -0.86 0 -5.98 31.04 0 0 5.98 -9.83 1.32 -31.34 37.33 33.89 48.73 10.85 0.72 0 6.12 -24.63 0 0 -4.45 -28.49 -40.19 -11.08 0 0 35.68 2.54 2.12 9.26 0.72 0 6.12 -36.29 0zm97.72 0l0 -6.12 8.49 -0.75 2.57 -2.11 0 -82.23 -2.57 -2.11 -8.49 -0.89 0 -5.98 71.53 0 0 21.8 -8.35 0 -2.12 -12.67 -2.03 -2.26 -34.52 0 0 37.78 24.48 0 2.12 -2.12 1.46 -10.87 7.02 0 0 32.85 -7.02 0 -1.46 -10.75 -2.12 -2.24 -24.48 0 0 41.81 39.99 0 2.11 -2.41 2.54 -15.06 7.76 0 0 24.34 -76.9 0zm117.03 -93.33l0 86.46 11.79 0c13.61,0 23.8,-3.58 30.51,-10.75 6.74,-7.17 10.1,-18.02 10.1,-32.55 0,-14.53 -3.33,-25.36 -10.03,-32.48 -6.67,-7.12 -16.88,-10.67 -30.59,-10.67l-11.79 0zm12.39 -6.87c17.5,0 31.06,4.35 40.66,13.09 9.63,8.74 14.44,21.03 14.44,36.93 0,8.87 -1.57,16.73 -4.71,23.6 -3.14,6.87 -7.78,12.64 -13.96,17.32 -4.35,3.31 -9.31,5.67 -14.78,7.12 -5.5,1.43 -12.72,2.14 -21.65,2.14l-36.89 0 0 -6.12 8.49 -0.75 2.57 -2.11 0 -82.23 -2.57 -2.11 -8.49 -0.89 0 -5.98 36.89 0zm114.62 100.2l0 -6.12 8.46 -0.72 2.55 -2.12 0 -82.25 -2.55 -2.11 -9.7 -0.89 0 -5.98 71.67 0 0 23.29 -8.22 0 -2.26 -14.16 -1.97 -2.26 -33.55 0 0 39.27 24.48 0 2.12 -2.11 1.46 -10.87 7.02 0 0 33 -7.02 0 -1.46 -10.87 -2.12 -2.27 -24.48 0 0 38.23 2.54 2.12 10.61 0.72 0 6.12 -37.59 0zm136.43 -94.67c-10.01,0 -17.97,4.01 -23.87,12 -5.9,8.01 -8.87,18.83 -8.87,32.49 0,13.61 2.99,24.46 8.93,32.53 5.95,8.09 13.89,12.12 23.8,12.12 9.83,0 17.69,-4.06 23.64,-12.15 5.93,-8.09 8.89,-18.94 8.89,-32.5 0,-13.55 -2.96,-24.36 -8.89,-32.43 -5.95,-8.04 -13.81,-12.07 -23.64,-12.07zm0.02 -8.06c6.35,0 12.3,1.09 17.77,3.28 5.5,2.19 10.51,5.46 15.04,9.83 5.05,4.9 8.88,10.7 11.47,17.35 2.61,6.67 3.9,14.04 3.9,22.1 0,5.55 -0.62,10.78 -1.89,15.69 -1.27,4.89 -3.16,9.52 -5.7,13.83 -4.23,7.24 -9.91,12.9 -17.04,16.96 -7.15,4.05 -15.01,6.09 -23.55,6.09 -6.37,0 -12.36,-1.09 -17.99,-3.28 -5.6,-2.19 -10.58,-5.38 -14.91,-9.55 -5.05,-4.9 -8.89,-10.7 -11.47,-17.43 -2.61,-6.69 -3.91,-14.13 -3.91,-22.3 0,-8.11 1.3,-15.5 3.86,-22.14 2.59,-6.67 6.37,-12.41 11.37,-17.3 4.48,-4.32 9.5,-7.59 15.06,-9.8 5.57,-2.22 11.57,-3.31 17.99,-3.31zm115.64 8.06c-10.01,0 -17.97,4.01 -23.87,12 -5.9,8.01 -8.87,18.83 -8.87,32.49 0,13.61 2.99,24.46 8.93,32.53 5.95,8.09 13.89,12.12 23.8,12.12 9.83,0 17.69,-4.06 23.64,-12.15 5.93,-8.09 8.89,-18.94 8.89,-32.5 0,-13.55 -2.96,-24.36 -8.89,-32.43 -5.95,-8.04 -13.81,-12.07 -23.64,-12.07zm0.02 -8.06c6.35,0 12.3,1.09 17.77,3.28 5.5,2.19 10.51,5.46 15.04,9.83 5.05,4.9 8.88,10.7 11.47,17.35 2.61,6.67 3.9,14.04 3.9,22.1 0,5.55 -0.62,10.78 -1.89,15.69 -1.27,4.89 -3.16,9.52 -5.7,13.83 -4.23,7.24 -9.91,12.9 -17.04,16.96 -7.15,4.05 -15.01,6.09 -23.55,6.09 -6.37,0 -12.36,-1.09 -17.99,-3.28 -5.6,-2.19 -10.58,-5.38 -14.91,-9.55 -5.05,-4.9 -8.89,-10.7 -11.47,-17.43 -2.61,-6.69 -3.91,-14.13 -3.91,-22.3 0,-8.11 1.3,-15.5 3.86,-22.14 2.59,-6.67 6.37,-12.41 11.37,-17.3 4.48,-4.32 9.5,-7.59 15.06,-9.8 5.57,-2.22 11.57,-3.31 17.99,-3.31zm90.38 9.41l0 86.46 11.79 0c13.61,0 23.8,-3.58 30.51,-10.75 6.74,-7.17 10.1,-18.02 10.1,-32.55 0,-14.53 -3.33,-25.36 -10.03,-32.48 -6.67,-7.12 -16.88,-10.67 -30.59,-10.67l-11.79 0zm12.39 -6.87c17.5,0 31.06,4.35 40.66,13.09 9.63,8.74 14.44,21.03 14.44,36.93 0,8.87 -1.57,16.73 -4.71,23.6 -3.14,6.87 -7.78,12.64 -13.96,17.32 -4.35,3.31 -9.31,5.67 -14.78,7.12 -5.5,1.43 -12.72,2.14 -21.65,2.14l-36.89 0 0 -6.12 8.49 -0.75 2.57 -2.11 0 -82.23 -2.57 -2.11 -8.49 -0.89 0 -5.98 36.89 0z"/>
   <g>
    <polygon class="fil1 str0" points="13,229.15 1833.09,229.15 1833.09,655.44 13,655.44 "/>
    <g>
     <path class="fil0" d="M277.81 453.2c-5.67,1.96 -11.49,3.45 -17.4,4.49 -5.91,1.03 -11.73,1.55 -17.46,1.55 -5.67,0 -11,-0.61 -15.95,-1.79 -4.95,-1.18 -9.46,-2.88 -13.51,-5.12 -9.27,-5.31 -16.59,-12.68 -21.89,-22.15 -5.33,-9.48 -7.98,-19.82 -7.98,-31.08 0,-18.01 5.5,-32.49 16.5,-43.5 11.01,-10.97 25.5,-16.47 43.5,-16.47 5.18,0 10.63,0.49 16.33,1.47 5.74,0.97 11.67,2.45 17.86,4.4l0 26.62 -9.67 0 -2.59 -15.73 -2.31 -3.12c-3.31,-1.52 -6.54,-2.64 -9.67,-3.4 -3.17,-0.72 -6.37,-1.09 -9.62,-1.09 -13.05,0 -23.39,4.43 -31.05,13.34 -7.64,8.91 -11.47,20.99 -11.47,36.3 0,16.27 4.01,29.04 11.98,38.27 7.98,9.25 19.05,13.89 33.16,13.89 2.48,0 4.95,-0.18 7.46,-0.55 2.51,-0.37 5.01,-0.94 7.54,-1.72l2.71 -2.71 4.21 -19.22 9.33 0 0 27.32zm92.77 -105.6c-11.58,0 -20.8,4.64 -27.63,13.88 -6.82,9.28 -10.25,21.81 -10.25,37.63 0,15.76 3.46,28.32 10.34,37.65 6.88,9.37 16.07,14.03 27.54,14.03 11.37,0 20.47,-4.69 27.36,-14.06 6.85,-9.36 10.28,-21.92 10.28,-37.62 0,-15.7 -3.43,-28.2 -10.28,-37.54 -6.89,-9.3 -15.99,-13.97 -27.36,-13.97zm0.03 -9.34c7.34,0 14.22,1.27 20.56,3.8 6.37,2.54 12.16,6.31 17.4,11.38 5.85,5.67 10.28,12.38 13.28,20.07 3.03,7.73 4.52,16.25 4.52,25.59 0,6.42 -0.72,12.47 -2.18,18.14 -1.47,5.67 -3.67,11.04 -6.6,16.02 -4.9,8.37 -11.47,14.92 -19.74,19.61 -8.27,4.7 -17.37,7.06 -27.25,7.06 -7.38,0 -14.32,-1.27 -20.83,-3.8 -6.49,-2.53 -12.25,-6.22 -17.26,-11.06 -5.85,-5.67 -10.28,-12.38 -13.28,-20.16 -3.02,-7.76 -4.52,-16.37 -4.52,-25.81 0,-9.4 1.5,-17.95 4.46,-25.64 3,-7.72 7.38,-14.37 13.17,-20.01 5.18,-5.01 11,-8.79 17.43,-11.35 6.45,-2.57 13.39,-3.83 20.83,-3.83zm89.94 118.91l0 -7.09 10.55 -1.36 3.11 -3.28 0 -93.88 -3.11 -2.45 -11.07 -1.01 0 -6.91 32.44 0 0 4.3 58.99 88.55 0 -81.3 -3.11 -3.11 -10.37 -1.53 0 -6.91 36.29 0 0 6.91 -10.37 1.53 -3.11 3.11 0 104.42 -11.41 0 -65.85 -98.17 0 86.45 3.11 3.28 10.37 1.36 0 7.09 -36.47 0zm150.45 -3.49l0 -30.38 10.19 0 2.05 19.84 2.27 2.97c2.54,1.3 5.42,2.27 8.67,2.96 3.28,0.67 6.83,1.01 10.64,1.01 8.03,0 14.43,-1.87 19.13,-5.61 4.69,-3.74 7.03,-8.79 7.03,-15.16 0,-8.85 -8.27,-16.77 -24.81,-23.83 -1.78,-0.78 -3.16,-1.38 -4.12,-1.75 -11.8,-5.13 -19.61,-9.89 -23.41,-14.29 -3.83,-4.43 -5.74,-10.14 -5.74,-17.17 0,-9.91 3.64,-17.92 10.92,-23.99 7.29,-6.1 16.94,-9.16 28.98,-9.16 4.82,0 9.68,0.4 14.52,1.21 4.88,0.81 9.83,2.04 14.9,3.66l0 26.76 -8.99 0 -2.64 -16.47 -2.54 -2.88c-2.22,-1.24 -4.61,-2.16 -7.18,-2.74 -2.59,-0.6 -5.42,-0.89 -8.44,-0.89 -7.19,0 -12.91,1.88 -17.1,5.62 -4.24,3.74 -6.34,8.82 -6.34,15.24 0,4.67 1.46,8.53 4.43,11.61 2.94,3.06 9.53,6.77 19.77,11.09 0.97,0.41 2.39,0.98 4.31,1.7 10.08,3.95 17.34,8.1 21.78,12.47 2.54,2.48 4.43,5.34 5.7,8.53 1.27,3.19 1.9,6.71 1.9,10.46 0,10.43 -4.09,18.8 -12.24,25.2 -8.15,6.37 -18.98,9.56 -32.49,9.56 -6.02,0 -11.7,-0.49 -16.99,-1.44 -5.33,-0.94 -10.03,-2.3 -14.14,-4.12zm113.36 3.49l0 -7.09 9.83 -0.86 2.96 -2.45 0 -95.18 -2.96 -2.45 -9.83 -1.04 0 -6.91 82.79 0 0 25.23 -9.68 0 -2.45 -14.66 -2.36 -2.62 -39.96 0 0 43.73 28.35 0 2.45 -2.45 1.7 -12.59 8.12 0 0 38.02 -8.12 0 -1.7 -12.44 -2.45 -2.59 -28.35 0 0 48.39 46.29 0 2.45 -2.79 2.94 -17.43 8.98 0 0 28.17 -89.01 0zm149.82 -108.02l0 48.22c1.73,0.06 3.4,0.09 4.98,0.12 1.55,0.03 3.09,0.06 4.52,0.06 10.68,0 18.44,-1.88 23.3,-5.65 4.87,-3.77 7.29,-9.85 7.29,-18.17 0,-8.61 -2.51,-14.86 -7.49,-18.75 -5.01,-3.89 -13.11,-5.82 -24.29,-5.82l-8.33 0zm-28.35 -7.95l44.07 0c14.14,0 24.63,2.54 31.43,7.64 6.82,5.09 10.22,12.91 10.22,23.44 0,7.46 -2.33,13.63 -7.03,18.44 -4.67,4.81 -11.67,8.24 -20.98,10.25 4.35,1.18 7.98,2.71 10.92,4.61 2.91,1.88 5.24,4.24 6.91,7.03 1.94,3.12 3.58,7.67 4.9,13.65 1.35,6 2.45,9.97 3.22,11.93 1.76,4.72 4.15,7.95 7.18,9.67 3.05,1.7 8.15,2.57 15.29,2.57l1.52 0 0 6.57c-2.59,0.52 -4.98,0.92 -7.18,1.19 -2.21,0.26 -4.29,0.37 -6.25,0.37 -4,0 -7.43,-0.4 -10.28,-1.24 -2.85,-0.81 -5.24,-2.07 -7.22,-3.77 -4.1,-3.61 -7.49,-10.64 -10.2,-21.11 -1,-3.77 -1.82,-6.61 -2.45,-8.44 -2.3,-7.03 -5.42,-11.89 -9.31,-14.61 -3.91,-2.7 -9.82,-4.06 -17.74,-4.06 -1.7,0 -4.4,0.09 -8.09,0.26l-0.61 0.09 0 41.13 2.94 2.45 9.85 0.84 0 7.09 -41.13 0 0 -7.09 9.83 -0.84 2.96 -2.45 0 -95.2 -2.96 -2.45 -9.83 -1.04 0 -6.91zm114.43 0l40.27 0 0 6.91 -10.03 1.01 -1.88 2.45 32.47 87.12 31.2 -87.12 -1.67 -2.45 -10.71 -1.01 0 -6.91 34.42 0 0 6.91 -10.71 2.02 -39.76 107.9 -11.92 0 -40.61 -107.9 -11.06 -2.02 0 -6.91zm171.08 16.74l-17.05 47.91 34.88 0 -17.83 -47.91zm-2.7 -18.12l11.4 0 41.46 108.17 10.4 2.1 0 7.09 -39.27 0 0 -7.09 10.71 -0.84 1.27 -2.45 -12.5 -33.02 -40.76 0 -12.33 33.02 1.79 2.45 11.21 0.84 0 7.09 -33.85 0 0 -7.09 9.97 -2.1 40.51 -108.17zm67.06 1.39l97.65 0 0 26.62 -9.5 0 -2.36 -16.04 -2.45 -2.62 -26.48 0 0 97.65 2.89 2.45 11.64 0.84 0 7.09 -45.12 0 0 -7.09 11.55 -0.84 2.97 -2.45 0 -97.65 -26.38 0 -2.45 2.62 -2.46 16.04 -9.5 0 0 -26.62zm128.4 115.97l0 -7.09 11.07 -0.84 2.94 -2.45 0 -95.23 -2.94 -2.45 -11.07 -1.01 0 -6.91 43.91 0 0 6.91 -11.07 1.01 -2.94 2.45 0 95.23 2.94 2.45 11.07 0.84 0 7.09 -43.91 0zm135.17 -109.57c-11.58,0 -20.8,4.64 -27.63,13.88 -6.82,9.28 -10.25,21.81 -10.25,37.63 0,15.76 3.46,28.32 10.34,37.65 6.88,9.37 16.07,14.03 27.54,14.03 11.37,0 20.47,-4.69 27.36,-14.06 6.85,-9.36 10.28,-21.92 10.28,-37.62 0,-15.7 -3.43,-28.2 -10.28,-37.54 -6.89,-9.3 -15.99,-13.97 -27.36,-13.97zm0.03 -9.34c7.34,0 14.22,1.27 20.56,3.8 6.37,2.54 12.16,6.31 17.4,11.38 5.85,5.67 10.28,12.38 13.28,20.07 3.03,7.73 4.52,16.25 4.52,25.59 0,6.42 -0.72,12.47 -2.18,18.14 -1.47,5.67 -3.67,11.04 -6.6,16.02 -4.9,8.37 -11.47,14.92 -19.74,19.61 -8.27,4.7 -17.37,7.06 -27.25,7.06 -7.38,0 -14.32,-1.27 -20.83,-3.8 -6.49,-2.53 -12.25,-6.22 -17.26,-11.06 -5.85,-5.67 -10.28,-12.38 -13.28,-20.16 -3.02,-7.76 -4.52,-16.37 -4.52,-25.81 0,-9.4 1.5,-17.95 4.46,-25.64 3,-7.72 7.38,-14.37 13.17,-20.01 5.18,-5.01 11,-8.79 17.43,-11.35 6.45,-2.57 13.39,-3.83 20.83,-3.83zm89.94 118.91l0 -7.09 10.55 -1.36 3.11 -3.28 0 -93.88 -3.11 -2.45 -11.07 -1.01 0 -6.91 32.44 0 0 4.3 58.99 88.55 0 -81.3 -3.11 -3.11 -10.37 -1.53 0 -6.91 36.29 0 0 6.91 -10.37 1.53 -3.11 3.11 0 104.42 -11.41 0 -65.85 -98.17 0 86.45 3.11 3.28 10.37 1.36 0 7.09 -36.47 0z"/>
     <path class="fil0" d="M210.93 578.78l-20.48 -75.28 -7.69 -1.66 0 -4.88 27.33 0 0 4.88 -7.69 0.95 -1.01 1.73 15.8 56.33 19.59 -63.89 8.57 0 19.92 65.2 14.77 -57.18 -1.3 -1.72 -8.2 -1.43 0 -4.88 25.24 0 0 4.88 -8.17 1.66 -19.38 75.28 -8.3 0 -20.61 -66.7 -20.24 66.7 -8.17 0zm145.49 0l0 -5 7.8 -0.59 2.07 -1.72 0 -67.19 -2.07 -1.73 -7.8 -0.71 0 -4.88 30.97 0 0 4.88 -7.8 0.71 -2.07 1.73 0 67.19 2.07 1.72 7.8 0.59 0 5 -30.97 0zm93.43 -81.82l68.9 0 0 18.77 -6.7 0 -1.67 -11.32 -1.73 -1.85 -18.68 0 0 68.9 2.03 1.72 8.21 0.59 0 5 -31.83 0 0 -5 8.15 -0.59 2.09 -1.72 0 -68.9 -18.62 0 -1.72 1.85 -1.73 11.32 -6.71 0 0 -18.77zm131.1 0l29.63 0 0 4.88 -7.56 0.71 -2.07 1.73 0 28.78 41.95 0 0 -28.78 -2.07 -1.73 -7.56 -0.71 0 -4.88 29.62 0 0 4.88 -6.95 0.71 -2.07 1.73 0 67.19 2.07 1.72 6.95 0.59 0 5 -29.62 0 0 -5 7.56 -0.59 2.07 -1.72 0 -32.81 -41.95 0 0 32.81 2.07 1.72 7.56 0.59 0 5 -29.63 0 0 -5 6.93 -0.59 2.09 -1.72 0 -67.19 -2.09 -1.73 -6.93 -0.71 0 -4.88zm186.82 4.51c-8.18,0 -14.67,3.26 -19.49,9.79 -4.82,6.55 -7.23,15.38 -7.23,26.55 0,11.12 2.44,19.97 7.29,26.56 4.86,6.61 11.34,9.9 19.43,9.9 8.02,0 14.45,-3.31 19.3,-9.92 4.84,-6.61 7.25,-15.47 7.25,-26.54 0,-11.08 -2.42,-19.9 -7.25,-26.49 -4.86,-6.56 -11.28,-9.85 -19.3,-9.85zm0.02 -6.59c5.18,0 10.04,0.89 14.51,2.68 4.49,1.79 8.58,4.44 12.28,8.02 4.13,4.01 7.25,8.74 9.37,14.16 2.13,5.46 3.19,11.47 3.19,18.06 0,4.53 -0.51,8.8 -1.54,12.8 -1.04,4.01 -2.59,7.78 -4.66,11.3 -3.45,5.92 -8.09,10.53 -13.92,13.84 -5.84,3.31 -12.26,4.97 -19.23,4.97 -5.21,0 -10.1,-0.88 -14.69,-2.67 -4.57,-1.79 -8.64,-4.39 -12.18,-7.8 -4.12,-4.01 -7.25,-8.75 -9.37,-14.23 -2.13,-5.46 -3.19,-11.54 -3.19,-18.2 0,-6.62 1.06,-12.67 3.16,-18.1 2.11,-5.45 5.2,-10.13 9.29,-14.12 3.66,-3.53 7.76,-6.19 12.3,-8 4.55,-1.81 9.45,-2.7 14.69,-2.7zm103.73 2.07l29.88 0 0 4.88 -7.57 0.71 -2.06 1.73 0 44.12c0,8.53 1.7,14.71 5.14,18.54 3.43,3.83 8.96,5.75 16.6,5.75 7.54,0 13.02,-1.94 16.48,-5.82 3.45,-3.86 5.18,-10.02 5.18,-18.47l0 -43.29 -2.32 -2.2 -7.31 -1.07 0 -4.88 25.73 0 0 4.88 -7.32 1.07 -2.19 2.2 0 44.36c0,5.84 -0.42,10.29 -1.26,13.4 -0.84,3.09 -2.19,5.79 -4.11,8.09 -2.42,2.91 -5.83,5.16 -10.26,6.81 -4.43,1.64 -9.43,2.48 -14.98,2.48 -5.59,0 -10.61,-0.84 -15,-2.48 -4.41,-1.65 -7.82,-3.9 -10.24,-6.81 -1.95,-2.34 -3.33,-5.04 -4.15,-8.09 -0.81,-3.07 -1.22,-7.52 -1.22,-13.4l0 -45.19 -2.07 -1.73 -6.95 -0.71 0 -4.88zm139.72 0l68.9 0 0 18.77 -6.7 0 -1.67 -11.32 -1.73 -1.85 -18.68 0 0 68.9 2.03 1.72 8.21 0.59 0 5 -31.83 0 0 -5 8.15 -0.59 2.09 -1.72 0 -68.9 -18.62 0 -1.72 1.85 -1.73 11.32 -6.71 0 0 -18.77zm232.66 79.02c-4.01,1.38 -8.11,2.44 -12.28,3.16 -4.17,0.74 -8.28,1.1 -12.32,1.1 -4,0 -7.76,-0.43 -11.26,-1.26 -3.49,-0.84 -6.66,-2.03 -9.52,-3.62 -6.55,-3.74 -11.71,-8.94 -15.45,-15.63 -3.75,-6.69 -5.63,-13.99 -5.63,-21.93 0,-12.71 3.88,-22.93 11.65,-30.7 7.76,-7.74 17.99,-11.62 30.69,-11.62 3.67,0 7.5,0.34 11.53,1.03 4.04,0.69 8.23,1.73 12.6,3.12l0 18.77 -6.83 0 -1.83 -11.1 -1.63 -2.19c-2.33,-1.08 -4.61,-1.87 -6.82,-2.4 -2.24,-0.51 -4.49,-0.78 -6.79,-0.78 -9.21,0 -16.5,3.14 -21.91,9.42 -5.39,6.27 -8.09,14.81 -8.09,25.6 0,11.48 2.83,20.48 8.45,27.01 5.63,6.52 13.44,9.79 23.39,9.79 1.75,0 3.5,-0.12 5.27,-0.38 1.77,-0.27 3.54,-0.67 5.33,-1.22l1.91 -1.91 2.97 -13.55 6.59 0 0 19.27zm106.21 -74.5c-8.18,0 -14.67,3.26 -19.49,9.79 -4.82,6.55 -7.23,15.38 -7.23,26.55 0,11.12 2.44,19.97 7.29,26.56 4.86,6.61 11.34,9.9 19.43,9.9 8.02,0 14.45,-3.31 19.3,-9.92 4.84,-6.61 7.25,-15.47 7.25,-26.54 0,-11.08 -2.42,-19.9 -7.25,-26.49 -4.86,-6.56 -11.28,-9.85 -19.3,-9.85zm0.02 -6.59c5.18,0 10.04,0.89 14.51,2.68 4.49,1.79 8.58,4.44 12.28,8.02 4.13,4.01 7.25,8.74 9.37,14.16 2.13,5.46 3.19,11.47 3.19,18.06 0,4.53 -0.51,8.8 -1.54,12.8 -1.04,4.01 -2.59,7.78 -4.66,11.3 -3.45,5.92 -8.09,10.53 -13.92,13.84 -5.84,3.31 -12.26,4.97 -19.23,4.97 -5.21,0 -10.1,-0.88 -14.69,-2.67 -4.57,-1.79 -8.64,-4.39 -12.18,-7.8 -4.12,-4.01 -7.25,-8.75 -9.37,-14.23 -2.13,-5.46 -3.19,-11.54 -3.19,-18.2 0,-6.62 1.06,-12.67 3.16,-18.1 2.11,-5.45 5.2,-10.13 9.29,-14.12 3.66,-3.53 7.76,-6.19 12.3,-8 4.55,-1.81 9.45,-2.7 14.69,-2.7zm103.97 83.89l0 -5 7.69 -0.61 2.06 -1.72 0 -67.17 -2.06 -1.73 -7.69 -0.71 0 -4.88 29.75 0 0 4.88 -6.95 0.71 -2.07 1.73 0 68.89 27.54 0 1.72 -1.97 2.07 -14.62 6.34 0 0 22.19 -58.4 0zm140.35 -76.21l0 70.6 9.63 0c11.12,0 19.43,-2.92 24.92,-8.78 5.5,-5.85 8.25,-14.71 8.25,-26.58 0,-11.87 -2.72,-20.71 -8.19,-26.53 -5.45,-5.81 -13.78,-8.72 -24.98,-8.72l-9.63 0zm10.12 -5.6c14.28,0 25.36,3.55 33.2,10.68 7.86,7.14 11.79,17.17 11.79,30.17 0,7.23 -1.28,13.65 -3.83,19.27 -2.57,5.6 -6.36,10.32 -11.4,14.14 -3.56,2.7 -7.61,4.63 -12.07,5.81 -4.49,1.16 -10.39,1.75 -17.68,1.75l-30.13 0 0 -5 6.93 -0.61 2.09 -1.72 0 -67.15 -2.09 -1.73 -6.93 -0.73 0 -4.88 30.13 0z"/>
    </g>
   </g>
  </g>
 </g>
</svg>
