<?xml version="1.0" encoding="UTF-8"?>
<!DOCTYPE svg PUBLIC "-//W3C//DTD SVG 1.1//EN" "http://www.w3.org/Graphics/SVG/1.1/DTD/svg11.dtd">
<!-- Creator: CorelDRAW 2019 (64-Bit) -->
<svg xmlns="http://www.w3.org/2000/svg" xml:space="preserve" width="9.2854mm" height="9.2883mm" version="1.1" style="shape-rendering:geometricPrecision; text-rendering:geometricPrecision; image-rendering:optimizeQuality; fill-rule:evenodd; clip-rule:evenodd"
viewBox="0 0 307.19 307.28"
 xmlns:xlink="http://www.w3.org/1999/xlink"
 xmlns:xodm="http://www.corel.com/coreldraw/odm/2003">
 <defs>
  <style type="text/css">
   <![CDATA[
    .fil0 {fill:white}
   ]]>
  </style>
 </defs>
 <g id="Capa_x0020_1">
  <metadata id="CorelCorpID_0Corel-Layer"/>
  <g id="_984302272">
   <path class="fil0" d="M41.68 161.99c0.04,-1.65 0.41,-2.17 -1.13,-2.17l-40.48 0.05c3.29,81.96 70.76,147.41 153.53,147.41 82.78,0 150.27,-65.47 153.53,-147.46l-39.99 0c-1.22,40.65 -25.49,76.61 -60.54,95.12 -35.89,18.95 -74.91,16.68 -109.79,-3.38 -29.17,-16.78 -55.81,-54.66 -55.13,-89.57z"/>
   <path class="fil0" d="M115.82 130.87l0.39 4.82c0.13,1.26 0.46,2.8 0.78,4.07 2.2,8.71 5.74,14.82 12.32,20.76 1.12,1.01 1.58,1.34 2.72,2.14 0.89,0.63 1.51,1.19 2.74,1.88 8.26,4.65 12.58,5.76 22.5,5.76 4.65,0 10.85,-1.88 14.96,-3.79 1.98,-0.93 4.01,-2.21 5.81,-3.46l5.17 -4.31c4.76,-4.7 8.26,-11.35 10.08,-17.85 0.81,-2.89 0.7,-3.41 0.96,-6.12 0.4,-4.17 0.6,-2.46 0.02,-7.11 -0.32,-2.64 -0.07,-3.22 -0.96,-6.3 -0.77,-2.68 -1.47,-4.72 -2.6,-7.16 -2.18,-4.69 -5.08,-8.32 -8.09,-11.35 -5.33,-5.39 -11.77,-8.22 -18.98,-10.14 -7.27,-1.93 -18.01,-0.59 -24.77,2.7 -4.52,2.2 -8,4.6 -11.48,7.97 -5.86,5.68 -10.09,14.51 -11.14,22.93l-0.42 4.55z"/>
   <path class="fil0" d="M-0 149.08l41.69 0c-0.01,-2.13 0.24,-3.73 0.38,-5.78l1.19 -8.21c0.18,-0.85 0.28,-1.74 0.51,-2.67 0.55,-2.28 1.05,-5.23 1.78,-7.47 2.48,-7.61 2.11,-7.61 5.85,-16.29 0.32,-0.74 0.56,-1.15 0.94,-1.98l5.53 -10.27c2.9,-4.58 5.65,-8.82 9.18,-12.96 0.58,-0.67 0.95,-1.1 1.47,-1.69l2.81 -3.4c-0.44,-0.84 -1.15,-1.34 -1.92,-2.1l-10.58 -10.58c-1.33,-1.37 -2.7,-2.74 -4.25,-4.26l-12.77 -12.77 -0.22 -0.22c-24.87,26.47 -40.46,61.75 -41.59,100.65z"/>
   <path class="fil0" d="M49.27 40.81l0.19 0.18 29.86 29.7c0.6,-0.86 8.95,-7.2 10.2,-8.07 8.52,-5.91 19.14,-11.57 29.05,-14.72 6.74,-2.14 16.02,-4.46 22.88,-5.09l5.86 -0.51c0.9,0.02 2.47,0.29 2.47,-0.67 0,-5.67 0.18,-30.12 0.06,-41.63 -38.79,0.93 -74.02,16.25 -100.57,40.81z"/>
   <path class="fil0" d="M160.62 42.31c12.5,0 28.68,4.75 39.86,9.59 5.21,2.25 11.58,5.78 16.03,8.8 4.1,2.78 10.07,7.24 13.96,10.79l25.28 -25.27 3.88 -3.82c-25.97,-24.77 -60.61,-40.52 -98.9,-42.27l-0.1 42.18z"/>
   <path class="fil0" d="M238.18 78.98l6.72 8.54c0.41,0.56 0.79,1.02 1.33,1.83 0.85,1.28 1.7,2.31 2.6,3.74 1.56,2.51 3.31,5.08 4.66,7.71 1.33,2.59 2.84,5.32 4.12,8.3 1.3,3.03 2.42,5.69 3.51,8.88 2.44,7.18 5.13,17.99 5.62,25.32 0.14,2.13 0.38,3.68 0.38,5.88l40.07 0c-1.09,-38.11 -16.05,-72.74 -40.01,-99.03 -7.73,7.66 -22.11,22.27 -24.65,24.72 -0.84,0.81 -1.35,1.25 -2.08,2.05 -0.47,0.51 -1.72,1.78 -2.27,2.09z"/>
   <path class="fil0" d="M165.07 239.81c-0.05,-1 1.29,-6.8 1.53,-7.91 0.82,-3.73 2.05,-7.45 3.4,-10.99 0.49,-1.28 0.86,-2.09 1.34,-3.29 0.93,-2.33 2.03,-4.2 3.03,-6.22 2.21,-4.48 4.52,-7.55 7.37,-11.59 2.8,-3.95 5.89,-7.09 8.76,-9.96 1.48,-1.49 3.31,-3.25 4.97,-4.53 7.31,-5.63 8.49,-6.72 17.03,-11.18 4.13,-2.16 8.86,-3.85 13.43,-5.32 2.43,-0.78 12.73,-3.37 15.39,-3.08 0.09,1.69 -0.28,2.77 -0.51,4.06 -0.87,5.02 -1.26,6.33 -2.76,11.37 -1.3,4.37 -3.58,9.46 -5.63,13.38 -1.1,2.09 -2.22,4.12 -3.43,6.07 -0.58,0.95 -1.32,2.18 -1.92,2.94l-4.08 5.39c-5.66,6.66 -8.29,9.31 -14.76,14.42l-2.18 1.71c-4.88,3.31 -6.82,4.38 -11.86,7.11 -6.36,3.45 -14.11,5.71 -21.09,7.31 -2.27,0.52 -5.47,1.19 -7.98,1.23l-0.03 -0.94zm-9.6 10.33c15.09,0 27.97,-3.4 39.21,-8.42 5.56,-2.48 10.54,-5.49 15.2,-8.63 4.55,-3.08 6.16,-4.92 9.89,-7.86l5.94 -5.96c0.98,-1.13 1.67,-1.87 2.73,-3.12 5.95,-7.07 9.9,-13.35 13.83,-21.67 2.41,-5.09 4.78,-11.89 6.08,-17.51 1.07,-4.63 2.91,-15.58 2.66,-20.68 -2.08,-0.06 -3.6,0.17 -5.72,0.16l-5.32 0.51c-9.19,1.3 -19.41,3.73 -27.84,7.64 -1.37,0.64 -2.86,1.4 -4.1,1.98 -6.21,2.93 -16.08,9.74 -21.06,14.43 -0.91,0.85 -1.78,1.77 -2.96,2.88 -7.62,7.24 -15.45,18.39 -19.62,27.79 -2.03,4.59 -5.2,12.41 -6.15,17.39 -0.65,3.37 -1.35,6.56 -1.92,10.03 -0.29,1.78 -0.38,3.37 -0.57,5.29 -0.16,1.71 0.03,3.93 -0.29,5.76z"/>
   <path class="fil0" d="M136.48 211.97c3.9,7.52 8.85,21.01 8.85,28.88 -5.61,-0.92 -10.56,-1.66 -15.68,-3.31 -4.71,-1.52 -9.38,-3.22 -13.51,-5.45 -2.62,-1.41 -6.83,-3.58 -9.08,-5.3 -0.82,-0.63 -1.9,-1.29 -2.74,-1.88 -3.07,-2.17 -7.52,-6.03 -10.29,-8.67 -1.43,-1.35 -3.23,-3.48 -4.52,-4.96l-4.27 -5.22c-2.93,-3.9 -4.95,-7.63 -7.28,-11.69 -1.08,-1.88 -1.94,-4.22 -3.02,-6.45 -1.77,-3.64 -6.07,-18.26 -5.84,-22.19 1.78,-0.15 6.21,0.82 8.03,1.24 2.75,0.64 4.97,1.08 7.6,1.9 4.25,1.33 9.61,3.26 13.56,5.43 7.38,4.06 13.56,7.72 19.68,13.62 0.69,0.67 1.64,1.38 2.41,2.22l4.59 4.9c4.25,4.61 8.61,11.32 11.52,16.92zm16.43 19.6c-1.47,-6.66 -5.29,-17.9 -8.75,-23.88 -2.64,-4.57 -3.38,-6.19 -6.72,-11.01l-5.2 -6.72c-2.65,-3.02 -7.09,-7.46 -10.32,-10.35 -7.21,-6.45 -18.72,-13.36 -27.78,-16.75 -4.09,-1.53 -9.18,-3.22 -13.62,-4.12 -2.99,-0.61 -12.43,-2.31 -15.39,-2.29 -1.8,0.02 -3.81,-0.33 -5.43,-0.11 -0.35,3.14 0.15,7.84 0.6,10.74 1.54,10.06 3.33,16.94 7.67,26.84 2.54,5.8 4.97,9.42 8.38,14.74 2.2,3.43 3.31,4.28 4.91,6.52 1.29,1.81 5.01,5.65 6.85,7.5 3.1,3.12 10.73,9.59 14.35,11.66 0.56,0.32 1.29,0.74 1.82,1.09 3.22,2.14 5.73,3.42 9.2,5.15 5.29,2.64 10.94,4.73 16.75,6.31 4.83,1.32 12.01,2.71 17.33,2.91 1.17,0.04 1.33,0.35 2.43,0.35l5.41 -0.06c-0.67,-1.31 -0.52,-3.72 -0.66,-5.59l-1.82 -12.92z"/>
  </g>
 </g>
</svg>
