<?xml version="1.0" encoding="UTF-8"?>
<!DOCTYPE svg PUBLIC "-//W3C//DTD SVG 1.1//EN" "http://www.w3.org/Graphics/SVG/1.1/DTD/svg11.dtd">
<!-- Creator: CorelDRAW 2019 (64-Bit) -->
<svg xmlns="http://www.w3.org/2000/svg" xml:space="preserve" width="6.6939mm" height="8.1636mm" version="1.1" style="shape-rendering:geometricPrecision; text-rendering:geometricPrecision; image-rendering:optimizeQuality; fill-rule:evenodd; clip-rule:evenodd"
viewBox="0 0 460.03 561.03"
 xmlns:xlink="http://www.w3.org/1999/xlink"
 xmlns:xodm="http://www.corel.com/coreldraw/odm/2003">
 <defs>
  <style type="text/css">
   <![CDATA[
    .str0 {stroke:white;stroke-width:9.08;stroke-miterlimit:22.9256}
    .fil2 {fill:none}
    .fil1 {fill:#142142}
    .fil0 {fill:white;fill-rule:nonzero}
   ]]>
  </style>
      <mask id="id0">
  <linearGradient id="id1" gradientUnits="userSpaceOnUse" x1="328.61" y1="-67.61" x2="328.64" y2="468.36">
   <stop offset="0" style="stop-opacity:1; stop-color:white"/>
   <stop offset="1" style="stop-opacity:0; stop-color:white"/>
  </linearGradient>
       <rect style="fill:url(#id1)" x="13.39" y="4.54" width="421.83" height="421.83"/>
      </mask>
 </defs>
 <g id="Capa_x0020_1">
  <metadata id="CorelCorpID_0Corel-Layer"/>
  <g id="_987355328">
   <path class="fil0" d="M-0 557.21l0 -18.55 6.23 0 1.25 12.12 1.39 1.81c1.55,0.79 3.31,1.4 5.29,1.81 2.01,0.41 4.17,0.61 6.49,0.61 4.9,0 8.81,-1.14 11.68,-3.43 2.87,-2.28 4.29,-5.36 4.29,-9.25 0,-5.39 -5.04,-10.23 -15.14,-14.54 -1.09,-0.47 -1.94,-0.85 -2.52,-1.07 -7.21,-3.13 -11.98,-6.03 -14.3,-8.72 -2.34,-2.71 -3.5,-6.19 -3.5,-10.48 0,-6.05 2.22,-10.94 6.67,-14.65 4.45,-3.73 10.34,-5.59 17.69,-5.59 2.94,0 5.91,0.25 8.87,0.74 2.98,0.49 6,1.24 9.09,2.23l0 16.34 -5.48 0 -1.62 -10.06 -1.55 -1.76c-1.35,-0.76 -2.81,-1.32 -4.38,-1.67 -1.58,-0.36 -3.31,-0.54 -5.15,-0.54 -4.4,0 -7.88,1.14 -10.45,3.43 -2.58,2.29 -3.87,5.38 -3.87,9.31 0,2.85 0.9,5.2 2.71,7.09 1.79,1.86 5.82,4.13 12.07,6.77 0.6,0.25 1.46,0.6 2.63,1.04 6.16,2.41 10.59,4.94 13.3,7.61 1.55,1.51 2.71,3.26 3.48,5.21 0.77,1.95 1.16,4.1 1.16,6.38 0,6.36 -2.5,11.48 -7.48,15.39 -4.98,3.88 -11.59,5.83 -19.83,5.83 -3.68,0 -7.14,-0.3 -10.38,-0.88 -3.26,-0.58 -6.12,-1.4 -8.64,-2.52zm55.84 2.13l0 -4.33 5.99 -0.52 1.81 -1.5 0 -58.11 -1.81 -1.49 -5.99 -0.63 0 -4.23 50.54 0 0 15.41 -5.91 0 -1.49 -8.95 -1.44 -1.6 -24.39 0 0 26.69 17.3 0 1.49 -1.49 1.04 -7.68 4.96 0 0 23.21 -4.96 0 -1.04 -7.59 -1.49 -1.58 -17.3 0 0 29.54 28.26 0 1.5 -1.71 1.79 -10.64 5.48 0 0 17.2 -54.34 0zm88.93 -60.59l-10.41 29.25 21.3 0 -10.89 -29.25zm-1.65 -11.06l6.96 0 25.3 66.04 6.35 1.28 0 4.33 -23.97 0 0 -4.33 6.54 -0.51 0.78 -1.49 -7.64 -20.16 -24.88 0 -7.53 20.16 1.09 1.49 6.84 0.51 0 4.33 -20.67 0 0 -4.33 6.09 -1.28 24.73 -66.04zm40.99 71.64l0 -4.33 5.98 -0.51 1.79 -1.49 0 -58.13 -1.79 -1.49 -6.86 -0.63 0 -4.23 50.65 0 0 16.47 -5.81 0 -1.6 -10.01 -1.39 -1.6 -23.7 0 0 27.75 17.3 0 1.49 -1.5 1.04 -7.68 4.96 0 0 23.32 -4.96 0 -1.04 -7.68 -1.49 -1.6 -17.3 0 0 27.02 1.79 1.49 7.49 0.51 0 4.33 -26.55 0zm91.8 -66.9c-7.07,0 -12.69,2.83 -16.86,8.47 -4.16,5.66 -6.26,13.31 -6.26,22.97 0,9.62 2.11,17.29 6.32,22.99 4.2,5.71 9.81,8.56 16.81,8.56 6.95,0 12.51,-2.87 16.71,-8.58 4.19,-5.72 6.28,-13.38 6.28,-22.97 0,-9.59 -2.1,-17.22 -6.28,-22.91 -4.2,-5.68 -9.76,-8.53 -16.71,-8.53zm0.02 -5.7c4.48,0 8.69,0.78 12.56,2.32 3.88,1.55 7.42,3.86 10.62,6.95 3.57,3.46 6.28,7.56 8.11,12.26 1.85,4.71 2.76,9.92 2.76,15.61 0,3.92 -0.44,7.61 -1.34,11.08 -0.89,3.46 -2.23,6.73 -4.03,9.78 -2.99,5.12 -7,9.11 -12.05,11.98 -5.04,2.87 -10.6,4.31 -16.63,4.31 -4.5,0 -8.74,-0.78 -12.71,-2.32 -3.96,-1.55 -7.48,-3.8 -10.54,-6.76 -3.57,-3.46 -6.28,-7.56 -8.11,-12.31 -1.85,-4.73 -2.76,-9.99 -2.76,-15.76 0,-5.73 0.91,-10.95 2.73,-15.65 1.83,-4.71 4.5,-8.78 8.03,-12.23 3.17,-3.06 6.72,-5.36 10.65,-6.93 3.94,-1.57 8.17,-2.34 12.71,-2.34zm77.11 5.7c-7.07,0 -12.69,2.83 -16.86,8.47 -4.16,5.66 -6.26,13.31 -6.26,22.97 0,9.62 2.11,17.29 6.32,22.99 4.2,5.71 9.81,8.56 16.81,8.56 6.95,0 12.51,-2.87 16.71,-8.58 4.19,-5.72 6.28,-13.38 6.28,-22.97 0,-9.59 -2.1,-17.22 -6.28,-22.91 -4.2,-5.68 -9.76,-8.53 -16.71,-8.53zm0.02 -5.7c4.48,0 8.69,0.78 12.56,2.32 3.88,1.55 7.42,3.86 10.62,6.95 3.57,3.46 6.28,7.56 8.11,12.26 1.85,4.71 2.76,9.92 2.76,15.61 0,3.92 -0.44,7.61 -1.34,11.08 -0.89,3.46 -2.23,6.73 -4.03,9.78 -2.99,5.12 -7,9.11 -12.05,11.98 -5.04,2.87 -10.6,4.31 -16.63,4.31 -4.5,0 -8.74,-0.78 -12.71,-2.32 -3.96,-1.55 -7.48,-3.8 -10.54,-6.76 -3.57,-3.46 -6.28,-7.56 -8.11,-12.31 -1.85,-4.73 -2.76,-9.99 -2.76,-15.76 0,-5.73 0.91,-10.95 2.73,-15.65 1.83,-4.71 4.5,-8.78 8.03,-12.23 3.17,-3.06 6.72,-5.36 10.65,-6.93 3.94,-1.57 8.17,-2.34 12.71,-2.34zm59.27 6.65l0 61.09 8.34 0c9.61,0 16.81,-2.54 21.56,-7.6 4.77,-5.06 7.14,-12.73 7.14,-23 0,-10.27 -2.36,-17.92 -7.09,-22.95 -4.71,-5.03 -11.92,-7.55 -21.61,-7.55l-8.34 0zm8.76 -4.86c12.36,0 21.95,3.08 28.74,9.25 6.8,6.18 10.2,14.86 10.2,26.1 0,6.26 -1.11,11.82 -3.33,16.67 -2.21,4.85 -5.5,8.93 -9.87,12.24 -3.07,2.34 -6.58,4.01 -10.45,5.03 -3.88,1 -8.98,1.51 -15.3,1.51l-26.06 0 0 -4.33 5.99 -0.52 1.81 -1.5 0 -58.11 -1.81 -1.49 -5.99 -0.63 0 -4.23 26.06 0z"/>
   <g>
    <g>
     <path class="fil1" style="mask:url(#id0)" d="M65.14 4.54l318.32 0c28.47,0 51.76,23.28 51.76,51.76l0 318.32c0,28.47 -23.28,51.76 -51.76,51.76l-318.32 0c-28.47,0 -51.76,-23.28 -51.76,-51.76l0 -318.32c0,-28.47 23.28,-51.76 51.76,-51.76z"/>
     <path id="1" class="fil2 str0" d="M65.14 4.54l318.32 0c28.47,0 51.76,23.28 51.76,51.76l0 318.32c0,28.47 -23.28,51.76 -51.76,51.76l-318.32 0c-28.47,0 -51.76,-23.28 -51.76,-51.76l0 -318.32c0,-28.47 23.28,-51.76 51.76,-51.76z"/>
    </g>
    <g>
     <path class="fil0" d="M107.52 210.19l5 -10.18 0 0 0.41 0.19 0.45 0.21 0.43 0.19 0.39 0.16 0.4 0.15 0.4 0.14 0.39 0.12 0.38 0.12 0.37 0.1 0.43 0.11 0.36 0.1 0.4 0.08 0.38 0.08 0.38 0.06 0.43 0.07 0.39 0.05 0.43 0.05 0.38 0.04 0.43 0.03 0.48 0.03 0.43 0.03 0.45 0.02 0.48 0.02 0.49 0.02 0.49 0.01 0.5 0.01 0.47 0.01 0.56 0 0.56 0.01 0.54 0 0.58 0 0.59 0 0 11.35 -0.59 0 -0.58 0 -0.6 0 -0.56 -0.01 -0.56 0 -0.63 -0.01 -0.57 -0.01 -0.58 -0.02 -0.56 -0.02 -0.56 -0.02 -0.6 -0.03 -0.59 -0.03 -0.55 -0.05 -0.59 -0.05 -0.63 -0.07 -0.58 -0.07 -0.61 -0.08 -0.58 -0.1 -0.62 -0.1 -0.6 -0.12 -0.6 -0.13 -0.65 -0.15 -0.57 -0.15 -0.63 -0.17 -0.63 -0.2 -0.63 -0.21 -0.63 -0.23 -0.63 -0.23 -0.65 -0.27 -0.62 -0.27 -0.62 -0.27 -0.66 -0.32 0 0zm0 0c-2.81,-1.38 -3.97,-4.78 -2.59,-7.59 1.38,-2.81 4.78,-3.97 7.59,-2.59l-5 10.18zm-34.96 -23.24l6.35 -9.4 0.02 0.01 0.56 0.38 0.67 0.46 0.78 0.53 0.84 0.58 0.94 0.64 1.02 0.71 1.08 0.74 1.14 0.78 1.2 0.82 1.26 0.87 1.28 0.87 1.33 0.91 1.35 0.92 1.35 0.93 1.38 0.93 1.38 0.94 1.37 0.93 1.36 0.91 1.35 0.91 1.31 0.88 1.29 0.85 1.25 0.82 1.19 0.79 1.15 0.75 1.07 0.69 0.99 0.64 0.93 0.58 0.81 0.51 0.72 0.43 0.59 0.36 0.43 0.23 0.25 0.14 -5 10.18 -0.66 -0.34 -0.71 -0.4 -0.76 -0.45 -0.83 -0.5 -0.91 -0.58 -0.97 -0.61 -1.06 -0.68 -1.11 -0.72 -1.16 -0.76 -1.23 -0.8 -1.25 -0.84 -1.31 -0.87 -1.35 -0.91 -1.35 -0.91 -1.37 -0.93 -1.4 -0.94 -1.38 -0.94 -1.38 -0.93 -1.38 -0.94 -1.35 -0.92 -1.33 -0.91 -1.29 -0.89 -1.24 -0.85 -1.2 -0.82 -1.15 -0.8 -1.09 -0.75 -1 -0.69 -0.94 -0.64 -0.87 -0.6 -0.75 -0.52 -0.65 -0.45 -0.55 -0.38 0.02 0.01zm-0.02 -0.01c-2.58,-1.76 -3.25,-5.3 -1.49,-7.88 1.76,-2.58 5.3,-3.25 7.88,-1.49l-6.39 9.37zm0.01 -13.68l6.36 4.3 -6.35 9.4 -6.36 -4.3 6.31 -9.44 0.04 0.03zm-6.35 9.4c-2.59,-1.75 -3.28,-5.28 -1.53,-7.88 1.75,-2.59 5.28,-3.28 7.88,-1.53l-6.35 9.4zm-0.96 -0.52l5.92 -9.68 -0.03 -0.02 0.1 0.05 -0.08 -0.04 0.04 0.02 0.04 0.03 -0.28 -0.16 0.22 0.12 0.24 0.14 -0.35 -0.19 0.03 0.01 0.42 0.23 -0.35 -0.19 -0.39 -0.18 0.46 0.21 0.25 0.14 -0.43 -0.21 0.49 0.24 0.03 0.02 -0.61 -0.3 0.68 0.32 0.03 0.02 -0.19 -0.1 0.42 0.23 0.03 0.02 -0.35 -0.19 0.42 0.23 0.16 0.1 -0.29 -0.17 0.36 0.21 0.14 0.1 0.04 0.03 -0.13 -0.08 0.21 0.12 -6.27 9.47 0.11 0.07 -0.21 -0.14 -0.04 -0.03 0.06 0.04 0.3 0.17 -0.37 -0.21 0.09 0.05 0.35 0.2 -0.42 -0.23 -0.03 -0.02 0.35 0.19 -0.25 -0.13 -0.03 -0.02 0.61 0.3 -0.68 -0.32 -0.03 -0.02 0.42 0.21 -0.48 -0.24 0.19 0.1 0.39 0.18 -0.46 -0.21 -0.42 -0.23 0.35 0.19 -0.03 -0.01 -0.42 -0.23 0.17 0.1 0.14 0.08 -0.36 -0.2 -0.04 -0.03 -0.04 -0.02 -0.16 -0.1 0 0 -0.03 -0.02zm0.03 0.02c-2.68,-1.61 -3.55,-5.11 -1.93,-7.79 1.61,-2.68 5.11,-3.55 7.79,-1.93l-5.86 9.72zm-1.43 -1l6.61 -9.22 -0.01 -0.01 0.08 0.06 0.04 0.03 0.03 0.03 -0.25 -0.17 0.25 0.16 0.32 0.25 0.03 0.03 -0.25 -0.19 0.03 0.02 0.32 0.25 -0.03 -0.02 0.03 0.02 -0.19 -0.14 0.03 0.02 0.26 0.2 0.03 0.02 0.03 0.03 0.03 0.02 -0.19 -0.14 -0.08 -0.05 0.36 0.26 0.03 0.03 -0.31 -0.22 0.03 0.02 0.03 0.02 0.03 0.02 0.03 0.02 0.03 0.02 0.03 0.02 0.03 0.02 0.03 0.02 -0.15 -0.1 -5.92 9.68 -0.22 -0.14 -0.03 -0.02 -0.03 -0.02 -0.03 -0.02 -0.03 -0.02 -0.03 -0.02 -0.03 -0.02 -0.03 -0.02 -0.03 -0.02 -0.36 -0.26 -0.03 -0.03 0.31 0.22 -0.14 -0.09 -0.26 -0.2 -0.03 -0.02 -0.03 -0.03 -0.03 -0.02 0.19 0.14 -0.03 -0.02 -0.26 -0.2 -0.03 -0.02 -0.1 -0.08 0.25 0.19 -0.03 -0.02 -0.32 -0.25 -0.03 -0.03 0.25 0.19 0.18 0.12 -0.34 -0.23 -0.03 -0.03 -0.04 -0.03 0.01 0.01 -0.01 -0.01zm0.01 0.01c-2.55,-1.81 -3.15,-5.37 -1.33,-7.92 1.81,-2.55 5.37,-3.15 7.92,-1.33l-6.58 9.25zm-5.83 -2.74l-2.27 -11.12 0 0 0.6 -0.11 0.62 -0.08 0.67 -0.05 0.63 -0.01 0.57 0.01 0.57 0.03 0.57 0.05 0.58 0.08 0.56 0.1 0.5 0.11 0.56 0.14 0.56 0.16 0.43 0.14 0.48 0.17 0.52 0.2 0.43 0.19 0.42 0.19 0.45 0.21 0.43 0.22 0.41 0.21 0.39 0.22 0.42 0.23 0.39 0.24 0.3 0.19 0.36 0.23 0.36 0.23 0.38 0.25 0.31 0.21 0.27 0.19 0.34 0.24 0.31 0.21 0.28 0.21 -6.61 9.22 -0.25 -0.18 -0.25 -0.19 -0.21 -0.14 -0.3 -0.2 -0.25 -0.19 -0.21 -0.13 -0.23 -0.15 -0.24 -0.14 -0.3 -0.19 -0.21 -0.13 -0.21 -0.12 -0.23 -0.12 -0.23 -0.12 -0.21 -0.11 -0.19 -0.09 -0.23 -0.1 -0.21 -0.09 -0.14 -0.06 -0.19 -0.06 -0.23 -0.08 -0.12 -0.04 -0.12 -0.03 -0.19 -0.04 -0.12 -0.02 -0.11 -0.01 -0.12 -0.01 -0.13 -0.01 -0.12 0 -0.07 0 -0.01 0 -0.08 0.01 -0.1 0.01 0 0zm0 0c-3.07,0.63 -6.07,-1.36 -6.69,-4.43 -0.63,-3.07 1.36,-6.07 4.43,-6.69l2.27 11.12zm-1.72 2.88l-11.35 0 0 0 0.01 -0.58 0.03 -0.53 0.05 -0.58 0.07 -0.58 0.1 -0.58 0.12 -0.57 0.11 -0.46 0.15 -0.56 0.18 -0.58 0.2 -0.56 0.23 -0.56 0.21 -0.45 0.26 -0.54 0.31 -0.55 0.28 -0.47 0.33 -0.49 0.34 -0.47 0.39 -0.49 0.39 -0.44 0.43 -0.45 0.46 -0.43 0.44 -0.38 0.49 -0.38 0.52 -0.36 0.53 -0.33 0.54 -0.32 0.6 -0.3 0.54 -0.24 0.6 -0.23 0.63 -0.21 0.64 -0.19 0.63 -0.14 2.27 11.12 -0.12 0.03 -0.08 0.02 -0.09 0.03 -0.09 0.04 -0.12 0.05 -0.03 0.01 -0.08 0.04 -0.06 0.04 -0.06 0.05 -0.06 0.04 -0.08 0.08 -0.05 0.04 -0.04 0.05 -0.08 0.08 -0.03 0.05 -0.07 0.09 -0.05 0.08 -0.08 0.12 -0.03 0.05 -0.04 0.1 -0.08 0.18 -0.04 0.1 -0.03 0.1 -0.04 0.11 -0.03 0.12 -0.05 0.24 -0.03 0.13 -0.01 0.13 -0.03 0.14 -0.01 0.15 -0.01 0.21 0 0.16 0 0zm0 0c0,3.13 -2.54,5.68 -5.68,5.68 -3.13,0 -5.68,-2.54 -5.68,-5.68l11.35 0zm5.55 15.33l-10.58 4.1 0 0 -0.16 -0.41 -0.19 -0.46 -0.2 -0.47 -0.19 -0.44 -0.21 -0.47 -0.23 -0.52 -0.23 -0.52 -0.23 -0.52 -0.24 -0.52 -0.25 -0.55 -0.25 -0.56 -0.25 -0.54 -0.27 -0.58 -0.27 -0.62 -0.25 -0.59 -0.25 -0.59 -0.24 -0.58 -0.26 -0.65 -0.23 -0.64 -0.23 -0.62 -0.24 -0.68 -0.21 -0.65 -0.2 -0.64 -0.21 -0.72 -0.16 -0.69 -0.16 -0.68 -0.15 -0.75 -0.12 -0.72 -0.1 -0.72 -0.08 -0.8 -0.03 -0.76 -0.02 -0.76 11.35 0 0.01 0.34 0.02 0.34 0.03 0.31 0.05 0.38 0.06 0.39 0.07 0.36 0.1 0.43 0.11 0.43 0.11 0.39 0.14 0.47 0.15 0.47 0.14 0.43 0.19 0.49 0.18 0.47 0.19 0.47 0.21 0.53 0.22 0.52 0.21 0.51 0.21 0.48 0.23 0.51 0.25 0.54 0.25 0.53 0.24 0.52 0.25 0.55 0.25 0.54 0.25 0.54 0.23 0.53 0.25 0.56 0.25 0.59 0.23 0.54 0.22 0.54 0.23 0.58 0 0zm0 0c1.13,2.92 -0.32,6.21 -3.24,7.34 -2.92,1.13 -6.21,-0.32 -7.34,-3.24l10.58 -4.1zm4.76 10.66l-10.45 4.43 0 0 -0.14 -0.32 -0.13 -0.3 -0.15 -0.34 -0.14 -0.33 -0.13 -0.29 -0.16 -0.34 -0.14 -0.32 -0.16 -0.34 -0.15 -0.34 -0.13 -0.27 -0.16 -0.33 -0.19 -0.4 -0.14 -0.32 -0.14 -0.29 -0.16 -0.34 -0.18 -0.37 -0.15 -0.34 -0.16 -0.33 -0.16 -0.36 -0.16 -0.34 -0.16 -0.36 -0.15 -0.33 -0.16 -0.36 -0.16 -0.36 -0.16 -0.38 -0.16 -0.36 -0.15 -0.35 -0.15 -0.36 -0.16 -0.39 -0.16 -0.38 -0.14 -0.36 -0.15 -0.39 10.58 -4.1 0.12 0.31 0.13 0.32 0.12 0.3 0.12 0.3 0.14 0.32 0.14 0.32 0.13 0.31 0.14 0.3 0.14 0.32 0.14 0.32 0.15 0.33 0.14 0.31 0.16 0.34 0.14 0.32 0.16 0.33 0.15 0.34 0.14 0.29 0.16 0.34 0.18 0.37 0.16 0.36 0.13 0.27 0.16 0.33 0.19 0.4 0.15 0.34 0.16 0.34 0.16 0.36 0.16 0.34 0.17 0.38 0.16 0.36 0.15 0.34 0.17 0.39 0.15 0.37 0 0zm0 0c1.22,2.88 -0.13,6.22 -3.01,7.44 -2.88,1.22 -6.22,-0.13 -7.44,-3.01l10.45 -4.43zm6.95 20.04l-11.35 0 0 0 0 0.03 -0.01 -0.11 -0.02 -0.19 -0.05 -0.24 -0.08 -0.34 -0.1 -0.37 -0.12 -0.41 -0.14 -0.45 -0.16 -0.51 -0.18 -0.54 -0.19 -0.54 -0.21 -0.58 -0.21 -0.58 -0.23 -0.58 -0.25 -0.61 -0.24 -0.6 -0.25 -0.63 -0.27 -0.65 -0.25 -0.6 -0.26 -0.6 -0.27 -0.63 -0.26 -0.6 -0.27 -0.6 -0.26 -0.6 -0.25 -0.58 -0.24 -0.55 -0.23 -0.54 -0.23 -0.52 -0.23 -0.52 -0.2 -0.47 -0.19 -0.43 -0.19 -0.45 10.45 -4.43 0.15 0.36 0.19 0.43 0.2 0.46 0.21 0.47 0.23 0.52 0.25 0.55 0.25 0.58 0.25 0.59 0.26 0.59 0.27 0.62 0.27 0.64 0.28 0.65 0.29 0.67 0.28 0.69 0.27 0.65 0.28 0.67 0.28 0.7 0.26 0.68 0.27 0.69 0.25 0.69 0.25 0.67 0.24 0.69 0.22 0.66 0.21 0.65 0.21 0.67 0.19 0.67 0.16 0.66 0.14 0.65 0.13 0.68 0.1 0.69 0.07 0.69 0.03 0.78 0 0zm0 0c0,3.13 -2.54,5.68 -5.68,5.68 -3.13,0 -5.68,-2.54 -5.68,-5.68l11.35 0zm-1.88 5.3l-9.76 -5.81 0.01 -0.01 0.12 -0.21 0.17 -0.25 0.03 -0.04 0.12 -0.18 0.03 -0.03 0.12 -0.18 0.13 -0.17 -0.06 0.08 0.13 -0.18 0.02 -0.02 0.04 -0.06 0.14 -0.19 -0.09 0.12 -0.08 0.12 0.03 -0.05 0.04 -0.06 -0.1 0.15 -0.15 0.28 -0.08 0.17 -0.01 0.04 -0.01 0.02 -0.05 0.16 -0.06 0.18 -0.02 0.07 -0.05 0.21 -0.04 0.19 0.01 -0.02 -0.02 0.15 -0.01 0.12 0.01 -0.07 0 0.09 -0.01 0.07 11.35 0 -0.01 0.29 -0.01 0.31 -0.01 0.12 -0.03 0.32 -0.05 0.33 -0.02 0.16 -0.07 0.34 -0.09 0.37 -0.06 0.21 -0.1 0.32 -0.11 0.3 -0.07 0.16 -0.07 0.16 -0.14 0.3 -0.22 0.41 -0.16 0.26 -0.04 0.06 -0.03 0.05 -0.16 0.25 -0.17 0.23 0.04 -0.06 -0.04 0.06 -0.08 0.1 0.03 -0.04 -0.16 0.21 0.02 -0.03 0.02 -0.03 -0.08 0.12 0.01 -0.01 -0.08 0.12 0.05 -0.08 0.01 -0.01 0.01 -0.01zm-0.01 0.01c-1.61,2.69 -5.1,3.57 -7.79,1.96 -2.69,-1.61 -3.57,-5.1 -1.96,-7.79l9.74 5.83zm-1.46 2.1l-9.62 -6.02 -0.01 0.01 0.08 -0.12 0.12 -0.18 0.01 -0.01 0.11 -0.18 0.05 -0.06 0.01 -0.01 0.25 -0.36 0.05 -0.06 0.01 -0.01 0.04 -0.05 0.04 -0.05 0.01 -0.01 0.03 -0.05 0.08 -0.1 0.15 -0.2 0.04 -0.05 -0.07 0.09 0.15 -0.2 0.04 -0.05 -0.07 0.09 -0.05 0.08 0.04 -0.06 0.17 -0.23 -0.13 0.19 0.04 -0.07 0.05 -0.06 -0.03 0.04 0.08 -0.12 -0.08 0.12 0.08 -0.14 0.05 -0.08 -0.02 0.02 9.76 5.81 -0.12 0.19 -0.05 0.08 -0.01 0.02 -0.17 0.27 -0.01 0.01 -0.11 0.18 -0.05 0.06 -0.04 0.07 -0.23 0.31 0.09 -0.12 -0.04 0.06 -0.14 0.19 -0.15 0.2 -0.04 0.05 0.07 -0.09 -0.15 0.2 -0.04 0.05 0.07 -0.09 -0.01 0.01 -0.03 0.05 -0.08 0.1 -0.04 0.05 -0.04 0.05 -0.08 0.1 -0.05 0.06 0.17 -0.25 -0.08 0.12 -0.05 0.06 0.03 -0.04 -0.08 0.12 0.02 -0.03 -0.02 0.03 -0.01 0.01zm0.01 -0.01c-1.66,2.66 -5.16,3.47 -7.82,1.81 -2.66,-1.66 -3.47,-5.16 -1.81,-7.82l9.63 6.01zm-17.64 26.62l-11.35 0 0 0 0.08 -1.32 0.2 -1.22 0.28 -1.16 0.36 -1.15 0.43 -1.13 0.47 -1.08 0.52 -1.08 0.58 -1.09 0.6 -1.07 0.64 -1.09 0.67 -1.09 0.7 -1.09 0.73 -1.09 0.74 -1.09 0.76 -1.09 0.78 -1.09 0.79 -1.09 0.8 -1.07 0.78 -1.05 0.79 -1.06 0.79 -1.04 0.78 -1.02 0.76 -1 0.73 -0.97 0.71 -0.93 0.68 -0.91 0.66 -0.89 0.61 -0.83 0.56 -0.79 0.52 -0.74 0.45 -0.68 0.41 -0.63 9.62 6.02 -0.53 0.83 -0.58 0.86 -0.61 0.88 -0.65 0.9 -0.67 0.91 -0.69 0.92 -0.71 0.96 -0.74 0.98 -0.76 1 -0.76 1 -0.76 1.01 -0.76 1.01 -0.76 1.02 -0.77 1.04 -0.76 1.02 -0.74 1.01 -0.72 1 -0.69 1 -0.67 0.98 -0.63 0.96 -0.6 0.94 -0.56 0.91 -0.52 0.87 -0.47 0.84 -0.4 0.77 -0.35 0.72 -0.3 0.67 -0.21 0.55 -0.14 0.45 -0.09 0.36 -0.03 0.23 -0.01 0.04 0 0zm0 0c0,3.13 -2.54,5.68 -5.68,5.68 -3.13,0 -5.68,-2.54 -5.68,-5.68l11.35 0zm-11.35 2.04l0 -2.04 11.35 0 0 2.04 0 0 -11.35 0zm11.35 0c0,3.13 -2.54,5.68 -5.68,5.68 -3.13,0 -5.68,-2.54 -5.68,-5.68l11.35 0zm-1.31 -1.4l0 11.35 0 0 -0.49 -0.01 -0.58 -0.05 -0.48 -0.07 -0.49 -0.1 -0.49 -0.12 -0.45 -0.13 -0.47 -0.18 -0.38 -0.15 -0.46 -0.21 -0.44 -0.23 -0.47 -0.28 -0.28 -0.19 -0.35 -0.23 -0.43 -0.33 -0.41 -0.35 -0.29 -0.28 -0.25 -0.24 -0.41 -0.45 -0.3 -0.36 -0.25 -0.33 -0.23 -0.34 -0.3 -0.46 -0.23 -0.44 -0.19 -0.37 -0.21 -0.49 -0.18 -0.47 -0.14 -0.45 -0.14 -0.48 -0.12 -0.58 -0.06 -0.48 -0.05 -0.49 -0.02 -0.58 11.35 0 -0.01 -0.16 -0.01 -0.08 -0.01 -0.07 -0.03 -0.17 -0.03 -0.08 -0.01 -0.05 -0.03 -0.08 -0.05 -0.11 0 0 -0.04 -0.07 -0.06 -0.1 0 0 0.01 0.01 -0.03 -0.03 -0.12 -0.13 0.05 0.05 0.01 0.02 -0.08 -0.08 -0.1 -0.07 0.01 0 0.06 0.05 -0.1 -0.06 -0.07 -0.03 -0.08 -0.03 0 0 -0.08 -0.03 -0.05 -0.02 -0.09 -0.01 -0.08 -0.03 -0.07 0 -0.17 -0.02 -0.08 0 0 0zm0 0c3.13,0 5.68,2.54 5.68,5.68 0,3.13 -2.54,5.68 -5.68,5.68l0 -11.35zm17.5 -5.53l3.97 10.64 0.01 -0.01 -0.53 0.2 -0.52 0.21 -0.54 0.21 -0.56 0.24 -0.57 0.23 -0.56 0.24 -0.61 0.25 -0.58 0.24 -0.6 0.25 -0.64 0.26 -0.61 0.25 -0.62 0.25 -0.67 0.27 -0.63 0.24 -0.65 0.25 -0.68 0.25 -0.69 0.25 -0.67 0.22 -0.67 0.23 -0.71 0.22 -0.71 0.21 -0.73 0.2 -0.71 0.18 -0.75 0.19 -0.77 0.16 -0.74 0.14 -0.75 0.12 -0.78 0.11 -0.8 0.09 -0.8 0.06 -0.78 0.03 -0.81 0.02 0 -11.35 0.44 -0.01 0.47 -0.02 0.43 -0.03 0.45 -0.05 0.48 -0.07 0.5 -0.08 0.51 -0.1 0.48 -0.1 0.5 -0.12 0.53 -0.14 0.52 -0.14 0.54 -0.16 0.53 -0.16 0.56 -0.19 0.56 -0.19 0.54 -0.19 0.56 -0.2 0.57 -0.22 0.59 -0.23 0.55 -0.21 0.59 -0.25 0.6 -0.23 0.56 -0.23 0.6 -0.25 0.61 -0.25 0.57 -0.23 0.6 -0.25 0.6 -0.24 0.59 -0.24 0.62 -0.25 0.62 -0.25 0.61 -0.23 0.01 -0.01zm-0.01 0.01c2.93,-1.1 6.21,0.38 7.31,3.31 1.1,2.93 -0.38,6.21 -3.31,7.31l-4 -10.62zm3.78 -1.7l4.56 10.39 0 0 -0.1 0.04 -0.13 0.06 -0.13 0.05 0.03 -0.01 -0.23 0.11 -0.13 0.05 -0.07 0.04 -0.18 0.08 -0.13 0.06 -0.07 0.03 -0.01 0.01 -0.23 0.12 -0.12 0.05 -0.12 0.06 -0.25 0.11 0 0 -0.12 0.06 -0.12 0.05 -0.12 0.06 -0.25 0.11 -0.17 0.08 -0.13 0.05 -0.08 0.03 -0.17 0.08 -0.13 0.05 -0.12 0.05 -0.19 0.08 -0.13 0.05 -0.25 0.1 -0.13 0.05 -0.18 0.08 -0.19 0.07 -3.97 -10.64 0.09 -0.03 0.08 -0.03 0.13 -0.05 0.01 -0.01 0.13 -0.05 0.08 -0.03 0.12 -0.05 0.13 -0.05 0.08 -0.03 0.17 -0.08 0.13 -0.05 0.08 -0.03 0 0 0.12 -0.06 0.12 -0.05 0.12 -0.06 0.25 -0.11 0 0 0.12 -0.06 0.12 -0.05 0.01 -0.01 0.23 -0.12 0.18 -0.08 0.13 -0.06 0.07 -0.03 0.18 -0.08 0.13 -0.05 0.01 -0.01 0.3 -0.14 0.13 -0.05 0.13 -0.06 0.16 -0.07 0 0zm0 0c2.87,-1.26 6.22,0.05 7.48,2.91 1.26,2.87 -0.05,6.22 -2.91,7.48l-4.56 -10.39zm1.66 -0.86l5.18 10.1 0.03 -0.01 -0.03 0.02 -0.07 0.03 -0.17 0.09 -0.06 0.03 0.28 -0.15 -0.28 0.16 -0.18 0.09 0.28 -0.15 -0.15 0.09 -0.19 0.1 -0.06 0.03 -0.17 0.09 0.06 -0.03 -0.06 0.03 0.08 -0.04 -0.19 0.1 -0.06 0.03 -0.05 0.03 -0.3 0.14 0.18 -0.09 -0.18 0.1 0.05 -0.03 -0.17 0.1 -0.17 0.08 0.04 -0.01 -0.16 0.08 -0.17 0.08 -0.07 0.03 0.14 -0.06 -0.27 0.13 -0.16 0.07 -0.03 0.01 -4.56 -10.39 0.12 -0.05 -0.03 0.01 -0.14 0.06 0.27 -0.13 0.07 -0.03 -0.03 0.01 -0.04 0.02 0.16 -0.08 -0.03 0.02 -0.06 0.03 0.18 -0.09 -0.05 0.03 0.29 -0.14 -0.17 0.09 0.05 -0.03 0.06 -0.03 -0.08 0.03 0.19 -0.1 0.06 -0.03 0.17 -0.09 -0.06 0.03 0.06 -0.03 -0.08 0.04 -0.04 0.02 0.41 -0.22 -0.05 0.03 -0.17 0.09 0.41 -0.22 0.06 -0.03 -0.05 0.02 0.07 -0.03 0.09 -0.05 0.03 -0.01zm-0.03 0.01c2.78,-1.44 6.21,-0.36 7.66,2.42 1.44,2.78 0.36,6.21 -2.42,7.66l-5.24 -10.07zm11.3 -5.81l5.95 9.66 0.01 -0.01 -0.31 0.19 -0.37 0.22 -0.3 0.17 -0.36 0.21 -0.38 0.21 -0.32 0.18 -0.39 0.21 -0.43 0.23 -0.39 0.2 -0.37 0.19 -0.41 0.21 -0.43 0.22 -0.41 0.21 -0.38 0.2 -0.43 0.22 -0.45 0.23 -0.43 0.21 -0.42 0.21 -0.38 0.19 -0.44 0.23 -0.43 0.21 -0.36 0.19 -0.4 0.2 -0.42 0.21 -0.38 0.19 -0.34 0.17 -0.34 0.16 -0.37 0.19 -0.34 0.16 -0.32 0.16 -0.28 0.14 -0.26 0.14 -5.18 -10.1 0.32 -0.16 0.34 -0.16 0.32 -0.16 0.34 -0.16 0.33 -0.16 0.38 -0.19 0.41 -0.2 0.38 -0.19 0.35 -0.18 0.4 -0.2 0.43 -0.21 0.39 -0.19 0.37 -0.19 0.45 -0.23 0.42 -0.21 0.4 -0.2 0.38 -0.19 0.39 -0.21 0.43 -0.21 0.41 -0.21 0.35 -0.18 0.38 -0.2 0.4 -0.21 0.35 -0.19 0.3 -0.16 0.31 -0.17 0.35 -0.19 0.28 -0.15 0.25 -0.14 0.27 -0.16 0.19 -0.11 0.2 -0.12 0.01 -0.01zm-0.01 0.01c2.66,-1.64 6.16,-0.82 7.81,1.84 1.64,2.66 0.82,6.16 -1.84,7.81l-5.97 -9.65zm14.45 -7.09l4.8 10.29 0.01 -0.01 -0.45 0.21 -0.49 0.22 -0.44 0.2 -0.44 0.2 -0.44 0.2 -0.47 0.21 -0.44 0.19 -0.41 0.19 -0.49 0.22 -0.45 0.19 -0.39 0.18 -0.44 0.2 -0.44 0.2 -0.44 0.2 -0.41 0.19 -0.41 0.19 -0.47 0.22 -0.39 0.18 -0.38 0.19 -0.45 0.21 -0.39 0.19 -0.38 0.19 -0.41 0.21 -0.43 0.22 -0.38 0.19 -0.37 0.21 -0.39 0.21 -0.34 0.19 -0.37 0.21 -0.36 0.21 -0.38 0.23 -0.36 0.21 -5.95 -9.66 0.47 -0.28 0.44 -0.27 0.46 -0.27 0.47 -0.27 0.5 -0.27 0.46 -0.25 0.47 -0.25 0.48 -0.25 0.43 -0.22 0.46 -0.23 0.47 -0.24 0.49 -0.23 0.42 -0.2 0.48 -0.24 0.49 -0.22 0.41 -0.19 0.47 -0.22 0.47 -0.21 0.44 -0.2 0.44 -0.2 0.44 -0.2 0.49 -0.22 0.45 -0.19 0.39 -0.18 0.47 -0.21 0.44 -0.19 0.41 -0.19 0.44 -0.2 0.44 -0.2 0.44 -0.2 0.39 -0.18 0.42 -0.2 0.01 -0.01zm-0.01 0.01c2.84,-1.33 6.22,-0.1 7.55,2.74 1.33,2.84 0.1,6.22 -2.74,7.55l-4.81 -10.28zm10.1 -3.19l2.57 11.05 0.01 0 -0.3 0.08 -0.28 0.06 -0.21 0.05 -0.28 0.07 -0.28 0.07 -0.3 0.08 -0.24 0.05 -0.27 0.08 -0.28 0.07 -0.25 0.06 -0.27 0.07 -0.22 0.06 -0.25 0.07 -0.33 0.1 -0.23 0.05 -0.23 0.08 -0.28 0.08 -0.23 0.07 -0.26 0.08 -0.23 0.07 -0.22 0.08 -0.28 0.1 -0.28 0.1 -0.21 0.06 -0.19 0.08 -0.22 0.08 -0.19 0.08 -0.27 0.11 -0.22 0.09 -0.19 0.08 -0.19 0.08 -0.21 0.1 -4.8 -10.29 0.31 -0.14 0.35 -0.15 0.35 -0.15 0.33 -0.13 0.27 -0.11 0.36 -0.14 0.33 -0.12 0.36 -0.13 0.36 -0.13 0.28 -0.1 0.28 -0.1 0.34 -0.11 0.34 -0.11 0.3 -0.1 0.35 -0.11 0.28 -0.08 0.35 -0.1 0.34 -0.1 0.25 -0.07 0.33 -0.1 0.34 -0.09 0.31 -0.08 0.33 -0.09 0.28 -0.07 0.31 -0.08 0.34 -0.08 0.26 -0.06 0.28 -0.07 0.28 -0.07 0.35 -0.09 0.28 -0.06 0.27 -0.06 0.01 0zm-0.01 0c3.05,-0.71 6.11,1.18 6.82,4.23 0.71,3.05 -1.18,6.11 -4.23,6.82l-2.58 -11.05zm20.18 -1.63l0 11.35 0 0 -0.66 0 -0.65 0 -0.67 0 -0.62 -0.01 -0.58 0 -0.57 0 -0.59 0.01 -0.59 0 -0.54 0.01 -0.57 0.01 -0.54 0.01 -0.49 0.01 -0.52 0.02 -0.56 0.02 -0.52 0.02 -0.49 0.03 -0.48 0.03 -0.52 0.04 -0.52 0.03 -0.45 0.04 -0.5 0.05 -0.54 0.05 -0.51 0.06 -0.52 0.07 -0.49 0.07 -0.54 0.09 -0.55 0.09 -0.51 0.09 -0.58 0.12 -0.59 0.12 -0.54 0.12 -0.6 0.14 -2.57 -11.05 0.7 -0.16 0.74 -0.16 0.67 -0.13 0.66 -0.13 0.71 -0.13 0.65 -0.1 0.65 -0.1 0.67 -0.1 0.63 -0.08 0.63 -0.08 0.59 -0.07 0.63 -0.07 0.66 -0.05 0.59 -0.05 0.59 -0.04 0.62 -0.04 0.63 -0.03 0.59 -0.02 0.56 -0.02 0.6 -0.02 0.63 -0.02 0.6 -0.01 0.57 -0.01 0.61 -0.01 0.59 0 0.59 -0.01 0.64 0 0.65 0 0.62 0.01 0.6 0 0.65 0 0.66 0 0 0zm0 0c3.13,0 5.68,2.54 5.68,5.68 0,3.13 -2.54,5.68 -5.68,5.68l0 -11.35zm20.71 12.4l-7.93 -8.12 0.21 8.31 0.78 0.56 0.39 0.2 0.06 0.03 -0.1 -0.03 -0.2 -0.05 -0.29 -0.08 -0.39 -0.09 -0.43 -0.1 -0.45 -0.09 -0.54 -0.1 -0.58 -0.1 -0.6 -0.1 -0.63 -0.1 -0.63 -0.1 -0.65 -0.1 -0.66 -0.1 -0.67 -0.09 -0.67 -0.09 -0.67 -0.09 -0.67 -0.09 -0.63 -0.08 -0.62 -0.07 -0.63 -0.07 -0.61 -0.07 -0.52 -0.05 -0.51 -0.05 -0.52 -0.05 -0.4 -0.03 -0.33 -0.02 -0.32 -0.01 -0.25 -0.01 -0.08 0 0 -11.35 0.46 0.01 0.41 0.01 0.45 0.03 0.52 0.03 0.55 0.05 0.52 0.05 0.59 0.05 0.65 0.07 0.61 0.07 0.65 0.07 0.7 0.08 0.72 0.09 0.69 0.09 0.71 0.09 0.73 0.1 0.72 0.1 0.73 0.1 0.73 0.11 0.71 0.12 0.69 0.12 0.67 0.12 0.65 0.12 0.63 0.12 0.66 0.13 0.6 0.14 0.56 0.13 0.56 0.14 0.57 0.16 0.56 0.19 0.6 0.23 0.82 0.41 1.07 0.77 0.21 8.31zm-0.21 -8.31c2.34,2.08 2.56,5.66 0.49,8.01 -2.08,2.34 -5.66,2.56 -8.01,0.49l7.52 -8.49zm-9.66 2.08l1.94 -1.89 7.93 8.12 -1.94 1.89 -0.02 0.02 -7.91 -8.14zm7.93 8.12c-2.24,2.19 -5.84,2.14 -8.03,-0.1 -2.19,-2.24 -2.14,-5.84 0.1,-8.03l7.93 8.12zm1.52 4.17l-3.26 10.87 0 0 -1.1 -0.34 -1.04 -0.35 -0.99 -0.36 -0.96 -0.38 -0.93 -0.42 -0.88 -0.44 -0.82 -0.45 -0.84 -0.51 -0.8 -0.57 -0.75 -0.62 -0.71 -0.68 -0.67 -0.76 -0.62 -0.86 -0.54 -0.96 -0.45 -1.08 -0.28 -1.03 -0.17 -1.07 -0.03 -1.16 0.09 -1.04 0.18 -0.96 0.27 -0.97 0.35 -0.92 0.38 -0.82 0.43 -0.8 0.48 -0.76 0.52 -0.75 0.55 -0.71 0.54 -0.67 0.62 -0.71 0.65 -0.69 0.65 -0.67 0.69 -0.69 7.89 8.16 -0.53 0.52 -0.51 0.52 -0.42 0.45 -0.36 0.41 -0.35 0.43 -0.27 0.35 -0.2 0.3 -0.16 0.26 -0.1 0.19 -0.08 0.16 -0.01 0.01 0.01 -0.05 0.01 -0.05 0.01 -0.17 -0.01 -0.3 -0.03 -0.24 -0.06 -0.21 -0.12 -0.28 -0.1 -0.19 -0.07 -0.09 -0.01 -0.02 0.04 0.05 0.13 0.1 0.18 0.13 0.26 0.16 0.4 0.22 0.44 0.22 0.53 0.23 0.6 0.25 0.7 0.25 0.78 0.27 0.84 0.26 0 0zm0 0c3,0.89 4.7,4.07 3.81,7.06 -0.89,3 -4.07,4.7 -7.06,3.81l3.26 -10.87zm15.74 1.72l0 11.35 0 0 -0.59 0 -0.56 -0.01 -0.56 0 -0.62 -0.01 -0.56 -0.01 -0.56 -0.01 -0.63 -0.02 -0.58 -0.02 -0.58 -0.02 -0.58 -0.03 -0.59 -0.03 -0.58 -0.03 -0.58 -0.03 -0.58 -0.05 -0.61 -0.04 -0.61 -0.06 -0.58 -0.06 -0.58 -0.07 -0.58 -0.06 -0.64 -0.08 -0.61 -0.1 -0.58 -0.09 -0.6 -0.1 -0.57 -0.1 -0.61 -0.11 -0.63 -0.13 -0.6 -0.13 -0.6 -0.14 -0.6 -0.14 -0.63 -0.16 -0.6 -0.17 -0.6 -0.17 3.26 -10.87 0.46 0.13 0.46 0.13 0.43 0.11 0.47 0.12 0.46 0.1 0.47 0.1 0.43 0.09 0.46 0.08 0.5 0.09 0.47 0.08 0.49 0.08 0.47 0.07 0.43 0.05 0.49 0.06 0.5 0.05 0.51 0.05 0.47 0.05 0.47 0.04 0.5 0.03 0.52 0.03 0.51 0.03 0.51 0.02 0.52 0.03 0.52 0.02 0.52 0.02 0.47 0.01 0.56 0.01 0.56 0.01 0.48 0.01 0.56 0 0.56 0.01 0.52 0 0 0zm0 0c3.13,0 5.68,2.54 5.68,5.68 0,3.13 -2.54,5.68 -5.68,5.68l0 -11.35zm19.79 -4.7l6.6 9.24 -0.01 0.01 -0.67 0.46 -0.69 0.42 -0.71 0.41 -0.73 0.38 -0.76 0.36 -0.77 0.34 -0.74 0.31 -0.8 0.32 -0.8 0.3 -0.8 0.29 -0.85 0.27 -0.85 0.26 -0.84 0.24 -0.87 0.25 -0.87 0.22 -0.87 0.21 -0.9 0.21 -0.88 0.19 -0.86 0.17 -0.89 0.17 -0.91 0.16 -0.88 0.14 -0.89 0.14 -0.87 0.11 -0.86 0.11 -0.9 0.1 -0.84 0.08 -0.82 0.07 -0.85 0.05 -0.82 0.03 -0.82 0.03 -0.8 0.01 0 -11.35 0.58 -0.01 0.6 -0.01 0.63 -0.03 0.65 -0.04 0.69 -0.05 0.7 -0.06 0.68 -0.07 0.72 -0.1 0.74 -0.1 0.71 -0.11 0.76 -0.12 0.71 -0.13 0.75 -0.14 0.76 -0.16 0.74 -0.15 0.71 -0.16 0.74 -0.19 0.7 -0.18 0.69 -0.19 0.69 -0.2 0.65 -0.21 0.63 -0.21 0.63 -0.22 0.59 -0.21 0.55 -0.22 0.56 -0.24 0.48 -0.21 0.43 -0.21 0.41 -0.21 0.34 -0.19 0.32 -0.2 0.26 -0.17 -0.01 0.01zm0.01 -0.01c2.55,-1.81 6.1,-1.21 7.91,1.34 1.81,2.55 1.21,6.1 -1.34,7.91l-6.57 -9.25zm10.34 -0.93l-3.3 10.86 -0.01 0 -0.25 -0.08 -0.19 -0.05 -0.2 -0.06 -0.25 -0.08 -0.25 -0.08 -0.12 -0.04 -0.03 -0.01 -0.14 -0.04 -0.12 -0.03 -0.08 -0.02 -0.05 -0.01 0.03 0.01 -0.09 -0.01 -0.05 -0.01 0.1 0.01 0.23 0.01 0.1 0.01 -0.02 0 0.11 -0.01 0.12 -0.01 0.09 -0.01 0.21 -0.05 0.08 -0.01 0.15 -0.05 0.12 -0.03 0.03 -0.02 0.08 -0.03 0 -0.01 0.01 -0.01 0.04 -0.02 -0.06 0.04 -0.05 0.03 -6.6 -9.24 0.32 -0.21 0.28 -0.19 0.38 -0.23 0.36 -0.2 0.33 -0.17 0.39 -0.18 0.35 -0.14 0.43 -0.16 0.45 -0.14 0.38 -0.1 0.52 -0.1 0.39 -0.05 0.41 -0.04 0.41 -0.02 0.28 0 0.41 0.01 0.54 0.04 0.41 0.05 0.25 0.05 0.23 0.04 0.36 0.08 0.27 0.07 0.25 0.06 0.22 0.06 0.22 0.05 0.34 0.1 0.25 0.08 0.14 0.05 0.14 0.04 0.21 0.06 0.25 0.08 0.19 0.05 -0.01 0zm0.01 0c3,0.91 4.69,4.09 3.77,7.09 -0.91,3 -4.09,4.69 -7.09,3.77l3.31 -10.86zm21.42 10.18l-11.31 -0.91 2.89 5.41 0.14 0.08 -0.05 -0.02 -0.16 -0.06 -0.25 -0.09 -0.29 -0.1 -0.34 -0.1 -0.44 -0.12 -0.49 -0.13 -0.47 -0.12 -0.56 -0.13 -0.59 -0.15 -0.57 -0.12 -0.63 -0.14 -0.63 -0.14 -0.65 -0.14 -0.67 -0.14 -0.67 -0.14 -0.67 -0.14 -0.67 -0.14 -0.66 -0.13 -0.67 -0.14 -0.68 -0.14 -0.63 -0.14 -0.63 -0.13 -0.64 -0.14 -0.59 -0.14 -0.54 -0.12 -0.56 -0.12 -0.58 -0.14 -0.52 -0.13 -0.46 -0.13 -0.48 -0.14 3.3 -10.86 0.23 0.07 0.35 0.09 0.36 0.1 0.38 0.09 0.47 0.11 0.55 0.12 0.55 0.12 0.54 0.12 0.61 0.13 0.63 0.13 0.63 0.14 0.65 0.13 0.67 0.14 0.69 0.14 0.69 0.14 0.68 0.15 0.67 0.14 0.69 0.14 0.67 0.15 0.67 0.14 0.69 0.16 0.63 0.15 0.6 0.14 0.65 0.16 0.58 0.16 0.56 0.16 0.59 0.17 0.56 0.18 0.53 0.19 0.53 0.2 0.56 0.24 0.63 0.32 2.89 5.41zm-2.89 -5.41c2.74,1.53 3.71,4.99 2.19,7.72 -1.53,2.74 -4.99,3.71 -7.72,2.19l5.54 -9.91zm-5.62 18.96l-8.67 -7.33 -0.01 0.01 0.13 -0.15 0.1 -0.12 0.13 -0.17 0.24 -0.3 0.23 -0.28 0.19 -0.24 0.23 -0.3 0.27 -0.34 0.25 -0.32 0.27 -0.34 0.28 -0.37 0.3 -0.39 0.28 -0.36 0.29 -0.39 0.31 -0.41 0.3 -0.39 0.26 -0.36 0.27 -0.38 0.27 -0.37 0.27 -0.39 0.24 -0.34 0.23 -0.35 0.22 -0.32 0.15 -0.24 0.14 -0.23 0.15 -0.26 0.1 -0.16 0.02 -0.05 0.02 -0.03 -0.05 0.11 -0.1 0.33 -0.13 0.79 11.31 0.91 -0.19 1.11 -0.22 0.71 -0.23 0.56 -0.21 0.47 -0.25 0.5 -0.25 0.43 -0.22 0.38 -0.27 0.44 -0.3 0.47 -0.27 0.41 -0.28 0.42 -0.31 0.45 -0.3 0.42 -0.31 0.44 -0.32 0.45 -0.34 0.46 -0.32 0.43 -0.31 0.41 -0.32 0.42 -0.34 0.45 -0.3 0.39 -0.3 0.38 -0.31 0.4 -0.3 0.38 -0.27 0.34 -0.26 0.34 -0.29 0.35 -0.21 0.25 -0.16 0.2 -0.21 0.27 -0.22 0.25 -0.13 0.16 -0.01 0.01zm0.01 -0.01c-2.01,2.4 -5.6,2.7 -8,0.69 -2.4,-2.01 -2.7,-5.6 -0.69,-8l8.69 7.31zm-4.65 8.62l-11.35 0 0 0 0.01 -0.69 0.05 -0.65 0.07 -0.64 0.1 -0.63 0.11 -0.58 0.14 -0.63 0.16 -0.63 0.19 -0.58 0.17 -0.52 0.21 -0.57 0.21 -0.54 0.24 -0.56 0.25 -0.54 0.23 -0.49 0.25 -0.51 0.27 -0.52 0.27 -0.48 0.25 -0.45 0.29 -0.47 0.29 -0.47 0.29 -0.45 0.3 -0.45 0.3 -0.44 0.3 -0.43 0.29 -0.4 0.29 -0.39 0.32 -0.42 0.27 -0.35 0.3 -0.4 0.32 -0.38 0.24 -0.3 0.3 -0.36 8.67 7.33 -0.19 0.24 -0.27 0.32 -0.2 0.25 -0.21 0.26 -0.25 0.32 -0.21 0.27 -0.22 0.31 -0.23 0.32 -0.21 0.3 -0.21 0.3 -0.2 0.3 -0.21 0.32 -0.19 0.32 -0.18 0.31 -0.2 0.34 -0.18 0.32 -0.15 0.29 -0.16 0.3 -0.15 0.32 -0.14 0.29 -0.1 0.26 -0.12 0.28 -0.1 0.27 -0.1 0.3 -0.08 0.25 -0.05 0.2 -0.05 0.19 -0.04 0.25 -0.03 0.18 -0.01 0.17 -0.01 0.16 0 0.11 0 0zm0 0c0,3.13 -2.54,5.68 -5.68,5.68 -3.13,0 -5.68,-2.54 -5.68,-5.68l11.35 0zm14.82 -3.75l4.7 10.34 0.01 -0.01 -0.61 0.27 -0.67 0.27 -0.68 0.26 -0.76 0.3 -0.83 0.3 -0.87 0.3 -0.91 0.29 -0.97 0.3 -0.99 0.28 -1.02 0.27 -1.07 0.26 -1.06 0.25 -1.11 0.23 -1.13 0.2 -1.11 0.17 -1.16 0.14 -1.14 0.1 -1.15 0.06 -1.19 0.01 -1.2 -0.05 -1.19 -0.13 -1.2 -0.2 -1.24 -0.32 -1.24 -0.44 -1.26 -0.62 -1.21 -0.8 -1.14 -1.02 -1 -1.24 -0.8 -1.4 -0.56 -1.53 -0.32 -1.56 -0.1 -1.57 11.35 0 0.01 0.11 -0.01 -0.05 -0.07 -0.19 -0.12 -0.22 -0.16 -0.21 -0.15 -0.14 -0.07 -0.05 0 0 0.16 0.05 0.26 0.07 0.39 0.06 0.49 0.05 0.56 0.02 0.63 0 0.71 -0.05 0.76 -0.06 0.78 -0.1 0.85 -0.13 0.82 -0.14 0.84 -0.18 0.87 -0.19 0.83 -0.21 0.84 -0.23 0.81 -0.23 0.76 -0.23 0.76 -0.25 0.7 -0.24 0.64 -0.23 0.6 -0.23 0.56 -0.22 0.43 -0.18 0.35 -0.15 0.01 -0.01zm-0.01 0.01c2.85,-1.3 6.22,-0.04 7.52,2.8 1.3,2.85 0.04,6.22 -2.8,7.52l-4.71 -10.32zm9.05 -5.53l6.38 9.39 0 0 -0.3 0.2 -0.3 0.21 -0.27 0.19 -0.33 0.23 -0.3 0.2 -0.3 0.21 -0.3 0.2 -0.3 0.21 -0.34 0.23 -0.3 0.2 -0.3 0.2 -0.33 0.23 -0.34 0.21 -0.25 0.17 -0.37 0.24 -0.34 0.21 -0.27 0.17 -0.36 0.23 -0.37 0.22 -0.35 0.21 -0.31 0.18 -0.31 0.19 -0.41 0.23 -0.34 0.19 -0.34 0.19 -0.43 0.23 -0.32 0.16 -0.34 0.19 -0.44 0.22 -0.39 0.19 -0.36 0.17 -0.4 0.19 -4.7 -10.34 0.27 -0.13 0.32 -0.14 0.27 -0.13 0.22 -0.11 0.3 -0.16 0.32 -0.16 0.22 -0.12 0.3 -0.16 0.29 -0.16 0.21 -0.12 0.31 -0.19 0.31 -0.18 0.27 -0.16 0.25 -0.15 0.24 -0.15 0.34 -0.21 0.27 -0.16 0.23 -0.16 0.34 -0.21 0.26 -0.17 0.26 -0.17 0.3 -0.2 0.3 -0.2 0.26 -0.17 0.3 -0.21 0.3 -0.2 0.3 -0.21 0.3 -0.2 0.26 -0.19 0.33 -0.22 0.3 -0.21 0.31 -0.21 0 0zm0 0c2.59,-1.76 6.12,-1.09 7.88,1.51 1.76,2.59 1.09,6.12 -1.51,7.88l-6.38 -9.39zm1.94 -1.46l6.89 9.02 0.01 -0.01 -0.15 0.12 0.08 -0.07 -0.06 0.05 -0.19 0.14 0.05 -0.03 -0.06 0.05 -0.04 0.03 -0.21 0.16 -0.07 0.05 0.08 -0.05 -0.18 0.14 -0.08 0.05 0.04 -0.03 -0.21 0.16 -0.07 0.05 -0.03 0.03 -0.08 0.05 0.04 -0.03 -0.32 0.24 -0.08 0.05 0.18 -0.13 -0.21 0.16 -0.07 0.05 -0.17 0.13 -0.23 0.15 0.19 -0.13 -0.07 0.05 -0.21 0.16 -0.07 0.05 -0.12 0.08 -0.06 0.04 -0.08 0.05 -6.38 -9.39 0.05 -0.04 0.06 -0.04 0.01 -0.01 0.07 -0.05 -0.08 0.06 0.07 -0.05 0.32 -0.23 -0.08 0.05 -0.03 0.02 0.07 -0.05 -0.08 0.05 0.32 -0.24 0.08 -0.05 -0.18 0.13 0.18 -0.14 0.08 -0.05 0.1 -0.08 0.07 -0.05 -0.08 0.05 0.18 -0.14 0.08 -0.05 -0.04 0.03 0.21 -0.16 0.07 -0.05 -0.08 0.05 0.1 -0.08 0.06 -0.05 0.19 -0.14 -0.05 0.04 0.06 -0.05 0.22 -0.16 -0.03 0.02 0.01 -0.01zm-0.01 0.01c2.48,-1.9 6.05,-1.44 7.96,1.04 1.9,2.48 1.44,6.05 -1.04,7.96l-6.91 -9zm1.34 -0.91l6.68 9.18 -0.01 0 -0.11 0.08 -0.03 0.03 -0.03 0.02 0.25 -0.19 -0.54 0.38 -0.04 0.02 -0.03 0.03 -0.04 0.02 0.26 -0.17 -0.34 0.23 -0.03 0.02 0.06 -0.04 -0.33 0.21 -0.04 0.02 0.44 -0.28 -0.33 0.23 -0.23 0.13 0.25 -0.15 -0.04 0.03 -0.33 0.21 -0.04 0.02 0.44 -0.28 -0.03 0.03 -0.23 0.16 -0.04 0.03 -0.14 0.1 -0.03 0.02 0.25 -0.17 0.17 -0.13 -0.24 0.19 -0.04 0.03 0.07 -0.05 -6.89 -9.02 0.14 -0.11 0.04 -0.03 -0.17 0.13 0.24 -0.19 0.34 -0.23 0.03 -0.02 -0.06 0.04 0.04 -0.03 -0.15 0.1 0.03 -0.03 0.52 -0.34 0.04 -0.02 -0.25 0.15 0.04 -0.03 0.33 -0.21 -0.14 0.09 -0.26 0.17 0.52 -0.34 0.04 -0.02 -0.25 0.15 0.14 -0.1 0.03 -0.02 -0.25 0.17 0.33 -0.23 0.04 -0.02 0.03 -0.03 0.04 -0.02 -0.47 0.33 0.32 -0.25 0.03 -0.02 0.03 -0.03 -0.04 0.04 -0.01 0zm0.01 0c2.53,-1.83 6.09,-1.27 7.92,1.26 1.83,2.53 1.27,6.09 -1.26,7.92l-6.67 -9.18zm21.57 -8.93l-0.67 11.33 -0.01 0 -0.6 -0.02 -0.58 -0.01 -0.52 0.01 -0.5 0.03 -0.47 0.04 -0.43 0.07 -0.47 0.08 -0.37 0.08 -0.39 0.1 -0.36 0.1 -0.38 0.14 -0.36 0.13 -0.36 0.16 -0.36 0.16 -0.34 0.18 -0.38 0.2 -0.37 0.21 -0.36 0.23 -0.38 0.25 -0.4 0.27 -0.4 0.28 -0.41 0.3 -0.44 0.32 -0.43 0.33 -0.47 0.36 -0.48 0.36 -0.47 0.36 -0.48 0.38 -0.55 0.43 -0.56 0.42 -0.54 0.4 -0.58 0.43 -6.68 -9.18 0.48 -0.35 0.51 -0.38 0.47 -0.35 0.45 -0.36 0.51 -0.39 0.51 -0.4 0.49 -0.38 0.49 -0.38 0.52 -0.38 0.52 -0.39 0.54 -0.39 0.56 -0.39 0.56 -0.38 0.59 -0.38 0.63 -0.38 0.63 -0.36 0.64 -0.35 0.69 -0.34 0.69 -0.32 0.72 -0.31 0.74 -0.28 0.76 -0.26 0.8 -0.24 0.82 -0.21 0.87 -0.18 0.82 -0.14 0.89 -0.12 0.9 -0.08 0.91 -0.06 0.95 -0.02 0.93 0.01 0.98 0.05 -0.01 0zm0.01 0c3.13,0.19 5.5,2.88 5.32,6.01 -0.19,3.13 -2.88,5.5 -6.01,5.32l0.69 -11.33zm29.05 -0.67l1.54 11.24 0 0 -0.98 0.13 -0.98 0.12 -0.96 0.11 -0.98 0.1 -1 0.1 -0.98 0.09 -0.99 0.08 -0.98 0.08 -0.99 0.06 -1 0.06 -0.99 0.05 -0.98 0.04 -1 0.04 -1 0.03 -1 0.03 -1 0.01 -0.98 0.01 -0.98 0.01 -1 0.01 -1 -0.01 -0.98 -0.01 -0.97 -0.01 -0.99 -0.01 -0.97 -0.03 -0.96 -0.03 -0.98 -0.03 -0.93 -0.03 -0.98 -0.03 -0.95 -0.05 -0.92 -0.04 -0.96 -0.05 -0.93 -0.06 0.67 -11.33 0.89 0.05 0.88 0.05 0.92 0.04 0.91 0.05 0.89 0.03 0.93 0.03 0.9 0.03 0.92 0.01 0.93 0.03 0.91 0.01 0.93 0.01 0.93 0.01 0.91 0.01 0.91 -0.01 0.93 -0.01 0.93 -0.01 0.91 -0.01 0.92 -0.02 0.91 -0.03 0.91 -0.04 0.93 -0.04 0.91 -0.05 0.91 -0.05 0.91 -0.06 0.9 -0.06 0.91 -0.08 0.9 -0.08 0.87 -0.08 0.89 -0.1 0.9 -0.1 0.86 -0.1 0.87 -0.12 0 0zm0 0c3.1,-0.42 5.97,1.75 6.39,4.85 0.42,3.1 -1.75,5.97 -4.85,6.39l-1.54 -11.24zm7.13 -0.97l1.36 11.27 0.01 0 -0.23 0.03 -0.22 0.03 -0.23 0.03 -0.14 0.01 -0.23 0.03 -0.3 0.04 -0.23 0.03 -0.12 0.01 -0.23 0.03 -0.31 0.04 -0.12 0.01 -0.22 0.03 -0.22 0.03 -0.22 0.03 -0.31 0.03 -0.13 0.02 -0.22 0.03 -0.22 0.03 -0.22 0.03 -0.21 0.03 -0.21 0.03 -0.32 0.03 -0.13 0.02 -0.21 0.03 -0.21 0.03 -0.23 0.03 -0.22 0.03 -0.21 0.03 -0.3 0.03 -0.13 0.02 -0.21 0.03 -0.25 0.03 -1.54 -11.24 0.19 -0.03 0.21 -0.03 0.31 -0.03 0.12 -0.02 0.23 -0.03 0.22 -0.03 0.21 -0.03 0.21 -0.03 0.23 -0.03 0.31 -0.03 0.12 -0.02 0.21 -0.03 0.23 -0.03 0.22 -0.03 0.22 -0.03 0.22 -0.03 0.31 -0.03 0.13 -0.02 0.22 -0.03 0.22 -0.03 0.22 -0.03 0.32 -0.04 0.14 -0.01 0.21 -0.03 0.32 -0.04 0.23 -0.03 0.14 -0.01 0.23 -0.03 0.3 -0.04 0.23 -0.03 0.22 -0.03 0.23 -0.03 0.01 0zm-0.01 0c3.11,-0.38 5.95,1.83 6.33,4.94 0.38,3.11 -1.83,5.95 -4.94,6.33l-1.39 -11.27zm25.72 -5.13l3.22 10.89 -0.01 0 -0.63 0.18 -0.66 0.19 -0.69 0.18 -0.76 0.19 -0.78 0.19 -0.8 0.19 -0.85 0.2 -0.86 0.19 -0.91 0.21 -0.93 0.2 -0.92 0.2 -0.96 0.21 -0.97 0.21 -0.97 0.2 -1 0.21 -1.01 0.19 -0.97 0.19 -0.99 0.2 -1 0.19 -0.99 0.18 -0.95 0.17 -0.93 0.17 -0.96 0.17 -0.91 0.16 -0.87 0.15 -0.87 0.14 -0.84 0.14 -0.8 0.12 -0.74 0.12 -0.73 0.11 -0.7 0.09 -0.63 0.08 -1.36 -11.27 0.54 -0.07 0.56 -0.08 0.63 -0.1 0.72 -0.1 0.73 -0.12 0.77 -0.12 0.8 -0.13 0.85 -0.15 0.88 -0.14 0.87 -0.16 0.93 -0.17 0.95 -0.17 0.93 -0.18 0.93 -0.18 0.96 -0.19 0.98 -0.19 0.96 -0.19 0.94 -0.19 0.96 -0.2 0.94 -0.19 0.92 -0.19 0.91 -0.2 0.87 -0.19 0.83 -0.19 0.83 -0.19 0.79 -0.19 0.76 -0.18 0.7 -0.16 0.63 -0.16 0.61 -0.16 0.55 -0.14 0.47 -0.14 -0.01 0zm0.01 0c3,-0.88 6.16,0.84 7.04,3.84 0.88,3 -0.84,6.16 -3.84,7.04l-3.2 -10.89zm18.4 -5.14l3.56 10.78 0.06 -0.02 -0.61 0.21 -0.61 0.2 -0.6 0.2 -0.6 0.19 -0.62 0.19 -0.6 0.19 -0.61 0.18 -0.61 0.17 -0.58 0.16 -0.61 0.18 -0.62 0.16 -0.58 0.16 -0.58 0.16 -0.63 0.17 -0.62 0.16 -0.58 0.14 -0.56 0.15 -0.59 0.16 -0.6 0.15 -0.59 0.16 -0.59 0.15 -0.58 0.14 -0.58 0.15 -0.56 0.14 -0.58 0.16 -0.58 0.15 -0.54 0.15 -0.56 0.15 -0.57 0.16 -0.54 0.15 -0.54 0.16 -0.56 0.16 -3.22 -10.89 0.58 -0.16 0.62 -0.19 0.61 -0.16 0.58 -0.17 0.61 -0.16 0.61 -0.16 0.59 -0.15 0.58 -0.16 0.61 -0.16 0.58 -0.15 0.59 -0.16 0.59 -0.15 0.58 -0.14 0.56 -0.15 0.59 -0.16 0.6 -0.15 0.59 -0.16 0.56 -0.14 0.54 -0.14 0.58 -0.16 0.58 -0.16 0.55 -0.15 0.54 -0.15 0.58 -0.16 0.54 -0.16 0.54 -0.16 0.55 -0.16 0.54 -0.16 0.54 -0.17 0.54 -0.17 0.53 -0.17 0.52 -0.18 0.06 -0.02zm-0.06 0.02c2.96,-1.02 6.19,0.56 7.21,3.53 1.02,2.96 -0.56,6.19 -3.53,7.21l-3.68 -10.73zm21.54 4.84l-17.92 5.91 -3.56 -10.78 17.92 -5.91 3.6 10.76 -0.04 0.01zm-3.56 -10.78c2.97,-0.98 6.19,0.64 7.17,3.61 0.98,2.97 -0.64,6.19 -3.61,7.17l-3.56 -10.78zm19.43 -7.64l4.43 10.46 -0.01 0 -0.63 0.27 -0.61 0.25 -0.6 0.25 -0.63 0.27 -0.61 0.25 -0.62 0.26 -0.63 0.26 -0.62 0.25 -0.61 0.25 -0.62 0.25 -0.61 0.25 -0.66 0.27 -0.64 0.26 -0.58 0.23 -0.64 0.26 -0.65 0.25 -0.59 0.24 -0.65 0.26 -0.65 0.25 -0.61 0.24 -0.63 0.24 -0.66 0.25 -0.65 0.24 -0.63 0.24 -0.67 0.24 -0.62 0.23 -0.63 0.23 -0.69 0.25 -0.65 0.23 -0.65 0.22 -0.64 0.22 -0.67 0.23 -3.64 -10.75 0.6 -0.21 0.64 -0.22 0.61 -0.22 0.6 -0.21 0.58 -0.21 0.62 -0.23 0.63 -0.23 0.6 -0.23 0.61 -0.23 0.6 -0.23 0.59 -0.23 0.61 -0.24 0.63 -0.24 0.6 -0.23 0.58 -0.23 0.65 -0.25 0.58 -0.23 0.58 -0.25 0.65 -0.26 0.6 -0.23 0.58 -0.24 0.61 -0.25 0.62 -0.25 0.61 -0.25 0.62 -0.25 0.59 -0.25 0.62 -0.26 0.61 -0.25 0.6 -0.25 0.63 -0.27 0.61 -0.25 0.61 -0.25 -0.01 0zm0.01 0c2.89,-1.22 6.22,0.14 7.43,3.02 1.21,2.89 -0.14,6.22 -3.03,7.44l-4.4 -10.46zm12.49 -6.13l6.13 9.55 0 0 -0.44 0.28 -0.45 0.27 -0.47 0.29 -0.43 0.25 -0.46 0.27 -0.43 0.24 -0.45 0.26 -0.48 0.25 -0.41 0.22 -0.46 0.25 -0.48 0.25 -0.41 0.21 -0.45 0.23 -0.46 0.22 -0.42 0.21 -0.45 0.22 -0.47 0.22 -0.47 0.22 -0.43 0.19 -0.4 0.19 -0.47 0.21 -0.44 0.19 -0.43 0.19 -0.46 0.2 -0.43 0.19 -0.44 0.19 -0.47 0.2 -0.43 0.18 -0.41 0.18 -0.47 0.2 -0.43 0.18 -0.42 0.19 -4.43 -10.46 0.45 -0.19 0.43 -0.18 0.4 -0.17 0.45 -0.19 0.43 -0.18 0.39 -0.17 0.41 -0.18 0.43 -0.19 0.39 -0.17 0.43 -0.19 0.41 -0.18 0.36 -0.17 0.44 -0.2 0.43 -0.19 0.36 -0.16 0.37 -0.18 0.38 -0.18 0.42 -0.21 0.36 -0.18 0.38 -0.19 0.41 -0.21 0.34 -0.18 0.36 -0.19 0.41 -0.22 0.34 -0.19 0.36 -0.21 0.38 -0.21 0.35 -0.21 0.37 -0.22 0.34 -0.21 0.35 -0.22 0.36 -0.23 0 0zm0 0c2.63,-1.69 6.15,-0.92 7.84,1.71 1.69,2.63 0.92,6.15 -1.71,7.84l-6.13 -9.55zm-0.55 -9.29l8.74 7.23 0.97 -5.54 -0.08 -0.21 -0.04 -0.09 -0.01 -0.02 0.08 0.14 0.11 0.18 0.14 0.22 0.18 0.3 0.15 0.24 0.23 0.36 0.28 0.48 0.22 0.43 0.23 0.45 0.23 0.49 0.24 0.56 0.23 0.63 0.19 0.63 0.19 0.72 0.14 0.79 0.07 0.74 0.03 0.85 -0.06 0.89 -0.14 0.92 -0.24 0.92 -0.3 0.84 -0.4 0.85 -0.49 0.85 -0.56 0.79 -0.63 0.75 -0.67 0.67 -0.74 0.65 -0.79 0.6 -0.81 0.55 -6.13 -9.55 0.32 -0.22 0.23 -0.16 0.14 -0.13 0.1 -0.1 0.03 -0.03 -0.01 0.02 -0.03 0.06 -0.04 0.08 -0.03 0.07 -0.03 0.16 -0.03 0.16 -0.01 0.14 0 0.1 0 0.01 0.01 0.08 0.01 0.02 -0.03 -0.08 -0.01 -0.05 -0.05 -0.1 -0.07 -0.15 -0.1 -0.19 -0.11 -0.19 -0.06 -0.11 -0.13 -0.21 -0.19 -0.31 -0.15 -0.24 -0.17 -0.27 -0.18 -0.3 -0.19 -0.32 -0.25 -0.45 -0.23 -0.49 -0.23 -0.58 0.97 -5.54zm-0.97 5.54c-1.06,-2.95 0.47,-6.21 3.42,-7.26 2.95,-1.06 6.21,0.47 7.26,3.42l-10.68 3.85zm3.95 -8.33l8.56 7.45 -0.04 0.05 -0.12 0.14 -0.23 0.24 -0.16 0.16 -0.1 0.1 -0.25 0.24 -0.18 0.16 -0.01 0.01 -0.18 0.16 -0.19 0.15 -0.09 0.08 -0.19 0.16 -0.09 0.07 -0.09 0.08 -0.11 0.09 -0.08 0.07 -0.17 0.14 -0.01 0 0.02 -0.02 -0.17 0.14 -0.09 0.07 0.1 -0.08 -0.08 0.08 -0.08 0.07 0 0 -0.09 0.08 -0.01 0 -0.01 0.01 -0.03 0.02 -0.02 0.03 0.03 -0.04 -0.03 0.05 -0.06 0.06 -8.74 -7.23 0.13 -0.16 0.14 -0.17 0.23 -0.25 0.16 -0.16 0.16 -0.17 0.17 -0.16 0.17 -0.16 0.09 -0.08 0.18 -0.16 0.1 -0.08 0.08 -0.08 0.27 -0.23 0.09 -0.07 0.01 -0.01 0.19 -0.16 0.17 -0.14 0.01 0 0.08 -0.07 0.07 -0.05 0.09 -0.08 0.09 -0.07 -0.01 0.01 0.09 -0.08 -0.01 0 0 0 0.16 -0.15 0.01 -0.01 -0.07 0.06 0.1 -0.1 0.03 -0.03 -0.03 0.03 0.07 -0.08 -0.04 0.05zm0.04 -0.05c2.08,-2.34 5.68,-2.55 8.01,-0.47 2.34,2.08 2.55,5.68 0.47,8.01l-8.48 -7.55zm0.99 -1.1l8.44 7.59 0.01 -0.01 -0.06 0.07 0.16 -0.19 -0.2 0.23 -0.24 0.25 0.17 -0.19 -0.03 0.03 -0.03 0.03 -0.03 0.03 -0.03 0.03 -0.03 0.03 -0.03 0.03 0.19 -0.21 -0.24 0.28 -0.24 0.25 0.2 -0.21 -0.05 0.05 -0.24 0.25 0.2 -0.21 0.16 -0.19 -0.24 0.28 -0.24 0.25 0.2 -0.21 0.16 -0.19 -0.24 0.28 -0.24 0.25 0.2 -0.21 -0.05 0.05 -0.03 0.03 0.19 -0.21 -0.24 0.28 -0.03 0.03 0.03 -0.03 -8.56 -7.45 0.09 -0.1 0.03 -0.03 -0.19 0.21 0.24 -0.28 0.03 -0.03 0.01 -0.01 0.25 -0.27 -0.17 0.19 -0.19 0.21 0.22 -0.26 0.25 -0.27 -0.17 0.19 -0.19 0.21 0.22 -0.26 0.25 -0.27 -0.17 0.19 0.01 -0.01 0.25 -0.27 -0.17 0.19 -0.19 0.21 0.24 -0.28 0.03 -0.03 0.03 -0.03 0.03 -0.03 0.03 -0.03 0.03 -0.03 0.03 -0.03 0.24 -0.25 -0.17 0.19 -0.14 0.16 0.23 -0.27 0.01 0 0.01 -0.01zm-0.01 0.01c2.09,-2.33 5.68,-2.53 8.01,-0.44 2.33,2.09 2.53,5.68 0.44,8.01l-8.45 -7.57zm1.18 -1.48l6.23 -9.48 -0.01 -0.01 0.63 0.43 0.6 0.47 0.57 0.51 0.54 0.56 0.5 0.58 0.43 0.59 0.44 0.69 0.37 0.71 0.27 0.6 0.26 0.71 0.22 0.79 0.14 0.72 0.08 0.68 0.04 0.69 0 0.69 -0.04 0.67 -0.08 0.67 -0.11 0.61 -0.14 0.6 -0.19 0.65 -0.2 0.58 -0.21 0.54 -0.23 0.53 -0.26 0.54 -0.29 0.54 -0.29 0.49 -0.3 0.49 -0.34 0.49 -0.31 0.42 -0.32 0.43 -0.38 0.47 -0.36 0.41 -8.44 -7.59 0.16 -0.18 0.11 -0.14 0.14 -0.19 0.14 -0.2 0.1 -0.16 0.1 -0.14 0.1 -0.17 0.07 -0.12 0.05 -0.12 0.06 -0.13 0.05 -0.13 0.03 -0.09 0.01 -0.03 0.01 -0.07 0.01 -0.06 0 0 0 0.01 0 0.02 0 0.03 0 0.03 0.02 0.08 0.04 0.14 0.03 0.09 -0.01 -0.02 0.05 0.09 0.05 0.1 0.01 0.01 0.01 0 0.01 0.01 -0.03 -0.03 -0.06 -0.05 -0.09 -0.06 -0.01 -0.01zm0.01 0.01c-2.62,-1.71 -3.35,-5.24 -1.64,-7.86 1.71,-2.62 5.24,-3.35 7.86,-1.64l-6.21 9.5zm-11.02 -6.73l5.44 -9.96 0 0 0.38 0.21 0.38 0.22 0.34 0.19 0.39 0.22 0.38 0.21 0.4 0.23 0.36 0.21 0.36 0.21 0.39 0.23 0.38 0.22 0.38 0.23 0.36 0.21 0.38 0.23 0.38 0.23 0.36 0.22 0.4 0.24 0.36 0.23 0.36 0.22 0.41 0.26 0.33 0.21 0.36 0.22 0.38 0.25 0.36 0.23 0.38 0.24 0.37 0.24 0.35 0.23 0.32 0.21 0.37 0.23 0.38 0.25 0.37 0.24 0.32 0.22 0.34 0.22 -6.23 9.48 -0.34 -0.22 -0.35 -0.23 -0.33 -0.21 -0.31 -0.21 -0.33 -0.21 -0.38 -0.25 -0.35 -0.23 -0.33 -0.21 -0.33 -0.21 -0.36 -0.23 -0.33 -0.21 -0.36 -0.22 -0.38 -0.25 -0.31 -0.19 -0.36 -0.22 -0.36 -0.23 -0.33 -0.2 -0.36 -0.22 -0.34 -0.21 -0.35 -0.21 -0.36 -0.21 -0.34 -0.21 -0.35 -0.21 -0.32 -0.19 -0.36 -0.21 -0.36 -0.21 -0.33 -0.19 -0.34 -0.2 -0.32 -0.18 -0.38 -0.21 -0.32 -0.18 -0.33 -0.18 0 0zm0 0c-2.75,-1.5 -3.76,-4.95 -2.26,-7.7 1.5,-2.75 4.95,-3.76 7.7,-2.26l-5.44 9.96zm-7.82 -4.46l5.5 -9.94 0 0 0.28 0.16 0.23 0.14 0.28 0.15 0.3 0.17 0.2 0.12 0.28 0.15 0.27 0.16 0.24 0.14 0.25 0.14 0.22 0.12 0.29 0.16 0.24 0.14 0.19 0.11 0.27 0.16 0.23 0.14 0.24 0.14 0.23 0.14 0.21 0.12 0.27 0.16 0.23 0.14 0.24 0.14 0.23 0.14 0.21 0.12 0.24 0.14 0.24 0.14 0.24 0.14 0.21 0.12 0.22 0.12 0.27 0.16 0.21 0.12 0.23 0.12 0.24 0.13 -5.44 9.96 -0.25 -0.14 -0.28 -0.15 -0.27 -0.16 -0.22 -0.12 -0.27 -0.16 -0.27 -0.15 -0.24 -0.14 -0.24 -0.14 -0.24 -0.14 -0.27 -0.16 -0.23 -0.14 -0.24 -0.14 -0.23 -0.14 -0.21 -0.12 -0.27 -0.16 -0.23 -0.14 -0.24 -0.14 -0.23 -0.14 -0.21 -0.12 -0.29 -0.16 -0.24 -0.14 -0.19 -0.11 -0.26 -0.15 -0.25 -0.14 -0.24 -0.14 -0.22 -0.12 -0.21 -0.12 -0.31 -0.17 -0.19 -0.12 -0.23 -0.12 -0.27 -0.15 -0.24 -0.13 0 0zm0 0c-2.74,-1.51 -3.73,-4.98 -2.22,-7.72 1.51,-2.74 4.98,-3.73 7.72,-2.22l-5.5 9.94zm-1.92 -1.08l5.55 -9.9 -0.25 -0.14 0.19 0.09 0.07 0.04 -0.12 -0.06 0.27 0.14 0.06 0.03 0.07 0.03 0.17 0.1 0.06 0.03 0.06 0.03 0.19 0.1 0.05 0.03 -0.16 -0.09 0.19 0.1 0.28 0.17 -0.17 -0.1 0.05 0.03 0.28 0.17 -0.17 -0.1 0.05 0.03 0.19 0.12 0.05 0.03 0.14 0.09 -0.17 -0.1 0.05 0.03 0.05 0.03 0.05 0.03 0.28 0.17 0.05 0.03 -0.3 -0.17 0.06 0.03 0.28 0.16 -0.07 -0.04 -5.5 9.94 -0.19 -0.11 0.17 0.09 -0.06 -0.03 -0.41 -0.24 -0.05 -0.03 0.17 0.1 -0.05 -0.03 -0.05 -0.03 -0.05 -0.03 -0.28 -0.17 0.03 0.02 -0.05 -0.03 0.08 0.05 -0.05 -0.03 -0.28 -0.17 0.17 0.1 -0.05 -0.03 -0.28 -0.17 0.17 0.1 0.08 0.04 -0.29 -0.16 -0.05 -0.03 0.06 0.03 -0.06 -0.03 -0.06 -0.03 0.05 0.03 -0.07 -0.03 -0.06 -0.03 0.14 0.07 -0.27 -0.13 -0.07 -0.04 0.03 0.02 -0.25 -0.14zm0.25 0.14c-2.8,-1.39 -3.95,-4.8 -2.56,-7.61 1.39,-2.8 4.8,-3.95 7.61,-2.56l-5.04 10.17zm-0.8 -13.46l6.1 3.42 -5.55 9.9 -6.1 -3.42 5.44 -9.96 0.11 0.06zm-5.55 9.9c-2.73,-1.53 -3.7,-5 -2.17,-7.72 1.53,-2.73 5,-3.7 7.72,-2.17l-5.55 9.9zm-32.44 -15.76l4.19 -10.54 0.06 0.02 1.11 0.46 1.11 0.47 1.09 0.47 1.09 0.47 1.11 0.48 1.09 0.49 1.11 0.49 1.08 0.5 1.07 0.49 1.09 0.49 1.08 0.51 1.08 0.52 1.07 0.51 1.07 0.52 1.07 0.52 1.06 0.52 1.04 0.52 1.04 0.52 1.05 0.52 1.05 0.54 1.04 0.53 1.02 0.52 1.02 0.53 1.02 0.52 1.03 0.54 1.01 0.54 1 0.52 1 0.52 1 0.53 1 0.53 0.99 0.52 0.97 0.52 -5.33 10.02 -0.98 -0.52 -0.98 -0.52 -0.96 -0.52 -0.99 -0.52 -0.98 -0.52 -1 -0.52 -1 -0.52 -0.99 -0.51 -1 -0.52 -1.01 -0.52 -1.01 -0.52 -1.01 -0.52 -1.01 -0.51 -1.01 -0.51 -1.03 -0.51 -1.04 -0.52 -1.02 -0.51 -1.02 -0.49 -1.04 -0.5 -1.02 -0.49 -1.04 -0.49 -1.02 -0.48 -1.03 -0.48 -1.07 -0.49 -1.04 -0.47 -1.04 -0.47 -1.04 -0.46 -1.04 -0.45 -1.06 -0.45 -1.06 -0.45 -1.04 -0.44 -1.04 -0.43 0.06 0.02zm-0.06 -0.02c-2.89,-1.19 -4.28,-4.52 -3.09,-7.41 1.19,-2.89 4.52,-4.28 7.41,-3.09l-4.32 10.5zm-2.25 -0.86l4.55 -10.4 -0.01 0 -0.14 -0.06 0.06 0.02 0.31 0.13 0.06 0.03 -0.19 -0.08 -0.03 -0.01 0.31 0.12 0.06 0.03 -0.25 -0.1 0.07 0.02 0.3 0.11 -0.16 -0.05 0.07 0.02 0.3 0.11 -0.16 -0.05 0.07 0.02 0.3 0.11 -0.16 -0.05 0.07 0.02 0.3 0.11 -0.16 -0.05 0.07 0.02 0.3 0.11 -0.16 -0.05 0.07 0.02 0.3 0.11 -0.08 -0.03 0.06 0.02 0.31 0.12 -0.18 -0.07 0.07 0.02 0.2 0.08 -4.19 10.54 0.08 0.03 -0.07 -0.02 -0.3 -0.12 0.17 0.07 -0.06 -0.02 -0.22 -0.08 0.16 0.05 -0.07 -0.02 -0.3 -0.11 0.16 0.05 -0.07 -0.02 -0.3 -0.11 0.16 0.05 -0.07 -0.02 -0.3 -0.11 0.16 0.05 -0.07 -0.02 -0.3 -0.11 0.16 0.05 -0.07 -0.02 -0.3 -0.11 0.16 0.05 -0.07 -0.02 -0.39 -0.15 -0.06 -0.03 0.17 0.07 -0.16 -0.05 -0.31 -0.13 -0.06 -0.03 0.19 0.08 -0.06 -0.02 -0.27 -0.12 -0.01 0zm0.01 0c-2.87,-1.24 -4.19,-4.59 -2.94,-7.46 1.24,-2.87 4.59,-4.19 7.46,-2.94l-4.52 10.4zm-10.51 -4.09l3.31 -10.86 0.08 0.03 0.4 0.13 0.36 0.12 0.36 0.12 0.4 0.13 0.34 0.12 0.36 0.12 0.46 0.16 0.35 0.13 0.36 0.13 0.39 0.14 0.33 0.12 0.35 0.13 0.41 0.16 0.34 0.14 0.35 0.13 0.39 0.15 0.35 0.14 0.36 0.14 0.37 0.15 0.35 0.14 0.36 0.14 0.39 0.16 0.32 0.13 0.35 0.14 0.36 0.16 0.34 0.14 0.38 0.16 0.36 0.16 0.34 0.14 0.32 0.14 0.34 0.14 0.38 0.16 -4.55 10.4 -0.31 -0.14 -0.34 -0.14 -0.36 -0.16 -0.34 -0.14 -0.32 -0.14 -0.3 -0.13 -0.34 -0.14 -0.32 -0.13 -0.35 -0.14 -0.36 -0.16 -0.3 -0.12 -0.33 -0.13 -0.35 -0.14 -0.32 -0.12 -0.32 -0.13 -0.35 -0.14 -0.3 -0.12 -0.35 -0.13 -0.34 -0.14 -0.29 -0.1 -0.35 -0.13 -0.37 -0.14 -0.3 -0.12 -0.34 -0.12 -0.35 -0.13 -0.24 -0.08 -0.36 -0.12 -0.36 -0.13 -0.3 -0.1 -0.34 -0.11 -0.36 -0.12 -0.3 -0.1 0.08 0.03zm-0.08 -0.03c-2.98,-0.96 -4.63,-4.15 -3.67,-7.13 0.96,-2.98 4.15,-4.63 7.13,-3.67l-3.46 10.8zm-10.67 -15.13l14.06 4.3 -3.31 10.86 -14.06 -4.3 3.08 -10.92 0.23 0.06zm-3.31 10.86c-3,-0.91 -4.69,-4.09 -3.77,-7.09 0.91,-3 4.09,-4.69 7.09,-3.77l-3.31 10.86zm-10.29 -5.57l7.63 -8.4 0.01 0 0.27 0.25 0.25 0.23 0.23 0.2 0.18 0.16 0.23 0.19 0.22 0.18 0.13 0.11 0.16 0.13 0.12 0.1 0.14 0.1 0.16 0.12 0.05 0.03 0.07 0.05 0.15 0.09 0.05 0.03 0.05 0.02 0.21 0.11 0.05 0.03 0 0 0.17 0.07 0.21 0.09 0.1 0.04 0.12 0.04 0.14 0.05 0.22 0.06 0.28 0.09 0.21 0.06 0.23 0.07 0.34 0.09 0.32 0.1 0.28 0.08 0.38 0.1 -2.85 10.98 -0.38 -0.1 -0.45 -0.12 -0.35 -0.1 -0.32 -0.09 -0.4 -0.11 -0.38 -0.12 -0.28 -0.09 -0.33 -0.1 -0.38 -0.13 -0.39 -0.14 -0.38 -0.15 -0.25 -0.1 -0.3 -0.12 -0.44 -0.19 -0.38 -0.19 -0.21 -0.11 -0.37 -0.2 -0.36 -0.21 -0.26 -0.16 -0.34 -0.21 -0.37 -0.25 -0.25 -0.19 -0.29 -0.21 -0.32 -0.25 -0.27 -0.21 -0.32 -0.26 -0.25 -0.22 -0.27 -0.22 -0.33 -0.28 -0.3 -0.27 -0.28 -0.25 -0.31 -0.27 0.01 0zm-0.01 0c-2.32,-2.11 -2.49,-5.7 -0.38,-8.02 2.11,-2.32 5.7,-2.49 8.02,-0.38l-7.64 8.4zm-11.96 -12.46l7.31 -8.67 -0.01 -0.01 0.47 0.41 0.5 0.44 0.46 0.43 0.42 0.38 0.45 0.43 0.46 0.45 0.44 0.45 0.42 0.43 0.41 0.43 0.39 0.43 0.4 0.43 0.41 0.44 0.38 0.43 0.38 0.43 0.37 0.42 0.39 0.43 0.38 0.44 0.33 0.37 0.37 0.41 0.36 0.41 0.37 0.41 0.35 0.4 0.34 0.37 0.35 0.38 0.35 0.38 0.32 0.34 0.34 0.35 0.35 0.36 0.31 0.31 0.32 0.32 0.35 0.33 0.32 0.3 -7.63 8.4 -0.45 -0.42 -0.42 -0.4 -0.45 -0.43 -0.45 -0.45 -0.39 -0.41 -0.41 -0.42 -0.42 -0.45 -0.39 -0.42 -0.38 -0.42 -0.41 -0.44 -0.38 -0.43 -0.37 -0.41 -0.36 -0.41 -0.37 -0.41 -0.4 -0.45 -0.35 -0.4 -0.35 -0.39 -0.37 -0.42 -0.36 -0.4 -0.36 -0.39 -0.34 -0.37 -0.36 -0.38 -0.36 -0.38 -0.34 -0.36 -0.35 -0.36 -0.33 -0.34 -0.32 -0.32 -0.34 -0.32 -0.38 -0.36 -0.34 -0.32 -0.31 -0.27 -0.35 -0.3 -0.01 -0.01zm0.01 0.01c-2.4,-2.01 -2.71,-5.59 -0.69,-7.99 2.01,-2.4 5.59,-2.71 7.99,-0.69l-7.3 8.69zm-5.33 -3.33l2.5 -11.06 0 0 0.47 0.11 0.49 0.13 0.34 0.11 0.43 0.14 0.47 0.17 0.42 0.16 0.37 0.16 0.38 0.17 0.41 0.19 0.34 0.16 0.35 0.18 0.36 0.2 0.36 0.2 0.33 0.2 0.33 0.2 0.32 0.21 0.27 0.18 0.32 0.21 0.34 0.25 0.26 0.19 0.23 0.16 0.26 0.19 0.28 0.21 0.33 0.25 0.21 0.17 0.21 0.16 0.23 0.19 0.2 0.16 0.27 0.23 0.22 0.19 0.14 0.12 0.21 0.17 -7.31 8.67 -0.16 -0.13 -0.23 -0.19 -0.15 -0.13 -0.12 -0.1 -0.2 -0.16 -0.17 -0.14 -0.22 -0.17 -0.21 -0.17 -0.1 -0.08 -0.16 -0.12 -0.19 -0.14 -0.23 -0.16 -0.19 -0.14 -0.12 -0.08 -0.16 -0.11 -0.21 -0.14 -0.17 -0.11 -0.16 -0.1 -0.18 -0.1 -0.15 -0.09 -0.15 -0.08 -0.19 -0.1 -0.19 -0.1 -0.14 -0.07 -0.16 -0.06 -0.18 -0.08 -0.14 -0.06 -0.09 -0.03 -0.15 -0.04 -0.23 -0.07 -0.09 -0.03 -0.12 -0.03 0 0zm0 0c-3.05,-0.69 -4.97,-3.73 -4.28,-6.78 0.69,-3.05 3.73,-4.97 6.78,-4.28l-2.5 11.06zm-28.2 4.36l-3.2 -10.89 -0.01 0 0.88 -0.26 0.91 -0.27 0.93 -0.27 0.95 -0.29 0.96 -0.27 0.96 -0.29 0.98 -0.28 0.98 -0.27 1.01 -0.29 1.02 -0.27 1.02 -0.27 1.04 -0.27 1.05 -0.25 1.05 -0.24 1.06 -0.23 1.08 -0.21 1.07 -0.21 1.11 -0.19 1.09 -0.16 1.11 -0.16 1.11 -0.12 1.11 -0.11 1.13 -0.08 1.12 -0.05 1.15 -0.03 1.13 0.01 1.15 0.04 1.15 0.08 1.15 0.12 1.15 0.14 1.16 0.2 1.14 0.24 -2.5 11.06 -0.74 -0.14 -0.75 -0.13 -0.76 -0.1 -0.78 -0.08 -0.79 -0.05 -0.82 -0.03 -0.82 -0.01 -0.83 0.01 -0.86 0.04 -0.86 0.06 -0.87 0.08 -0.89 0.1 -0.88 0.12 -0.9 0.14 -0.89 0.15 -0.92 0.18 -0.91 0.19 -0.92 0.21 -0.94 0.21 -0.93 0.23 -0.92 0.23 -0.94 0.25 -0.92 0.25 -0.93 0.26 -0.95 0.27 -0.93 0.27 -0.94 0.27 -0.93 0.27 -0.92 0.27 -0.91 0.27 -0.91 0.27 -0.92 0.27 -0.01 0zm0.01 0c-3,0.89 -6.17,-0.82 -7.06,-3.83 -0.89,-3 0.82,-6.17 3.83,-7.06l3.23 10.89zm-8.84 3.19l-3.57 -10.78 0.01 -0.01 0.25 -0.08 0.22 -0.08 0.25 -0.08 0.24 -0.08 0.22 -0.08 0.25 -0.1 0.3 -0.11 0.3 -0.12 0.26 -0.09 0.22 -0.08 0.25 -0.1 0.32 -0.12 0.27 -0.1 0.25 -0.1 0.34 -0.13 0.28 -0.1 0.23 -0.09 0.34 -0.13 0.28 -0.1 0.28 -0.11 0.36 -0.14 0.23 -0.08 0.32 -0.12 0.36 -0.12 0.23 -0.08 0.34 -0.12 0.36 -0.12 0.33 -0.11 0.34 -0.11 0.31 -0.1 0.29 -0.09 0.36 -0.11 3.2 10.89 -0.21 0.07 -0.29 0.09 -0.27 0.08 -0.23 0.07 -0.25 0.08 -0.21 0.08 -0.22 0.08 -0.35 0.12 -0.2 0.07 -0.25 0.1 -0.34 0.12 -0.21 0.07 -0.28 0.11 -0.28 0.1 -0.23 0.09 -0.34 0.13 -0.28 0.1 -0.23 0.09 -0.32 0.12 -0.27 0.1 -0.25 0.1 -0.32 0.12 -0.33 0.12 -0.3 0.12 -0.26 0.09 -0.25 0.1 -0.3 0.11 -0.34 0.12 -0.31 0.11 -0.3 0.11 -0.34 0.11 -0.3 0.1 0.01 -0.01zm-0.01 0.01c-2.98,0.98 -6.19,-0.65 -7.17,-3.62 -0.98,-2.98 0.65,-6.19 3.62,-7.17l3.55 10.79zm-8.27 3.39l-4.69 -10.34 0.08 -0.03 0.3 -0.13 0.21 -0.09 0.27 -0.12 0.3 -0.13 0.27 -0.12 0.27 -0.12 0.25 -0.11 0.33 -0.14 0.25 -0.11 0.25 -0.11 0.36 -0.16 0.28 -0.12 0.25 -0.11 0.27 -0.12 0.31 -0.14 0.34 -0.14 0.25 -0.1 0.27 -0.12 0.31 -0.13 0.34 -0.14 0.32 -0.12 0.27 -0.11 0.28 -0.11 0.25 -0.1 0.34 -0.13 0.35 -0.13 0.32 -0.12 0.3 -0.11 0.3 -0.1 0.25 -0.09 0.31 -0.11 0.34 -0.12 3.57 10.78 -0.2 0.06 -0.23 0.08 -0.3 0.1 -0.25 0.09 -0.23 0.08 -0.24 0.09 -0.2 0.08 -0.21 0.09 -0.3 0.12 -0.28 0.11 -0.27 0.11 -0.25 0.1 -0.23 0.1 -0.25 0.1 -0.27 0.12 -0.31 0.13 -0.23 0.1 -0.25 0.11 -0.27 0.12 -0.31 0.14 -0.28 0.12 -0.21 0.09 -0.3 0.14 -0.3 0.12 -0.23 0.1 -0.3 0.14 -0.27 0.12 -0.27 0.12 -0.25 0.1 -0.27 0.12 -0.34 0.14 -0.24 0.1 0.08 -0.03zm-0.08 0.03c-2.87,1.25 -6.22,-0.06 -7.47,-2.93 -1.25,-2.87 0.06,-6.22 2.93,-7.47l4.54 10.4zm-10.87 -7.54l6.25 -2.83 4.69 10.34 -6.25 2.83 -0.15 0.07 -4.54 -10.4zm4.69 10.34c-2.85,1.29 -6.22,0.03 -7.51,-2.82 -1.29,-2.85 -0.03,-6.22 2.82,-7.51l4.69 10.34zm-20.17 10.09l-5.14 -10.12 0 0 0.6 -0.31 0.65 -0.34 0.64 -0.32 0.58 -0.3 0.63 -0.33 0.63 -0.33 0.63 -0.34 0.63 -0.33 0.63 -0.34 0.62 -0.32 0.63 -0.34 0.67 -0.34 0.61 -0.32 0.63 -0.34 0.65 -0.34 0.65 -0.34 0.65 -0.33 0.64 -0.33 0.65 -0.33 0.67 -0.34 0.63 -0.31 0.67 -0.34 0.7 -0.34 0.63 -0.3 0.67 -0.33 0.68 -0.32 0.67 -0.31 0.68 -0.32 0.71 -0.32 0.67 -0.3 0.68 -0.3 0.71 -0.3 4.38 10.47 -0.6 0.25 -0.63 0.28 -0.63 0.27 -0.6 0.27 -0.61 0.27 -0.63 0.3 -0.61 0.29 -0.6 0.29 -0.65 0.32 -0.59 0.28 -0.6 0.31 -0.65 0.32 -0.6 0.3 -0.61 0.32 -0.64 0.33 -0.62 0.32 -0.61 0.32 -0.61 0.32 -0.63 0.34 -0.65 0.34 -0.6 0.32 -0.63 0.34 -0.65 0.34 -0.63 0.34 -0.63 0.33 -0.63 0.34 -0.64 0.33 -0.63 0.33 -0.68 0.36 -0.64 0.32 -0.62 0.32 -0.67 0.34 0 0zm0 0c-2.79,1.42 -6.21,0.3 -7.63,-2.49 -1.42,-2.79 -0.3,-6.21 2.49,-7.63l5.14 10.12zm-31.46 19.43l-6.95 -8.96 -0.01 0 0.74 -0.56 0.79 -0.58 0.82 -0.6 0.88 -0.62 0.93 -0.65 0.97 -0.66 1.02 -0.69 1.07 -0.71 1.09 -0.71 1.11 -0.71 1.15 -0.74 1.17 -0.74 1.18 -0.74 1.19 -0.75 1.22 -0.76 1.22 -0.74 1.22 -0.74 1.2 -0.73 1.2 -0.72 1.2 -0.71 1.18 -0.69 1.16 -0.69 1.13 -0.65 1.09 -0.64 1.09 -0.62 1.02 -0.58 1 -0.56 0.96 -0.53 0.89 -0.49 0.87 -0.47 0.8 -0.42 0.75 -0.38 5.14 10.12 -0.64 0.33 -0.71 0.38 -0.77 0.41 -0.85 0.47 -0.9 0.49 -0.93 0.54 -1 0.56 -1.02 0.59 -1.08 0.63 -1.1 0.64 -1.12 0.66 -1.15 0.68 -1.15 0.69 -1.17 0.71 -1.19 0.71 -1.18 0.71 -1.18 0.73 -1.18 0.73 -1.16 0.72 -1.15 0.73 -1.13 0.71 -1.11 0.71 -1.07 0.7 -1.04 0.68 -1 0.65 -0.96 0.65 -0.91 0.62 -0.85 0.59 -0.8 0.56 -0.74 0.53 -0.65 0.48 -0.57 0.44 -0.01 0zm0.01 0c-2.47,1.92 -6.04,1.48 -7.97,-1 -1.92,-2.47 -1.48,-6.04 1,-7.97l6.97 8.96zm-22.03 11.16l-4.29 -10.51 0 0 0.67 -0.27 0.67 -0.26 0.61 -0.25 0.68 -0.28 0.68 -0.27 0.65 -0.27 0.68 -0.28 0.65 -0.26 0.66 -0.27 0.65 -0.27 0.62 -0.27 0.65 -0.28 0.67 -0.3 0.63 -0.27 0.62 -0.29 0.65 -0.3 0.63 -0.29 0.6 -0.3 0.6 -0.3 0.6 -0.31 0.6 -0.32 0.58 -0.3 0.57 -0.32 0.59 -0.33 0.54 -0.32 0.54 -0.33 0.54 -0.34 0.52 -0.34 0.51 -0.34 0.5 -0.35 0.5 -0.37 0.47 -0.34 6.95 8.96 -0.66 0.51 -0.65 0.47 -0.67 0.47 -0.67 0.45 -0.67 0.44 -0.69 0.43 -0.7 0.43 -0.71 0.41 -0.67 0.38 -0.71 0.39 -0.71 0.38 -0.69 0.36 -0.71 0.36 -0.71 0.35 -0.73 0.35 -0.71 0.33 -0.68 0.32 -0.73 0.33 -0.71 0.32 -0.67 0.3 -0.69 0.31 -0.73 0.31 -0.71 0.29 -0.69 0.29 -0.69 0.29 -0.67 0.27 -0.69 0.28 -0.67 0.27 -0.64 0.27 -0.71 0.28 -0.65 0.26 -0.63 0.26 0 0zm0 0c-2.9,1.18 -6.22,-0.21 -7.4,-3.11 -1.18,-2.9 0.21,-6.22 3.11,-7.4l4.29 10.51zm-22.42 4.91l0 -11.35 0 0 0.35 -0.01 0.41 -0.01 0.43 -0.03 0.47 -0.03 0.49 -0.05 0.56 -0.06 0.56 -0.08 0.58 -0.09 0.63 -0.1 0.62 -0.1 0.6 -0.11 0.65 -0.12 0.66 -0.13 0.67 -0.14 0.66 -0.14 0.67 -0.16 0.69 -0.16 0.65 -0.16 0.67 -0.16 0.65 -0.17 0.65 -0.17 0.63 -0.17 0.61 -0.18 0.62 -0.18 0.6 -0.19 0.54 -0.16 0.54 -0.18 0.54 -0.19 0.48 -0.16 0.45 -0.16 0.44 -0.16 0.38 -0.15 4.29 10.51 -0.57 0.22 -0.56 0.22 -0.61 0.22 -0.62 0.22 -0.62 0.2 -0.65 0.22 -0.69 0.22 -0.68 0.2 -0.69 0.21 -0.72 0.21 -0.73 0.2 -0.73 0.2 -0.75 0.19 -0.74 0.19 -0.76 0.19 -0.74 0.17 -0.76 0.17 -0.76 0.16 -0.76 0.16 -0.74 0.14 -0.75 0.15 -0.79 0.14 -0.74 0.12 -0.71 0.11 -0.72 0.1 -0.71 0.09 -0.69 0.09 -0.71 0.07 -0.69 0.06 -0.69 0.04 -0.67 0.03 -0.65 0.01 0 0zm0 0c-3.13,0 -5.68,-2.54 -5.68,-5.68 0,-3.13 2.54,-5.68 5.68,-5.68l0 11.35z"/>
     <path id="1" class="fil1" d="M126.77 207.91c-6.32,0 -10.99,0.02 -16.75,-2.81 -4.24,-2.08 -28.94,-19.21 -34.29,-22.85l-6.36 -4.3c-0.49,-0.32 -0.67,-0.35 -1.17,-0.65 -0.34,-0.21 -0.65,-0.47 -1.05,-0.76 -2.87,-2.05 -6.52,-4.44 -10.25,-3.68 -4.05,0.82 -6.26,4.47 -6.26,8.44 0,5.84 3.9,12.1 5.94,17.37 1.44,3.72 3.26,7.13 4.83,10.82 1.75,4.14 6.49,14.08 6.49,17.83 0,1.23 -0.45,1.35 -1.08,2.39 -0.56,0.93 -0.88,1.16 -1.4,2 -4.72,7.54 -18.5,22.64 -18.5,29.62l0 2.04c0,2.25 2.15,4.28 4.36,4.28 6.65,0 13.46,-3.61 19.48,-5.88 1.44,-0.54 2.65,-1.2 4.06,-1.81 0.8,-0.35 1.27,-0.64 1.97,-1 3.01,-1.55 9.01,-4.38 11.66,-6.02 4.36,-2.69 9.22,-4.59 13.86,-6.76 2.8,-1.31 6.01,-2.11 8.98,-2.8 7.04,-1.64 11.79,-1.48 18.89,-1.48 2.58,0 15.55,1.61 16.74,2.67l-1.94 1.89c-6.76,6.53 -6.81,10.47 3.86,13.67 5.64,1.69 11.4,1.97 17.37,1.97 7.2,0 18.32,-2.37 23.09,-5.76 1.97,-1.41 3,-0.87 5.41,-0.13 3.59,1.09 15.05,2.97 17.42,4.3 -0.12,1.53 -5.94,8.86 -7.19,10.34 -2.65,3.14 -5.98,8.03 -5.98,12.27 0,9.42 18.16,3.56 22.84,1.42 3.62,-1.65 6.65,-3.8 9.88,-6 0.71,-0.48 1.52,-1.13 2.2,-1.65 0.38,-0.29 0.87,-0.56 1.22,-0.82 5.75,-4.18 9.34,-8.37 17.9,-7.86 9.72,0.58 20.38,0.62 30.16,-0.71 2.32,-0.32 4.65,-0.66 7.04,-0.96 5.95,-0.72 21.04,-3.68 26.63,-5.32 6.11,-1.81 12.55,-3.13 18.58,-5.2l17.92 -5.91c6.78,-2.3 13.29,-5.02 19.87,-7.79 4.63,-1.96 9.11,-3.86 13.35,-6.58 6.39,-4.1 1.44,-8.56 0.76,-10.45 1.02,-1.23 1.85,-1.51 2.89,-2.68 0.32,-0.37 0.61,-0.68 0.97,-1.08 2.8,-3.12 4.07,-7.39 0.07,-10.01 -3.62,-2.38 -7.63,-4.9 -11.4,-6.96 -2.68,-1.46 -5.02,-2.91 -7.79,-4.45 -0.65,-0.36 -1.09,-0.66 -1.89,-1.06l-6.1 -3.42c-10.39,-5.54 -21.63,-11.35 -33.12,-16.08 -0.67,-0.27 -1.5,-0.54 -2.13,-0.81 -3.65,-1.59 -7.34,-3.11 -11.11,-4.32l-14.06 -4.3c-4.14,-1.07 -5.02,-1.51 -8.13,-4.34 -4.14,-3.77 -7.71,-8.89 -12.12,-12.6 -1.92,-1.62 -4.57,-3.8 -7.73,-4.52 -10.02,-2.27 -21.52,1.62 -31.06,4.45 -3.08,0.91 -6.07,2.27 -9.02,3.24 -2.86,0.95 -5.98,2.37 -8.84,3.62l-6.25 2.83c-7,2.93 -13.63,6.76 -20.4,10.2 -7.04,3.57 -25.77,14.87 -32.37,20.01 -5.96,4.63 -13.75,7.55 -20.69,10.38 -4.87,1.99 -15.04,4.49 -20.28,4.49z"/>
    </g>
   </g>
  </g>
 </g>
</svg>
