<?xml version="1.0" encoding="UTF-8"?>
<!DOCTYPE svg PUBLIC "-//W3C//DTD SVG 1.1//EN" "http://www.w3.org/Graphics/SVG/1.1/DTD/svg11.dtd">
<!-- Creator: CorelDRAW 2019 (64-Bit) -->
<svg xmlns="http://www.w3.org/2000/svg" xml:space="preserve" width="8.6381mm" height="10.224mm" version="1.1" style="shape-rendering:geometricPrecision; text-rendering:geometricPrecision; image-rendering:optimizeQuality; fill-rule:evenodd; clip-rule:evenodd"
viewBox="0 0 754.34 892.84"
 xmlns:xlink="http://www.w3.org/1999/xlink"
 xmlns:xodm="http://www.corel.com/coreldraw/odm/2003">
 <defs>
  <style type="text/css">
   <![CDATA[
    .fil0 {fill:white}
   ]]>
  </style>
 </defs>
 <g id="Capa_x0020_1">
  <metadata id="CorelCorpID_0Corel-Layer"/>
  <g id="_1086791504">
   <path class="fil0" d="M24.95 854.23l0 -163.02c0,-4.56 2.19,-6.22 6.82,-6.21l80.24 0.02c4.62,-0.01 8.72,-0.21 8.72,4.89l0 173.43c0,2.05 -2.61,4.4 -4.82,4.4l-85.43 0c-6.37,0 -5.6,-6.72 -5.09,-10.89 0.08,-1 -0.44,-1.51 -0.44,-2.62zm224.79 -142.65c0,3.13 2.11,6.05 3.6,7.41 1.77,1.62 4.6,2.8 6.94,3.88l5.51 2.75c11.67,6.09 36.99,16.53 50.84,21.58l8.21 2.61c1.54,0.57 2.27,0.91 3.87,1.35l24.89 7.26c11.95,2.75 23.4,5.63 35.87,6.93l19.61 1.68c13.76,0.72 18.28,0.27 31.2,-0.36 9.61,-0.46 27.44,-3.6 36.69,-6.21 1.55,-0.44 2.98,-0.59 4.32,-0.98l35.83 -12.27c12.39,-4.82 46.37,-21.52 57.35,-28.53 4.93,-3.14 10.72,-5.89 15.73,-8.94l8.2 -4.82c7.72,-4.24 15.89,-10.14 23.6,-14.13 1.62,-0.84 1.69,-1.11 3.2,-2.01l26.89 -16.03c9.13,-5.16 17.94,-10.81 27.11,-15.78 3.33,-1.8 7.2,-4.24 10.99,-5.08 6.87,-1.51 11.58,-2.08 18.12,0.69 16.57,6.99 27,28.2 17.72,45.52 -5.34,9.98 -18.83,15.64 -28.34,21.12 -1.5,0.86 -1.23,0.89 -2.72,1.62 -4.44,2.17 -8.61,5.04 -13.03,7.35 -1.8,0.94 -3.69,1.97 -5.3,2.92 -10.37,6.08 -21.19,11.34 -31.72,17.32 -3.63,2.07 -7.18,3.69 -10.78,5.71l-65.36 32.62c-1.82,0.87 -3.55,1.61 -5.58,2.65 -1.08,0.56 -2.1,0.86 -3.01,1.32l-25.41 11.42c-4.34,2.03 -21.47,9.28 -26.41,10.89l-32.55 12.13c-4.04,1.26 -8.23,2.9 -12.51,4.03 -12.44,3.33 -25.31,8.14 -38.3,10.6 -4.35,0.82 -9.21,2.24 -13.51,3.05 -8.23,1.56 -35.9,5.46 -43.65,5.46l-22.55 0c-5.11,0 -10.28,-1.05 -14.78,-1.37 -11.71,-0.82 -22.64,-2.93 -34.02,-5.08 -9.91,-1.88 -24.09,-4.94 -33.59,-5.89 -4.63,-0.46 -8.92,-1.49 -13.87,-1.76l-29.49 -1.08c-2.8,0 -6.73,0.55 -9.97,0.72l-14.46 1.6c-1.6,0.28 -3.01,0.38 -4.58,0.56 -7.6,0.91 -23.31,4.21 -30.49,6.47 -1.62,0.52 -2.58,0.59 -4.14,1.02 -2.8,0.76 -5.45,2.1 -8.24,2.01 -1.83,-3.89 -0.78,-30.32 -0.78,-37.22l0 -94.52c0,-15.78 -2.42,-15.66 8.51,-19.5 5.54,-1.96 27.23,-12.87 32.02,-15.22l19.44 -8.75c9.07,-4.15 18.16,-7.31 27.85,-9.86 20.85,-5.48 37.87,-4.47 58.51,0.11 13.73,3.04 31.6,9.26 45.89,13.91 7.4,2.41 14.9,4.09 22.43,7.09 1.68,0.66 4.13,1.14 5.97,1.83 1.77,0.65 3.69,1.12 5.54,1.75 3.89,1.33 7.59,2.44 11.2,3.55 7.75,2.38 14.93,4.41 22.43,7.08l11.54 3.64c1.2,0.38 2.06,0.47 3.08,0.82 0.89,0.3 1.53,0.65 2.55,0.96 5.18,1.55 11.28,3.41 14.77,7.31 6.64,7.43 5.33,20.46 -0.66,27.66 -6.03,7.24 -12.85,6.15 -21.53,6.15 -8.52,0 -28.68,-2.29 -37.87,-4.12 -5.34,-1.07 -12.03,-2.22 -17.08,-3.72l-16.31 -4.45c-2.1,-0.52 -3.41,-1.15 -5.29,-1.67 -0.97,-0.26 -1.77,-0.37 -2.72,-0.71 -19.41,-6.95 -38.46,-13.8 -57.02,-22.86 -8.06,-3.94 -17.35,-10.43 -25.03,-5.34 -4.57,3.03 -5.35,6.9 -5.35,12.17zm7.96 -81c-3.98,0 -9.51,0.83 -13.75,1.46 -14.44,2.13 -13.41,4.16 -16.1,-1.18 -3.27,-6.46 -4.04,-9.33 -6.73,-15.36 -2.65,-5.96 -9.1,-27.61 -10.12,-34.57 -0.66,-4.51 -1.48,-7.98 -1.98,-12.77 -0.45,-4.31 -0.9,-8.92 -1.45,-13.79 -1.16,-10.37 0.45,-32.18 1.87,-41.89 1.34,-9.25 3.27,-15.94 5.15,-24.41l3.55 -11.21c0.7,-2.52 2.91,-8.53 4.1,-10.61 2.26,0.24 3.2,1.92 4.15,3.48 3.26,5.35 10.55,11.7 15.02,16.21 1.27,1.27 2.79,2.58 4.11,3.69 6.65,5.54 10.79,8.12 18.31,12.92 14.08,8.97 13.97,2.51 11.27,16.57 -0.48,2.51 -0.58,4.79 -0.86,6.99 -0.85,6.54 -1.24,11.58 0.78,18.22 3.65,11.96 12.03,18.24 23.36,23 3.04,1.28 5.38,1.72 7.74,3.93 7.2,6.77 12.66,19.99 16.91,29.48 1.14,2.54 2.27,5.63 3.27,8.42l10.04 24.26c2.17,4.93 7.96,13.93 8.11,14.85 -2.32,0.39 -7.45,-1.41 -9.83,-2.29l-28.91 -8.85c-5.56,-1.84 -14.43,-3.85 -20.5,-4.58 -11.68,-1.41 -15.5,-1.96 -27.49,-1.96zm287.46 -28.31c-6.46,2.24 -8.5,7.44 -10.41,14.32 -0.8,2.88 -2.31,6.37 -3.14,9.4 -1.19,4.34 -1,5.21 -5.66,6.51 -2.9,0.8 -6.12,2.24 -8.98,3.17 -19.83,6.41 -13.82,7.13 -26.27,0.76 -4.61,-2.36 -4.15,-1.21 -6.22,-6.35 -1.08,-2.67 -2.13,-6.43 -2.94,-9.21 -0.92,-3.13 -2.43,-6.48 -3.17,-9.4 -0.22,-0.86 -0.33,-1.59 -0.59,-2.41 -0.49,-1.51 -2.41,-4.87 -1.1,-7.18l28.72 -29.39c0.07,-0.06 0.16,-0.15 0.23,-0.21l1.71 -1.79c2.64,-2.89 4.86,-2.94 8.58,-3.41 4.29,-0.54 7.1,-1.23 10.9,-1.72l10.58 -1.62c8.3,-1.14 9.24,-5.2 12.61,-11.69l8.22 -16.52c3.23,-7.47 -0.49,-12.85 -2.2,-19.87 -0.95,-3.91 -5.4,-16.13 -5.31,-19l4.31 -20.24c1.33,-4.97 4.29,-16.28 3.96,-20.62 -0.4,-5.2 -4.76,-14.06 -6.14,-18.5l-3.43 -9.17c-0.3,-0.86 -0.38,-1.5 -0.69,-2.32 -0.82,-2.13 -2.65,-4.01 -0.4,-6.86 2.1,-2.67 9.26,-12.04 11.25,-13.16 1.64,-0.93 2.44,0.82 3.57,2.11l18.5 24.43c3.35,5.05 5.75,9.66 9.13,15.58l7.89 16.84 9.25 28.07c2.12,8.44 2.65,12.67 4.18,20.5 0.72,3.62 0.75,7.14 1.12,10.94 0.77,8.16 0.9,14.82 0.92,23.42l-1.76 22.96c-2.69,13.62 1.26,10.44 -12.78,12 -10.49,1.15 -26.05,8.95 -36.76,12.55l-17.68 7.08zm-242.4 -94.48c0,-4.26 -2.83,-10.95 -5.2,-13.83 -5.06,-6.15 -14.85,-9.43 -23.28,-14.44 -13.35,-7.92 -29.26,-24.48 -36.61,-38.41 -2.1,-3.97 0.08,-5.89 4.24,-12.04 2.78,-4.11 5.15,-7.52 7.94,-11.1 7.89,-10.15 22.43,-26.17 32.54,-33.39 8.07,-5.75 4.12,-4.51 13.4,-2.02 9.25,2.49 12.88,3.43 22.81,5.02 9.43,1.51 15.2,0.59 23.27,0.55 1.93,-0.02 3.51,-0.24 5.45,-0.56 7.58,-1.24 18.58,-1.48 25.26,3.2 1.18,0.83 2.26,1.34 3.17,2.48 4.03,5.01 3.57,14.42 1.27,19.21 -3.19,6.66 -31.99,15.07 -37.16,16.12l-19.42 4.44c-1.48,0.6 -3.31,1.15 -4.39,1.69 -2.54,1.26 -5.08,2.98 -7.06,4.65 -7.02,5.96 -7.99,11.93 -7.99,20.29 0,6.99 5.96,16.29 10.1,21.22 1.63,1.94 3.14,3.3 4.89,5.07 3.01,3.04 8.07,6.85 12.26,8.55 4.82,1.95 11.23,2.59 16.68,3.62 1.83,0.35 6.6,1.55 8.24,2.24 3.96,1.66 4.23,0.72 5.15,5.21 1.24,6.01 3.77,9.76 7.54,12.88 2.24,1.86 4.08,2.57 6.15,4.26 5.27,4.32 11.34,12.72 11.34,19.32 0,5.13 -1.54,7.81 -7.06,10.58 -3.57,1.78 -6.61,4.29 -9.56,6.92 -2.12,1.9 -5.92,6.79 -7.13,9.34 -5.36,11.39 -4.45,24.08 1.41,35.11 1.5,2.83 2.29,4.25 1,8.1 -0.7,2.1 -1.19,6.05 -3.25,7.33 -0.79,-0.58 -0.15,-0.01 -0.71,-0.73 -1.57,-2.06 -12.23,-31.49 -15.42,-37.52l-11.28 -20.37c-0.79,-0.92 -1.14,-1.26 -1.96,-2.38 -1.62,-2.26 -6.56,-7.01 -8.98,-8.81 -3.89,-2.89 -7.58,-4.22 -12.36,-5.8 -12.59,-4.17 -8.59,-11.6 -6.97,-21.19 1.52,-8.97 1.69,-6.17 1.69,-14.81zm16.46 -146.99c2.22,-2.68 29.53,-12.66 32.62,-13.34 7.31,-1.62 14.49,-4.23 22.06,-5.31 9.02,-1.29 23.83,-3.5 32.97,-3.51 9.09,-0.01 25.9,0.67 34,2.45 9.96,2.19 19.96,3.4 29.68,6.79l13.43 4.71c7.27,2.4 15.33,6.29 22.04,10.09l14.24 8.32c5.35,3.43 10.71,7.06 15.88,11.43 2.09,1.77 3.57,2.06 4.46,4.82 -3.66,6.2 -11.68,14.12 -16.18,20.41 -2.62,3.66 -5.37,6.59 -5.37,11.68 0,1.54 9.08,26.66 11.59,32.35 2.8,6.37 2.22,7.41 0.3,14.92 -0.49,1.91 -0.95,2.93 -1.27,4.8 -0.34,1.96 -0.65,2.99 -1.21,4.92 -0.52,1.76 -0.59,3.46 -1.09,5.34 -1.66,6.18 -3.37,11.93 -3.37,18.31 0,1.55 1.86,7.15 2.57,9.11l2.78 8.1c0.25,0.9 0.38,1.96 0.77,3.09 2.18,6.28 3.62,7.15 0.16,13.32 -0.64,1.15 -0.55,1.49 -1.25,2.66 -1.05,1.76 -1.24,3.25 -3.53,3.73 -6.2,1.3 -24.57,2.1 -28.84,4.67 -3.91,2.36 -18.02,17.84 -22.42,22.22l-3.34 4.03c-1.1,1.28 -2.46,2.46 -3.69,3.69 -5.03,5.05 -9.75,9.89 -14.52,14.99 -2.48,2.65 -4.56,5.94 -4.46,10.48 0.05,2.45 4.41,16.22 5.71,20.21l4.53 13.71c5,17.36 4.17,17.54 17.56,23.62 5,2.27 19.12,10.25 23.66,9.78 1.54,-0.16 3.65,-1.57 5.18,-2.23 1.7,-0.72 3.91,-1.31 5.47,-1.9l22.03 -7.48c19.46,-5.79 16.91,-7.11 23.58,-25.02 0.84,-2.26 1.29,-5.96 3.57,-7.23 4.53,-2.53 10.65,-4.55 15.54,-6.57l10.58 -4.17c4.09,-1.49 13.2,-5.57 16.85,-4.5 -0.02,3.94 -0.91,3.83 -1.74,6.58l-3.62 8.98c-0.56,1.5 -0.51,1.44 -1.18,2.71l-8.33 16.38c-1.95,3.6 -4.22,6.91 -6.22,10.26l-15.76 21.53c-3.25,4.39 -9.8,10.44 -13.98,14.63l-22.46 18.75c-1.65,1.24 -3.19,2.19 -4.83,3.39l-7.62 4.94c-4.1,2.72 -8.86,4.97 -13.09,7.33 -3.6,2 -7.75,3.41 -11.62,4.83 -4.54,1.68 -21.12,7.35 -25.62,6.79 -1.04,-4.28 6.38,-14.86 -1.68,-33.09 -2.14,-4.83 -4.86,-9.13 -8.5,-12.78 -6.47,-6.48 -15.49,-10.62 -24.37,-12.9l-24.38 -7.71c-7.46,-2.79 -40.17,-12.02 -43.8,-14.16 0.42,-1.19 1.57,-1.59 3.1,-2.4 1.34,-0.72 2.14,-1.26 3.15,-2.05 4.83,-3.79 8.53,-9.98 10.89,-15.55l7.13 -19.37c1.82,-6.72 3.82,-10.72 -0.83,-16.28 -2.91,-3.45 -6.08,-9.58 -4.78,-15.33 1.13,-5 7.08,-7.67 11.12,-10.09 7.91,-4.74 16.05,-16.38 16.05,-26.02 0,-8.96 -0.67,-12.93 -3.7,-21.03 -5.79,-15.5 -21.28,-25.23 -22.1,-26.47 -1.62,-2.45 -0.78,-10.25 -10.35,-16.96 -3.13,-2.19 -6.3,-3.81 -9.82,-5.36 -0.9,-0.4 -1.25,-0.67 -2.14,-0.95 -0.77,-0.25 -1.59,-0.35 -2.4,-0.59l-9.28 -2.77c-11.05,-2.74 -11.64,-0.65 -20.02,-10.4 -2.63,-3.06 -3.57,-4.94 1.72,-6.12 8.49,-1.9 16.85,-3.16 25.1,-5.7 11.35,-3.48 23.93,-8.1 33.43,-15.13 1.36,-1 2.09,-1.66 3.24,-2.82 4.45,-4.48 7.79,-8.9 9.14,-15.12 0.36,-1.62 1,-3.22 1.31,-4.8 3.59,-17.79 -2.42,-33.81 -15.53,-42.98 -1.78,-1.25 -2.09,-1.34 -3.8,-2.24 -1.55,-0.84 -2.43,-1.17 -4.1,-1.94 -7.36,-3.37 -17.07,-5.03 -25.34,-5.03 -7.69,0 -10.35,2.12 -14.74,2.12 -5.88,0 -11.26,0.22 -17.19,-0.51 -2.56,-0.31 -2.81,-0.03 -3.69,-2.08zm105.82 -159.13c0,-3.38 2.02,-4.15 3.78,-6.25l14.36 -15.55c0.98,-1.04 1.34,-1.96 2.24,-2.96l7.09 -7.65c1.26,-1.32 5.92,-6.05 6.58,-8.16l0.94 -3.53c0,2 0.22,4.23 -0.14,6.15 -3.3,17.59 -13.05,36.28 -25.01,49.48 -1.62,1.79 -7.55,8.63 -9.1,8.63 -0.85,-0.94 -0.74,-0.4 -0.74,-1.95l0 -18.21zm-60.98 -73.56c2.1,6.21 1.52,6.24 5.75,10.46 2.79,2.79 5.62,5.09 8.65,7.82 0.51,0.45 0.59,0.55 1.14,1.03l4.38 3.87c0.07,0.06 0.17,0.15 0.24,0.21l3.01 2.62c2.81,2.45 5.82,5.05 8.41,7.62 1.69,1.68 2.9,1.94 2.93,5.2l-0.03 49.03c0,1.99 0.64,6.31 -1.27,5.69 -2.5,-0.81 -12.82,-13.68 -15.52,-17.4 -1.68,-2.32 -5.34,-7.33 -6.6,-9.89 -1.76,-3.58 -3.48,-6.69 -5.34,-10.74 -7.12,-15.58 -8.69,-31.93 -6.91,-49.07 0.38,-3.67 1.03,-5.31 1.16,-6.45zm1.25 -8.39c0,-0.82 3.14,-11.61 3.69,-13.18l3.33 -9.18c2.03,-4.86 6.58,-15.24 9.08,-19.58 0.81,-1.41 0.86,-1.65 1.48,-2.86 4.42,-8.69 21.64,-35.11 28.75,-41.27 2.36,0.87 7.27,7.92 9.46,10.72l8.25 11.68c7.27,10.01 10.89,17.93 16.38,28.28 0.57,1.07 0.94,2.07 1.53,3.25l5.85 14.12c0.8,2.32 1.72,5.27 2.33,7.62 0.41,1.56 0.99,2.59 1.33,3.93 0.35,1.4 0.41,2.57 0.8,3.92 0.89,3.14 1.17,5.06 1.76,8.2 1.6,8.43 3.8,22.95 0.55,31.51 -1.69,-3.27 -1.48,-12.97 -14.42,-12.97 -8.68,0 -15.7,15.13 -19.95,15.72 -1.07,-2.17 -0.48,-19.32 -0.48,-22.99 0,-3.07 2.28,-4.76 3.86,-6.61l9.47 -11.34c1.69,-1.95 7.82,-9.01 9.1,-11.71 2.36,-4.99 1.24,-11.15 -3.48,-15.25 -8.63,-7.5 -17.29,0.91 -18.51,0.75 -1.07,-2.38 0.95,-14.05 -7.85,-17.75 -4.95,-2.09 -6.22,-1.99 -10.64,-0.4 -2.79,1 -5.48,3.5 -6.67,5.89 -4.45,8.96 0.31,41.26 -2.25,48.47 -2.77,-0.93 -6.44,-5.17 -8.64,-7.13 -5.66,-5.07 -6.35,-5.92 -13.33,-5.92 -3.75,0 -9.1,4.37 -10.22,7.35 -0.82,-1.07 -0.57,-0.52 -0.57,-3.26zm59.94 193.23c-0.85,-4.24 -0.21,-38.57 -0.21,-45.81 0,-13.5 -1.88,-10.45 7.81,-18.25l4.82 -3.85c12.34,-10.82 23.93,-22.86 31.98,-36.96 11.18,-19.58 17.64,-38.94 17.61,-62.78 -0.03,-15.03 -2.49,-27.99 -5.62,-40.49l-2.09 -7.01c-0.34,-0.86 -0.47,-0.92 -0.79,-1.83 -3.25,-9.13 -5.56,-15.32 -9.86,-24.41 -2.42,-5.11 -5.31,-9.93 -7.97,-14.99 -0.79,-1.51 -1.21,-1.98 -2.13,-3.53 -0.98,-1.64 -1.19,-1.92 -2.1,-3.5 -0.6,-1.05 -0.73,-1.02 -1.22,-1.83 -0.42,-0.71 -0.42,-0.89 -0.92,-1.69 -4.17,-6.67 -11.77,-17.5 -16.85,-23.46l-4.96 -6.31c-3.39,-4.15 -7.5,-8.31 -11.07,-11.92 -5.31,-5.38 -11.96,-5.88 -18.26,-0.84l-4.27 4.42c-13.02,14.14 -24.01,29.68 -33.99,46.23l-8.03 14.92c-1.39,2.52 -2.5,5.48 -3.83,7.9 -4.12,7.41 -11.47,30.07 -12.95,38.59 -0.88,5.05 -1.83,9.72 -2.24,14.99 -0.28,3.66 -0.43,7.13 -0.78,10.72 -0.65,6.85 0.58,14.47 1.14,21.33 0.92,11.39 6.31,25.75 10.51,34.92 6.43,14.03 16.23,25.64 26.27,37.05 1.11,1.25 1.62,1.8 2.8,2.84l12.17 10.81c8.31,7.04 8.33,3.41 8.33,14.56 0,7.66 0,15.32 0,22.98 0,32.28 1.96,27.46 -6.15,28.35 -20.06,2.18 -37.59,5.62 -56.79,12.28 -2.73,0.95 -5.6,2.31 -8.07,3.13 -5.3,1.73 -10.75,4.8 -15.92,7.11l-28.98 16.98c-4.85,3.05 -15.32,10.98 -19.46,14.81 -2.19,2.03 -4.07,3.53 -5.9,5.36 -7.58,7.57 -15.54,14.88 -22.43,23.57 -6.82,8.59 -13.56,17.41 -19.05,26.88 -0.73,1.26 -1.43,2.44 -2.38,3.71 -0.67,0.92 -0.46,0.68 -1.17,1.85 -0.47,0.79 -0.56,0.75 -1.02,1.59l-2.75 5.93c-6.97,13.2 -13.43,27.94 -17.26,42.54l-4.75 18.3c-2.28,10.4 -2.88,19.97 -3.95,30.31 -1.47,14.18 -0.47,29.67 1.3,43.25 2.52,19.2 7.17,37.45 14.15,54.76 1.42,3.53 5.97,13.03 6.51,16.27l-7.02 3.35c-0.91,0.4 -1.45,0.46 -2.52,0.93l-45.81 21.87c-9.75,4.65 -6.86,2.56 -11.71,-1.38 -0.31,-0.26 -0.5,-0.35 -0.97,-0.76 -7.39,-6.43 -14.93,-7.56 -26.16,-7.56l-54.2 0c-11.64,0 -27.28,-2.11 -37.85,2.81 -9.29,4.34 -15.82,12.13 -17.54,22.78 -1.14,6.99 -0.46,19.06 -0.46,26.78l0 148.73c-0.03,10.27 4.17,21.97 12.95,27.29 8.33,5.05 10.37,5.24 22.09,5.24l81.08 0c5.89,0 7.14,-0.21 11.97,-1.93 6.22,-2.22 10.99,-7.08 14.49,-12.39 1.09,-1.67 1,-2.91 2.57,-4.38 0.59,-0.55 3.27,-1.71 4.38,-2.11 1.92,-0.71 3.08,-0.78 5.3,-1.63 1.95,-0.75 3.23,-0.87 5.34,-1.62 6.58,-2.31 25.5,-6.46 32.74,-7.56 14.92,-2.28 35.39,-3.44 51.44,-1.51 9.08,1.09 26.44,3.57 35.08,5.62 3.02,0.72 7.91,1.72 11.13,2.3 11.5,2.07 23.17,4.13 34.9,5.5 4.01,0.47 8.18,0.62 12.19,1.08 12.18,1.41 27.19,0.63 39.59,-0.4 8.02,-0.66 16.58,-1.25 24.49,-2.73l17.26 -3.21c2.05,-0.34 3.09,-0.81 5.26,-1.28 2.1,-0.46 3.83,-0.55 5.73,-1.16l10.79 -2.72c7.75,-1.43 28.74,-8.46 36.32,-10.84 8.69,-2.72 16.78,-6.04 25.33,-8.99l4.72 -1.81c1.82,-0.72 3.76,-1.38 5.02,-1.9l33.35 -13.91c1.62,-0.66 3.14,-1.29 4.81,-2.13l9.3 -4.14c1.51,-0.72 3.26,-1.51 4.8,-2.16l45.73 -21.88c5.94,-3.14 11.93,-5.96 17.89,-8.99l26.4 -13.93c8.38,-4.75 18.36,-9.39 26.37,-14.37 4.12,-2.56 8.74,-4.51 13.09,-7.28 4.25,-2.72 8.67,-4.75 13.06,-7.34 10.9,-6.46 24.09,-11.96 32.5,-21.69 1.14,-1.33 2.1,-2.26 3.29,-3.65l2.65 -3.86c1.98,-2.77 3.24,-5.75 4.7,-8.73 2.79,-5.69 4.56,-16.82 3.92,-23.41 -0.37,-3.75 -0.89,-8.09 -1.83,-11.6 -5.93,-22.04 -25.75,-43.63 -49.79,-45.1 -11.87,-0.72 -22.44,1.57 -32.46,6.92 -11.58,6.18 -22.51,13.81 -33.92,20.25l-16.83 10.05c-2.81,1.7 -5.41,3.54 -8.34,5.1 -2.19,1.17 -6.44,4.8 -8.86,4.24 -0.1,-2.48 5.43,-9.55 6.92,-12.22 4.56,-8.18 9.33,-16.73 12.85,-25.33 3.58,-8.75 7.98,-18.91 10.27,-28.41 1.3,-5.41 2.84,-9.87 3.76,-15.33 0.45,-2.69 1.21,-4.73 1.61,-7.75l2.25 -17.03c0.27,-3.05 0.65,-5.59 0.79,-8.65 0.26,-6.05 0.36,-12.54 0.36,-19.08 0,-12.24 -1.64,-23 -3.38,-34.83 -1.39,-9.47 -4.13,-18.04 -6.65,-27.05 -0.44,-1.57 -0.43,-2.05 -1.08,-3.74l-2.49 -7.01c-0.87,-2.6 -1.51,-4.62 -2.54,-7.02 -1.99,-4.65 -3.5,-8.95 -5.82,-13.27 -1.19,-2.23 -1.96,-4.17 -3.11,-6.41 -6.31,-12.17 -13.98,-24.52 -22.46,-35.23l-10.76 -13.06c-2.79,-3.96 -8.69,-8.68 -11.89,-12.4 -3.59,-4.17 -21.25,-18.66 -26.08,-21.61 -2.03,-1.24 -3.4,-2.52 -5.67,-3.87 -2.03,-1.22 -3.82,-2.67 -5.96,-4.01 -12.01,-7.53 -24.87,-14.08 -38.18,-19.09l-17.6 -6.2c-5.65,-1.7 -14.55,-3.39 -19.13,-4.73 -5.02,-1.48 -19.4,-3.42 -24.86,-3.87 -1.77,-0.15 -2.73,-0.31 -4.35,-0.38 -2.54,-0.11 -2.17,0.06 -3.73,-0.98z"/>
   <path class="fil0" d="M63.83 733.69c0,-6.27 11.68,-12.08 17.16,-4.54 7.27,10 -5.04,22.1 -14.02,14.02 -3.44,-3.1 -3.14,-5.18 -3.14,-9.48zm10.45 -33.83c-25.83,0 -45.24,27.25 -31.54,53.24 4.17,7.91 13.74,15.2 22.71,17.18 5.06,1.12 10.47,0.95 15.65,0.15 5.75,-0.89 12.94,-5.21 17.09,-9.36 2.9,-2.91 5.03,-5.99 7.06,-10.3 8.15,-17.38 0.64,-39.41 -16.71,-47.36 -3.89,-1.77 -9.22,-3.55 -14.25,-3.55z"/>
  </g>
 </g>
</svg>
