<?xml version="1.0" encoding="UTF-8"?>
<!DOCTYPE svg PUBLIC "-//W3C//DTD SVG 1.1//EN" "http://www.w3.org/Graphics/SVG/1.1/DTD/svg11.dtd">
<!-- Creator: CorelDRAW 2019 (64-Bit) -->
<svg xmlns="http://www.w3.org/2000/svg" xml:space="preserve" width="6.4039mm" height="8.1661mm" version="1.1" style="shape-rendering:geometricPrecision; text-rendering:geometricPrecision; image-rendering:optimizeQuality; fill-rule:evenodd; clip-rule:evenodd"
viewBox="0 0 96.46 123"
 xmlns:xlink="http://www.w3.org/1999/xlink"
 xmlns:xodm="http://www.corel.com/coreldraw/odm/2003">
 <defs>
  <style type="text/css">
   <![CDATA[
    .str0 {stroke:white;stroke-width:1.99;stroke-miterlimit:22.9256}
    .fil2 {fill:none}
    .fil1 {fill:#142142}
    .fil0 {fill:white;fill-rule:nonzero}
   ]]>
  </style>
      <mask id="id0">
  <linearGradient id="id1" gradientUnits="userSpaceOnUse" x1="-37.94" y1="-14.82" x2="-37.93" y2="102.65">
   <stop offset="0" style="stop-opacity:1; stop-color:white"/>
   <stop offset="1" style="stop-opacity:0; stop-color:white"/>
  </linearGradient>
       <rect style="fill:url(#id1)" x="3.01" y="1" width="92.45" height="92.45"/>
      </mask>
 </defs>
 <g id="Capa_x0020_1">
  <metadata id="CorelCorpID_0Corel-Layer"/>
  <g id="_998396496">
   <path class="fil0" d="M12.6 122.19c-0.76,0.26 -1.54,0.46 -2.33,0.6 -0.79,0.14 -1.57,0.21 -2.34,0.21 -0.76,0 -1.47,-0.08 -2.14,-0.24 -0.66,-0.16 -1.26,-0.39 -1.81,-0.69 -1.24,-0.71 -2.22,-1.7 -2.93,-2.96 -0.71,-1.27 -1.07,-2.65 -1.07,-4.16 0,-2.41 0.74,-4.35 2.21,-5.82 1.47,-1.47 3.41,-2.21 5.82,-2.21 0.69,0 1.42,0.07 2.19,0.2 0.77,0.13 1.56,0.33 2.39,0.59l0 3.56 -1.3 0 -0.35 -2.1 -0.31 -0.42c-0.44,-0.2 -0.88,-0.35 -1.3,-0.45 -0.42,-0.1 -0.85,-0.15 -1.29,-0.15 -1.75,0 -3.13,0.59 -4.16,1.78 -1.02,1.19 -1.53,2.81 -1.53,4.86 0,2.18 0.53,3.89 1.6,5.12 1.07,1.24 2.55,1.86 4.44,1.86 0.33,0 0.66,-0.02 1,-0.07 0.34,-0.05 0.67,-0.13 1.01,-0.23l0.36 -0.36 0.56 -2.57 1.25 0 0 3.65zm1.78 -14.99l5.62 0 0 0.93 -1.43 0.13 -0.39 0.33 0 5.46 7.96 0 0 -5.46 -0.39 -0.33 -1.43 -0.13 0 -0.93 5.62 0 0 0.93 -1.32 0.13 -0.39 0.33 0 12.74 0.39 0.33 1.32 0.11 0 0.95 -5.62 0 0 -0.95 1.43 -0.11 0.39 -0.33 0 -6.22 -7.96 0 0 6.22 0.39 0.33 1.43 0.11 0 0.95 -5.62 0 0 -0.95 1.31 -0.11 0.4 -0.33 0 -12.74 -0.4 -0.33 -1.31 -0.13 0 -0.93zm17.11 15.52l0 -0.95 1.48 -0.11 0.39 -0.33 0 -12.74 -0.39 -0.33 -1.48 -0.13 0 -0.93 5.87 0 0 0.93 -1.48 0.13 -0.39 0.33 0 12.74 0.39 0.33 1.48 0.11 0 0.95 -5.87 0zm20.29 -0.53c-0.76,0.26 -1.54,0.46 -2.33,0.6 -0.79,0.14 -1.57,0.21 -2.34,0.21 -0.76,0 -1.47,-0.08 -2.14,-0.24 -0.66,-0.16 -1.26,-0.39 -1.81,-0.69 -1.24,-0.71 -2.22,-1.7 -2.93,-2.96 -0.71,-1.27 -1.07,-2.65 -1.07,-4.16 0,-2.41 0.74,-4.35 2.21,-5.82 1.47,-1.47 3.41,-2.21 5.82,-2.21 0.69,0 1.42,0.07 2.19,0.2 0.77,0.13 1.56,0.33 2.39,0.59l0 3.56 -1.3 0 -0.35 -2.1 -0.31 -0.42c-0.44,-0.2 -0.88,-0.35 -1.3,-0.45 -0.42,-0.1 -0.85,-0.15 -1.29,-0.15 -1.75,0 -3.13,0.59 -4.16,1.78 -1.02,1.19 -1.53,2.81 -1.53,4.86 0,2.18 0.53,3.89 1.6,5.12 1.07,1.24 2.55,1.86 4.44,1.86 0.33,0 0.66,-0.02 1,-0.07 0.34,-0.05 0.67,-0.13 1.01,-0.23l0.36 -0.36 0.56 -2.57 1.25 0 0 3.65zm1.78 0.53l0 -0.95 1.31 -0.11 0.4 -0.33 0 -12.74 -0.4 -0.33 -1.31 -0.13 0 -0.93 5.62 0 0 0.93 -1.43 0.13 -0.39 0.33 0 6.27 0.88 0 5.14 -6.27 -0.13 -0.33 -1.3 -0.13 0 -0.93 4.81 0 0 0.93 -1.52 0.2 -4.85 5.78 5.25 7.55 1.68 0.11 0 0.95 -3.82 0 0 -0.69 -4.41 -6.23 -1.71 0 0 5.53 0.39 0.33 1.43 0.11 0 0.95 -5.62 0zm14.13 0l0 -0.95 1.31 -0.11 0.4 -0.33 0 -12.74 -0.4 -0.33 -1.31 -0.14 0 -0.93 11.08 0 0 3.38 -1.3 0 -0.33 -1.96 -0.32 -0.35 -5.35 0 0 5.85 3.79 0 0.33 -0.33 0.23 -1.68 1.09 0 0 5.09 -1.09 0 -0.23 -1.66 -0.33 -0.35 -3.79 0 0 6.48 6.19 0 0.33 -0.38 0.39 -2.33 1.2 0 0 3.77 -11.91 0zm13.23 0l0 -0.95 1.41 -0.18 0.42 -0.44 0 -12.56 -0.42 -0.33 -1.48 -0.13 0 -0.93 4.34 0 0 0.58 7.89 11.85 0 -10.88 -0.42 -0.42 -1.39 -0.2 0 -0.93 4.86 0 0 0.93 -1.39 0.2 -0.42 0.42 0 13.97 -1.53 0 -8.81 -13.14 0 11.57 0.42 0.44 1.39 0.18 0 0.95 -4.88 0z"/>
   <g>
    <g>
     <path class="fil1" style="mask:url(#id0)" d="M14.35 1l69.77 0c6.24,0 11.34,5.1 11.34,11.34l0 69.77c0,6.24 -5.1,11.34 -11.34,11.34l-69.77 0c-6.24,0 -11.34,-5.1 -11.34,-11.34l0 -69.77c0,-6.24 5.1,-11.34 11.34,-11.34z"/>
     <path id="1" class="fil2 str0" d="M14.35 1l69.77 0c6.24,0 11.34,5.1 11.34,11.34l0 69.77c0,6.24 -5.1,11.34 -11.34,11.34l-69.77 0c-6.24,0 -11.34,-5.1 -11.34,-11.34l0 -69.77c0,-6.24 5.1,-11.34 11.34,-11.34z"/>
    </g>
    <g>
     <path class="fil0" d="M62.29 22.84l-0.37 -2.46 -0 0 0.03 -0 0.03 -0 0.1 -0.01 0.03 -0 0.03 -0 0.06 -0 0.02 -0 0.06 -0 0.03 0 0.03 -0 0.03 0 0.03 -0 0.06 -0 0.03 0 -0.01 0 0.03 -0 0.06 -0 0.03 0 -0.01 0 0.03 -0 0.06 -0 -0.01 0 -0.01 0 0.03 -0 0.03 -0 0.03 -0 0.03 -0 -0.01 0 -0.01 0 0.03 -0 -0 0 0.01 -0 0.36 2.46 -0.04 0.01 -0.06 0.01 -0.02 0 -0.06 0.01 -0.06 0 -0.03 0 -0.03 0 -0.03 0 -0.03 0 -0.06 0 -0.06 0 0.01 -0 -0.03 0 -0.06 0 -0.03 0 0.01 -0 -0.03 0 -0.06 0 -0.03 0 0.01 -0 -0.03 0 -0.03 0 -0.03 0 -0.02 0 0.01 0 -0.03 0 0.01 0 -0.03 0 -0.03 0 0.05 -0.01 -0.03 0 -0.02 0 -0 0zm0 0c-0.68,0.1 -1.31,-0.36 -1.42,-1.04 -0.1,-0.68 0.36,-1.31 1.04,-1.42l0.38 2.46zm-0.73 0.13l-0.36 -2.46 -0 0 0.02 -0 -0.01 0 0.02 -0 0.06 -0.01 -0.02 0 0.02 -0 0.03 -0 -0.02 0 0.05 -0.01 0.03 -0 -0.02 0 0.02 -0 0.02 -0 0.02 -0 0.03 -0.01 0.06 -0.01 0.02 -0 -0.01 0 0.02 -0 0.02 -0 0.02 -0 0.02 -0 0.02 -0 0.02 -0 0.07 -0.01 0.02 -0 -0.02 0 0.06 -0.01 0.02 -0 -0.01 0 0.06 -0.01 0.03 -0 0.37 2.46 -0.02 0 0.01 -0 -0.06 0.01 -0.02 0 0.02 -0 -0.06 0.01 -0.02 0 0.02 -0 -0.02 0 -0.02 0 -0.02 0 -0.02 0 -0.02 0 -0.02 0 -0.06 0.01 -0.02 0 0.01 -0 -0.02 0 -0.02 0 -0.02 0 -0.02 0 -0.06 0.01 -0.01 0 0.01 -0 -0.06 0.01 -0.01 0 -0.02 0 -0.06 0.01 0.01 -0 -0.02 0 -0.06 0.01 -0.02 0 -0 0zm0 0c-0.68,0.1 -1.31,-0.37 -1.41,-1.05 -0.1,-0.68 0.37,-1.31 1.05,-1.41l0.36 2.46zm-2.93 2.44l-2.23 -1.11 0 -0 0.09 -0.17 0.09 -0.16 0.09 -0.16 0.1 -0.16 0.1 -0.16 0.11 -0.17 0.11 -0.15 0.11 -0.15 0.12 -0.16 0.12 -0.15 0.12 -0.14 0.13 -0.14 0.14 -0.15 0.14 -0.13 0.14 -0.14 0.15 -0.13 0.15 -0.13 0.16 -0.12 0.16 -0.12 0.17 -0.12 0.17 -0.11 0.17 -0.1 0.18 -0.1 0.18 -0.09 0.19 -0.09 0.2 -0.08 0.19 -0.07 0.19 -0.06 0.2 -0.06 0.21 -0.05 0.21 -0.04 0.21 -0.03 0.36 2.46 -0.12 0.02 -0.12 0.02 -0.11 0.03 -0.11 0.03 -0.12 0.04 -0.11 0.04 -0.1 0.04 -0.1 0.05 -0.11 0.05 -0.1 0.06 -0.11 0.06 -0.1 0.06 -0.09 0.06 -0.1 0.08 -0.1 0.08 -0.09 0.08 -0.09 0.08 -0.09 0.09 -0.09 0.09 -0.08 0.09 -0.09 0.1 -0.09 0.1 -0.08 0.1 -0.08 0.1 -0.08 0.11 -0.08 0.11 -0.07 0.1 -0.07 0.12 -0.07 0.11 -0.07 0.12 -0.06 0.12 -0.06 0.11 0 -0zm-0 0c-0.31,0.61 -1.05,0.86 -1.67,0.56 -0.61,-0.31 -0.86,-1.05 -0.56,-1.67l2.23 1.11zm-0.54 1.23l-2.23 -1.1 -0 0 0.02 -0.04 0.02 -0.03 0.01 -0.02 0.02 -0.04 0.01 -0.03 0.02 -0.04 0.01 -0.02 0.01 -0.03 0.02 -0.05 0.02 -0.04 0.02 -0.04 0.01 -0.03 0.02 -0.04 0.02 -0.04 0.01 -0.02 0.02 -0.06 0.02 -0.04 0.01 -0.02 0.03 -0.06 0.02 -0.04 0.01 -0.03 0.02 -0.04 0.02 -0.04 0.02 -0.06 0.02 -0.04 0.03 -0.06 0.02 -0.04 0.02 -0.04 0.02 -0.05 0.02 -0.04 0.03 -0.05 0.02 -0.05 2.23 1.11 -0.02 0.03 -0.01 0.02 -0.02 0.04 -0.01 0.03 -0.02 0.04 -0.02 0.04 -0.01 0.02 -0.02 0.04 -0.01 0.02 -0.02 0.04 -0.02 0.04 -0.02 0.05 -0.02 0.04 -0 0.01 -0.02 0.06 -0.02 0.04 -0.01 0.02 -0.02 0.06 -0.02 0.04 -0.02 0.04 -0.02 0.05 -0.02 0.04 -0.02 0.04 -0.01 0.03 -0.02 0.05 -0.03 0.06 -0.02 0.04 -0.02 0.05 -0.02 0.04 -0.03 0.06 -0.03 0.05 -0.02 0.04 -0 0zm0 -0c-0.3,0.62 -1.05,0.87 -1.66,0.57 -0.62,-0.3 -0.87,-1.05 -0.57,-1.66l2.24 1.09zm-2 4.91l-2.28 -1 -0.01 0.01 0.05 -0.11 0.05 -0.12 0.05 -0.13 0.05 -0.14 0.06 -0.15 0.06 -0.16 0.06 -0.16 0.07 -0.17 0.07 -0.17 0.07 -0.17 0.07 -0.18 0.07 -0.18 0.07 -0.18 0.07 -0.18 0.07 -0.19 0.08 -0.19 0.07 -0.18 0.07 -0.19 0.07 -0.18 0.07 -0.18 0.07 -0.18 0.07 -0.17 0.07 -0.17 0.07 -0.16 0.06 -0.16 0.06 -0.16 0.06 -0.14 0.06 -0.13 0.06 -0.13 0.05 -0.12 0.05 -0.12 0.05 -0.11 2.23 1.1 -0.03 0.07 -0.04 0.08 -0.04 0.1 -0.05 0.11 -0.05 0.12 -0.06 0.14 -0.06 0.13 -0.06 0.15 -0.06 0.16 -0.06 0.16 -0.07 0.17 -0.07 0.17 -0.07 0.18 -0.07 0.18 -0.07 0.18 -0.08 0.19 -0.07 0.18 -0.07 0.18 -0.07 0.19 -0.07 0.18 -0.07 0.18 -0.07 0.18 -0.07 0.18 -0.07 0.17 -0.07 0.16 -0.06 0.17 -0.06 0.16 -0.06 0.15 -0.06 0.15 -0.06 0.14 -0.05 0.13 -0.05 0.12 -0.01 0.01zm0.01 -0.01c-0.27,0.63 -1,0.92 -1.63,0.66 -0.63,-0.27 -0.92,-1 -0.66,-1.63l2.29 0.98zm-3.07 0.79l0.79 -1.78 2.28 1 -0.79 1.78 -0.04 0.08 -2.24 -1.08zm2.28 1c-0.28,0.63 -1.01,0.91 -1.64,0.64 -0.63,-0.28 -0.91,-1.01 -0.64,-1.64l2.28 1zm-0.37 0.71l-2.17 -1.22 -0.05 0.1 0.01 -0.03 0.02 -0.04 0 -0.01 0.02 -0.05 0.01 -0.02 0.01 -0.02 0.03 -0.05 0 0 0.01 -0.02 0.01 -0.02 0.01 -0.02 0.02 -0.04 0.02 -0.04 0.01 -0.02 -0 0 0.01 -0.02 0.02 -0.04 0.03 -0.05 0.01 -0.02 -0.01 0.02 -0 0 0.03 -0.05 0.03 -0.05 -0.02 0.04 -0 0 0.02 -0.04 0.01 -0.02 0.03 -0.05 0 -0 -0.01 0.01 0.02 -0.04 0.01 -0.02 2.2 1.16 -0.01 0.03 -0 0.01 -0.03 0.05 -0.02 0.04 0.01 -0.01 -0.01 0.02 -0 0 -0.02 0.04 -0.04 0.07 0.01 -0.02 0.01 -0.02 -0.02 0.04 -0.03 0.05 -0.01 0.02 0.01 -0.02 0 -0 -0.01 0.02 -0.02 0.04 -0.01 0.02 0 -0 0 -0 -0.01 0.02 -0.01 0.02 -0.01 0.02 -0.02 0.04 0.01 -0.02 -0.01 0.02 -0.01 0.02 0.01 -0.01 -0.02 0.04 -0 0.01 -0.01 0.02 -0.05 0.1zm0.05 -0.1c-0.28,0.63 -1.02,0.91 -1.64,0.63 -0.63,-0.28 -0.91,-1.02 -0.63,-1.64l2.27 1.01zm-2.84 -0.02l0.62 -1.1 2.17 1.22 -0.62 1.1 -0.03 0.05 -2.14 -1.27zm2.17 1.22c-0.34,0.6 -1.1,0.81 -1.69,0.48 -0.6,-0.34 -0.81,-1.1 -0.48,-1.69l2.17 1.22zm-0.37 0.56l-2.11 -1.32 0 -0 0.02 -0.03 0.03 -0.04 -0.01 0.01 0.02 -0.04 0.03 -0.04 -0 0 0.03 -0.04 0.03 -0.04 -0 0.01 0 -0.01 0.03 -0.04 0.01 -0.02 0.02 -0.02 0.03 -0.04 0 -0.01 -0.01 0.01 0.01 -0.02 0.01 -0.02 -0.01 0.02 0.02 -0.04 0.04 -0.05 -0.01 0.01 0.01 -0.02 0.01 -0.02 0.01 -0.02 -0 0.01 -0.01 0.02 0.02 -0.04 0.02 -0.03 -0 0.01 0.01 -0.02 0 -0.01 2.11 1.31 -0.02 0.03 -0.01 0.02 -0.03 0.04 -0 0 0.01 -0.01 -0.03 0.05 -0.03 0.04 -0.01 0.02 -0.01 0.02 -0.01 0.02 -0.03 0.04 0.02 -0.02 0.01 -0.01 -0.03 0.05 -0.01 0.02 -0.01 0.02 -0.03 0.04 -0.02 0.02 0 -0.01 -0 0.01 -0.01 0.02 0 -0.01 -0.02 0.03 -0.03 0.04 0 -0.01 0 -0 -0.03 0.04 0 -0 0 -0 -0.03 0.05 0 -0 -0.01 0.01 0 -0zm-0 0c-0.36,0.58 -1.13,0.76 -1.71,0.39 -0.58,-0.36 -0.76,-1.13 -0.39,-1.71l2.11 1.32zm-9.34 0.63l0.87 -2.33 -0 0 0.34 0.13 0.33 0.13 0.32 0.13 0.31 0.13 0.3 0.13 0.29 0.13 0.28 0.12 0.27 0.12 0.26 0.11 0.25 0.1 0.24 0.09 0.22 0.08 0.22 0.07 0.21 0.06 0.19 0.05 0.18 0.04 0.17 0.03 0.15 0.02 0.14 0 0.12 -0.01 0.11 -0.02 0.11 -0.03 0.11 -0.03 0.11 -0.05 0.11 -0.06 0.12 -0.08 0.13 -0.1 0.13 -0.12 0.14 -0.15 0.15 -0.18 0.16 -0.21 0.16 -0.25 2.11 1.32 -0.23 0.35 -0.24 0.33 -0.25 0.3 -0.26 0.27 -0.27 0.25 -0.28 0.22 -0.3 0.2 -0.31 0.17 -0.32 0.14 -0.32 0.1 -0.33 0.07 -0.33 0.05 -0.32 0.02 -0.32 -0.01 -0.31 -0.03 -0.3 -0.05 -0.3 -0.06 -0.3 -0.08 -0.28 -0.08 -0.29 -0.09 -0.29 -0.1 -0.28 -0.11 -0.28 -0.11 -0.28 -0.12 -0.29 -0.12 -0.29 -0.13 -0.29 -0.13 -0.29 -0.13 -0.3 -0.13 -0.3 -0.12 -0.3 -0.12 -0.31 -0.12 -0 0zm0 0c-0.64,-0.24 -0.97,-0.96 -0.73,-1.6 0.24,-0.64 0.96,-0.97 1.6,-0.73l-0.87 2.33zm-0.66 -0.28l0.98 -2.29 0.01 0 0.02 0.01 0.02 0.01 0.03 0.02 0.02 0.01 0.02 0.01 0.02 0.01 -0.02 -0.01 0.06 0.02 0.02 0.01 -0.02 -0.01 0.06 0.02 0.02 0.01 0.02 0.01 0.02 0.01 -0.02 -0.01 0.06 0.02 0.02 0.01 -0.02 -0.01 0.06 0.02 0 0 -0.02 -0.01 0.06 0.02 0.02 0.01 -0.02 -0.01 0 0 0.06 0.02 0.02 0.01 -0.03 -0.01 0.02 0.01 0.06 0.02 0.01 0 0 0 -0.87 2.33 -0.04 -0.02 -0.04 -0.02 0.02 0.01 -0.02 -0.01 -0.07 -0.03 -0.02 -0.01 0.02 0.01 -0.04 -0.01 -0.06 -0.02 -0.02 -0.01 0.02 0.01 -0.06 -0.02 -0.03 -0.02 0.02 0.01 -0.06 -0.02 -0.02 -0.01 0.02 0.01 -0.06 -0.02 -0.02 -0.01 -0.02 -0.01 -0.02 -0.01 0.02 0.01 -0.06 -0.02 -0.02 -0.01 0.02 0.01 -0.06 -0.02 -0.02 -0.01 -0.02 -0.01 -0.02 -0.01 -0 0 -0.02 -0.01 -0.01 -0.01 0.01 0zm-0.01 -0c-0.63,-0.27 -0.92,-1.01 -0.64,-1.64 0.27,-0.63 1.01,-0.92 1.64,-0.64l-0.99 2.28zm-3.76 -1.03l0.16 -2.48 -0 0 0.15 0.01 0.15 0.01 0.15 0.02 0.15 0.02 0.15 0.02 0.15 0.02 0.15 0.02 0.15 0.03 0.15 0.03 0.15 0.03 0.14 0.03 0.15 0.03 0.15 0.04 0.15 0.04 0.14 0.04 0.15 0.04 0.15 0.04 0.15 0.04 0.14 0.05 0.14 0.05 0.14 0.05 0.14 0.05 0.14 0.05 0.14 0.05 0.14 0.05 0.14 0.05 0.14 0.05 0.13 0.05 0.13 0.05 0.13 0.05 0.13 0.05 0.13 0.05 -0.98 2.29 -0.11 -0.05 -0.11 -0.05 -0.12 -0.05 -0.12 -0.05 -0.12 -0.05 -0.11 -0.04 -0.12 -0.05 -0.12 -0.04 -0.12 -0.04 -0.12 -0.04 -0.12 -0.04 -0.12 -0.04 -0.12 -0.04 -0.13 -0.04 -0.12 -0.04 -0.12 -0.03 -0.12 -0.03 -0.12 -0.03 -0.12 -0.03 -0.12 -0.03 -0.12 -0.03 -0.12 -0.03 -0.11 -0.03 -0.11 -0.02 -0.12 -0.02 -0.12 -0.02 -0.11 -0.02 -0.11 -0.02 -0.11 -0.02 -0.11 -0.01 -0.11 -0.01 -0.11 -0.01 -0 0zm0 0c-0.69,-0.04 -1.21,-0.63 -1.16,-1.32 0.04,-0.69 0.63,-1.21 1.32,-1.16l-0.15 2.48zm-1.5 -0.82l1.96 -1.54 -0 -0 0.01 0.01 0.02 0.02 0.03 0.05 -0 -0 0.02 0.02 0.03 0.05 -0.03 -0.03 -0.01 -0.01 0.04 0.04 -0.01 -0.01 -0.04 -0.04 -0.04 -0.04 -0.01 -0.01 0.01 0.01 -0.04 -0.03 -0.04 -0.03 0.02 0.01 -0.04 -0.03 -0.06 -0.04 -0.02 -0.01 -0.03 -0.02 -0.03 -0.01 -0.04 -0.02 -0.04 -0.01 0.02 0 0.01 0 -0.03 -0 -0.01 -0 -0.01 -0 -0 0 0.03 0 0.01 0 -0.16 2.48 -0.06 -0 -0.04 -0 -0.07 -0.01 -0.07 -0.01 -0.07 -0.01 -0.08 -0.02 -0.04 -0.01 -0.03 -0.01 -0.08 -0.02 -0.08 -0.03 -0.07 -0.03 -0.07 -0.03 -0.06 -0.03 -0.1 -0.05 -0.07 -0.05 -0.02 -0.01 -0.07 -0.05 -0.07 -0.06 -0.01 -0.01 -0.04 -0.04 -0.06 -0.06 -0.06 -0.07 -0.03 -0.04 0.01 0.01 -0.03 -0.04 -0.05 -0.07 0.01 0.01 -0.01 -0.01 -0.03 -0.04 0.01 0.01 -0.01 -0.01 -0.02 -0.03 -0 -0zm0 0c-0.42,-0.54 -0.33,-1.32 0.2,-1.75 0.54,-0.42 1.32,-0.33 1.75,0.2l-1.95 1.54zm-1.61 -1.74l1.76 -1.76 0 0 0.05 0.05 0.05 0.05 0.06 0.06 0.05 0.05 0.05 0.05 0.06 0.06 0.06 0.06 0.05 0.06 0.06 0.06 0.05 0.06 0.06 0.06 0.05 0.06 0.05 0.05 0.07 0.07 0.05 0.06 0.06 0.06 0.06 0.07 0.05 0.05 0.05 0.06 0.06 0.07 0.05 0.06 0.05 0.06 0.06 0.07 0.06 0.07 0.05 0.06 0.05 0.06 0.06 0.07 0.06 0.07 0.05 0.06 0.06 0.07 0.06 0.08 0.05 0.07 -1.96 1.54 -0.05 -0.06 -0.04 -0.05 -0.05 -0.06 -0.05 -0.06 -0.05 -0.06 -0.04 -0.05 -0.05 -0.06 -0.05 -0.06 -0.04 -0.05 -0.04 -0.05 -0.05 -0.06 -0.05 -0.06 -0.04 -0.05 -0.05 -0.06 -0.06 -0.06 -0.04 -0.05 -0.05 -0.05 -0.05 -0.06 -0.04 -0.04 -0.06 -0.06 -0.05 -0.06 -0.05 -0.05 -0.05 -0.06 -0.06 -0.06 -0.05 -0.06 -0.05 -0.05 -0.06 -0.06 -0.05 -0.05 -0.05 -0.05 -0.06 -0.06 -0.05 -0.05 -0.05 -0.05 0 0zm0 0c-0.49,-0.49 -0.49,-1.27 0,-1.76 0.49,-0.49 1.27,-0.49 1.76,0l-1.76 1.76zm-3.59 -2.82l0.91 -2.31 0 0 0.17 0.07 0.17 0.08 0.17 0.08 0.17 0.09 0.16 0.09 0.15 0.09 0.16 0.09 0.16 0.11 0.15 0.1 0.15 0.1 0.15 0.11 0.15 0.11 0.15 0.11 0.14 0.11 0.14 0.11 0.14 0.12 0.14 0.12 0.14 0.12 0.14 0.12 0.13 0.12 0.13 0.12 0.13 0.12 0.13 0.12 0.13 0.12 0.12 0.11 0.12 0.11 0.12 0.11 0.11 0.11 0.11 0.11 0.1 0.1 0.1 0.1 0.1 0.1 -1.76 1.76 -0.09 -0.09 -0.1 -0.09 -0.1 -0.1 -0.1 -0.1 -0.1 -0.1 -0.11 -0.1 -0.11 -0.11 -0.12 -0.11 -0.11 -0.1 -0.11 -0.1 -0.12 -0.11 -0.12 -0.11 -0.12 -0.1 -0.12 -0.1 -0.12 -0.1 -0.12 -0.1 -0.12 -0.1 -0.12 -0.1 -0.12 -0.1 -0.12 -0.09 -0.12 -0.09 -0.12 -0.08 -0.13 -0.09 -0.12 -0.08 -0.11 -0.07 -0.12 -0.07 -0.12 -0.07 -0.11 -0.06 -0.1 -0.05 -0.1 -0.05 -0.1 -0.05 -0.1 -0.04 0 0zm-0 -0c-0.64,-0.25 -0.95,-0.98 -0.69,-1.62 0.25,-0.64 0.98,-0.95 1.62,-0.69l-0.92 2.31zm-0.69 -0.26l-0.56 -2.43 0 0 0.12 -0.02 0.09 -0.01 0.09 -0.01 0.11 -0.01 0.11 -0 0.09 0 0.08 0.01 0.08 0.01 0.09 0.01 0.06 0.01 0.08 0.01 0.09 0.02 0.07 0.02 0.06 0.02 0.07 0.02 0.07 0.02 0.06 0.02 0.06 0.02 0.05 0.02 0.07 0.02 0.06 0.02 0.05 0.02 0.06 0.02 0.03 0.01 0.05 0.02 0.07 0.03 0.03 0.01 0.06 0.02 0.03 0.02 0.03 0.01 0.05 0.02 0.02 0.01 -0.91 2.31 -0.05 -0.02 -0.02 -0.01 -0.05 -0.02 -0.04 -0.02 -0.02 -0.01 -0.05 -0.02 -0.02 -0.01 -0.04 -0.01 -0.06 -0.02 -0.03 -0.01 -0.04 -0.02 -0.03 -0.01 -0.02 -0.01 -0.04 -0.01 -0.03 -0.01 -0.03 -0.01 -0.03 -0.01 -0.03 -0.01 -0.03 -0.01 -0.03 -0.01 -0.01 -0 -0.02 -0 -0.03 -0 -0.01 -0 -0.01 -0 -0.01 0 -0 0 0.02 -0 0.02 0 0 -0 0 0 0.04 -0.01 0 0zm-0 0c-0.67,0.15 -1.34,-0.27 -1.49,-0.93 -0.15,-0.67 0.27,-1.34 0.93,-1.49l0.56 2.43zm-1.35 1.06l0.81 -2.35 -1.58 0.77 0 -0.01 0 -0.02 0.01 -0.04 0 -0.01 0.01 -0.04 0.01 -0.04 0.01 -0.04 0.01 -0.04 0.01 -0.04 0.02 -0.06 0.01 -0.04 0.02 -0.07 0.02 -0.07 0.01 -0.04 0.03 -0.09 0.04 -0.09 0.02 -0.05 0.04 -0.08 0.04 -0.08 0.05 -0.09 0.06 -0.09 0.06 -0.09 0.08 -0.09 0.07 -0.08 0.1 -0.09 0.08 -0.07 0.11 -0.08 0.12 -0.07 0.12 -0.06 0.13 -0.05 0.12 -0.04 0.13 -0.04 0.56 2.43 0.04 -0.01 0.03 -0.01 0.05 -0.02 0.04 -0.02 0.04 -0.03 0.05 -0.03 0.02 -0.02 0.04 -0.04 0.02 -0.02 0.03 -0.03 0.02 -0.02 0.01 -0.02 0.01 -0.02 0 -0.01 0 -0.01 -0.01 0.03 0.01 -0.01 0 -0.01 -0.01 0.04 -0 0.02 -0 0.02 -0.01 0.04 -0.01 0.02 -0.01 0.04 -0.01 0.04 -0.01 0.04 -0.01 0.04 -0.01 0.05 -0.02 0.07 -0.01 0.04 -0.02 0.07 -0.02 0.07 -1.58 0.77zm1.58 -0.77c-0.22,0.65 -0.94,0.99 -1.58,0.77 -0.65,-0.22 -0.99,-0.94 -0.77,-1.58l2.35 0.82zm-2.9 0.41l0 -2.49 0 0 0.09 0 0.09 0 0.08 0 0.09 0.01 0.09 0.01 0.09 0.01 0.07 0.01 0.07 0.01 0.07 0.01 0.08 0.01 0.09 0.02 0.07 0.02 0.08 0.02 0.07 0.02 0.05 0.01 0.08 0.02 0.07 0.02 0.06 0.02 0.05 0.02 0.07 0.02 0.07 0.03 0.06 0.02 0.04 0.01 0.05 0.02 0.08 0.03 0.06 0.02 0.05 0.02 0.03 0.01 0.05 0.02 0.05 0.02 0.04 0.01 0.04 0.02 -0.81 2.35 -0.05 -0.02 -0.06 -0.02 -0.04 -0.02 -0.05 -0.02 -0.06 -0.02 -0.05 -0.02 -0.04 -0.02 -0.03 -0.01 -0.05 -0.02 -0.07 -0.02 -0.05 -0.02 -0.03 -0.01 -0.04 -0.01 -0.05 -0.02 -0.05 -0.02 -0.03 -0.01 -0.04 -0.01 -0.06 -0.02 -0.03 -0.01 -0.04 -0.01 -0.04 -0.01 -0.02 -0 -0.04 -0.01 -0.04 -0.01 -0.04 -0.01 -0.04 -0.01 -0.03 -0 -0.03 -0 -0.02 -0 -0.04 -0 -0.02 -0 -0.03 0 0 0zm0 0c-0.69,0 -1.24,-0.56 -1.24,-1.24 0,-0.69 0.56,-1.24 1.24,-1.24l0 2.49zm-0.6 1.74l-0.24 -2.48 -1.12 1.39 0.03 0.13 0.02 0.08 -0.01 -0.02 -0.02 -0.06 -0.01 -0.03 -0.02 -0.06 -0.03 -0.09 -0.02 -0.07 -0.02 -0.08 -0.03 -0.1 -0.03 -0.11 -0.02 -0.12 -0.02 -0.11 -0.02 -0.14 -0.01 -0.13 -0.01 -0.14 0 -0.16 0.01 -0.16 0.03 -0.18 0.04 -0.18 0.06 -0.19 0.09 -0.2 0.12 -0.19 0.14 -0.18 0.17 -0.17 0.19 -0.14 0.21 -0.12 0.21 -0.09 0.22 -0.07 0.22 -0.04 0.22 -0.02 0.22 -0.01 0 2.49 -0.05 0 -0.02 0 0.01 -0 0.02 -0.01 0.04 -0.02 0.05 -0.03 0.06 -0.05 0.06 -0.06 0.05 -0.06 0.04 -0.06 0.03 -0.06 0.02 -0.05 0.01 -0.03 0 -0.02 0 -0.01 0 -0.01 0 0.02 0 0.03 0 0.02 0.01 0.04 0.01 0.03 0.01 0.04 0.01 0.04 0.02 0.05 0.02 0.06 0.01 0.03 0.02 0.04 0.02 0.06 0.01 0.02 0.02 0.05 0.04 0.13 0.03 0.17 -1.12 1.39zm1.12 -1.39c0.08,0.68 -0.4,1.3 -1.08,1.39 -0.68,0.08 -1.3,-0.4 -1.39,-1.08l2.47 -0.3zm-2.1 1.07l-2.21 -1.14 0 -0 0.09 -0.15 0.1 -0.15 0.11 -0.14 0.13 -0.13 0.15 -0.13 0.14 -0.1 0.14 -0.09 0.16 -0.08 0.15 -0.05 0.15 -0.05 0.15 -0.03 0.14 -0.02 0.12 -0.01 0.12 -0.01 0.12 0 0.12 0.01 0.09 0.01 0.09 0.01 0.1 0.01 0.08 0.01 0.08 0.01 0.07 0.01 0.07 0.01 0.07 0.01 0.05 0.01 0.04 0.01 0.04 0 0.04 0 0.02 0 0.02 0 -0 0 -0.01 0 0.24 2.48 -0.13 0.01 -0.12 0 -0.11 -0 -0.11 -0.01 -0.09 -0.01 -0.09 -0.01 -0.09 -0.01 -0.08 -0.01 -0.06 -0.01 -0.07 -0.01 -0.07 -0.01 -0.06 -0.01 -0.05 -0.01 -0.04 -0.01 -0.04 -0 -0.04 -0 -0.01 0 -0.01 0 -0.01 0 -0.01 0 0.01 -0 0.03 -0.01 0.03 -0.01 0.03 -0.01 0.04 -0.02 0.03 -0.02 0.03 -0.02 0.05 -0.04 0.03 -0.03 0.02 -0.02 0.02 -0.02 0 -0.01 0 -0zm-0 0c-0.31,0.61 -1.07,0.85 -1.68,0.53 -0.61,-0.31 -0.85,-1.07 -0.53,-1.68l2.21 1.14zm-0.44 2.58l-0.15 -2.48 -1.15 1.47 0.01 0.06 0.01 0.04 0.02 0.05 0.01 0.02 -0 -0 -0 -0 -0.01 -0.02 -0.03 -0.04 -0.02 -0.03 -0.04 -0.05 -0.04 -0.06 -0.03 -0.04 -0.05 -0.06 -0.06 -0.08 -0.04 -0.07 -0.06 -0.09 -0.06 -0.1 -0.05 -0.09 -0.06 -0.12 -0.05 -0.11 -0.05 -0.12 -0.05 -0.15 -0.04 -0.15 -0.03 -0.14 -0.02 -0.16 -0.01 -0.18 0.01 -0.17 0.02 -0.17 0.03 -0.16 0.06 -0.19 0.06 -0.16 0.07 -0.16 2.21 1.14 -0 0.01 0 -0.01 0.01 -0.03 0 -0.01 0 -0.02 0 -0.03 -0 -0.04 -0 -0.03 -0 -0 -0 -0.02 -0.01 -0.02 0 0 0 0.01 0 0 0.02 0.03 0.01 0.02 0.02 0.02 0.03 0.05 0.02 0.03 0.03 0.04 0.05 0.06 0.03 0.05 0.04 0.05 0.05 0.07 0.04 0.06 0.06 0.08 0.06 0.1 0.05 0.09 0.06 0.11 0.06 0.14 0.04 0.13 0.04 0.16 -1.15 1.47zm1.15 -1.47c0.13,0.67 -0.32,1.33 -0.99,1.45 -0.67,0.13 -1.33,-0.32 -1.45,-0.99l2.44 -0.46zm-2.21 1.28l-2.49 0 0 0 0.01 -0.21 0.03 -0.21 0.05 -0.21 0.07 -0.2 0.09 -0.21 0.11 -0.18 0.12 -0.16 0.14 -0.16 0.15 -0.13 0.14 -0.11 0.15 -0.09 0.15 -0.08 0.15 -0.07 0.15 -0.06 0.14 -0.04 0.13 -0.04 0.13 -0.03 0.13 -0.03 0.13 -0.02 0.11 -0.02 0.11 -0.01 0.13 -0.01 0.11 -0.01 0.11 -0.01 0.1 -0 0.1 -0 0.1 -0 0.07 -0 0.09 -0 0.08 0 0.05 -0 0.06 -0 0.15 2.48 -0.09 0.01 -0.1 0 -0.08 0 -0.07 0 -0.1 0 -0.08 0 -0.08 0 -0.08 0 -0.07 0 -0.08 0 -0.06 0.01 -0.07 0.01 -0.07 0.01 -0.05 0.01 -0.05 0.01 -0.04 0.01 -0.04 0.01 -0.03 0.01 -0.01 0 -0.01 0 -0 0 0.01 -0.01 0.02 -0.01 0.03 -0.03 0.04 -0.04 0.02 -0.03 0.03 -0.04 0.03 -0.06 0.01 -0.03 0.01 -0.03 0 -0.02 0 -0 0 0zm0 0c0,0.69 -0.56,1.24 -1.24,1.24 -0.69,0 -1.24,-0.56 -1.24,-1.24l2.49 0zm0.01 -0.11l-1.6 1.91 -0 -0 -0.05 -0.04 -0.04 -0.04 -0.02 -0.02 -0.04 -0.04 -0.07 -0.07 -0.03 -0.04 -0.02 -0.02 -0.05 -0.05 -0.04 -0.05 -0.02 -0.03 -0.03 -0.04 -0.04 -0.06 -0.03 -0.04 -0.04 -0.06 -0.03 -0.05 -0.02 -0.04 -0.03 -0.05 -0.04 -0.07 -0.03 -0.06 -0.01 -0.03 -0.03 -0.06 -0.03 -0.08 -0.02 -0.05 -0.02 -0.06 -0.03 -0.08 -0.02 -0.09 -0.01 -0.06 -0.01 -0.06 -0.01 -0.09 -0.01 -0.06 -0.01 -0.09 -0 -0.09 2.49 0 -0 -0.03 -0 -0.03 -0 -0 -0 -0.03 0 0 0 0 -0.01 -0.03 -0.01 -0.03 0 0 0 0 -0.01 -0.02 -0 -0.01 0.01 0.03 -0 -0.01 -0.01 -0.02 0 0.01 0.01 0.01 0 0.01 -0 -0.01 0.01 0.01 -0.01 -0.01 0.01 0.01 0.02 0.03 -0 -0.01 -0.01 -0.01 0.02 0.02 0 0.01 -0.03 -0.03 0 0 0.02 0.02 0 0 -0.01 -0.01 -0 -0zm0 0c0.53,0.44 0.59,1.23 0.15,1.75 -0.44,0.53 -1.23,0.59 -1.75,0.15l1.6 -1.91zm0.22 2.83l-0.42 -2.45 -0.91 1.77 0.04 0.07 0.02 0.03 0.02 0.02 0.03 0.04 0.01 0.01 0.02 0.03 -0.01 -0.01 -0.01 -0.01 0.02 0.02 -0.01 -0.01 -0.01 -0.01 0 0 -0 -0 -0.03 -0.02 -0.03 -0.02 -0.02 -0.01 -0.01 -0.01 -0.02 -0.01 -0.03 -0.02 -0.02 -0.02 -0.03 -0.02 -0.04 -0.03 -0.04 -0.03 -0.01 -0.01 -0.02 -0.01 -0.04 -0.03 -0.04 -0.03 -0.05 -0.04 -0.04 -0.03 -0.03 -0.03 -0.03 -0.03 -0.05 -0.04 1.6 -1.91 -0.01 -0.01 0.01 0.01 0.01 0.01 0.01 0.01 -0 -0 0.01 0.01 0.01 0.01 0.04 0.02 0.05 0.03 0.02 0.01 0.02 0.01 0.03 0.02 0.04 0.02 0.03 0.02 0.04 0.03 0.05 0.03 0.04 0.03 0.03 0.02 0.03 0.02 0.05 0.04 0.06 0.05 0.04 0.03 0.04 0.03 0.07 0.06 0.04 0.03 0.04 0.04 0.07 0.07 0.05 0.06 0.07 0.08 0.05 0.07 0.05 0.07 0.06 0.11 -0.91 1.77zm0.91 -1.77c0.3,0.62 0.05,1.36 -0.57,1.66 -0.62,0.3 -1.36,0.05 -1.66,-0.57l2.23 -1.1zm-1.33 1.96l-1.41 -2.05 -0 0 0.03 -0.02 0.03 -0.02 0.05 -0.03 0.04 -0.03 0.06 -0.04 0.01 -0.01 0.03 -0.02 0.08 -0.04 0.03 -0.02 0.05 -0.03 0.03 -0.01 0.03 -0.02 0.06 -0.03 0.05 -0.03 0.03 -0.01 0.03 -0.01 0.06 -0.03 0.06 -0.02 0.03 -0.01 0.04 -0.02 0.06 -0.02 0.05 -0.02 0.03 -0.01 0.07 -0.03 0.06 -0.02 0.02 -0.01 0.06 -0.02 0.04 -0.01 0.06 -0.02 0.05 -0.01 0.04 -0.01 0.06 -0.01 0.42 2.45 -0 0 -0.02 0 -0.01 0 -0 0 -0.02 0.01 -0 0 -0.04 0.01 -0 0 0.01 -0 -0.03 0.01 -0.01 0 -0 0 -0.02 0.01 -0.03 0.01 -0 0 0.01 -0 -0.03 0.01 -0.03 0.01 -0 0 0.01 -0 -0.03 0.02 -0.03 0.01 -0 0 -0.03 0.02 0.02 -0.01 -0.03 0.02 -0.04 0.02 0.01 -0 -0.01 0.01 -0 0 -0.03 0.02 -0.02 0.01 -0 0zm0 -0c-0.56,0.39 -1.34,0.25 -1.73,-0.32 -0.39,-0.56 -0.25,-1.34 0.32,-1.73l1.41 2.05zm-0.08 -0.43l-1.21 2.17 0 0 -0.13 -0.08 -0.12 -0.08 -0.11 -0.08 -0.12 -0.1 -0.1 -0.1 -0.1 -0.11 -0.1 -0.13 -0.09 -0.13 -0.07 -0.13 -0.07 -0.13 -0.05 -0.13 -0.05 -0.15 -0.04 -0.17 -0.02 -0.14 -0.01 -0.14 -0 -0.16 0.01 -0.15 0.02 -0.15 0.03 -0.14 0.04 -0.13 0.05 -0.14 0.05 -0.13 0.06 -0.12 0.07 -0.13 0.07 -0.11 0.07 -0.1 0.09 -0.12 0.1 -0.11 0.09 -0.09 0.1 -0.09 0.1 -0.08 0.11 -0.08 1.41 2.05 -0.01 0.01 -0.01 0.01 -0.01 0.01 -0.01 0.01 0 -0 0.01 -0.01 -0.01 0.01 0 -0 0.01 -0.02 0 -0.01 0.01 -0.01 0.01 -0.03 0.01 -0.02 0 -0.02 0 -0.03 0 -0.04 -0 -0.04 -0 -0.02 -0 -0.02 -0.01 -0.05 -0.01 -0.03 -0.01 -0.02 -0.01 -0.03 -0.01 -0.02 -0.02 -0.02 -0.02 -0.02 -0.01 -0.01 -0 -0 -0 -0 0.01 0 0.01 0.01 0.01 0.01 0 0zm-0 0c0.6,0.33 0.82,1.09 0.48,1.69 -0.33,0.6 -1.09,0.82 -1.69,0.48l1.21 -2.17zm1.05 2.53l-1.39 -2.06 -0.29 1.78 0.04 0.05 0.05 0.05 0.05 0.05 0.02 0.01 0.05 0.03 0.05 0.03 0.01 0.01 -0 0 0.02 0.01 0 0 -0 -0 0.01 0 -0.03 -0.01 -0.02 -0.01 -0.03 -0.01 -0.01 -0 -0.03 -0.01 -0.06 -0.02 -0.01 -0 -0.03 -0.01 -0.03 -0.01 -0.03 -0.01 -0.08 -0.03 -0.03 -0.01 -0.04 -0.01 -0.06 -0.02 -0.03 -0.01 -0.07 -0.02 -0.06 -0.03 -0.06 -0.03 -0.08 -0.04 -0.07 -0.03 1.21 -2.17 -0.01 -0 -0.02 -0.01 -0 -0 0 0 0 0 0.03 0.01 0 0 0.03 0.01 0.03 0.01 -0.01 -0 0.03 0.01 0.03 0.01 0.03 0.01 0.06 0.02 0.01 0 0.04 0.01 0.06 0.02 0.04 0.01 0.04 0.01 0.04 0.01 0.07 0.03 0.06 0.02 0.06 0.03 0.08 0.03 0.05 0.03 0.06 0.03 0.1 0.06 0.09 0.06 0.06 0.05 0.09 0.08 0.09 0.09 0.07 0.09 -0.29 1.78zm0.29 -1.78c0.42,0.55 0.31,1.33 -0.24,1.74 -0.55,0.42 -1.33,0.31 -1.74,-0.24l1.98 -1.51zm-1.12 2.25l-1.58 -1.92 0 0 0.05 -0.04 0.05 -0.04 0.06 -0.05 0.05 -0.04 0.04 -0.03 0.05 -0.04 0.04 -0.02 0.05 -0.03 0.07 -0.04 0.04 -0.02 0.04 -0.02 0.05 -0.03 0.02 -0.01 0.04 -0.02 0.06 -0.03 0.03 -0.01 0.04 -0.02 0.02 -0.01 0 0 0.06 -0.03 0.03 -0.01 -0.01 0.01 0.03 -0.01 0.04 -0.02 0.03 -0.01 -0.01 0.01 0 -0 0.03 -0.02 0.01 -0 -0.01 0 0.02 -0.01 0.01 -0 1.39 2.06 -0.05 0.03 -0.03 0.02 -0.06 0.04 -0.05 0.03 -0.02 0.01 -0.05 0.03 -0.06 0.03 -0.03 0.01 -0.01 0.01 -0.03 0.01 -0.06 0.03 -0.03 0.01 0.01 -0.01 -0.05 0.03 -0.04 0.02 -0.02 0.01 -0.03 0.01 0.01 -0.01 -0.02 0.01 -0.04 0.02 -0.01 0 -0.02 0.01 -0.02 0.01 0.01 -0.01 -0.01 0.01 -0.02 0.02 -0.01 0.01 -0.03 0.02 -0.01 0.01 -0 0 -0.02 0.01 -0.02 0.02 0 0zm-0 0c-0.53,0.44 -1.31,0.36 -1.75,-0.17 -0.44,-0.53 -0.36,-1.31 0.17,-1.75l1.58 1.92zm0.38 -0.38l-0.75 2.37 0 0 -0.17 -0.06 -0.16 -0.06 -0.16 -0.07 -0.16 -0.08 -0.15 -0.08 -0.14 -0.09 -0.14 -0.1 -0.12 -0.1 -0.13 -0.11 -0.12 -0.12 -0.1 -0.12 -0.1 -0.14 -0.09 -0.15 -0.07 -0.14 -0.07 -0.16 -0.05 -0.17 -0.04 -0.16 -0.02 -0.16 -0.01 -0.15 0 -0.17 0.02 -0.17 0.03 -0.15 0.04 -0.15 0.05 -0.14 0.06 -0.15 0.06 -0.13 0.08 -0.13 0.08 -0.12 0.08 -0.11 0.1 -0.11 0.1 -0.1 0.11 -0.09 1.58 1.92 0.01 -0.01 0.01 -0.01 0.02 -0.02 0.01 -0.01 0.01 -0.02 0.02 -0.02 0.01 -0.02 0.02 -0.03 0.01 -0.02 0.01 -0.03 0.01 -0.03 0 -0.05 0 -0.05 -0 -0.03 -0.01 -0.04 -0.01 -0.03 -0.02 -0.04 -0.02 -0.04 -0.01 -0.01 -0.02 -0.03 -0.01 -0.02 -0 0 -0 -0.01 0 0 0.02 0.02 0.02 0.01 0.03 0.02 0.03 0.02 0.05 0.02 0.06 0.03 0.07 0.03 0.08 0.03 0 0zm-0 0c0.66,0.2 1.02,0.9 0.81,1.56 -0.2,0.66 -0.9,1.02 -1.56,0.81l0.74 -2.37zm2.24 0.97l-2.36 0.78 0.93 0.83 -0.02 -0 -0.02 -0 -0.02 -0 -0.02 -0 -0.02 -0 -0.04 -0 -0.02 -0 -0.02 -0 -0.04 -0 -0.04 -0 -0.02 -0 -0.05 -0 -0.05 -0 -0.05 -0 -0.05 -0 -0.05 -0 -0.07 -0 -0.05 -0 -0.05 -0 -0.07 -0 -0.07 -0.01 -0.05 -0 -0.07 -0.01 -0.07 -0.01 -0.06 -0.01 -0.07 -0.01 -0.07 -0.01 -0.07 -0.01 -0.06 -0.01 -0.08 -0.02 -0.09 -0.02 -0.07 -0.02 0.75 -2.37 0.02 0.01 0 0 0.01 0 0.02 0 0.02 0 0.02 0 0.03 0 0.03 0 0.02 0 0.03 0 0.05 0 0.02 0 0.03 0 0.05 0 0.05 0 0.03 0 0.05 0 0.05 0 0.05 0 0.05 0 0.05 0 0.07 0 0.05 0 0.04 0 0.07 0 0.07 0.01 0.04 0 0.07 0.01 0.07 0.01 0.07 0.01 0.07 0.01 0.07 0.01 0.93 0.83zm-0.93 -0.83c0.67,0.14 1.11,0.8 0.97,1.47 -0.14,0.67 -0.8,1.11 -1.47,0.97l0.5 -2.44zm2.71 4.67l-1.8 1.71 0 0 -0.14 -0.15 -0.14 -0.16 -0.13 -0.15 -0.12 -0.15 -0.12 -0.16 -0.11 -0.16 -0.11 -0.16 -0.1 -0.15 -0.09 -0.15 -0.09 -0.15 -0.09 -0.16 -0.08 -0.16 -0.08 -0.16 -0.07 -0.15 -0.07 -0.15 -0.06 -0.15 -0.06 -0.14 -0.06 -0.15 -0.06 -0.15 -0.05 -0.15 -0.05 -0.14 -0.05 -0.14 -0.05 -0.15 -0.04 -0.14 -0.04 -0.14 -0.05 -0.15 -0.04 -0.14 -0.05 -0.14 -0.04 -0.14 -0.04 -0.14 -0.05 -0.14 -0.04 -0.14 2.36 -0.78 0.05 0.16 0.05 0.15 0.05 0.15 0.04 0.15 0.05 0.15 0.04 0.14 0.04 0.13 0.05 0.14 0.04 0.13 0.04 0.12 0.04 0.13 0.04 0.13 0.04 0.12 0.04 0.11 0.05 0.12 0.05 0.12 0.05 0.11 0.05 0.11 0.05 0.11 0.05 0.1 0.05 0.1 0.06 0.1 0.06 0.1 0.06 0.11 0.06 0.1 0.07 0.1 0.07 0.1 0.08 0.1 0.09 0.11 0.09 0.11 0.09 0.1 0.1 0.11 0 0zm0 0c0.47,0.5 0.45,1.28 -0.04,1.76 -0.5,0.47 -1.28,0.45 -1.76,-0.04l1.8 -1.71zm1.39 2.48l-2.31 0.92 0 0 -0.03 -0.06 -0.03 -0.07 -0.02 -0.06 -0.03 -0.06 -0.03 -0.07 -0.03 -0.06 -0.03 -0.06 -0.03 -0.07 -0.03 -0.06 -0.03 -0.06 -0.03 -0.07 -0.03 -0.06 -0.03 -0.06 -0.03 -0.06 -0.03 -0.06 -0.02 -0.05 -0.03 -0.06 -0.03 -0.06 -0.03 -0.05 -0.03 -0.06 -0.03 -0.05 -0.03 -0.05 -0.03 -0.05 -0.03 -0.04 -0.03 -0.04 -0.03 -0.05 -0.03 -0.04 -0.03 -0.04 -0.03 -0.03 -0.02 -0.03 -0.03 -0.03 -0.02 -0.03 1.8 -1.71 0.07 0.08 0.06 0.07 0.07 0.08 0.06 0.08 0.06 0.08 0.06 0.08 0.05 0.08 0.05 0.08 0.05 0.08 0.05 0.08 0.05 0.08 0.05 0.08 0.04 0.08 0.04 0.08 0.04 0.08 0.04 0.08 0.05 0.09 0.04 0.08 0.03 0.07 0.04 0.08 0.04 0.08 0.03 0.07 0.04 0.08 0.03 0.08 0.03 0.07 0.03 0.08 0.03 0.08 0.03 0.06 0.03 0.07 0.03 0.08 0.03 0.06 0.03 0.07 0 0zm-0 -0c0.26,0.64 -0.05,1.36 -0.69,1.62 -0.64,0.26 -1.36,-0.05 -1.62,-0.69l2.31 -0.93zm0.24 0.66l-2.37 0.76 -0 -0.01 -0 -0.01 -0.01 -0.02 0 -0 -0.01 -0.02 -0.01 -0.03 -0.01 -0.02 0 -0 -0.01 -0.03 0.01 0.02 -0 -0 -0.02 -0.06 -0.01 -0.03 0.01 0.02 -0 -0 -0.02 -0.06 0.01 0.03 -0.01 -0.02 -0.01 -0.02 -0.01 -0.02 -0.01 -0.02 -0.01 -0.02 -0.02 -0.06 0.01 0.03 -0.01 -0.02 0 -0 -0.01 -0.02 -0.01 -0.02 -0.01 -0.02 -0.01 -0.02 -0.01 -0.02 -0.01 -0.02 -0 -0.01 2.31 -0.92 0.01 0.03 0.01 0.02 0.01 0.02 0.01 0.02 0.01 0.02 0.01 0.02 0.01 0.02 0.01 0.03 0.01 0.02 0.02 0.06 -0.01 -0.03 0.01 0.02 0.01 0.02 0.01 0.02 0.01 0.02 0.01 0.02 0.02 0.06 -0.01 -0.03 0.01 0.03 0.02 0.06 0 0 -0.01 -0.03 0.01 0.03 0.02 0.06 0 0 0.01 0.03 0.01 0.02 0 0 0.01 0.02 0.01 0.03 0.01 0.02 0.01 0.03 -0 -0.01zm0 0.01c0.2,0.66 -0.16,1.35 -0.81,1.56 -0.66,0.2 -1.35,-0.16 -1.56,-0.81l2.37 -0.74zm0.21 0.55l-2.36 0.78 0 -0 -0.01 -0.02 -0 -0.01 -0 -0 -0.02 -0.05 0.02 0.04 0 0 -0.02 -0.06 0.01 0.03 0 0 -0.03 -0.06 0.01 0.03 0 0.01 -0.03 -0.06 0.02 0.03 -0.01 -0.02 -0.03 -0.06 0.01 0.01 -0.01 -0.02 -0.03 -0.06 0.01 0.01 -0.01 -0.02 -0.01 -0.02 0 0.01 -0.03 -0.08 -0.01 -0.03 0 0 -0.01 -0.03 -0.01 -0.03 -0.01 -0.03 -0.01 -0.03 -0.01 -0.03 -0.01 -0.03 2.37 -0.76 0.01 0.02 0 0.01 0 0.01 0 0.01 0 0.01 0 0.01 0.02 0.04 0 0 -0.02 -0.04 0.02 0.04 0.01 0.02 0.01 0.02 0.02 0.05 -0.01 -0.03 0.01 0.02 0.02 0.04 -0.02 -0.03 0.01 0.02 0.03 0.06 -0.02 -0.03 0.02 0.04 0.03 0.06 -0.01 -0.03 0.02 0.03 0.02 0.06 -0.01 -0.03 0.02 0.03 0.03 0.08 -0 -0.01 0.01 0.03 0.01 0.03 0.01 0.03 0 -0zm0 0c0.21,0.65 -0.14,1.36 -0.79,1.57 -0.65,0.21 -1.36,-0.14 -1.57,-0.79l2.36 -0.78zm1.05 3.98l-2.43 0.54 0 0 -0.03 -0.12 -0.03 -0.12 -0.03 -0.12 -0.03 -0.11 -0.03 -0.12 -0.03 -0.12 -0.03 -0.12 -0.03 -0.12 -0.03 -0.11 -0.03 -0.12 -0.03 -0.12 -0.03 -0.11 -0.03 -0.12 -0.03 -0.12 -0.03 -0.12 -0.03 -0.12 -0.03 -0.12 -0.03 -0.11 -0.03 -0.11 -0.03 -0.12 -0.03 -0.12 -0.03 -0.11 -0.03 -0.12 -0.03 -0.11 -0.03 -0.11 -0.03 -0.12 -0.03 -0.11 -0.03 -0.11 -0.03 -0.11 -0.04 -0.12 -0.03 -0.11 -0.04 -0.11 2.36 -0.78 0.04 0.12 0.04 0.13 0.04 0.12 0.04 0.13 0.04 0.13 0.04 0.13 0.03 0.12 0.04 0.13 0.04 0.13 0.03 0.12 0.03 0.13 0.03 0.12 0.03 0.12 0.03 0.13 0.03 0.13 0.03 0.13 0.03 0.12 0.03 0.12 0.03 0.13 0.03 0.12 0.03 0.13 0.03 0.12 0.03 0.12 0.03 0.13 0.03 0.12 0.03 0.13 0.03 0.12 0.03 0.12 0.03 0.13 0.03 0.12 0.03 0.12 0.03 0.12 0 0zm0 0c0.15,0.67 -0.27,1.34 -0.94,1.48 -0.67,0.15 -1.34,-0.27 -1.48,-0.94l2.43 -0.54zm0.74 4.2l-2.47 0.31 -0 0 -0.01 -0.12 -0.02 -0.12 -0.02 -0.12 -0.02 -0.12 -0.02 -0.13 -0.02 -0.12 -0.02 -0.12 -0.02 -0.13 -0.02 -0.12 -0.02 -0.12 -0.02 -0.13 -0.02 -0.12 -0.02 -0.12 -0.02 -0.13 -0.02 -0.12 -0.02 -0.13 -0.02 -0.13 -0.02 -0.12 -0.03 -0.13 -0.02 -0.13 -0.03 -0.13 -0.02 -0.13 -0.02 -0.12 -0.03 -0.13 -0.02 -0.12 -0.03 -0.13 -0.03 -0.13 -0.02 -0.12 -0.03 -0.11 -0.03 -0.13 -0.03 -0.12 -0.03 -0.11 2.43 -0.54 0.03 0.13 0.03 0.13 0.03 0.12 0.03 0.13 0.03 0.13 0.02 0.12 0.03 0.13 0.03 0.14 0.03 0.13 0.03 0.14 0.02 0.13 0.03 0.13 0.02 0.13 0.03 0.13 0.03 0.14 0.02 0.13 0.02 0.13 0.02 0.14 0.02 0.13 0.02 0.14 0.02 0.14 0.02 0.13 0.02 0.14 0.02 0.14 0.02 0.13 0.02 0.13 0.02 0.13 0.02 0.13 0.02 0.13 0.02 0.13 0.02 0.13 0.02 0.13 -0 0zm0 0c0.08,0.68 -0.4,1.3 -1.08,1.39 -0.68,0.08 -1.3,-0.4 -1.39,-1.08l2.47 -0.31zm1.18 2.71l-1.86 1.65 0 0 -0.09 -0.11 -0.08 -0.1 -0.08 -0.1 -0.08 -0.11 -0.08 -0.11 -0.08 -0.11 -0.07 -0.12 -0.08 -0.12 -0.07 -0.12 -0.07 -0.12 -0.07 -0.13 -0.06 -0.12 -0.06 -0.13 -0.06 -0.13 -0.06 -0.13 -0.06 -0.13 -0.05 -0.13 -0.06 -0.14 -0.05 -0.13 -0.05 -0.13 -0.05 -0.14 -0.05 -0.14 -0.04 -0.13 -0.04 -0.14 -0.04 -0.13 -0.04 -0.14 -0.03 -0.13 -0.03 -0.13 -0.03 -0.13 -0.03 -0.14 -0.02 -0.14 -0.02 -0.13 2.47 -0.31 0.01 0.08 0.01 0.08 0.02 0.08 0.02 0.09 0.02 0.09 0.02 0.1 0.02 0.08 0.03 0.09 0.03 0.1 0.03 0.1 0.03 0.1 0.03 0.09 0.04 0.1 0.04 0.1 0.04 0.09 0.05 0.1 0.04 0.1 0.05 0.09 0.04 0.09 0.05 0.09 0.05 0.09 0.04 0.08 0.05 0.09 0.05 0.08 0.05 0.08 0.05 0.08 0.05 0.07 0.05 0.07 0.05 0.06 0.05 0.06 0.05 0.06 0.04 0.05 0 0zm-0 -0c0.46,0.51 0.41,1.3 -0.1,1.76 -0.51,0.46 -1.3,0.41 -1.76,-0.1l1.86 -1.66zm0.25 0.33l-1.65 1.86 -0.07 -0.06 -0.03 -0.03 -0.04 -0.04 -0.02 -0.02 -0.01 -0.01 -0.02 -0.02 -0.01 -0.02 -0.03 -0.04 -0.04 -0.05 0.04 0.05 -0.01 -0.01 -0.06 -0.08 -0.04 -0.05 0.02 0.02 0.02 0.03 -0.06 -0.08 -0.01 -0.01 0.02 0.03 -0.01 -0.01 -0.01 -0.01 -0.03 -0.04 0.02 0.03 0.02 0.02 -0.05 -0.07 -0.01 -0.02 0.02 0.02 0.02 0.02 -0.03 -0.04 -0.01 -0.01 0.01 0.01 -0.03 -0.04 0 0 -0.01 -0.01 1.86 -1.65 0.02 0.03 0.03 0.04 -0 -0 0.04 0.05 0.02 0.02 -0.01 -0.01 0.04 0.05 0.04 0.05 0.01 0.02 -0.03 -0.04 0.04 0.05 0.04 0.05 -0.01 -0.02 0.01 0.01 0.01 0.01 0.04 0.05 0.01 0.01 -0.05 -0.06 0.04 0.05 0.03 0.04 -0.02 -0.03 -0.05 -0.06 0.01 0.01 0.06 0.07 -0.02 -0.02 -0.01 -0.02 0.01 0.01 0.01 0.01 0.01 0.01 0.01 0.01 -0.01 -0.01 0 0 -0.07 -0.06zm0.07 0.06c0.48,0.49 0.47,1.28 -0.02,1.76 -0.49,0.48 -1.28,0.47 -1.76,-0.02l1.78 -1.74zm-0.88 2.54l-0.84 -0.74 1.65 -1.86 0.84 0.74 -1.62 1.89 -0.03 -0.02zm1.65 -1.86c0.51,0.45 0.56,1.24 0.11,1.76 -0.45,0.51 -1.24,0.56 -1.76,0.11l1.65 -1.86zm2.22 1.23l-0.95 2.3 -0.05 -0.02 -0.09 -0.04 -0.09 -0.04 -0.07 -0.03 -0.09 -0.04 -0.1 -0.05 -0.09 -0.04 -0.09 -0.04 -0.08 -0.04 -0.08 -0.04 -0.11 -0.05 -0.08 -0.04 -0.08 -0.04 -0.09 -0.05 -0.09 -0.05 -0.1 -0.05 -0.08 -0.04 -0.08 -0.04 -0.11 -0.06 -0.09 -0.05 -0.09 -0.05 -0.09 -0.05 -0.08 -0.05 -0.09 -0.06 -0.1 -0.06 -0.08 -0.06 -0.09 -0.06 -0.09 -0.06 -0.08 -0.06 -0.09 -0.07 -0.09 -0.07 -0.09 -0.07 -0.09 -0.07 1.6 -1.91 0.05 0.05 0.05 0.04 0.06 0.04 0.06 0.04 0.07 0.05 0.06 0.04 0.05 0.04 0.07 0.04 0.06 0.04 0.06 0.04 0.07 0.04 0.07 0.04 0.07 0.04 0.07 0.04 0.05 0.03 0.08 0.04 0.08 0.04 0.06 0.03 0.08 0.04 0.07 0.03 0.09 0.04 0.08 0.04 0.06 0.03 0.08 0.04 0.09 0.04 0.08 0.04 0.08 0.04 0.08 0.04 0.09 0.04 0.1 0.05 0.08 0.04 0.09 0.04 -0.05 -0.02zm0.05 0.02c0.62,0.29 0.89,1.03 0.6,1.65 -0.29,0.62 -1.03,0.89 -1.65,0.6l1.05 -2.25zm0.68 2.97l-1.68 -0.69 0.95 -2.3 1.68 0.69 -0.9 2.32 -0.05 -0.02zm0.95 -2.3c0.63,0.26 0.94,0.99 0.68,1.62 -0.26,0.63 -0.99,0.94 -1.62,0.68l0.95 -2.3zm2.97 1.37l-1.3 2.12 -0 0 -0.05 -0.03 -0.06 -0.03 -0.04 -0.02 -0.06 -0.03 -0.07 -0.04 -0.07 -0.03 -0.08 -0.04 -0.08 -0.04 -0.07 -0.04 -0.09 -0.04 -0.08 -0.04 -0.09 -0.04 -0.09 -0.04 -0.09 -0.04 -0.09 -0.04 -0.1 -0.04 -0.09 -0.04 -0.08 -0.04 -0.1 -0.04 -0.09 -0.04 -0.09 -0.04 -0.1 -0.04 -0.08 -0.04 -0.09 -0.04 -0.09 -0.04 -0.08 -0.03 -0.08 -0.03 -0.09 -0.03 -0.08 -0.03 -0.07 -0.03 -0.08 -0.03 -0.07 -0.03 0.85 -2.34 0.08 0.03 0.08 0.03 0.09 0.04 0.09 0.03 0.09 0.03 0.1 0.04 0.1 0.04 0.09 0.04 0.1 0.04 0.11 0.05 0.09 0.04 0.1 0.04 0.11 0.05 0.09 0.04 0.11 0.05 0.1 0.05 0.1 0.04 0.1 0.05 0.1 0.05 0.1 0.05 0.1 0.05 0.1 0.05 0.09 0.05 0.1 0.05 0.09 0.05 0.09 0.05 0.09 0.05 0.08 0.04 0.08 0.05 0.1 0.06 0.07 0.04 0.08 0.04 -0 0zm0 0c0.59,0.36 0.77,1.13 0.41,1.71 -0.36,0.59 -1.13,0.77 -1.71,0.41l1.3 -2.12zm1.84 2.36l-2.23 1.1 0 0 -0.05 -0.11 -0.04 -0.09 -0.05 -0.09 -0.04 -0.09 -0.03 -0.07 -0.04 -0.08 -0.03 -0.08 -0.03 -0.06 -0.03 -0.06 -0.02 -0.05 -0.02 -0.03 -0.02 -0.05 -0.03 -0.05 -0.02 -0.03 -0.02 -0.03 -0 -0.01 -0.01 -0.02 -0.01 -0.02 -0 -0 -0.02 -0.03 -0.02 -0.02 -0 -0.01 -0.01 -0.01 -0.01 -0.01 -0.03 -0.03 -0.03 -0.03 -0.02 -0.02 -0.04 -0.03 -0.05 -0.04 -0.05 -0.03 -0.05 -0.03 -0.07 -0.04 1.3 -2.12 0.09 0.06 0.1 0.07 0.1 0.07 0.08 0.06 0.08 0.06 0.1 0.08 0.08 0.07 0.07 0.06 0.08 0.08 0.08 0.08 0.08 0.09 0.06 0.07 0.05 0.07 0.07 0.09 0.05 0.08 0.05 0.08 0.06 0.09 0.05 0.08 0.04 0.08 0.03 0.06 0.04 0.07 0.04 0.09 0.03 0.07 0.03 0.07 0.03 0.08 0.03 0.06 0.03 0.06 0.04 0.08 0.03 0.07 0.04 0.07 0.04 0.09 0.04 0.08 0 0zm0 0c0.3,0.61 0.05,1.36 -0.56,1.67 -0.61,0.3 -1.36,0.05 -1.67,-0.56l2.23 -1.1zm1.59 5.86l-2.28 -1 -0 0 -0.05 0.16 -0.01 0.08 -0 0.02 -0 -0.02 -0.01 -0.06 -0.02 -0.09 -0.02 -0.11 -0.03 -0.12 -0.03 -0.14 -0.04 -0.14 -0.05 -0.16 -0.05 -0.17 -0.06 -0.17 -0.06 -0.17 -0.06 -0.18 -0.07 -0.18 -0.07 -0.18 -0.07 -0.19 -0.07 -0.18 -0.07 -0.18 -0.07 -0.18 -0.07 -0.17 -0.07 -0.17 -0.07 -0.16 -0.06 -0.15 -0.06 -0.14 -0.06 -0.13 -0.06 -0.13 -0.05 -0.11 -0.05 -0.1 -0.04 -0.08 -0.03 -0.06 2.23 -1.1 0.05 0.09 0.05 0.1 0.05 0.11 0.06 0.13 0.06 0.13 0.06 0.15 0.07 0.16 0.07 0.17 0.07 0.17 0.08 0.18 0.08 0.19 0.08 0.19 0.08 0.2 0.08 0.2 0.08 0.19 0.08 0.2 0.07 0.2 0.07 0.2 0.07 0.2 0.06 0.2 0.06 0.2 0.06 0.2 0.06 0.2 0.05 0.19 0.04 0.19 0.04 0.19 0.03 0.18 0.02 0.19 0.01 0.2 -0.01 0.22 -0.04 0.25 -0.1 0.3 -0 0zm0 -0c-0.27,0.63 -1.01,0.92 -1.64,0.64 -0.63,-0.27 -0.92,-1.01 -0.64,-1.64l2.28 0.99zm-1.47 1.33l-1.09 -2.24 -0.01 0 0.01 -0.01 0.02 -0.01 0.02 -0.01 0.04 -0.02 -0.01 0.01 0.02 -0.02 0.03 -0.02 0.01 -0.01 0.03 -0.02 0 -0 0.02 -0.01 0.03 -0.02 0.03 -0.02 0.02 -0.01 -0.01 0 0.02 -0.01 0.03 -0.03 0 0 0.02 -0.01 0.02 -0.02 0 0 0.01 -0.01 0 0 -0 0 -0 0.01 -0 0 -0.01 0.01 0 -0 -0.01 0.02 -0.04 0.06 -0.01 0.01 -0.02 0.04 2.28 1 -0.05 0.09 -0.03 0.06 -0.07 0.11 -0.05 0.07 -0.04 0.05 -0.05 0.06 -0.05 0.06 -0.05 0.05 -0.05 0.05 -0.05 0.05 -0.04 0.04 -0.05 0.05 -0.04 0.03 -0.04 0.04 -0.06 0.05 -0.03 0.02 -0.05 0.04 -0.07 0.05 -0.05 0.03 -0.03 0.02 -0.03 0.02 -0.05 0.03 -0.06 0.04 -0.04 0.02 -0.05 0.03 -0.03 0.02 -0.04 0.02 -0.07 0.04 -0.02 0.01 -0.04 0.02 -0.04 0.02 -0.05 0.02 -0.01 0zm0.01 -0c-0.62,0.3 -1.36,0.05 -1.67,-0.57 -0.3,-0.62 -0.05,-1.36 0.57,-1.67l1.1 2.23zm-0.94 -1.59l-1.49 1.99 -0.07 -1.94 0.08 -0.06 0.07 -0.05 0.08 -0.05 0.05 -0.03 0.06 -0.04 0.06 -0.03 0.03 -0.02 0.05 -0.02 0.06 -0.03 0.05 -0.02 0.05 -0.02 0.06 -0.03 0.06 -0.02 0.03 -0.01 0.04 -0.02 0.06 -0.03 0.04 -0.02 0.04 -0.02 0.04 -0.02 0.05 -0.02 0.05 -0.02 0.03 -0.01 0.03 -0.01 0.04 -0.02 0.04 -0.02 0.03 -0.01 0.03 -0.01 0.02 -0.01 0.03 -0.02 0.02 -0.01 0 -0 0.01 -0 1.09 2.24 -0.04 0.02 -0.05 0.02 -0.04 0.02 -0.03 0.01 -0.05 0.02 -0.04 0.02 -0.05 0.02 -0.03 0.01 -0.03 0.02 -0.06 0.02 -0.05 0.02 -0.03 0.01 -0.03 0.01 -0.04 0.02 -0.04 0.02 -0.04 0.02 -0.03 0.01 -0.04 0.02 -0.05 0.02 -0.03 0.01 -0.02 0.01 -0.03 0.02 -0.03 0.01 -0.01 0.01 -0.02 0.01 -0.03 0.02 0 0 0.01 -0 -0.01 0.01 0.03 -0.02 0.03 -0.02 0.04 -0.04 -0.07 -1.94zm0.07 1.94c-0.52,0.45 -1.31,0.39 -1.75,-0.13 -0.45,-0.52 -0.39,-1.31 0.13,-1.75l1.63 1.88zm1.36 -2.25l0 2.49 0 0 0 0 -0.01 0 -0.01 0 -0.03 0 -0.06 0.01 -0.06 0.01 -0.05 0.01 -0.07 0.01 -0.08 0.01 -0.08 0.01 -0.08 0.01 -0.07 0.01 -0.08 0.01 -0.1 0.01 -0.1 0.01 -0.09 0.01 -0.08 0.01 -0.11 0.01 -0.1 0.01 -0.09 0.01 -0.11 0.01 -0.1 0 -0.1 0 -0.11 -0 -0.11 -0 -0.11 -0.01 -0.12 -0.02 -0.14 -0.02 -0.15 -0.04 -0.16 -0.05 -0.16 -0.08 -0.19 -0.12 1.49 -1.99 -0.12 -0.08 -0.08 -0.04 -0.06 -0.02 -0.04 -0.01 -0.02 -0 0.01 0 0.02 0 0.02 0 0.03 0 0.05 -0 0.06 0 0.05 -0 0.07 -0.01 0.06 -0 0.06 -0.01 0.08 -0.01 0.07 -0.01 0.07 -0.01 0.07 -0.01 0.08 -0.01 0.09 -0.01 0.08 -0.01 0.07 -0.01 0.07 -0.01 0.08 -0.01 0.09 -0.01 0.07 -0.01 0.07 -0.01 0.08 -0.01 0.1 -0.01 0.08 -0 0.08 -0 0 0zm0 0c0.69,0 1.24,0.56 1.24,1.24 0,0.69 -0.56,1.24 -1.24,1.24l0 -2.49zm1.52 2.41l2.38 0.72 -1.2 0.88 -0.23 -0.02 -0.2 -0.04 -0.17 -0.05 -0.15 -0.06 -0.13 -0.06 -0.13 -0.07 -0.12 -0.07 -0.11 -0.07 -0.11 -0.07 -0.11 -0.08 -0.1 -0.07 -0.09 -0.07 -0.1 -0.08 -0.09 -0.07 -0.08 -0.06 -0.09 -0.07 -0.08 -0.06 -0.09 -0.07 -0.08 -0.06 -0.08 -0.06 -0.07 -0.05 -0.07 -0.04 -0.07 -0.04 -0.06 -0.04 -0.05 -0.03 -0.04 -0.02 -0.03 -0.02 -0.02 -0.01 -0.01 -0 0 0 0.02 0 0.03 0 0 -2.49 0.2 0.01 0.2 0.03 0.18 0.04 0.17 0.05 0.16 0.06 0.15 0.07 0.14 0.07 0.13 0.07 0.13 0.08 0.12 0.08 0.12 0.08 0.11 0.08 0.11 0.08 0.1 0.08 0.1 0.07 0.1 0.08 0.09 0.07 0.1 0.08 0.08 0.07 0.08 0.06 0.08 0.06 0.07 0.05 0.06 0.04 0.06 0.04 0.05 0.03 0.04 0.02 0.02 0.01 0.01 0 -0.01 -0 -0.04 -0.01 -0.08 -0.02 -0.1 -0.01 -1.2 0.88zm1.2 -0.88c0.69,0.01 1.24,0.57 1.23,1.26 -0.01,0.69 -0.57,1.24 -1.26,1.23l0.02 -2.49zm1.01 -0.83l-0.42 2.45 -0 0 -0.12 -0.02 -0.11 -0.02 -0.07 -0.01 -0.07 -0.01 -0.05 -0.01 -0.03 -0 -0.01 0 0.04 -0 0.07 -0.01 0.14 -0.03 0.17 -0.07 0.21 -0.14 0.24 -0.27 0.13 -0.28 0.04 -0.19 0.01 -0.16 -0.01 -0.12 -0.01 -0.06 -0 -0.01 0.01 0.04 0.01 0.04 0.02 0.06 0.02 0.08 0.02 0.08 0.02 0.1 0.02 0.11 0.01 0.14 0 0.14 -0.01 0.14 -0.02 0.14 -0.03 0.16 -0.04 0.16 -2.38 -0.72 -0 0.02 -0 0.03 -0 0.01 -0 0.01 0 0.02 0 0.03 0 0 -0 -0.01 -0 -0.02 -0 -0.01 -0.01 -0.02 -0.01 -0.05 -0.01 -0.04 -0.02 -0.08 -0.02 -0.13 -0.02 -0.18 0.01 -0.21 0.05 -0.24 0.15 -0.32 0.27 -0.3 0.25 -0.16 0.23 -0.09 0.21 -0.05 0.16 -0.02 0.15 -0 0.12 0.01 0.11 0.01 0.11 0.01 0.11 0.01 0.14 0.02 0.13 0.02 0.14 0.02 -0 0zm0 0c0.68,0.11 1.13,0.76 1.02,1.44 -0.11,0.68 -0.76,1.13 -1.44,1.02l0.42 -2.45zm1.32 0.08l-0.11 2.49 0 0 -0.03 -0 -0.04 -0 -0.04 -0 -0.04 -0 -0.05 -0 -0.05 -0 -0.04 -0 -0.03 0 -0.05 0 -0.07 -0 -0.05 -0 -0.05 -0 -0.07 -0 -0.05 -0 -0.03 -0 -0.07 -0 -0.05 -0 -0.05 -0 -0.07 -0 -0.05 -0 -0.05 -0 -0.05 -0 -0.07 -0 -0.07 -0.01 -0.05 -0 -0.05 -0 -0.07 -0.01 -0.05 -0.01 -0.05 -0 -0.07 -0.01 -0.07 -0.01 -0.05 -0.01 0.42 -2.45 0.03 0.01 0.02 0 0.02 0 0.04 0 0.05 0.01 0.02 0 0.05 0 0.05 0 0.02 0 0.03 0 0.05 0 0.05 0 0.05 0 0.03 0 0.05 0 0.05 0 0.03 0 0.07 0 0.05 0 0.03 0 0.05 0 0.05 0 0.03 0 0.05 0 0.07 0 0.05 0 0.05 0 0.05 0 0.05 0 0.04 0 0.04 0 0.05 0 0 0zm-0 0c0.69,0.03 1.22,0.61 1.19,1.29 -0.03,0.69 -0.61,1.22 -1.29,1.19l0.1 -2.49zm1.52 0.14l-0.21 2.48 -0 0 -0.06 -0.01 -0.05 -0 -0.05 -0 -0.05 -0 -0.07 -0.01 -0.05 -0.01 -0.03 -0 -0.07 -0.01 -0.05 -0.01 -0.02 -0 -0.07 -0.01 -0.04 -0.01 -0.03 -0 -0.07 -0.01 -0.04 -0.01 -0.02 -0 -0.05 -0 -0.05 -0.01 -0.04 -0 -0.05 -0 -0.04 -0 -0.04 -0 -0.05 -0 -0.03 -0 -0.04 -0 -0.05 -0 -0.03 -0 -0.05 -0 -0.05 -0 -0.05 -0 -0.03 -0 -0.05 -0 0.11 -2.49 0.05 0 0.07 0 0.05 0 0.05 0 0.05 0 0.07 0 0.05 0 0.05 0 0.06 0.01 0.05 0 0.05 0 0.04 0 0.05 0 0.05 0.01 0.04 0 0.05 0 0.07 0.01 0.04 0.01 0.02 0 0.06 0.01 0.04 0.01 0.02 0 0.07 0.01 0.05 0.01 0.02 0 0.06 0.01 0.05 0.01 0.02 0 0.05 0 0.05 0 0.05 0 0.04 0 -0 0zm0 0c0.68,0.06 1.19,0.66 1.13,1.35 -0.06,0.68 -0.66,1.19 -1.35,1.13l0.22 -2.48zm0.35 1.51l2.47 -0.32 -1.12 1.4 -0.06 0.01 -0.07 0 -0.09 0 -0.07 0 -0.05 0 -0.07 0 -0.07 -0 -0.07 -0 -0.05 -0 -0.07 -0 -0.07 -0.01 -0.05 -0 -0.07 -0.01 -0.06 -0 -0.06 -0 -0.06 -0 -0.08 -0 -0.08 -0.01 -0.04 -0 -0.06 -0 -0.08 -0.01 -0.06 -0.01 -0.06 -0.01 -0.04 -0 -0.06 -0 -0.08 -0.01 -0.04 -0 -0.04 -0 -0.05 -0 -0.05 -0.01 -0.05 -0 -0.03 -0 0.21 -2.48 0.06 0.01 0.05 0 0.05 0 0.05 0 0.07 0.01 0.07 0.01 0.04 0 0.06 0 0.07 0.01 0.05 0.01 0.06 0.01 0.04 0 0.06 0.01 0.07 0.01 0.04 0 0.04 0 0.06 0 0.06 0 0.06 0 0.04 0 0.06 0 0.04 0 0.04 0 0.05 0 0.03 0 0.03 0 0.03 0 0.05 0 0.02 0 0 0 0.02 -0 0.02 0 -1.12 1.4zm1.12 -1.4c0.68,-0.06 1.29,0.44 1.35,1.12 0.06,0.68 -0.44,1.29 -1.12,1.35l-0.23 -2.48zm-2.05 1.74l0.34 -2.46 0 0 0.03 0 0.07 0.01 0.05 0.01 0.06 0.01 0.08 0.01 0.06 0.01 0.09 0.01 0.09 0.02 0.07 0.01 0.1 0.02 0.1 0.02 0.09 0.02 0.09 0.02 0.1 0.02 0.11 0.03 0.1 0.03 0.11 0.03 0.1 0.03 0.11 0.03 0.11 0.04 0.09 0.03 0.11 0.05 0.12 0.05 0.12 0.06 0.12 0.07 0.12 0.08 0.13 0.1 0.13 0.12 0.12 0.15 0.13 0.21 0.1 0.24 0.06 0.26 -2.47 0.32 0.04 0.17 0.06 0.16 0.08 0.13 0.06 0.07 0.05 0.05 0.04 0.03 0.02 0.01 0.01 0 -0.01 -0 -0.01 -0.01 -0.03 -0.01 -0.05 -0.02 -0.04 -0.02 -0.05 -0.01 -0.06 -0.02 -0.05 -0.02 -0.07 -0.02 -0.06 -0.02 -0.06 -0.01 -0.07 -0.02 -0.07 -0.01 -0.06 -0.01 -0.06 -0.01 -0.08 -0.02 -0.06 -0.01 -0.06 -0.01 -0.08 -0.01 -0.05 -0.01 -0.06 -0.01 -0.06 -0.01 -0.03 -0 -0.05 -0.01 0 0zm0 0c-0.68,-0.09 -1.16,-0.72 -1.06,-1.4 0.09,-0.68 0.72,-1.16 1.4,-1.06l-0.34 2.46zm-1.19 -0.21l0.38 -2.46 0 0 0.04 0.01 0.04 0.01 0.06 0.01 0.04 0.01 0.01 0 0.06 0.01 0.04 0.01 0.04 0.01 0.04 0.01 0.03 0.01 0.03 0.01 0.04 0.01 0.03 0.01 0.04 0.01 0.03 0.01 0.04 0.01 0.06 0.01 0.01 0 0.04 0.01 0.03 0.01 0.01 0 0.06 0.01 0.03 0.01 0.01 0 0.04 0.01 0.06 0.01 0.04 0.01 0.01 0 0.01 0 0.04 0 0.06 0.01 0.02 0 -0.34 2.46 -0.06 -0.01 -0.02 -0 -0.04 -0 -0.06 -0.01 -0.06 -0.01 -0.04 -0.01 -0.02 -0 -0.04 -0.01 -0.06 -0.01 -0.04 -0.01 -0.01 -0 -0.06 -0.01 -0.03 -0.01 -0.03 -0 -0.07 -0.01 -0.01 -0 -0.04 -0.01 -0.03 -0.01 -0.04 -0.01 -0.03 -0.01 -0.03 -0 -0.04 -0.01 -0.03 -0.01 -0.03 -0.01 -0.04 -0.01 -0.03 -0.01 -0.01 -0 -0.06 -0.01 -0.03 -0.01 -0.01 -0 -0.04 -0.01 -0.04 -0 0 0zm-0 0c-0.68,-0.11 -1.14,-0.75 -1.03,-1.42 0.11,-0.68 0.75,-1.14 1.42,-1.03l-0.39 2.46zm-2.05 -2.08l2.12 1.3 -0.74 -1.85 0 0 0.01 0 0.05 0.01 -0 0 0.02 0 0.06 0.01 0.03 0.01 0 0 0.03 0.01 0.03 0.01 0.04 0.01 0.04 0.01 0.03 0 0.04 0.01 0.04 0.01 0.04 0.01 0.02 0 0.04 0 0.05 0.01 0.07 0.01 0.02 0 0.02 0 0.07 0.01 0.04 0.01 0.02 0 0.04 0 0.04 0.01 0.04 0.01 0.04 0.01 0.01 0 0.04 0.01 0.03 0.01 -0.38 2.46 -0.02 -0 -0.02 -0 -0.05 -0.01 -0.03 -0.01 -0.03 -0 -0.03 -0 -0.03 -0 -0.06 -0.01 -0.04 -0.01 -0.01 -0 -0.06 -0.01 -0.06 -0.01 -0.02 -0 -0.04 -0 -0.05 -0.01 -0.06 -0.01 -0.04 -0.01 -0.04 -0.01 -0.04 -0.01 -0.05 -0.01 -0.04 -0.01 -0.04 -0.01 -0.05 -0.01 -0.04 -0.01 -0.07 -0.02 -0.04 -0.01 -0.02 -0 -0.05 -0.01 -0.06 -0.02 -0.02 -0 -0.05 -0.01 -0.05 -0.01 -0.74 -1.85zm0.74 1.85c-0.66,-0.18 -1.06,-0.86 -0.88,-1.52 0.18,-0.66 0.86,-1.06 1.52,-0.88l-0.64 2.4zm0.74 -2.71l0.45 2.45 -0.01 0 -0.04 0.01 -0.05 0.01 -0.05 0.01 -0.05 0.01 -0.05 0.01 -0.02 0 -0.02 0 -0.01 0 -0.02 0 -0.02 0 -0.01 0 -0.02 0 -0.01 0 0.04 -0.01 0.03 -0.01 0.04 -0.01 0.05 -0.02 0 0 0.05 -0.02 0.07 -0.04 0.06 -0.04 0.02 -0.01 0.04 -0.03 0.07 -0.06 0.01 -0.01 0.01 -0.01 0.04 -0.05 0.02 -0.02 -0 0.01 0.02 -0.03 0 0 -0.01 0.01 -2.12 -1.3 0.03 -0.04 0.03 -0.05 0.05 -0.07 0.03 -0.03 0.04 -0.06 0.07 -0.08 0.04 -0.04 0.04 -0.04 0.1 -0.08 0.07 -0.05 0.05 -0.03 0.09 -0.06 0.1 -0.05 0.08 -0.03 0.03 -0.01 0.08 -0.03 0.08 -0.02 0.07 -0.02 0.08 -0.01 0.03 -0.01 0.03 -0 0.03 -0 0.03 -0 0.03 -0 0.04 -0 0.03 -0 0.03 -0 0.01 0 0.01 -0 0.01 -0 0.02 -0 0.03 -0 -0.01 0zm0.01 0c0.68,-0.12 1.32,0.33 1.44,1.01 0.12,0.68 -0.33,1.32 -1.01,1.44l-0.43 -2.45zm0.28 2.04l1.53 -1.96 -0.56 2.21 -0.03 0 -0.03 0 -0.03 0 0.02 -0 -0.03 0.01 -0.06 0.01 -0.02 0 0 0 -0.03 0.01 -0.02 0 -0.03 0.01 -0.06 0.01 0 0 -0.03 0.01 -0.02 0 -0.03 0.01 -0.03 0 -0.03 0.01 -0.03 0 -0.03 0.01 -0.03 0 -0.02 0 -0.06 0.01 0.01 -0 -0.03 0.01 -0.03 0 -0.02 0 -0.07 0.01 0.01 -0 -0.02 0 -0.07 0.01 -0.02 0 -0.45 -2.45 0.04 -0.01 -0.02 0 0.03 -0.01 0.06 -0.01 -0.02 0 0.03 -0.01 0.03 -0 0.02 -0 0.06 -0.01 -0.01 0 0.03 -0.01 0.03 -0 0.02 -0 0.03 -0 0.03 -0.01 0.03 -0 0.03 -0.01 0.03 -0.01 0.03 -0.01 0.05 -0.01 -0.01 0 0.03 -0.01 0.03 -0.01 0.03 -0.01 0.05 -0.01 0.03 -0.01 -0.01 0 0.02 -0 0.07 -0.01 0.03 -0 0.03 -0 0.03 -0 -0.56 2.21zm0.56 -2.21c0.68,-0.11 1.32,0.34 1.44,1.02 0.11,0.68 -0.34,1.32 -1.02,1.44l-0.42 -2.45zm-2.39 2.42l0 -2.49 -0.06 0 0.02 -0 0.03 -0 0.06 -0 0.06 -0.01 0.06 -0.01 0.07 -0.01 0.09 -0.01 0.08 -0.01 0.09 -0.01 0.11 -0.01 0.09 -0.01 0.1 -0.01 0.1 -0.01 0.11 -0.01 0.12 -0.01 0.12 -0.01 0.11 -0 0.12 -0 0.11 -0 0.12 -0 0.12 0 0.12 0 0.12 0.01 0.12 0.01 0.12 0.02 0.13 0.02 0.14 0.03 0.14 0.04 0.16 0.05 0.15 0.06 0.16 0.09 0.17 0.11 -1.53 1.96 0.07 0.05 0.06 0.03 0.03 0.01 0.03 0.01 -0 0 -0.01 -0 -0.03 -0 -0.04 -0.01 -0.05 -0 -0.06 -0 -0.06 -0 -0.06 -0 -0.08 0 -0.08 0 -0.08 0 -0.09 0 -0.08 0 -0.08 0.01 -0.09 0.01 -0.09 0.01 -0.09 0.01 -0.09 0.01 -0.08 0.01 -0.08 0.01 -0.09 0.01 -0.08 0.01 -0.08 0.01 -0.09 0.01 -0.07 0.01 -0.07 0.01 -0.08 0.01 -0.08 0 -0.06 0zm0.06 -0c-0.69,0.03 -1.27,-0.5 -1.3,-1.18 -0.03,-0.69 0.5,-1.27 1.18,-1.3l0.12 2.49zm-2.49 -1.87l2.33 -0.89 0 0 0.02 0.04 0.02 0.04 0.01 0.03 0.02 0.03 0.02 0.03 0.01 0.02 0.02 0.03 0.01 0.02 0.01 0.02 0.01 0.01 0 0.01 0.01 0.01 0 0 0.01 0.01 0.01 0.01 -0.01 -0.01 -0.02 -0.02 0 0 0.01 0.01 -0.01 -0.01 -0.02 -0.01 -0 -0 -0.01 -0 -0.02 -0.01 -0.01 -0 0.01 0 0 0 -0.01 -0 -0.01 -0 0.01 0 0.02 0 0.01 0 0 2.49 -0.12 -0 -0.11 -0.01 -0.11 -0.01 -0.13 -0.02 -0.13 -0.03 -0.11 -0.03 -0.1 -0.03 -0.11 -0.04 -0.12 -0.05 -0.1 -0.05 -0.1 -0.05 -0.11 -0.07 -0.1 -0.07 -0.07 -0.06 -0.08 -0.07 -0.09 -0.09 -0.08 -0.08 -0.06 -0.07 -0.06 -0.07 -0.06 -0.08 -0.06 -0.08 -0.06 -0.08 -0.05 -0.08 -0.04 -0.07 -0.04 -0.08 -0.03 -0.07 -0.04 -0.08 -0.03 -0.07 -0.03 -0.07 -0.03 -0.08 -0.03 -0.08 -0.03 -0.07 0 0zm0 -0c-0.24,-0.64 0.08,-1.36 0.72,-1.6 0.64,-0.24 1.36,0.08 1.6,0.72l-2.33 0.88zm-0.41 -7.17l-0.22 2.48 1.33 -1.01 0.01 -0.05 0 0.01 0 0.04 0.01 0.07 0.01 0.1 0.02 0.12 0.03 0.14 0.03 0.14 0.04 0.16 0.05 0.17 0.05 0.17 0.05 0.18 0.06 0.19 0.06 0.2 0.07 0.19 0.07 0.2 0.07 0.2 0.07 0.2 0.07 0.2 0.07 0.2 0.08 0.2 0.07 0.19 0.07 0.19 0.07 0.19 0.07 0.18 0.07 0.17 0.07 0.16 0.06 0.16 0.06 0.15 0.05 0.14 0.05 0.13 0.05 0.12 -2.33 0.89 -0.04 -0.1 -0.05 -0.12 -0.05 -0.14 -0.06 -0.14 -0.06 -0.15 -0.07 -0.17 -0.07 -0.18 -0.07 -0.18 -0.07 -0.19 -0.08 -0.2 -0.08 -0.2 -0.08 -0.2 -0.08 -0.21 -0.08 -0.22 -0.08 -0.21 -0.08 -0.21 -0.08 -0.22 -0.07 -0.22 -0.07 -0.21 -0.07 -0.22 -0.07 -0.21 -0.06 -0.21 -0.06 -0.2 -0.05 -0.2 -0.05 -0.2 -0.04 -0.2 -0.04 -0.19 -0.03 -0.2 -0.02 -0.2 -0.01 -0.2 0.01 -0.21 0.03 -0.24 1.33 -1.01zm-1.33 1.01c0.13,-0.67 0.78,-1.12 1.46,-0.99 0.67,0.13 1.12,0.78 0.99,1.46l-2.44 -0.47zm3.33 -1.11l0.92 2.31 0 0 -0.11 0.04 -0.1 0.04 -0.11 0.04 -0.11 0.03 -0.1 0.03 -0.11 0.03 -0.11 0.02 -0.1 0.02 -0.1 0.02 -0.1 0.02 -0.1 0.01 -0.11 0.01 -0.1 0.01 -0.1 0.01 -0.09 0.01 -0.1 0 -0.11 0 -0.09 0 -0.09 0 -0.09 0 -0.1 -0 -0.09 -0 -0.09 -0 -0.09 -0 -0.08 -0 -0.09 -0.01 -0.09 -0.01 -0.08 -0.01 -0.09 -0.01 -0.08 -0.01 -0.08 -0.01 -0.09 -0.01 0.22 -2.48 0.08 0.01 0.08 0.01 0.08 0.01 0.07 0 0.08 0.01 0.07 0.01 0.07 0 0.08 0 0.07 0 0.07 0 0.07 0 0.06 0 0.07 0 0.07 0 0.07 -0 0.06 0 0.06 -0 0.07 -0 0.06 -0 0.06 -0 0.05 -0.01 0.06 -0.01 0.06 -0.01 0.06 -0.01 0.06 -0.01 0.04 -0.01 0.05 -0.01 0.06 -0.02 0.05 -0.01 0.04 -0.02 0.05 -0.02 0.04 -0.02 0 0zm0 0c0.64,-0.25 1.36,0.06 1.61,0.7 0.25,0.64 -0.06,1.36 -0.7,1.61l-0.92 -2.31zm2.9 0.19l-2.34 0.85 1.27 0.81 0.06 -0.01 0.02 -0 0 -0 0.03 -0.01 -0 0 -0.01 0 -0.01 0 -0.01 0 -0.04 0.02 -0.03 0.01 -0.01 0 -0.03 0.02 -0.03 0.02 -0.04 0.02 -0.05 0.02 -0.03 0.01 -0.05 0.02 -0.04 0.02 -0.03 0.02 -0.05 0.03 -0.04 0.02 -0.04 0.02 -0.05 0.02 -0.04 0.02 -0.05 0.02 -0.03 0.02 -0.04 0.02 -0.06 0.03 -0.07 0.03 -0.03 0.01 -0.04 0.02 -0.07 0.03 -0.92 -2.31 -0 0 0.03 -0.01 0.04 -0.02 0.01 -0 0.01 -0.01 0.04 -0.02 0.05 -0.02 0.03 -0.02 0.04 -0.02 0.04 -0.02 0.04 -0.02 0.04 -0.02 0.04 -0.02 0.06 -0.03 0.04 -0.02 0.05 -0.02 0.06 -0.03 0.05 -0.02 0.05 -0.03 0.05 -0.02 0.05 -0.02 0.08 -0.03 0.05 -0.02 0.05 -0.02 0.07 -0.03 0.07 -0.02 0.07 -0.02 0.07 -0.02 0.1 -0.02 0.07 -0.01 0.08 -0.02 0.12 -0.01 1.27 0.81zm-1.27 -0.81c0.68,-0.05 1.28,0.46 1.34,1.14 0.05,0.68 -0.46,1.28 -1.14,1.34l-0.2 -2.48zm2.94 5.79l-2.49 0 0 0 -0 -0.09 -0.01 -0.1 -0.01 -0.11 -0.02 -0.11 -0.02 -0.12 -0.02 -0.11 -0.03 -0.12 -0.03 -0.13 -0.04 -0.13 -0.04 -0.13 -0.05 -0.13 -0.05 -0.13 -0.05 -0.13 -0.06 -0.14 -0.06 -0.14 -0.06 -0.14 -0.06 -0.14 -0.06 -0.14 -0.06 -0.13 -0.06 -0.14 -0.07 -0.14 -0.07 -0.14 -0.06 -0.14 -0.06 -0.13 -0.06 -0.13 -0.06 -0.13 -0.06 -0.13 -0.06 -0.13 -0.06 -0.13 -0.06 -0.13 -0.05 -0.14 -0.05 -0.13 2.34 -0.85 0.03 0.08 0.03 0.08 0.04 0.1 0.04 0.1 0.05 0.11 0.05 0.12 0.06 0.12 0.06 0.13 0.06 0.13 0.07 0.14 0.06 0.14 0.07 0.14 0.07 0.15 0.07 0.16 0.07 0.16 0.07 0.16 0.07 0.16 0.07 0.17 0.07 0.17 0.07 0.18 0.06 0.18 0.06 0.18 0.06 0.18 0.05 0.18 0.05 0.18 0.05 0.19 0.04 0.2 0.03 0.19 0.03 0.19 0.02 0.2 0.01 0.21 0 0.21 0 0zm0 0c0,0.69 -0.56,1.24 -1.24,1.24 -0.69,0 -1.24,-0.56 -1.24,-1.24l2.49 0zm-1.58 1.99l-1.1 -2.23 -0 0 0 -0 0.03 -0.02 0.02 -0.01 0.02 -0.01 0.01 -0 0.01 -0.01 0.03 -0.02 0.02 -0.01 0.03 -0.02 0.02 -0.02 0.01 -0.01 0.02 -0.02 0.03 -0.02 0.02 -0.02 0 -0 0.02 -0.02 0.02 -0.02 -0.01 0.01 0.01 -0.01 0.02 -0.02 -0 0 -0.01 0.01 -0.02 0.02 -0.01 0.01 0 0 -0.01 0.02 -0.03 0.05 -0.02 0.06 -0.01 0.04 -0.02 0.07 -0.02 0.11 -0 0.09 2.49 0 -0.01 0.15 -0.03 0.17 -0.04 0.14 -0.03 0.11 -0.05 0.12 -0.06 0.11 -0.05 0.09 -0.04 0.07 -0.06 0.08 -0.07 0.09 -0.06 0.07 -0.06 0.07 -0.04 0.04 -0.05 0.05 -0.08 0.07 -0.05 0.04 -0.05 0.04 -0.07 0.06 -0.05 0.04 -0.05 0.03 -0.05 0.04 -0.06 0.05 -0.05 0.03 -0.04 0.03 -0.05 0.03 -0.04 0.03 -0.06 0.03 -0.06 0.03 -0.05 0.03 -0.04 0.02 -0.03 0.02 -0.05 0.03 -0 0zm0 -0c-0.61,0.31 -1.36,0.06 -1.67,-0.56 -0.31,-0.61 -0.06,-1.36 0.56,-1.67l1.11 2.23zm-1.46 -1.75l-0.59 2.42 -0.41 -2.24 0.07 -0.04 0.03 -0.02 0.04 -0.03 0.06 -0.04 0.06 -0.04 0.05 -0.02 0.05 -0.02 0.06 -0.03 0.05 -0.03 0.05 -0.02 0.05 -0.02 0.05 -0.02 0.05 -0.02 0.04 -0.02 0.05 -0.02 0.04 -0.02 0.04 -0.02 0.06 -0.03 0.04 -0.02 0.03 -0.01 0.04 -0.02 0.04 -0.02 0.04 -0.02 0.04 -0.02 0.01 -0 0.03 -0.01 0.06 -0.03 0.04 -0.02 0.02 -0.01 0.03 -0.02 0.03 -0.01 0.02 -0.01 1.1 2.23 -0.05 0.03 -0.05 0.02 -0.05 0.02 -0.06 0.03 -0.04 0.02 -0.02 0.01 -0.05 0.02 -0.07 0.03 -0.04 0.02 -0.04 0.02 -0.04 0.02 -0.04 0.02 -0.05 0.02 -0.04 0.02 -0.01 0 -0.04 0.02 -0.04 0.02 -0.03 0.02 -0.04 0.02 -0.03 0.01 -0.03 0.01 -0.03 0.02 -0.03 0.01 -0.02 0.01 -0.02 0.01 -0.03 0.02 -0.03 0.02 -0.01 0 -0.01 0 -0.02 0.02 -0.03 0.02 0 -0 -0.41 -2.24zm0.41 2.24c-0.57,0.39 -1.34,0.24 -1.73,-0.33 -0.39,-0.57 -0.24,-1.34 0.33,-1.73l1.4 2.05zm3.04 -1.88l-1.32 2.11 0 0 -0.04 -0.02 -0.03 -0.02 -0.03 -0.01 -0.03 -0.01 -0.04 -0.01 -0.03 -0.01 -0.02 -0 -0.04 -0.01 -0.04 -0 -0.04 -0 -0.05 0 -0.05 0 -0.06 0 -0.06 0 -0.07 0.01 -0.08 0.01 -0.08 0.01 -0.09 0.01 -0.09 0.01 -0.09 0.02 -0.11 0.02 -0.11 0.01 -0.12 0.01 -0.13 0.01 -0.14 0.01 -0.13 0 -0.14 0 -0.16 -0 -0.15 -0.01 -0.16 -0.02 -0.16 -0.03 -0.16 -0.03 0.59 -2.42 0.04 0.01 0.04 0.01 0.05 0.01 0.05 0 0.04 0 0.06 -0 0.07 -0 0.06 -0 0.07 -0.01 0.08 -0.01 0.08 -0.01 0.09 -0.01 0.09 -0.01 0.1 -0.02 0.1 -0.01 0.1 -0.01 0.11 -0.01 0.12 -0.01 0.13 -0.01 0.13 -0.01 0.13 -0 0.14 0 0.15 0.01 0.15 0.02 0.15 0.02 0.17 0.03 0.16 0.04 0.15 0.05 0.17 0.06 0.16 0.07 0.16 0.08 0.16 0.09 0 0zm0 0c0.58,0.36 0.76,1.13 0.39,1.71 -0.36,0.58 -1.13,0.76 -1.71,0.39l1.32 -2.11zm0.34 1.94l2.45 0.41 -1.06 1.03 -0.22 0.01 -0.16 -0.01 -0.14 -0.02 -0.13 -0.03 -0.12 -0.03 -0.11 -0.03 -0.1 -0.04 -0.1 -0.04 -0.09 -0.04 -0.1 -0.04 -0.1 -0.05 -0.09 -0.04 -0.1 -0.05 -0.09 -0.05 -0.09 -0.05 -0.1 -0.05 -0.09 -0.05 -0.09 -0.05 -0.09 -0.05 -0.09 -0.05 -0.09 -0.05 -0.09 -0.05 -0.09 -0.05 -0.07 -0.04 -0.08 -0.05 -0.07 -0.04 -0.07 -0.04 -0.07 -0.05 -0.06 -0.03 -0.06 -0.03 -0.05 -0.03 -0.05 -0.03 1.32 -2.11 0.04 0.03 0.05 0.03 0.05 0.03 0.06 0.04 0.05 0.03 0.07 0.04 0.07 0.04 0.06 0.04 0.08 0.05 0.07 0.04 0.08 0.04 0.08 0.05 0.08 0.04 0.08 0.05 0.08 0.04 0.08 0.05 0.07 0.04 0.08 0.04 0.07 0.04 0.07 0.03 0.07 0.03 0.06 0.03 0.05 0.02 0.05 0.02 0.04 0.02 0.03 0.01 0.02 0.01 -0 0 -0.02 -0 -0.04 -0.01 -0.07 -0 -0.14 0.01 -1.06 1.03zm1.06 -1.03c0.68,-0.09 1.31,0.39 1.39,1.07 0.09,0.68 -0.39,1.31 -1.07,1.39l-0.32 -2.47zm-0.15 -0.82l0.07 2.49 1.21 -1.32 -0 -0.03 -0 -0.03 -0 -0.01 -0.02 -0.07 -0.01 -0.04 -0.02 -0.04 -0.03 -0.06 -0.02 -0.04 -0.02 -0.04 -0.01 -0.02 -0.04 -0.05 -0.02 -0.03 0.04 0.04 -0.01 -0 -0.03 -0.03 0.06 0.06 0.05 0.06 0.01 0.02 0.05 0.06 0.05 0.07 0.05 0.09 0.06 0.12 0.05 0.12 0.03 0.08 0.03 0.12 0.02 0.11 0.01 0.1 0.01 0.13 -0 0.11 -0.01 0.1 -0.01 0.07 -0.02 0.1 -2.45 -0.41 -0 0.01 0 -0.01 -0 0.03 -0 0.04 0 0.06 0 0.05 0.01 0.05 0.02 0.07 0.01 0.03 0.03 0.08 0.04 0.08 0.03 0.05 0.02 0.03 0.02 0.03 -0.01 -0.02 0.03 0.03 0.03 0.03 -0.06 -0.06 -0.03 -0.04 0.01 0.01 -0.05 -0.06 -0.06 -0.08 -0.04 -0.06 -0.05 -0.08 -0.05 -0.08 -0.05 -0.11 -0.03 -0.09 -0.03 -0.09 -0.03 -0.13 -0.02 -0.08 -0.02 -0.1 -0.01 -0.11 1.21 -1.32zm-1.21 1.32c-0.04,-0.69 0.48,-1.28 1.17,-1.32 0.69,-0.04 1.28,0.48 1.32,1.17l-2.48 0.15zm5.61 0.95l2.07 -1.38 -0.44 1.78 -0.29 0.12 -0.21 0.05 -0.19 0.03 -0.17 0.01 -0.17 0.01 -0.17 0 -0.17 -0 -0.18 -0.01 -0.19 -0.01 -0.2 -0.01 -0.2 -0.02 -0.2 -0.02 -0.21 -0.02 -0.21 -0.02 -0.21 -0.02 -0.22 -0.02 -0.22 -0.02 -0.22 -0.02 -0.21 -0.02 -0.22 -0.02 -0.21 -0.02 -0.2 -0.02 -0.2 -0.02 -0.19 -0.02 -0.18 -0.02 -0.18 -0.02 -0.17 -0.02 -0.15 -0.01 -0.13 -0.01 -0.12 -0.01 -0.09 -0 -0.07 0 -0.07 -2.49 0.16 -0 0.16 0 0.16 0.01 0.17 0.01 0.18 0.01 0.19 0.02 0.19 0.02 0.2 0.02 0.2 0.02 0.2 0.02 0.22 0.02 0.21 0.02 0.21 0.02 0.22 0.02 0.22 0.02 0.21 0.02 0.21 0.02 0.21 0.02 0.2 0.02 0.19 0.02 0.19 0.02 0.18 0.01 0.16 0.01 0.15 0.01 0.14 0.01 0.13 0 0.1 0 0.07 -0 0.04 -0 -0 0 -0.06 0.02 -0.17 0.08 -0.44 1.78zm0.44 -1.78c0.6,-0.33 1.36,-0.11 1.69,0.49 0.33,0.6 0.11,1.36 -0.49,1.69l-1.2 -2.18zm-6.02 0.27l1.68 -1.83 -0 0 0.01 0.01 0.04 0.03 0.07 0.04 0.09 0.04 0.12 0.05 0.14 0.05 0.16 0.05 0.17 0.05 0.18 0.05 0.2 0.05 0.2 0.05 0.21 0.04 0.22 0.04 0.22 0.04 0.23 0.04 0.23 0.04 0.23 0.04 0.23 0.04 0.23 0.04 0.22 0.04 0.22 0.04 0.22 0.04 0.22 0.05 0.21 0.05 0.21 0.06 0.21 0.06 0.2 0.07 0.2 0.08 0.2 0.1 0.22 0.14 0.23 0.19 0.22 0.26 -2.07 1.38 0.1 0.13 0.07 0.06 0.03 0.02 -0.02 -0.01 -0.06 -0.03 -0.09 -0.03 -0.11 -0.03 -0.14 -0.03 -0.16 -0.04 -0.17 -0.04 -0.19 -0.04 -0.2 -0.04 -0.21 -0.04 -0.22 -0.04 -0.23 -0.04 -0.24 -0.04 -0.24 -0.04 -0.24 -0.04 -0.24 -0.04 -0.25 -0.05 -0.25 -0.05 -0.24 -0.05 -0.24 -0.06 -0.24 -0.06 -0.24 -0.07 -0.23 -0.07 -0.23 -0.08 -0.23 -0.09 -0.23 -0.11 -0.23 -0.13 -0.22 -0.15 -0.21 -0.17 -0 0zm0 0c-0.51,-0.46 -0.54,-1.25 -0.08,-1.76 0.46,-0.51 1.25,-0.54 1.76,-0.08l-1.68 1.83zm-1.88 -2.73l2.32 -0.89 -0 -0 0.02 0.06 0.03 0.06 0.03 0.06 0.03 0.06 0.03 0.07 0.03 0.07 0.02 0.05 0.03 0.06 0.04 0.07 0.03 0.05 0.04 0.06 0.04 0.06 0.03 0.05 0.04 0.06 0.04 0.06 0.05 0.06 0.04 0.06 0.04 0.05 0.05 0.06 0.04 0.05 0.04 0.04 0.05 0.05 0.06 0.07 0.04 0.05 0.05 0.05 0.05 0.05 0.04 0.05 0.05 0.06 0.04 0.04 0.04 0.04 0.05 0.05 0.05 0.05 -1.68 1.83 -0.07 -0.07 -0.07 -0.07 -0.08 -0.08 -0.08 -0.08 -0.06 -0.07 -0.08 -0.08 -0.07 -0.08 -0.07 -0.07 -0.07 -0.08 -0.06 -0.07 -0.07 -0.08 -0.07 -0.09 -0.07 -0.09 -0.06 -0.08 -0.06 -0.09 -0.06 -0.09 -0.05 -0.08 -0.06 -0.08 -0.06 -0.09 -0.06 -0.09 -0.05 -0.09 -0.05 -0.09 -0.05 -0.1 -0.05 -0.08 -0.05 -0.1 -0.05 -0.11 -0.04 -0.09 -0.04 -0.09 -0.05 -0.1 -0.04 -0.1 -0.04 -0.1 -0.04 -0.1 -0 -0zm0 0c-0.25,-0.64 0.07,-1.36 0.71,-1.61 0.64,-0.25 1.36,0.07 1.61,0.71l-2.32 0.9zm0.02 -4.61l0.58 2.42 0.95 -1.06 0 -0 0 0 0 0.01 0 0.04 0 0.05 0.01 0.04 0.01 0.05 0.02 0.08 0.02 0.08 0.02 0.07 0.02 0.08 0.02 0.08 0.03 0.09 0.03 0.09 0.03 0.09 0.03 0.1 0.03 0.09 0.03 0.09 0.04 0.1 0.04 0.1 0.03 0.08 0.04 0.09 0.04 0.1 0.04 0.09 0.03 0.09 0.03 0.08 0.04 0.09 0.03 0.09 0.03 0.08 0.03 0.07 0.03 0.08 0.03 0.08 -2.32 0.89 -0.02 -0.06 -0.03 -0.06 -0.03 -0.08 -0.03 -0.08 -0.03 -0.08 -0.03 -0.08 -0.04 -0.09 -0.04 -0.1 -0.04 -0.09 -0.04 -0.09 -0.04 -0.11 -0.04 -0.12 -0.04 -0.11 -0.04 -0.11 -0.04 -0.11 -0.04 -0.12 -0.04 -0.11 -0.04 -0.12 -0.04 -0.12 -0.04 -0.12 -0.03 -0.12 -0.03 -0.12 -0.03 -0.13 -0.03 -0.12 -0.02 -0.12 -0.02 -0.14 -0.02 -0.14 -0.01 -0.13 -0.01 -0.13 -0 -0.15 0.01 -0.15 0.01 -0.15 0.95 -1.06zm-0.95 1.06c0.08,-0.68 0.7,-1.17 1.38,-1.09 0.68,0.08 1.17,0.7 1.09,1.38l-2.47 -0.3zm3.83 -1.97l1.01 2.27 -0 0 -0.1 0.05 -0.11 0.05 -0.1 0.04 -0.1 0.04 -0.11 0.05 -0.1 0.04 -0.1 0.04 -0.1 0.04 -0.1 0.04 -0.11 0.04 -0.09 0.03 -0.1 0.04 -0.11 0.03 -0.09 0.03 -0.11 0.04 -0.1 0.03 -0.1 0.03 -0.1 0.03 -0.11 0.03 -0.1 0.03 -0.11 0.03 -0.1 0.03 -0.1 0.03 -0.11 0.03 -0.1 0.03 -0.1 0.03 -0.1 0.03 -0.11 0.03 -0.1 0.02 -0.11 0.03 -0.11 0.02 -0.11 0.03 -0.58 -2.42 0.1 -0.03 0.1 -0.02 0.1 -0.02 0.1 -0.02 0.09 -0.02 0.1 -0.03 0.1 -0.03 0.1 -0.02 0.09 -0.02 0.1 -0.03 0.1 -0.03 0.08 -0.02 0.09 -0.02 0.09 -0.03 0.09 -0.03 0.09 -0.03 0.09 -0.03 0.08 -0.02 0.09 -0.03 0.08 -0.03 0.08 -0.03 0.1 -0.03 0.08 -0.03 0.09 -0.03 0.09 -0.03 0.09 -0.03 0.09 -0.03 0.08 -0.03 0.09 -0.04 0.09 -0.04 0.08 -0.04 0.09 -0.04 -0 0zm0 -0c0.63,-0.28 1.36,0.01 1.64,0.64 0.28,0.63 -0.01,1.36 -0.64,1.64l-1 -2.28zm2.37 -1.35l1.46 2.01 0 0 -0.08 0.06 -0.08 0.06 -0.09 0.06 -0.09 0.06 -0.08 0.05 -0.08 0.06 -0.1 0.06 -0.09 0.05 -0.08 0.05 -0.08 0.05 -0.09 0.05 -0.08 0.05 -0.09 0.06 -0.09 0.06 -0.08 0.05 -0.08 0.05 -0.1 0.06 -0.09 0.05 -0.08 0.05 -0.1 0.05 -0.09 0.04 -0.08 0.04 -0.09 0.05 -0.09 0.05 -0.09 0.05 -0.09 0.04 -0.09 0.04 -0.09 0.05 -0.1 0.05 -0.09 0.04 -0.09 0.04 -0.1 0.04 -1.01 -2.27 0.08 -0.03 0.08 -0.04 0.09 -0.04 0.08 -0.04 0.08 -0.04 0.08 -0.04 0.09 -0.04 0.08 -0.04 0.07 -0.04 0.08 -0.04 0.08 -0.04 0.08 -0.04 0.06 -0.03 0.08 -0.05 0.08 -0.04 0.06 -0.03 0.08 -0.05 0.08 -0.05 0.06 -0.04 0.07 -0.04 0.07 -0.05 0.07 -0.04 0.07 -0.05 0.08 -0.05 0.07 -0.05 0.06 -0.04 0.07 -0.05 0.08 -0.05 0.06 -0.05 0.07 -0.05 0.07 -0.05 0.07 -0.05 0 0zm0 0c0.55,-0.4 1.33,-0.28 1.74,0.27 0.4,0.55 0.28,1.33 -0.27,1.74l-1.46 -2.01zm9.55 -7.04l2.25 1.07 0 0 -0.29 0.58 -0.3 0.54 -0.31 0.51 -0.32 0.48 -0.33 0.45 -0.34 0.42 -0.35 0.39 -0.36 0.36 -0.36 0.34 -0.37 0.31 -0.38 0.29 -0.37 0.27 -0.37 0.24 -0.38 0.23 -0.37 0.21 -0.37 0.19 -0.37 0.18 -0.36 0.16 -0.35 0.15 -0.35 0.15 -0.34 0.14 -0.33 0.13 -0.32 0.13 -0.31 0.13 -0.3 0.12 -0.29 0.12 -0.27 0.12 -0.26 0.12 -0.25 0.13 -0.23 0.13 -0.21 0.13 -0.2 0.14 -1.46 -2.01 0.3 -0.21 0.31 -0.19 0.31 -0.17 0.32 -0.16 0.33 -0.16 0.32 -0.14 0.32 -0.14 0.33 -0.13 0.32 -0.13 0.32 -0.13 0.32 -0.13 0.32 -0.13 0.32 -0.13 0.32 -0.14 0.31 -0.14 0.31 -0.15 0.31 -0.16 0.3 -0.17 0.3 -0.18 0.3 -0.2 0.3 -0.21 0.29 -0.22 0.29 -0.24 0.28 -0.26 0.28 -0.28 0.27 -0.3 0.27 -0.33 0.27 -0.36 0.26 -0.39 0.26 -0.42 0.25 -0.45 0.24 -0.49 0 0zm0 0c0.3,-0.62 1.04,-0.88 1.66,-0.59 0.62,0.3 0.88,1.04 0.59,1.66l-2.25 -1.07zm0.29 -0.71l2.28 0.99 0 -0 -0.01 0.02 -0.01 0.02 -0.01 0.01 -0.01 0.02 -0.01 0.02 0 -0.01 -0.02 0.06 -0.01 0.02 0 -0.01 -0.02 0.04 -0.01 0.03 -0 0 -0.01 0.02 -0.02 0.06 -0.01 0.02 0 -0.01 -0.01 0.02 -0.01 0.04 -0.01 0.02 -0.02 0.04 -0.02 0.04 -0 0 -0 0.01 -0.02 0.06 -0.02 0.04 -0 0 -0.01 0.02 -0.02 0.06 -0.02 0.04 -0.01 0.02 -0.01 0.02 -0.01 0.03 -2.25 -1.07 0 -0.01 0.01 -0.02 0.01 -0.02 0 -0.01 -0 0.01 0.01 -0.02 0.02 -0.04 0 -0.01 -0 0.01 0.01 -0.04 0.02 -0.04 0.01 -0.01 0 -0 0.01 -0.02 0 -0.01 0.01 -0.02 0.02 -0.06 0.01 -0.02 -0 0.01 0.01 -0.02 0.02 -0.04 0.01 -0.03 0 -0 0.02 -0.06 0.01 -0.02 -0 0.01 0.02 -0.06 0.01 -0.02 0.01 -0.02 0.02 -0.04 0.01 -0.02 0.02 -0.03 0 -0zm-0 0c0.27,-0.63 1,-0.92 1.63,-0.65 0.63,0.27 0.92,1 0.65,1.63l-2.29 -0.98zm0.52 -1.46l2.32 0.89 -0 0 -0.02 0.04 -0.02 0.04 -0.01 0.04 -0.02 0.04 -0.01 0.03 -0.02 0.06 -0.01 0.03 -0.01 0.03 -0.02 0.05 -0.02 0.05 -0.02 0.05 -0.02 0.05 -0.02 0.05 -0.01 0.04 -0.02 0.05 -0.02 0.05 -0.02 0.05 -0.02 0.05 -0.01 0.04 -0.02 0.06 -0.02 0.06 -0.02 0.05 -0.01 0.04 -0.02 0.06 -0.02 0.05 -0.02 0.06 -0.03 0.06 -0.02 0.04 -0.03 0.08 -0.03 0.06 -0.02 0.04 -0.03 0.07 -2.28 -0.99 0.02 -0.04 0.02 -0.06 0.02 -0.03 0.01 -0.02 0.02 -0.05 0.01 -0.03 0.01 -0.03 0.02 -0.05 0.01 -0.04 0.02 -0.05 0.02 -0.05 0.01 -0.03 0.01 -0.03 0.02 -0.05 0.02 -0.05 0.02 -0.05 0.02 -0.05 0.02 -0.05 0.02 -0.05 0.01 -0.04 0.02 -0.05 0.02 -0.05 0.02 -0.05 0.02 -0.05 0.02 -0.06 0.02 -0.06 0.01 -0.04 0.02 -0.06 0.02 -0.06 0.02 -0.05 0.02 -0.06 0.02 -0.05 -0 0zm0 -0c0.25,-0.64 0.97,-0.96 1.61,-0.71 0.64,0.25 0.96,0.97 0.71,1.61l-2.32 -0.9zm0.55 -4.19l2.49 0 0 0 0 0.14 -0 0.15 -0 0.14 -0 0.15 -0.01 0.15 -0 0.15 -0.01 0.16 -0.01 0.16 -0.01 0.16 -0.01 0.16 -0.01 0.17 -0.01 0.16 -0.01 0.16 -0.02 0.17 -0.02 0.17 -0.02 0.16 -0.02 0.17 -0.02 0.17 -0.02 0.17 -0.03 0.17 -0.03 0.16 -0.03 0.17 -0.03 0.16 -0.03 0.16 -0.04 0.16 -0.04 0.16 -0.04 0.17 -0.04 0.15 -0.04 0.15 -0.05 0.16 -0.05 0.16 -0.06 0.15 -2.32 -0.89 0.03 -0.09 0.03 -0.09 0.03 -0.1 0.03 -0.11 0.03 -0.12 0.03 -0.11 0.03 -0.13 0.03 -0.13 0.03 -0.13 0.03 -0.13 0.02 -0.13 0.02 -0.14 0.02 -0.14 0.02 -0.14 0.02 -0.14 0.02 -0.14 0.02 -0.15 0.02 -0.14 0.01 -0.15 0.01 -0.15 0.01 -0.15 0.01 -0.14 0.01 -0.14 0.01 -0.14 0.01 -0.14 0.01 -0.14 0 -0.14 0 -0.14 0 -0.13 0 -0.13 0 -0.12 0 -0.12 0 0zm0 0c0,-0.69 0.56,-1.24 1.24,-1.24 0.69,0 1.24,0.56 1.24,1.24l-2.49 0zm-0.59 -2.62l2.31 -0.93 -0 -0 0.04 0.1 0.04 0.1 0.04 0.1 0.04 0.1 0.04 0.1 0.04 0.11 0.04 0.1 0.03 0.11 0.04 0.11 0.03 0.11 0.03 0.11 0.03 0.1 0.03 0.1 0.03 0.11 0.03 0.11 0.03 0.11 0.02 0.11 0.03 0.12 0.02 0.12 0.02 0.12 0.02 0.11 0.02 0.11 0.02 0.13 0.02 0.12 0.01 0.11 0.01 0.12 0.01 0.13 0.01 0.12 0.01 0.11 0 0.13 0 0.12 0 0.12 -2.49 0 -0 -0.08 0 -0.08 -0 -0.07 -0 -0.09 -0.01 -0.08 -0.01 -0.07 -0.01 -0.08 -0.01 -0.09 -0.01 -0.08 -0.01 -0.07 -0.02 -0.09 -0.02 -0.09 -0.02 -0.08 -0.02 -0.08 -0.02 -0.08 -0.02 -0.09 -0.02 -0.08 -0.02 -0.08 -0.02 -0.08 -0.02 -0.09 -0.02 -0.09 -0.03 -0.08 -0.03 -0.08 -0.02 -0.08 -0.03 -0.08 -0.03 -0.08 -0.03 -0.08 -0.03 -0.09 -0.03 -0.09 -0.03 -0.08 -0.03 -0.08 -0.03 -0.08 -0 -0zm0 0c-0.26,-0.64 0.05,-1.36 0.68,-1.62 0.64,-0.26 1.36,0.05 1.62,0.68l-2.3 0.94zm-0.33 -0.99l2.35 -0.82 0 0 0.01 0.03 0.01 0.04 0.02 0.06 0 0 0.01 0.04 0.02 0.06 0.01 0.03 0 0.01 0.01 0.03 0.02 0.06 0 0 0.01 0.04 0.02 0.06 0.01 0.02 0 0.01 0.01 0.03 0.02 0.05 0 0 0.01 0.03 0.01 0.03 0.01 0.03 0.01 0.03 0.01 0.02 0.01 0.02 0.01 0.03 0.01 0.03 0 0 0.02 0.05 0.01 0.02 0 -0 0.01 0.02 0.01 0.02 -2.31 0.93 -0.01 -0.03 -0.02 -0.04 -0.02 -0.06 -0.01 -0.04 -0 -0.01 -0.02 -0.06 -0.01 -0.03 -0.01 -0.03 -0.01 -0.04 -0.01 -0.04 -0.01 -0.03 -0.01 -0.03 -0.01 -0.03 -0.01 -0.03 -0.02 -0.06 -0 -0.01 -0.01 -0.03 -0.02 -0.05 -0.01 -0.04 0 -0 -0.01 -0.02 -0.02 -0.06 0 -0 -0.01 -0.03 -0.02 -0.05 -0.01 -0.03 0 -0 -0.01 -0.02 -0.02 -0.06 0 -0 -0.01 -0.02 -0.01 -0.03 0 0zm0 0c-0.23,-0.65 0.11,-1.36 0.76,-1.58 0.65,-0.23 1.36,0.11 1.58,0.76l-2.35 0.82zm-0.28 -8.34l2.63 7.51 -2.35 0.82 -2.63 -7.51 -0 -0 2.35 -0.82zm-2.35 0.82c-0.23,-0.65 0.11,-1.36 0.76,-1.58 0.65,-0.23 1.36,0.11 1.58,0.76l-2.35 0.82zm0.25 -5.67l-0.3 2.47 1.4 -1.23 0 0.02 0 0.04 0.01 0.06 0.01 0.07 0.01 0.08 0.02 0.09 0.02 0.1 0.03 0.12 0.03 0.12 0.03 0.12 0.03 0.13 0.03 0.13 0.04 0.14 0.04 0.13 0.04 0.14 0.04 0.14 0.04 0.14 0.04 0.14 0.05 0.14 0.04 0.14 0.04 0.14 0.04 0.13 0.04 0.14 0.04 0.13 0.04 0.13 0.04 0.12 0.04 0.12 0.04 0.11 0.03 0.1 0.03 0.1 0.04 0.1 0.03 0.08 -2.35 0.82 -0.03 -0.09 -0.03 -0.09 -0.04 -0.11 -0.04 -0.12 -0.04 -0.12 -0.04 -0.12 -0.04 -0.13 -0.04 -0.13 -0.04 -0.13 -0.05 -0.14 -0.05 -0.15 -0.05 -0.15 -0.05 -0.15 -0.05 -0.15 -0.05 -0.16 -0.05 -0.16 -0.04 -0.15 -0.04 -0.15 -0.04 -0.16 -0.04 -0.15 -0.04 -0.15 -0.04 -0.15 -0.04 -0.15 -0.03 -0.14 -0.03 -0.14 -0.03 -0.15 -0.02 -0.14 -0.02 -0.14 -0.02 -0.14 -0.02 -0.14 -0.01 -0.14 -0 -0.14 1.4 -1.23zm-1.4 1.23c0,-0.69 0.56,-1.24 1.25,-1.24 0.69,0 1.24,0.56 1.24,1.25l-2.49 -0.01zm2.44 -2.61l2.44 0.48 0 -0 -0.04 0.2 -0.03 0.19 -0.03 0.18 -0.03 0.17 -0.03 0.17 -0.03 0.17 -0.03 0.15 -0.03 0.16 -0.03 0.16 -0.04 0.15 -0.04 0.15 -0.05 0.16 -0.06 0.16 -0.08 0.18 -0.1 0.18 -0.12 0.17 -0.15 0.17 -0.17 0.15 -0.18 0.13 -0.2 0.11 -0.21 0.08 -0.18 0.05 -0.19 0.04 -0.2 0.03 -0.18 0.01 -0.18 0 -0.19 -0 -0.18 -0.01 -0.19 -0.01 -0.2 -0.02 -0.21 -0.02 -0.22 -0.03 0.3 -2.47 0.2 0.02 0.18 0.02 0.16 0.02 0.14 0.01 0.12 0.01 0.09 0 0.08 -0 0.05 -0 0.02 -0 0 -0 -0.01 0 -0.04 0.02 -0.06 0.03 -0.05 0.04 -0.05 0.05 -0.04 0.05 -0.03 0.04 -0.01 0.03 -0 0.01 0.01 -0.03 0.01 -0.04 0.02 -0.07 0.02 -0.09 0.02 -0.09 0.02 -0.12 0.02 -0.14 0.03 -0.15 0.03 -0.17 0.03 -0.19 0.03 -0.19 0.04 -0.21 0.04 -0.22 0 -0zm0 0c0.13,-0.67 0.78,-1.12 1.46,-0.99 0.67,0.13 1.12,0.78 0.99,1.46l-2.44 -0.47zm0.68 -1.89l2.06 1.4 0 -0.01 -0 0 0 -0.01 -0 0 -0.01 0.02 -0.02 0.03 -0 0 -0 0.01 -0.01 0.03 -0.01 0.03 -0.02 0.04 -0.01 0.02 -0.01 0.02 -0.02 0.05 -0.01 0.04 -0.01 0.04 -0.01 0.03 -0.01 0.03 -0.01 0.03 -0.01 0.05 -0.02 0.05 -0.01 0.04 -0.01 0.03 -0.01 0.05 -0.02 0.05 -0 0.01 -0.01 0.03 -0.01 0.05 -0.01 0.06 -0.01 0.03 -0.01 0.03 -0.01 0.05 -0 0.02 -2.44 -0.48 0.01 -0.06 0.01 -0.04 0.01 -0.06 0.01 -0.06 0.01 -0.04 0.01 -0.04 0.02 -0.07 0.02 -0.08 0.01 -0.04 0.01 -0.05 0.02 -0.06 0.02 -0.06 0.02 -0.05 0.01 -0.05 0.02 -0.07 0.02 -0.06 0.02 -0.07 0.02 -0.06 0.02 -0.05 0.02 -0.05 0.02 -0.07 0.03 -0.07 0.02 -0.05 0.02 -0.06 0.02 -0.06 0.03 -0.07 0.04 -0.07 0.02 -0.05 0.03 -0.06 0.04 -0.06 0.04 -0.07 0.04 -0.06 0 -0.01zm-0 0.01c0.38,-0.57 1.16,-0.72 1.73,-0.34 0.57,0.38 0.72,1.16 0.34,1.73l-2.07 -1.39zm1.17 -0.9l0.87 2.33 -0.01 0 -0.02 0.01 0.02 -0.01 -0 0 -0.02 0.01 0.05 -0.02 -0.04 0.02 -0.02 0.01 -0 0 0.03 -0.02 0.01 -0.01 -0.04 0.02 0.03 -0.02 -0.02 0.01 -0.02 0.01 0.03 -0.02 -0.02 0.01 0.01 -0.01 0.01 -0.01 -0.02 0.01 0 0 0.03 -0.03 0 -0 -0.02 0.02 0 -0 0 -0 0.01 -0 0 -0 0 -0 0 -0.01 0.01 -0.01 0 0 0.01 -0.01 -2.06 -1.4 0.03 -0.05 0.03 -0.04 0.03 -0.05 0.03 -0.04 0.03 -0.04 0.03 -0.04 0.04 -0.04 0.04 -0.04 0.04 -0.04 0.02 -0.02 0.04 -0.04 0.06 -0.05 0.04 -0.03 0.02 -0.01 0.05 -0.04 0.05 -0.03 0.02 -0.01 0.07 -0.05 0.02 -0.01 0.02 -0.01 0.07 -0.04 0 0 0.05 -0.03 0.07 -0.04 0.04 -0.02 0.02 -0.01 0 -0 0.09 -0.04 0.02 -0.01 0.03 -0.02 0.06 -0.02 0.02 -0.01 -0.01 0zm0.01 -0c0.64,-0.23 1.36,0.09 1.6,0.74 0.23,0.64 -0.09,1.36 -0.74,1.6l-0.86 -2.33zm1.79 1.08l2.49 0.03 -1.42 1.22 -0.09 -0.01 -0.09 -0.01 -0.08 -0.01 -0.09 -0.01 -0.08 -0.01 -0.07 -0.01 -0.08 -0.01 -0.08 -0.01 -0.07 -0.01 -0.06 -0.01 -0.07 -0.01 -0.07 -0.01 -0.06 -0 -0.07 -0 -0.05 -0 -0.05 0 -0.07 -0 -0.05 0 -0.04 0 -0.04 0 -0.07 0 -0.06 0 -0.03 0 -0.05 0.01 -0.06 0.01 -0.05 0.01 -0.04 0.01 -0.05 0.01 -0.06 0.02 -0.06 0.02 -0.05 0.02 -0.05 0.02 -0.87 -2.33 0.12 -0.04 0.12 -0.04 0.11 -0.03 0.11 -0.03 0.11 -0.03 0.12 -0.03 0.11 -0.02 0.1 -0.02 0.11 -0.02 0.13 -0.01 0.1 -0.01 0.09 -0.01 0.11 -0.01 0.11 -0 0.1 0 0.09 0 0.1 0 0.1 0.01 0.09 0 0.1 0.01 0.09 0.01 0.09 0.01 0.11 0.01 0.09 0.01 0.08 0.01 0.08 0.01 0.09 0.01 0.09 0.01 0.08 0.01 0.09 0.01 0.09 0.01 0.08 0.01 -1.42 1.22zm1.42 -1.22c0.68,0.09 1.15,0.73 1.06,1.41 -0.09,0.68 -0.73,1.15 -1.41,1.06l0.35 -2.46zm-1.38 1.28l1.88 -1.63 0 0 0.02 0.03 0.02 0.02 0.03 0.04 0.02 0.02 0.03 0.04 0.05 0.06 0 0 0.03 0.05 0.04 0.07 0.03 0.05 0.03 0.05 0.01 0.02 0.02 0.04 0.03 0.07 0.04 0.09 0.01 0.03 0.01 0.04 0.03 0.09 0.02 0.07 0.01 0.03 0.01 0.03 0.02 0.07 0.01 0.07 0.01 0.07 0.01 0.07 0 0.03 0.01 0.07 0 0.06 0 0.03 0 0.06 0 0.06 0 0.05 -2.49 -0.03 0 -0.02 0 -0.01 0 -0 -0 -0.03 0 0 0 0.01 -0 -0.03 0 0.01 0 0.02 0 0.02 0 0.02 -0 -0.02 -0 -0.02 0.01 0.02 0.02 0.05 -0 -0.01 -0 -0.01 0.02 0.05 0.01 0.03 -0 -0 -0.01 -0.02 0.01 0.01 0.01 0.01 0.02 0.03 0.01 0.01 -0.03 -0.04 0.02 0.03 0 0.01 -0.01 -0.02 0 0 -0.02 -0.02 -0.01 -0.01 0 0zm-0 -0c-0.45,-0.52 -0.39,-1.31 0.13,-1.75 0.52,-0.45 1.31,-0.39 1.75,0.13l-1.88 1.63zm-0.23 -0.2l1.29 -2.13 0.01 0 0.05 0.03 0.02 0.01 0.02 0.01 0.05 0.03 0.02 0.01 0.02 0.01 0.02 0.01 0.05 0.03 0.05 0.03 -0.01 -0.01 0.02 0.01 0.06 0.05 0.04 0.03 -0 -0 0.02 0.01 0.04 0.03 0.02 0.01 0.04 0.04 0.04 0.03 0.02 0.02 -0 -0 0.04 0.04 0.04 0.04 0.02 0.02 0.04 0.04 -0 -0 0.02 0.02 0.06 0.06 0.02 0.02 0.03 0.04 0.02 0.02 0.02 0.02 -1.88 1.63 -0.01 -0.02 -0.02 -0.02 0 0 -0.02 -0.02 0.03 0.03 -0.02 -0.02 -0.03 -0.04 0 0 -0.02 -0.02 0 0 0 0.01 -0.04 -0.03 -0.02 -0.02 0 0 0.01 0.01 -0.02 -0.01 0 0 -0.02 -0.01 -0.04 -0.03 0.01 0.01 0.03 0.02 -0.02 -0.01 -0.04 -0.03 0.01 0.01 0.01 0.01 -0.02 -0.01 -0.02 -0.01 -0.02 -0.01 0.02 0.01 -0.02 -0.01 -0.02 -0.01 0.01 0.01 0.01 0zm-0.01 -0c-0.58,-0.36 -0.77,-1.13 -0.41,-1.71 0.36,-0.58 1.13,-0.77 1.71,-0.41l-1.3 2.12zm-1.13 -1.82l2.24 -1.09 -0 -0 0.06 0.12 0.05 0.11 0.05 0.11 0.04 0.11 0.03 0.1 0.03 0.1 0.02 0.09 0.02 0.09 0.02 0.11 0.01 0.09 0.01 0.05 0.01 0.08 0 0.05 0 0.03 0 0.02 0 -0.01 0 0.02 -0.01 -0.05 -0.02 -0.09 -0.02 -0.07 -0.05 -0.11 -0.05 -0.08 -0.06 -0.08 -0.04 -0.05 -0.02 -0.02 -0.03 -0.03 -0.01 -0.01 0 0 0.01 0 0.04 0.03 0.04 0.03 0.04 0.03 -1.29 2.13 -0.09 -0.06 -0.08 -0.05 -0.07 -0.04 -0.08 -0.06 -0.08 -0.06 -0.08 -0.07 -0.09 -0.08 -0.06 -0.07 -0.08 -0.1 -0.09 -0.13 -0.07 -0.13 -0.07 -0.16 -0.04 -0.12 -0.03 -0.13 -0.02 -0.11 -0 -0.03 -0.01 -0.07 -0 -0.04 -0 -0.04 0 -0.02 -0 0 -0 -0.03 0 0 0 0.01 -0 -0.01 -0.01 -0.02 -0 -0.02 -0.01 -0.03 -0.01 -0.03 -0.02 -0.04 -0.02 -0.05 -0.03 -0.06 -0 -0zm0 0c-0.3,-0.62 -0.05,-1.36 0.57,-1.66 0.62,-0.3 1.36,-0.05 1.66,0.57l-2.23 1.1zm-4.93 -3.21l0.1 -2.49 0 0 0.27 0.02 0.28 0.03 0.27 0.04 0.27 0.05 0.27 0.06 0.27 0.07 0.26 0.08 0.26 0.08 0.26 0.1 0.25 0.1 0.25 0.11 0.25 0.12 0.25 0.13 0.24 0.13 0.24 0.14 0.23 0.15 0.23 0.16 0.22 0.16 0.22 0.17 0.22 0.18 0.21 0.18 0.2 0.19 0.2 0.19 0.19 0.2 0.18 0.2 0.17 0.21 0.17 0.21 0.16 0.22 0.15 0.22 0.14 0.23 0.14 0.24 0.12 0.24 -2.24 1.09 -0.08 -0.15 -0.08 -0.15 -0.09 -0.15 -0.1 -0.15 -0.11 -0.15 -0.12 -0.15 -0.12 -0.15 -0.13 -0.14 -0.13 -0.14 -0.14 -0.14 -0.15 -0.13 -0.15 -0.13 -0.15 -0.12 -0.16 -0.12 -0.16 -0.12 -0.17 -0.11 -0.17 -0.11 -0.17 -0.1 -0.18 -0.1 -0.18 -0.09 -0.18 -0.09 -0.18 -0.08 -0.19 -0.07 -0.18 -0.07 -0.19 -0.06 -0.19 -0.06 -0.18 -0.05 -0.18 -0.04 -0.19 -0.03 -0.18 -0.03 -0.17 -0.02 -0.18 -0.01 0 0zm0 0c-0.69,-0.03 -1.22,-0.61 -1.19,-1.29 0.03,-0.69 0.61,-1.22 1.29,-1.19l-0.1 2.49zm0.12 1.12l-0.36 -2.46 -1.06 1.17 0 0.03 0 0.01 0 0.03 0 0.02 0 0 0 0.01 -0.01 -0.02 -0.01 -0.02 -0.01 -0.03 -0.01 -0.02 -0.01 -0.01 -0.02 -0.05 -0.03 -0.05 -0.03 -0.05 -0.03 -0.06 -0.03 -0.07 -0.03 -0.08 -0.05 -0.12 -0.04 -0.15 -0.03 -0.2 -0 -0.27 0.06 -0.3 0.15 -0.31 0.22 -0.26 0.24 -0.18 0.23 -0.11 0.19 -0.05 0.13 -0.03 0.15 -0.02 0.15 -0.01 0.11 0 0.12 0 -0.1 2.49 -0.05 0 -0.03 0 0.02 -0 0.03 -0 0.04 -0.01 0.11 -0.03 0.16 -0.08 0.19 -0.14 0.19 -0.22 0.13 -0.27 0.05 -0.25 -0 -0.21 -0.02 -0.14 -0.02 -0.08 -0.02 -0.05 -0 -0.01 0.01 0.01 0.01 0.03 0.02 0.04 0.02 0.04 0.03 0.05 0.04 0.08 0.04 0.08 0.04 0.08 0.04 0.09 0.04 0.09 0.04 0.13 0.03 0.13 0.03 0.14 0.02 0.16 0.01 0.14 0 0.17 -1.06 1.17zm1.06 -1.17c-0.03,0.69 -0.61,1.22 -1.3,1.19 -0.69,-0.03 -1.22,-0.61 -1.19,-1.3l2.49 0.11z"/>
     <path id="1" class="fil1" d="M62.94 21.57c-0.3,0.04 -0.56,0.01 -0.83,0.05 -0.26,0.04 -0.49,0.1 -0.71,0.13 -1.77,0.26 -3.11,1.61 -3.86,3.12 -0.21,0.42 -0.33,0.78 -0.55,1.23 -0.43,0.87 -1.51,3.76 -2.02,4.96l-0.79 1.78c-0.13,0.25 -0.2,0.35 -0.32,0.61l-0.62 1.1c-0.11,0.18 -0.22,0.3 -0.34,0.51 -2.1,3.37 -4.35,1.42 -7.85,0.12 -0.23,-0.08 -0.4,-0.17 -0.6,-0.26 -1.26,-0.54 -2.8,-1.05 -4.18,-1.13 -0.39,-0.03 -0.43,-0.14 -0.6,-0.35 -0.53,-0.68 -1.13,-1.26 -1.71,-1.85 -1.01,-1.01 -2.6,-2.54 -4.01,-3.1 -0.36,-0.14 -1,-0.41 -1.43,-0.31 -0.5,0.11 -0.52,0.68 -0.66,1.09 -0.5,-0.17 -1.11,-0.42 -1.73,-0.42 -1.5,0 -0.73,1.61 -0.72,1.74 -0.61,0.06 -1.55,-0.46 -1.97,0.35 -0.45,0.87 0.5,1.41 0.59,1.91 -0.76,0.05 -2.23,-0.08 -2.23,1.04 0,0.32 0.23,0.65 0.46,0.84 0.21,0.18 0.69,0.41 0.81,0.65 -0.33,0.06 -0.65,0.2 -0.92,0.39 -0.68,0.47 -0.74,1.26 0.02,1.68 0.31,0.17 0.8,0.19 0.96,0.41 -0.3,0.2 -0.55,0.23 -0.92,0.54 -0.53,0.44 -0.57,1.34 0.8,1.77 0.46,0.15 1,0.08 1.43,0.17 0.53,1.6 0.74,2.92 2.06,4.3 0.51,0.53 0.86,1.38 1.14,2.08 0.07,0.18 0.15,0.38 0.21,0.58 0.08,0.26 0.14,0.34 0.22,0.57 0.42,1.25 0.73,2.57 1.02,3.86 0.28,1.28 0.56,2.78 0.72,4.08 0.14,1.12 0.78,2.6 1.48,3.39 0.18,0.2 0.2,0.27 0.35,0.44l0.84 0.74c0.75,0.63 1.62,1.01 2.57,1.45l1.68 0.69c0.79,0.29 2.17,0.89 2.8,1.28 0.91,0.56 0.88,0.85 1.38,1.85 0.36,0.73 1.86,4.14 1.56,4.8 -0.12,0.26 -0.56,0.56 -0.87,0.71 -0.23,0.11 -0.96,0.37 -1.13,0.52 0.35,0.26 1.77,-0.07 2.18,-0.07 0.91,0 2.08,1.52 2.71,1.53 0.23,-0.77 -0.64,-1.1 0.82,-0.85 0.44,0.08 1.04,0.07 1.47,0.09 0.53,0.02 0.94,0.09 1.47,0.14 0.49,0.04 1.28,0.15 1.69,0.11 -0.06,-0.47 -1.57,-0.67 -2,-0.73 -0.42,-0.06 -0.76,-0.14 -1.17,-0.21 -0.3,-0.05 -0.9,-0.13 -1.18,-0.2 0.17,-0.28 0.25,-0.21 0.65,-0.28 0.28,-0.05 0.55,-0.11 0.83,-0.16 -0.47,-0.37 -2.09,-0.07 -2.6,-0.05 -0.72,0 -1.04,-0.47 -1.27,-1.07 -0.42,-1.11 -1.87,-4.54 -1.69,-5.49 0.86,0.08 1.75,0.14 2.57,-0.19 0.34,-0.13 0.97,-0.52 1.27,-0.54 0.4,1.1 1.6,2.95 1.6,4.55 0,0.34 -0.59,0.72 -0.89,0.87 -0.38,0.19 -0.86,0.34 -1.2,0.58 1.1,0.27 2.02,-0.46 3.09,0.2 0.43,0.27 1.83,1.15 2.22,1.1 0.08,-0.5 -0.25,-0.37 -0.28,-0.81 1.14,-0.03 4.9,0.61 5.41,0.34 -0.51,-0.77 -4.67,-0.72 -5.78,-1.74 -0.65,-0.6 -1.23,-1.4 -1.56,-2.26 -0.26,-0.68 -0.94,-2.18 -0.85,-2.95 1.12,-0.27 2.08,-0.53 3.1,-0.98 0.95,-0.42 1.78,-0.88 2.6,-1.48 2.64,-1.92 7.16,-1.67 9.94,-7.51 0.1,-0.22 0.2,-0.5 0.3,-0.75 0.23,-0.54 0.34,-1 0.54,-1.51 0.49,-1.26 0.63,-3.26 0.63,-4.64 0,-1.1 -0.29,-2.12 -0.68,-3.08 -0.11,-0.28 -0.21,-0.64 -0.31,-0.94l-2.63 -7.51c-0.31,-0.9 -1.08,-3.18 -1.08,-4.02 2.29,0.28 1.98,-0.06 2.42,-2.38 0.09,-0.45 0.27,-1.1 0.49,-1.43 0.14,-0.21 0.35,-0.34 0.57,-0.42 0.93,-0.34 1.66,-0.2 2.61,-0.07 0,-0.39 -0.08,-0.55 -0.27,-0.76 -0.16,-0.18 -0.34,-0.34 -0.53,-0.46 -0.74,-0.45 -0.19,-0.33 -0.67,-1.31 -1.04,-2.11 -3.58,-3.81 -5.99,-3.91 -0.96,-0.04 -0.08,0.42 -0.11,1.13z"/>
    </g>
   </g>
  </g>
 </g>
</svg>
