<?xml version="1.0" encoding="UTF-8"?>
<!DOCTYPE svg PUBLIC "-//W3C//DTD SVG 1.1//EN" "http://www.w3.org/Graphics/SVG/1.1/DTD/svg11.dtd">
<!-- Creator: CorelDRAW 2019 (64-Bit) -->
<svg xmlns="http://www.w3.org/2000/svg" xml:space="preserve" width="49.0324mm" height="10.8452mm" version="1.1" style="shape-rendering:geometricPrecision; text-rendering:geometricPrecision; image-rendering:optimizeQuality; fill-rule:evenodd; clip-rule:evenodd"
viewBox="0 0 4868.11 1076.75"
 xmlns:xlink="http://www.w3.org/1999/xlink"
 xmlns:xodm="http://www.corel.com/coreldraw/odm/2003">
 <defs>
  <style type="text/css">
   <![CDATA[
    .fil0 {fill:#AABAC2}
    .fil1 {fill:#AABAC2;fill-rule:nonzero}
   ]]>
  </style>
 </defs>
 <g id="Capa_x0020_1">
  <metadata id="CorelCorpID_0Corel-Layer"/>
  <g id="_822551536">
   <g>
    <g>
     <path class="fil0" d="M1890.96 444.04l0.04 -23.6c0,-4.46 7.34,-2.77 13.4,-2.81 8.16,0 35.32,-1.74 40.53,0.94 0.64,2.04 0.07,23.86 0.41,31.48l-0.05 198.82c-0.01,16.32 1.45,14.2 -18.79,14.06 -14.9,-0.1 -19.47,-0.59 -34.2,0.07 -1.77,-3.59 -1.14,-14.97 -1.02,-19.15l-0.31 -199.81zm427.56 -25.96c1.37,2.45 2.05,46.05 -0.33,48.05 -1.26,1.05 -32.27,0.45 -38.17,-0.03 -4.54,-0.37 -16.69,0.42 -23.75,-0.46 -2.12,4.14 -1.42,6.55 -1.42,12.03 0,4.72 -0.08,9.37 0.19,14.06 0.34,5.72 -1.28,23.05 1.05,26.41 0.99,0.25 9.77,0.11 11.86,0.12l38.15 -0.27c9.96,-0.01 7.72,-0.69 7.62,17.89 -0.04,6.86 0.81,21.13 -0.23,27.06 -1.32,2.4 -8.59,1.39 -13.42,1.4 -8.86,0 -38.97,-1.24 -44,0.36 -1.97,4.87 -0.96,9.3 -0.98,14.88l-0.1 79.85c-0.34,3.83 -1.71,2.75 -5,3.14l-24.03 0.21c-22.38,-1.74 -26.58,5.69 -25.9,-14.93 0.11,-3.21 -0.15,-4.78 -0.27,-7.56 -0.22,-5.32 0,-11.15 0,-16.54l0 -163.67c-0.02,-5.29 0.35,-9.73 0.27,-15.07l-0.04 -23.62c0.13,-3.11 1.26,-3.7 4.14,-3.98l49.22 -0.05c8.69,0 61.79,-0.71 65.13,0.7zm-327.3 0.37c5.84,-2.06 38.14,-1.06 48.75,-1.07 14.31,-0.01 10.32,1.56 14.78,10.39 0.67,1.31 1.53,4.82 2.07,6.46 1.47,4.46 3.82,7.33 4.72,11.89 1.1,5.66 3.57,7.66 4.71,11.79 1.76,6.38 3.8,10.55 4.38,12.73 0.8,3.04 1.64,3.39 2.45,5.59 0.81,2.19 0.84,4.51 1.93,6.59 0.61,1.18 0.86,1.03 1.4,2.62 0.32,0.92 0.4,2.07 0.79,3.22 0.84,2.43 1.37,2.96 2.23,6.28 0.81,3.12 1.94,2.75 2.65,5.41 0.88,3.27 0.21,3.51 1.85,6.68l4.68 12.42c1.14,2.54 1.85,2.17 2.29,5.61 0.64,4.84 1.21,2.52 2.6,6.04 1.51,3.81 2.44,8.85 3.99,12.56l7.09 18.02c0.79,1.72 1.18,4.5 2.01,6.46 6.6,-1.57 1.44,-5.01 2.65,-14.18 0.76,-5.77 -0.05,-12.29 -0.09,-18.56l0.01 -49.2c0.01,-1.53 0.11,-3.48 -0.02,-4.97 -0.14,-1.62 -0.61,-2.42 -0.73,-4.1 -0.45,-6.13 -0.27,-58.67 0.33,-59.24 3.52,-1.57 29.83,-0.1 36.2,-0.27 11.34,-0.29 10.9,-4.57 10.32,25.91 -0.44,23.06 0.01,50.24 0.01,73.8l-0.27 136.54c0.01,11.04 0.57,8.23 -14.57,8.86l-28.12 0.2c-4.38,0 -9.94,0.17 -14.14,-0.09 -0.96,-1.7 -1.12,-2.4 -1.96,-4.43 -1.07,-2.57 -1.87,-1.79 -2.71,-3.81 -0.91,-2.17 0.25,-3.74 -3.06,-9.99 -1.28,-2.43 -1.43,-0.78 -2.27,-4.26 -0.46,-1.86 -0.8,-3.65 -1.41,-5.13 -1.39,-3.41 -2.14,-6.2 -3.8,-9.22 -1.14,-2.07 -0.82,-2.97 -1.41,-5.12 -0.51,-1.86 -1.38,-2.5 -2.05,-4.48l-5.39 -14.2c-1.02,-1.88 -0.82,-2.86 -1.59,-4.9 -0.67,-1.82 -1.27,-2.04 -1.95,-4.6l-5.36 -14.25c-1.06,-2.02 -0.61,-3.33 -1.53,-4.97 -1.3,-2.29 -1.37,-0.92 -2.08,-4.45 -0.55,-2.7 -0.69,-2.43 -1.96,-4.59 -1.22,-2.08 -0.68,-2.83 -1.4,-5.15 -0.59,-1.88 -1.61,-2.51 -2.23,-4.25 -0.68,-1.85 -0.45,-3.46 -1.51,-5 -2.36,-3.43 -1.61,-3.26 -3.84,-9.23 -0.64,-1.71 -0.71,-3.33 -1.37,-5.16 -0.82,-2.28 -1.58,-2.08 -2.48,-4.05l-3.01 -10.06c-0.7,-1.96 -1.4,-1.68 -2.21,-4.33 -0.33,-1.06 -0.4,-1.8 -0.72,-2.76 -0.64,-1.9 -0.76,-1.72 -1.38,-2.19 -2.53,2.4 -1.5,14.35 -1.5,17.64 -0.01,6.33 -0.24,13.36 0.18,19.28 1.53,21.26 -1.15,54.13 0.31,77.63 0.18,2.9 1.73,33.16 -0.88,35.23 -2.9,1.81 -39.3,0.63 -45.3,0.39 -2.11,-3.34 -1.55,-8.34 -1.32,-13.35 0.18,-4.15 -0.1,-10.06 -0.1,-14.75l0 -186.25c0,-10.03 -0.38,-20.11 0.37,-29.62zm518.07 205.37c-2.55,0.84 -1.37,1.22 -2.41,3.37 -1.01,2.06 -1.39,0.87 -2.63,2.9 -2.73,4.44 -4.85,9 -8.94,12.67 -1.73,1.55 -1.22,0.36 -3.02,2.5 -1.71,2.04 -3.93,3.06 -5.52,5.02 -2.07,2.52 -6.58,4.69 -9.28,6.79 -3.51,2.73 -18.04,8.76 -22.58,9.52l-18.79 2.82c-6.97,0.85 -16.53,-2.3 -19.02,-2.5 -4.08,-0.31 -5.15,-0.71 -8.34,-2.16 -8.26,-3.73 -6.1,-0.79 -18.28,-8.35 -1.19,-0.74 -2.48,-1.14 -3.55,-1.96 -1.18,-0.88 -1.32,-1.42 -3.08,-2.46 -2.39,-1.41 -3.62,-2.98 -5.71,-4.83 -1.89,-1.68 -4.72,-2.58 -5.93,-5.14 -1.73,-3.65 -8.58,-10.94 -11.1,-15.5 -1.08,-1.95 -0.48,-2.09 -1.77,-3.75 -2.3,-2.93 -3.4,-6.78 -5.2,-10.35 -1.98,-3.92 -1.78,-3.62 -2.99,-8.09 -0.95,-3.5 -1.95,-2.93 -2.63,-7.97 -0.54,-4.01 -2.1,-4.95 -2.76,-8.2 -0.69,-3.44 -0.52,-5.25 -1.87,-8.67 -1.63,-4.11 -1.31,-13.83 -2.29,-19.3 -2.22,-12.38 -2.72,-27.17 -0.74,-39.74 0.51,-3.24 1.4,-5.47 1.72,-9.3 0.29,-3.37 0.05,-6.58 0.8,-9.73 0.74,-3.05 1.72,-5.61 2.19,-8.91 0.55,-3.79 1.36,-4.84 2.42,-8.08 1,-3.05 0.74,-4.77 2.2,-8.34 2,-4.93 3.73,-10.51 6.39,-15.19 1.32,-2.33 2.42,-4.83 3.65,-6.91 1.13,-1.91 1.49,-1.49 2.48,-3.01 1.65,-2.5 3.42,-6.59 6.47,-9.61l8.04 -8.52c1.69,-1.21 1.24,-0.67 2.66,-2.36 2.12,-2.54 8.73,-6.55 12.04,-9.04 1.5,-1.12 2.07,-0.88 3.89,-1.63 2.02,-0.81 1.52,-1.35 3.44,-2.09 1.46,-0.57 2.97,-0.52 4.49,-1.02 1.81,-0.6 1.8,-1.09 3.33,-1.7 2.74,-1.09 5.36,-0.64 8.91,-2.14 6.46,-2.76 22.23,-1.24 29.21,-1.1 3.21,0.07 15.14,2.65 17.32,3.93 3.52,2.08 4.06,0.68 7.73,3.31 1.41,1 2.33,0.86 3.83,1.69 1.65,0.9 1.08,1.23 2.94,2.11 2.09,1 1.63,0.19 3.58,1.93l9.01 6.56c2.38,1.33 1.71,0.02 3.02,2.5 1.47,2.78 8.32,8.48 11.75,14.87 1.29,2.41 1.48,0.87 2.52,2.98 1.11,2.21 -0.27,2.08 2.24,3.08 1,-5.33 -1.11,-4.1 -1.58,-7.67 -1.45,-11.03 -3.3,-9 -6.74,-22.49 -0.78,-3.1 -1.9,-3.9 -2.62,-7.36 -0.85,-4.06 -1.87,-2.59 -2.96,-6.63l-5.81 -13.24c-0.92,-2.45 -1.84,-4.7 -3.06,-6.99 -0.81,-1.51 -1.31,-1.71 -2.01,-3.01 -1.69,-3.13 -2.52,-6.27 -5.09,-9.46 -2.69,-3.33 -4.54,-9 -6.82,-12.77 -1.48,-2.45 -0.37,-1.17 -2.31,-2.7 -1.89,-1.49 -3.61,-6.24 -5.37,-8.7l-12.14 -16.96c-1.78,-2.12 -2.71,-3.5 -4.3,-5.76 -2.6,-3.7 -6.22,-6.86 -9.13,-10.43l-9.06 -10.03c-1.89,-1.84 -2.95,-3.01 -4.57,-4.97l-5.17 -4.85c-4.42,-4.59 -16.29,-15.75 -20.24,-18.42 -1.85,-1.24 -1.09,-1.21 -2.59,-2.45l-7.9 -6.13c-2.57,-2.46 -6.04,-3.25 -8.64,-5.94 -1.33,-1.37 -0.29,-1.17 -2.37,-2.65 -1.76,-1.25 -4.63,-2.21 -6.18,-3.37 -1.68,-1.24 -0.69,-1.14 -2.84,-2.16 -1.91,-0.91 -1.72,-0.59 -3.22,-1.83 -1.18,-0.98 -4.06,-2.88 -5.71,-3.83 -1.08,-0.64 -2.27,-1.03 -3.32,-1.7 -1.27,-0.81 -1.73,-1.21 -3.07,-1.96 -1.46,-0.81 -1.91,-1.25 -3.06,-1.98 -2.54,-1.6 -7.12,-3.13 -9.36,-4.67 -5.9,-4.04 -13.5,-6.05 -19.35,-9.78 -1.37,-0.87 -2.16,-0.83 -3.66,-1.36 -2.37,-0.82 -1.34,-0.94 -3.18,-1.85 -2.17,-1.06 -3.53,-0.81 -6.96,-2.58 -2.28,-1.17 -4.5,-1.2 -7.37,-2.69 -3.9,-2.03 -12.06,-3.08 -14.78,-4.29 -3.75,-1.65 -0.84,-1.77 -6.95,-2.64 -3.03,-0.44 -4.57,-1.81 -7.55,-2.41l-15.9 -3.61c-13.33,-1.96 -28.94,-6.03 -42.5,-6 -13.08,0.02 -24.12,-1.39 -37.23,-0.56 -11.67,0.74 -25.48,-0.07 -35.92,2.92 -2.49,0.7 -6.13,0.62 -8.99,1.06 -3.09,0.48 -4.99,1.2 -7.74,1.82 -2.9,0.65 -6,0.62 -8.93,1.14 -3.07,0.55 -4.24,1.82 -7.2,2.32 -3.77,0.66 -4.85,0.21 -8.24,1.79 -3.74,1.75 -4.36,0.83 -7.93,1.56 -3.92,0.79 -2.29,2.32 -6.44,3.11 -3.29,0.62 -4.59,1.34 -7.48,2.08 -1.29,0.33 -2.99,0.58 -4.05,0.98 -1.95,0.72 -1.52,1.13 -3.1,1.92 -0.79,0.4 -13.04,4.12 -17.98,6.62 -1.42,0.72 -1.74,1.26 -2.72,1.82 -2.57,1.44 -4.09,0.36 -7.39,2.63 -1.68,1.16 -3.96,2.59 -6.08,3.46 -3.26,1.36 -3.61,2.54 -6.19,3.36 -4.02,1.28 -3.46,2.16 -6.44,3.1 -2.59,0.81 -3.97,2.15 -6.37,3.66l-11.95 7.64c-2.58,1.37 -3.63,2.58 -5.93,3.59 -3.16,1.41 -4.11,2.01 -5.81,4.25 -1.28,1.7 -0.99,1.17 -2.91,2.12 -3.36,1.66 -5.13,4.04 -8.2,5.85l-20.84 17.82c-1.67,1.61 -3.52,2.53 -5.31,4.24 -4.5,4.3 -8.35,8.1 -11.93,12.66 -2.58,3.3 -8.69,8.08 -11.63,12.47 -1.49,2.22 -0.93,0.89 -2.47,2.55 -0.83,0.91 -1.02,1.68 -1.8,2.72l-6.98 8.05c-1.66,3.1 -4.12,5.37 -6.18,8.41l-7.63 11.45c-0.64,1.1 -1.14,2.46 -1.78,3.24 -0.75,0.91 -1.43,1.03 -2.24,2.28 -1.33,2.04 -2.23,4.75 -3.4,6.64 -0.87,1.4 -1.4,1.21 -2.26,2.76 -0.61,1.1 -0.63,1.91 -1.33,3.18 -1.71,3.13 -3.84,5.97 -5.2,9.36l-3.53 6.01c-0.84,1.17 -1.3,1.15 -1.88,3.15 -1.19,4.09 -0.87,3.31 -2.84,6.69 -0.73,1.27 -2.4,5.26 -2.85,6.7l-5.96 13.61c-0.99,3.26 -0.68,4.15 -2.23,7.3 -0.78,1.58 -0.76,1.83 -1.33,3.71 -0.5,1.61 -1.07,2.14 -1.67,3.35 -1.18,2.41 -0.97,5.22 -1.75,7.77 -0.91,3.04 -1.44,4.48 -2.26,7.79 -0.74,3.01 -1.92,3.05 -2.67,6.88 -0.55,2.77 -1.26,5.01 -1.9,7.67 -0.93,3.93 -0.83,8.46 -1.96,12.59 -1.5,5.53 -2,1.18 -2.5,12.04 -0.37,8.02 -1.96,7.49 -2.37,16.55 -0.29,6.3 -0.13,12.48 -1.17,18.56 -1.13,6.56 0.52,47.68 1.4,55.88 0.68,6.35 2.23,10.44 2.38,17.42 0.06,2.96 0.23,5.15 1.68,7.64 1.63,2.8 1.36,4.41 1.84,7.65 0.49,3.32 1.34,5.09 1.96,8.09 0.69,3.35 0.19,4.73 1.64,7.93l4.69 14.89c0.22,1.6 0.26,2.86 0.76,4.24 0.66,1.82 1.06,1.62 1.7,3.38 0.56,1.54 0.43,2.52 1.03,3.95 0.49,1.17 0.98,1.59 1.58,2.93 1.17,2.62 1.11,4.66 2.42,7.13 1.21,2.29 1.88,4.01 2.98,6.54 1.26,2.89 1.32,4.64 2.92,7.14 1.19,1.88 0.79,1.65 1.31,3.69 0.72,2.88 1.7,2.11 3.21,6.3 1.05,2.92 0.85,0.88 2.04,3.03 0.68,1.21 0.6,2.04 1.51,3.51 2.92,4.78 5.37,10.56 8.49,15.6 0.65,1.04 1.13,1.69 1.98,3.06l5.46 8.58c2.72,3.68 4.57,8.23 7.8,11.78 2.15,2.35 3.81,6.1 6,8.57l10.68 13.41c2.75,4.01 6.23,6.55 9.01,10.07 1.85,2.3 4.22,3.64 5.17,4.86l2.2 2.83c0.96,1.05 0.91,1.14 2.18,2.32 2.39,2.23 5.79,4.72 7.68,7.37 2.41,3.36 1.6,2.28 4.81,4.74l26.59 22.13c2.91,1.62 5.27,4.2 8.4,5.67 3.34,1.57 8.37,5.43 11.69,7.88 2.82,2.08 8.69,5.9 12.15,6.94 5,1.49 1.9,1.86 5.79,3.73l13.31 6.27c2.18,0.83 1.3,0.88 3.02,2 3.12,2.02 7.13,2.27 10.14,4.44 3.36,2.43 16.14,6.49 21.16,7.95 1.09,0.32 8.07,3.56 14.31,5.26l7.22 2.35c2.52,0.73 5.2,0.72 7.95,1.59 5.9,1.85 11.15,2.57 15.38,4.16l24.67 3.82c6.37,0.29 11.67,1.58 17.59,2.08 14.38,1.22 44.2,1.69 56.86,-0.25 3.06,-0.47 5.45,-1.06 8.6,-1.45 6.59,-0.81 10.78,-0.83 17.07,-2.49 2.82,-0.74 5.68,-0.48 8.61,-0.99 3.36,-0.6 5.07,-1.89 7.62,-2.34 3.68,-0.67 4.46,-0.14 8.03,-1.57 2.98,-1.2 4.61,-1.15 7.71,-1.81l22.56 -6.59c1.78,-0.67 1.45,-1.13 3.25,-1.76 1.47,-0.52 2.72,-0.5 4.04,-0.98 1.48,-0.55 2.08,-1.13 3.41,-1.64 1.09,-0.41 2.45,-0.57 3.51,-0.96 2.19,-0.82 1.16,-1.03 3.04,-2.01 1.69,-0.87 4.76,-1.19 10.3,-4.26 1.84,-1.02 1.12,-1.25 3.16,-1.9 3.37,-1.07 6.71,-2.18 9.89,-4.16 4.3,-2.67 8.98,-3.85 12.51,-7.05 2.23,-2.02 3.89,-1.28 6.46,-3.07l5.77 -3.78c1.75,-1.31 0.5,-1.15 2.73,-2.29 4.32,-2.2 4.99,-2.92 8.88,-5.7 1.3,-0.93 2.08,-0.84 3.37,-1.63l10.89 -8.19c1.65,-1.16 1.29,-1.34 2.7,-2.32 1.49,-1.04 1.67,-0.66 3.03,-2l20.81 -18.36c1.14,-1.07 1.35,-0.81 2.72,-1.8 2.5,-1.81 2.73,-2.93 4.57,-4.97 1.47,-1.65 3.2,-3.31 4.77,-4.78l13.92 -15.19c1.69,-1.62 2.76,-3.28 4.2,-5.35 0.9,-1.32 3.27,-3.98 4.58,-5.48l14.11 -19.5c0.65,-1.02 1.28,-1.5 2.16,-2.88l7.62 -11.93c0.6,-1.04 0.62,-2.18 1.45,-3.57 0.89,-1.51 1.04,-1.01 1.93,-2.6 0.74,-1.36 0.78,-2.07 1.67,-3.35 1.41,-2.03 4.08,-7.11 4.82,-9.75 1.11,-4 4.32,-5.89 5.3,-9.28 0.47,-1.64 0.42,-1.92 1.17,-3.32 1.3,-2.41 2.08,-4.53 3.37,-6.69 1.57,-2.63 1.2,-4.81 2.52,-6.99 1.48,-2.44 6.94,-17.86 7.86,-21.25 1.09,-3.99 2.33,-4.58 3.57,-11.02 0.85,-4.48 3.06,-5.1 1.69,-10.62z"/>
     <path class="fil0" d="M1692.04 520.35c0,-4.79 2,-22.12 2.6,-28.03 0.48,-4.68 0.32,-9.61 1.25,-14.25 1.1,-5.46 1.75,-7.16 2.03,-12.96 0.27,-5.43 1.84,-8.54 2.24,-13.52 0.5,-6.04 1.1,-7.4 2.77,-12.18 0.68,-1.95 0.74,-4.35 0.94,-6.45 0.45,-4.64 2.13,-7.81 2.78,-12.43 0.48,-3.45 0.64,-2.95 1.97,-5.55 1.25,-2.46 0.5,-4.03 1.4,-6.66 0.74,-2.18 1.23,-2.7 1.86,-5.67 0.88,-4.22 2.43,-7.65 3.6,-11.45 0.6,-1.95 2.56,-11.14 3.01,-12.04 1.01,-2.07 2,-1.18 2.74,-4.8 0.52,-2.48 0.38,-3.58 1.69,-5.83 1.69,-2.89 1.02,-3.18 2.08,-5.97 0.83,-2.2 1.47,-2.36 2.25,-5.26l4.66 -10.43c1.21,-2.09 1.2,-3.27 2.07,-5.47l14.78 -30.9c2.14,-2.87 1.18,-1.79 2.36,-5.15l11.31 -19.32c2.6,-5.77 4.79,-6.71 6.12,-9.46 1.88,-3.85 3.87,-5.35 5.78,-9.28 0.94,-1.95 1.6,-2.17 3.07,-4.46 2.81,-4.37 5.86,-9.24 9.3,-13.27 1.68,-1.98 1.64,-3.65 3.05,-4.98 1.32,-1.24 0.65,-0.15 2.01,-2.03 0.89,-1.22 0.02,-0.2 0.86,-1.13 0.02,-0.03 0.69,-0.66 0.77,-0.74l3.16 -4.38c1.56,-2.25 1.24,-2.38 3.13,-4.39 0.85,-0.91 1.1,-1.44 1.83,-2.18l4.91 -6.13c1.02,-1.38 0.35,-1.34 1.61,-2.43 0.88,-0.76 1.43,-0.63 2.25,-1.25 2.08,-1.56 0.46,-2.65 3.08,-4.45 2.84,-1.95 5.31,-5.27 7.5,-8.06 1.19,-1.53 0.88,-0.91 1.99,-2.05l8.99 -9.58c1.4,-1.91 2.2,-2.1 3.75,-3.78l19.41 -18.74c3.6,-2.02 2.54,-3.71 5.87,-5.7 2.97,-1.77 7.2,-6.36 10.27,-8.82 1.27,-1.01 3.01,-2.08 4.22,-3.31 3.18,-3.24 7.59,-5.58 10.95,-8.62 3.67,-3.32 7.46,-5.29 10.64,-7.94 1.58,-1.31 2.33,-2.06 4.42,-3.13 2.42,-1.23 2.1,-2.04 4.31,-3.19 2.23,-1.17 2.82,-1.13 4.81,-2.74 1.74,-1.4 1.9,-2.2 4.33,-3.7 1.76,-1.07 3.42,-1.73 4.8,-2.75 1.18,-0.87 1.01,-1.06 2.25,-1.77 3.97,-2.26 7.81,-4.15 11.43,-7.14l19.4 -11.23c1.96,-0.87 3.41,-1.54 5.07,-2.48l9.91 -5.14c9.41,-4.79 19.68,-8.62 29.3,-12.86 2.06,-0.9 1.05,-0.55 2.05,-1.47 1.79,-1.63 8.36,-3.64 10.87,-4.21 2.68,-0.61 3.32,-1.76 5.56,-2.45 2.96,-0.91 2.9,-0.33 5.61,-1.94 2.24,-1.33 3.49,-0.94 5.96,-1.56 2.45,-0.62 2.58,-1.54 5.26,-2.27 4.51,-1.25 7.58,-2.38 12.08,-3.52 2.5,-0.63 2.35,-1.54 5.34,-2.17 2.18,-0.48 4,-0.96 6.02,-1.49 2.08,-0.54 3.89,-1.16 5.92,-1.63 1.9,-0.45 4.6,-0.64 6.39,-1.14 2.58,-0.72 1.05,-1.61 5.45,-2.11 2.19,-0.25 4.09,-0.39 6.35,-1.15 4.76,-1.61 8.26,-1.54 13.24,-2.35 2.31,-0.39 3.5,-1.25 5.57,-1.92 1.98,-0.65 4.24,-0.75 6.64,-0.96 5.06,-0.45 7.94,-1.96 12.56,-2.39 4.88,-0.46 9.15,-0.07 14.07,-0.98 15.33,-2.85 13.35,-1.73 27.91,-2.8l28.81 -1.44 52.86 2.54c3.82,0.63 5.66,1.76 9.91,2.09 3.93,0.32 7.62,0.27 11.48,0.71 3.49,0.4 5.93,1.61 9.91,2.1 3.01,0.38 7.31,-0.01 10.23,1.28 3.88,1.7 5.13,1.9 9.67,2.24 4.86,0.36 5.59,1.73 9.81,2.36 5.05,0.75 5.48,0.41 9.76,2.27 2.66,1.16 6.2,1.08 9.28,2.25 3.41,1.31 6.09,1.57 9.6,2.46 2.2,0.57 2.35,1.22 4.12,1.92l14.01 4.05c2.44,0.65 1.5,1.26 4.09,1.99 2.07,0.59 2.42,0.12 4.19,1.29 3.62,2.42 5.81,1.3 9.06,2.98l8.5 3.57c1.22,0.45 3.23,0.75 4.52,1.52 1.87,1.09 0.99,1.4 3.68,2.3l12.5 5.09c1.56,0.67 2.95,0.75 4.52,1.5 2.16,1.03 1.16,1.45 3.68,2.35 2.57,0.91 2.06,0.39 4.15,1.88 1.93,1.36 2.25,0.83 4.29,1.73l7.52 4.55c1.43,0.81 2.41,0.88 3.8,1.72l15.72 8.38c3.21,1.53 12.63,8.58 18.19,11.44 2.19,1.12 1.81,1.45 3.52,2.49 1.44,0.86 6.85,3.42 7.53,4.03 1.45,1.32 1.34,1.56 3.1,2.93l20.76 14.89c1.19,1.3 -0.02,0.36 1.56,1.44 1.15,0.79 0.7,0.33 1.76,1.26l12.98 10.63c4.68,3.64 8.44,7.47 12.69,11.41 1.25,1.16 2.22,1.43 3.52,2.49l16.6 16.03c2.67,2.3 4.85,5.36 7.39,7.68l14.35 15.26c2.42,3.48 6.69,6.84 8.18,9.42 1.52,2.64 5.92,7.67 7.9,9.65 0.95,0.95 2.06,1.88 2.98,3.07 1.13,1.46 1.2,2.32 2.42,3.57 1.81,1.84 1.08,1.35 2.47,3.56 0.74,1.18 1.6,1.96 2.59,3.45 1.51,2.28 3.89,4.33 5.16,6.87 1.13,2.26 1.03,2.14 2.29,3.74 2.74,3.48 2.56,3.46 4.46,7.08 0.8,1.54 2.76,3.4 4.78,7.3 1.07,2.06 1.74,1.81 2.87,3.14l8.84 14.75c0.86,1.36 1.74,2.51 2.44,3.6 3.88,6.11 6.68,13.34 10.7,19.38 1.59,2.38 2.85,4.44 3.98,7.59 1.56,4.39 8.46,17.42 9.38,20.26 0.8,2.51 1.37,2.27 2.05,3.96 2.2,5.49 -0.37,4.66 6.7,4.66 4.45,-0.02 33.42,1.42 35.15,-0.81 0.7,-1.76 -0.17,-3.62 -1.08,-4.93 -1.51,-2.19 -3.06,-6.37 -4.19,-8.85l-3.83 -9.74c-0.71,-2.07 -1.49,-2.09 -2.29,-4.23 -0.88,-2.35 -0.77,-2.61 -1.91,-4.63 -0.93,-1.67 -1.08,-3.08 -1.84,-4.69l-9.09 -17.53c-0.86,-1.3 -0.67,-0.39 -1.39,-2.12 -1.74,-4.15 -2.55,-4.17 -3.34,-6.18l-17.66 -29.06c-0.94,-1.96 -1.29,-2.65 -2.34,-4.19l-5.17 -7.87c-1.77,-2.17 -3.56,-5.8 -5.36,-8.2l-10.9 -15.19c-1.77,-2.91 -8.32,-9.35 -9.06,-11.01 -2.69,-6 -5,-5.92 -8.6,-10.98 -4.72,-6.65 -3.8,-3.19 -6.34,-7.22 -3,-4.75 -8.59,-9.91 -12.51,-14.12l-6.47 -6.57c-2.55,-2.57 -7.98,-7.45 -9.74,-9.84 -1.81,-2.46 -1.68,-0.83 -3.37,-3.17l-3.33 -3.7c-2.08,-2.25 -5,-3.75 -7.24,-5.8 -5.55,-5.06 -12.59,-12.61 -19.08,-17.59 -0.95,-0.72 -1.48,-0.82 -2.16,-1.33 -1.76,-1.31 -0.95,-1.56 -3.41,-3.13 -4.25,-2.73 -6.98,-5.65 -11.15,-8.43 -1.57,-1.05 -1.88,-1.91 -3.48,-3.05l-11.56 -8.51c-2.36,-1.33 -2.17,-0.97 -4.05,-2.5 -2.55,-2.08 -5.07,-3.36 -7.58,-5.46 -2.22,-1.88 -6.1,-3.41 -8.39,-5.17 -1.26,-0.97 -2.18,-1.49 -3.97,-2.56 -4.1,-2.46 -7.88,-5.41 -12.42,-7.65 -2.24,-1.11 -2.32,-1.72 -3.8,-2.74 -1.29,-0.88 -2.9,-1.35 -4.32,-2.19l-48.4 -24.41c-2.98,-0.95 -1.95,-0.42 -4.35,-2.19l-19.08 -7.54c-1.62,-0.58 -3,-1.46 -4.63,-1.92 -3.07,-0.86 -2.33,0.19 -4.68,-1.82 -1.86,-1.59 -5.35,-1.57 -9.71,-3.34 -1.98,-0.79 -3.89,-0.66 -5.59,-1.43 -2.08,-0.94 -1.42,-1.81 -4.07,-2.49l-15.9 -4.18c-1.79,-0.55 -2.73,-1.26 -4.83,-1.71 -1.96,-0.42 -4.1,-0.18 -5.78,-0.67 -2.97,-0.85 -0.31,-1.36 -4.6,-1.87 -4.85,-0.58 -6.64,-1.27 -10.89,-2.81 -3.35,-1.22 -6.92,-0.87 -10.82,-2.22 -3.77,-1.31 -7.44,-1 -11.3,-1.77 -4.31,-0.86 -3.59,-2.82 -10.18,-2.72 -5.03,0.07 -7.43,-0.96 -11.91,-1.75l-35.8 -4.01c-8.27,0.02 -16.61,-0.88 -25.1,-1.26 -8.15,-0.36 -16.95,-1.04 -25.12,-1.04 -5.38,0 -10.26,1.32 -16.05,1.28l-31.62 1.68c-5.16,0.54 -8.93,1.94 -14.57,2.16 -2.46,0.1 -5.31,0.24 -7.88,0.56 -2.44,0.31 -4.21,1.2 -6.79,1.67 -3.83,0.69 -11.67,0.88 -14.81,1.76 -2.51,0.7 -3.1,1.67 -6.36,2.09 -2.5,0.32 -4.93,0.29 -7.25,0.85 -2.57,0.63 -3.48,1.41 -6.7,1.78 -2.58,0.29 -4.82,0.22 -6.9,1.18 -5.17,2.37 -8.73,1.6 -13.16,3.89 -3.31,1.72 -3.84,0.63 -7.29,1.27 -2.61,0.5 -3.02,1.6 -5.79,2.23 -2.95,0.68 -3.94,0.92 -6.55,2 -2.62,1.07 -4.18,0.72 -6.65,1.4 -2.93,0.79 -1.26,1.94 -5.7,2.84l-12.9 3.63c-2.21,0.89 -5.52,3.39 -12.12,4.96 -3.11,0.74 -3.08,1.66 -5.61,2.43l-5.94 2.59c-2.25,1.2 -3.9,0.58 -6.09,1.95 -3.02,1.88 -3.14,1.18 -5.99,2.54 -2.12,1 -2.94,1.54 -5.47,2.56 -4.1,1.68 -7.48,4.25 -11.17,5.9 -2.17,0.97 -3.14,1.63 -5.86,2.69 -5.78,2.27 -18.49,10.19 -21.69,11.47 -2.2,0.87 -19.1,11.89 -21.13,12.57l-14.89 9.64c-1.11,0.82 -1.51,1.06 -2.76,1.76 -2.93,1.62 -7.74,6.39 -12.05,8.54l-21.2 16.46c-0.99,0.8 -1.59,0.83 -2.51,1.49 -1.29,0.92 -2.57,3.11 -4.12,4.42 -1,0.84 -1.31,0.76 -2.4,1.62 -1.37,1.06 -0.71,0.99 -2.02,2l-42.9 40.45c-1.13,1.51 -7.81,7.51 -12.02,13.09 -1.11,1.49 -2.7,2.66 -3.92,4.1 -2.16,2.58 -3.37,4.8 -5.59,6.99 -1.29,1.28 -0.8,0.5 -1.89,2.09 -1.22,1.79 -2.44,2.73 -3.99,4.56l-3.85 4.7c-1.29,1.9 -2.33,3.56 -3.49,5.03 -1.67,2.13 -2.23,1.15 -3.9,4.14 -1.02,1.84 -1.8,4.1 -3.16,5.36 -2.31,2.13 -5.51,6.53 -7.25,9.34 -0.69,1.11 -0.62,1.57 -1.37,2.62 -1.7,2.35 -3.83,4.47 -5.19,7.39 -1.21,2.58 -3.86,4.14 -5.35,7.69 -1.15,2.76 -2.85,5.05 -4.46,7.58 -0.79,1.24 -1.08,1.08 -1.85,2.67l-4.27 7.79c-4.41,5.7 -11.38,20.16 -12.32,21.32l-8.94 16.17c-1.11,2.43 -0.6,3.75 -2.15,5.86 -2.13,2.89 -1.18,3.14 -2.52,6.03 -0.58,1.25 -0.9,1.39 -1.48,2.53l-6.42 14.67c-0.95,4.78 -1.77,2.89 -2.67,5.88 -0.87,2.9 -0.45,3.42 -1.88,6.15 -1.65,3.14 -3.81,8.59 -4.67,11.89 -0.82,3.21 -1.66,2.84 -2.31,6.24 -0.71,3.72 -1.29,3.19 -2.38,5.65 -0.91,2.09 -0.82,4.84 -1.45,7.08l-4.19 12.88c-0.82,1.88 -1.11,4.45 -1.67,6.34 -0.8,2.74 -1.41,3.63 -1.67,6.88 -0.12,1.36 -0.1,2.45 -0.39,3.6 -0.56,2.18 -0.68,1.48 -1.52,2.53 -2.63,3.31 -1.54,9.39 -2.95,13.6 -1.04,3.09 -1.3,3.15 -1.75,6.82 -0.31,2.54 -0.69,4.79 -1.55,6.96 -1.84,4.67 -0.99,9.48 -2.14,14.43l-4.75 28.36c-0.46,5.35 -0.22,10.5 -0.72,15.94 -0.92,9.86 -2.24,20.32 -2.24,30.76 0.01,16.37 -0.31,33.03 0.84,49.22 0.37,5.11 1.57,9.83 1.71,15.04 0.14,5.02 0.41,10.4 1.17,15.29 0.43,2.69 1.13,4.31 1.48,7.08 0.3,2.43 0.3,5.41 0.53,8.05l5.17 27.91c0.67,2.69 0.55,4.74 1.11,7.33 0.54,2.44 1.58,3.52 2,6.15 0.38,2.39 0.1,5.58 0.83,7.65 1.03,2.91 2.24,1.59 2.87,5.7 0.76,4.94 1.96,8.45 2.87,13.62 0.49,2.7 1.66,3.89 2.29,6.29l4.73 15.85c2.24,4.43 3.42,11.34 5.55,15.55 1.44,2.85 1.37,3.12 2.32,6.23 0.82,2.69 1.5,2.18 2.29,5.69 1.07,4.67 3.14,7.5 5.04,11.57 2.65,5.67 3.96,10.98 7.29,17.82 2.48,5.1 9.36,17.49 11.16,22.46 1.46,4.03 1.6,2.41 3.14,4.9 1.12,1.8 1.87,3.7 2.86,5.68 1.4,2.78 1.97,1.93 3.07,4.95 0.94,2.58 0.3,1.13 1.7,2.83l3.16 5.38c0.68,0.95 0.86,1.77 1.38,2.63 1.09,1.81 0.81,0.62 1.98,2.55l28.28 42.5c1.25,2.1 2.25,2.29 3.82,4.22 1.1,1.36 2.38,3.46 3.48,5.04l7.07 9.49c0.69,1.02 3,3.33 3.83,4.22l11.8 13.28c0.91,0.9 1.16,1.06 2.03,2 2.42,2.59 5.09,6.4 8.19,8.38 3.11,1.99 6.71,8 9.84,10.74 1.1,0.97 3.42,2.91 4.37,4.16 1.04,1.36 0.26,1.2 1.97,2.56l19.63 17.54c1.57,1.34 3.45,2.66 4.63,3.89l13.53 11.57c1.37,1.06 3.47,2.45 4.85,3.71 3.05,2.84 6.21,4.84 9.48,7.07l7.2 5.36c0.85,0.62 1.37,1.26 2.1,1.91l15.16 9.95c1.75,1.61 3,2.11 5.07,3.46 2.29,1.48 2.08,2.15 4.9,3.12 2.69,0.92 2.97,1.85 5.26,3.3 2.35,1.5 1.9,1.8 4.94,3.07 2.36,0.98 3.2,1.85 5.51,3.03 1.55,0.79 1.17,0.75 2.46,1.56 0.86,0.54 1.63,0.71 2.72,1.31 1.44,0.76 1.47,1.28 2.47,2.03 1.16,0.87 1.38,0.63 2.8,1.22 3.89,1.64 9.83,5.9 13.26,7.31 1.05,0.44 2.07,0.48 3.04,1 1.92,1.05 0.53,0.91 2.32,2.19 0.16,0.11 19.25,8.11 22.91,10.21 4.41,2.53 11.76,4.34 14.84,6.26 2.4,1.5 2.82,1.28 5.7,2.33l6.25 2.27c2.77,0.75 2.25,1.51 5.59,2.42 2.57,0.7 4.02,0.99 6.35,2.2 2.88,1.5 26.65,9.21 31.42,10.3 4.02,0.9 9.99,2.12 13.15,3.38 5.24,2.09 8.29,1.72 13.51,3.06 3.01,0.77 3.32,1.26 6.94,1.58 2.51,0.23 5.24,0.18 7.18,1.38 5.02,3.11 7.63,1.8 13.86,2.73 4.98,0.75 8.75,2.2 14.11,2.43 4.09,0.18 3.93,-0.22 7.55,0.98 8.16,2.73 20.53,1.44 29.06,3.03 7.32,1.37 15.4,1.4 23.13,1.39 16.75,0 34.12,0.91 50.71,-0.42l35.87 -2.82c3.61,-0.71 6.3,-1.54 10.7,-1.92 7.59,-0.66 14.18,-2.52 21.73,-3.06 6.48,-0.46 5.73,-2.58 9.9,-3.34 3.7,-0.67 7.28,-0.23 11.04,-1.5 3.41,-1.14 7.6,-0.89 10.41,-2.12 2,-0.86 2.13,-1.38 4.69,-1.91l10.04 -2.52c7.33,-1.75 6.8,-2.26 9.92,-3.06 5.69,-1.44 1.8,-0.03 7.44,-2.16 1.72,-0.66 13.79,-3.71 16.31,-5.24 3.35,-2.03 10.19,-3.73 14.46,-5.12 1.92,-0.63 2.41,-1.29 4.12,-1.92 1.82,-0.68 3.17,-0.6 4.9,-1.61 1.78,-1.03 1.46,-1.3 4.01,-2.03 4.87,-1.38 8.81,-4.07 13.4,-5.67 2.79,-0.96 2.03,-1.5 4.11,-2.42 2.28,-1.02 2.34,-0.34 4.53,-2 2.08,-1.57 1.62,-0.92 4.39,-1.65 6.9,-1.79 10.54,-6.41 16.43,-8.65 2.77,-1.05 2.16,-1.64 3.93,-2.6 2.64,-1.44 6.45,-2.49 9.06,-4 1.54,-0.87 1.23,-1.39 3.47,-2.53l7.75 -4.81c1.08,-0.62 1.23,-0.45 2.3,-1.21 0.87,-0.63 0.52,-0.68 1.72,-1.29 1.45,-0.75 2.9,-0.84 4.29,-1.74l22.97 -15.2c2.42,-1.63 4.97,-3.86 7.07,-5.48 1.56,-1.2 2.59,-1.43 4.04,-2.48 1.99,-1.45 0.69,-1.79 3.48,-3.06 3.48,-1.59 4.45,-3.5 7.24,-5.31 1.56,-1.01 2.48,-1.34 3.97,-2.54 1.64,-1.33 1.47,-1.89 3.34,-3.2 0.72,-0.5 1.31,-0.69 2.09,-1.41l4.93 -4.13c2.73,-1.75 4.31,-3.93 7.12,-5.93 2.43,-1.74 3.78,-4.45 6.52,-6.03 3.01,-1.75 3.92,-3.65 6.78,-5.76 1.59,-1.16 1.96,-1.55 3.62,-2.91 1.64,-1.35 1.32,-1.59 3.05,-2.99 1.21,-0.98 2.11,-2.11 3.04,-3.47 1.68,-2.49 0.22,-1.58 3.11,-3.42l12.9 -12.21c1.04,-1.25 0.7,-0.76 1.69,-1.83l9.33 -9.76c0.68,-0.63 0.56,-0.74 1.45,-1.55 1.36,-1.23 0.59,0.04 1.79,-1.72l3.92 -5.14c2.97,-3.07 9.08,-10.16 11.32,-13.78 1.63,-2.62 3.87,-3.31 5,-5.03 0.45,-0.68 0.53,-1.32 0.91,-2.09 1.03,-2.08 3.73,-5.04 5.37,-7.18 1.29,-1.67 1.73,-1.81 2.83,-3.72l5.07 -7.46c1.32,-1.85 2.06,-1.96 2.89,-3.14 1.22,-1.74 1.08,-2.28 2.53,-4.01 1.44,-1.72 1.34,-2.49 2.42,-4.08l16.97 -27.23c1.48,-2.09 1.46,-0.68 2.57,-3.95 1.23,-3.61 1.19,-1.43 2.59,-3.92 0.6,-1.05 0.26,-0.95 0.99,-2.04 0.47,-0.69 1.02,-1.1 1.4,-1.62l12.82 -25.32c0.91,-2.85 1.24,-2.13 2.33,-4.2l3.93 -8.64c0.23,-0.69 0.51,-1.69 0.76,-2.22 0.65,-1.28 0.49,-0.48 1.18,-1.81 1.06,-2.06 0.25,-3.14 1.68,-4.87 1.31,-1.58 2.25,-1.09 2.25,-4.03 0,-4.38 -5.94,-2.31 -9.8,-2.32l-30.82 -0.9c-0.89,2.87 -2.44,5.1 -3.55,7.99l-7.79 14.82c-1.37,2.16 -2.59,4.93 -3.76,7.29 -2.67,5.41 -5.54,9.1 -8.15,14.43 -1.4,2.86 -2.36,4.29 -3.77,7.28 -0.93,1.99 -1.36,1.55 -2.37,3.15 -0.77,1.24 -1.02,2.46 -1.9,3.63 -1.53,2.04 -4.16,4.65 -4.97,6.58l-4.25 6.79c-0.86,1.21 -1.87,2.2 -2.68,3.34 -1.06,1.49 -1.04,2.22 -2.01,3.5l-29.28 38.03c-1.4,1.46 -3.29,4.43 -5.18,5.86 -1.95,1.47 -1.87,0.55 -3.32,2.7 -3.91,5.78 -0.18,1.83 -4.97,6.07 -2.93,2.59 -15.18,17.87 -22.19,22.49 -2.31,1.53 -3.79,3.83 -6.01,5.57 -1.9,1.49 -1.01,1.32 -2.72,2.79 -2.23,1.93 -5.54,4.2 -7.62,6.44 -1.81,1.96 -2.56,1.68 -4.66,3.4 -2.44,2.01 -2.29,3.11 -5.63,5.41l-6.34 5.21c-3.8,2.61 -5.98,4.88 -9.23,7.33 -1.06,0.79 -2.43,1.29 -3.44,2.08 -2.43,1.89 -2.67,3.48 -6.06,4.99l-10.45 6.6c-5.18,4.08 -12.12,8.39 -13.28,9.31l-10.41 6.64c-3.63,1.79 -6.74,4.31 -10.28,6.31 -3.45,1.95 -7.43,3.38 -10.93,5.64l-7.46 4.1c-1.76,0.79 -1.73,1.43 -3.46,2.04 -2.26,0.78 -1.96,0.12 -4.08,1.47 -1.92,1.23 -1.73,0.91 -4.25,1.79 -1.23,0.43 -8.44,4.95 -10.89,5.65 -1.12,0.32 -11.01,4.99 -15.97,6.62 -1.72,0.57 -2.38,1.19 -3.71,1.81 -1.61,0.73 -2.75,0.69 -4.32,1.22 -2.56,0.86 -1.12,1.11 -3.51,1.99 -1.75,0.64 -2.59,0.44 -4.22,1.32 -4.96,2.68 -11.35,3.46 -16.67,5.93 -2.83,1.32 -7.49,1.6 -9.02,2.51 -4.55,2.72 -0.03,1.93 -8.2,2.99 -2.81,0.37 -6.35,1.78 -9.14,2.27 -3.74,0.67 -5.03,1.95 -8.36,2.65 -6.89,1.46 -5.92,1.89 -8.53,2.52 -2.66,0.65 -7.13,0.79 -9.86,1.21 -3.58,0.56 -5.38,1.83 -9.38,2.29 -3.58,0.43 -6.21,0.43 -9.14,1.79 -3.1,1.43 -14.83,2.05 -19.26,2.81 -6.44,1.12 -13.56,2.08 -20.38,2.06 -6.79,-0.04 -16.28,2.28 -21.6,2.1 -9.51,-0.33 -19.07,0.22 -28.61,0.46 -4.42,0.11 -10.1,-0.52 -15.07,-0.51 -12.43,0 -20.01,-2.17 -28.1,-2.32 -5.03,-0.09 -9.75,0.09 -14.46,-0.73 -4.58,-0.8 -7.96,-2.28 -13.16,-2.58 -5.17,-0.3 -8.15,-1.74 -12.6,-2.2 -4.69,-0.49 -8.94,-0.37 -13.11,-2 -4.79,-1.87 -8.7,-1.09 -12.6,-2.46 -2.39,-0.83 -3.07,-1.53 -6,-2.07 -2.5,-0.46 -3.67,-0.44 -6.03,-1.47 -4.39,-1.94 -7.62,-1.09 -11.94,-3.16 -2.73,-1.3 -3.51,-0.79 -6.14,-1.23 -3.44,-0.59 -1.71,-1.66 -5.03,-2.64 -2,-0.59 -4.07,-0.62 -6.12,-1.43 -2.03,-0.8 -3.37,-1.24 -5.5,-2.03 -2.11,-0.76 -3.32,-1.52 -5.8,-2.24 -2.11,-0.62 -4,-0.69 -5.83,-1.67 -5.27,-2.77 -17.87,-5.68 -21.74,-8.42l-10.35 -4.7c-2.58,-0.94 -3.55,-1.62 -5.5,-2.53l-4.83 -2.74c-2.92,-1.56 -2.02,0.45 -5.15,-2.37 -1.89,-1.69 -3.26,-1.12 -5.27,-2.23 -3.33,-1.83 -5.97,-3.94 -10.05,-5.02 -3.25,-0.85 -6.49,-4.66 -9.2,-5.86 -4.23,-1.88 -7.43,-2.97 -9.98,-5.59 -2.58,-2.65 -1.84,-1.19 -4.91,-2.6 -1.7,-0.78 -3.09,-2.18 -4.54,-3.02 -2.78,-1.59 -2.29,-0.65 -4.72,-2.8l-6.82 -4.74c-0.91,-0.65 -0.69,-0.69 -2.03,-1.44l-4.59 -2.99c-1.4,-0.82 -1.31,-0.32 -2.6,-1.42 -1.99,-1.7 -4.07,-3.5 -6.68,-4.86 -2.81,-1.47 -17.54,-13.2 -21.13,-16.54 -1.18,-1.1 -3.04,-2.18 -4.41,-3.11 -2.47,-1.68 -1.92,-2.39 -4.1,-3.95 -1.26,-0.89 -1.27,-0.72 -2.35,-1.65l-31.35 -29.4c-0.97,-1.13 -0.69,-0.57 -1.91,-1.62l-9.35 -9.72c-0.57,-0.62 -0.79,-1.06 -1.58,-1.94l-31.08 -37.2c-0.58,-0.8 -0.9,-1.56 -1.57,-2.46l-13.98 -20.14c-2.21,-2.82 -1.11,-0.58 -2.93,-4.6 -0.86,-1.92 -1.87,-2.42 -3.21,-4.33 -1.18,-1.67 -1.41,-3.16 -2.64,-4.89 -1.05,-1.48 -0.89,-0.69 -1.97,-2.07 -0.41,-0.54 -0.89,-1.45 -1.36,-2.16l-4.3 -7.23c-0.5,-0.9 -0.68,-1.84 -1.15,-2.87 -1.23,-2.71 -8.6,-13.22 -10.68,-19.45 -1.29,-3.86 -2.11,-4.22 -3.71,-7.83 -1.04,-2.34 -0.13,-0.44 -1.56,-1.95 -2.04,-2.13 -3.34,-7.8 -4.86,-10.7 -1.31,-2.47 -1.32,-2.2 -2.22,-5.3l-7.14 -15.46c-1.38,-2.32 -1,-3.12 -1.85,-5.68 -0.67,-2.04 -1.69,-3.02 -2.31,-5.21l-2.15 -5.38c-0.89,-2.02 -0.6,-3.94 -1.86,-6.18 -2.96,-5.21 -1.84,-5.09 -4.4,-10.66 -0.88,-1.91 -0.87,-4.43 -1.27,-6.24 -0.58,-2.7 -1.36,-3.38 -2.07,-5.49 -0.7,-2.12 -0.54,-3.8 -1.45,-6.08 -0.89,-2.23 -1.37,-3.13 -1.73,-5.81 -0.49,-3.52 -0.05,-3.03 -1.7,-5.84 -1.17,-2 -1.62,-8.8 -3.04,-12.51 -1.59,-4.14 -0.99,-8.06 -2.56,-12.53 -1.76,-5.03 -1.39,-7.56 -2.1,-12.84 -0.66,-4.85 -1.43,-3.56 -2.3,-12.89 -0.57,-6.08 -1.03,-7.56 -2.38,-13.14 -1.02,-4.25 -0.4,-9.9 -0.8,-14.23 -0.81,-8.72 -2.63,-18.81 -2.63,-27.48l0 -40.16z"/>
     <path class="fil0" d="M2612.55 568.54c0,-4.5 1.65,-7.89 2.45,-11.96 1.56,-7.92 -0.9,-2.51 2.51,-11.55 1.53,-4.05 0.38,-8.42 1.85,-12.7 1.74,-5.09 1.19,-6.84 2.22,-11.83 1.01,-4.91 1.75,-0.77 2.68,-11.84 1.04,-12.32 1.43,-2.06 2.31,-11.85 0.81,-8.95 1.22,-6.29 2.82,-11.2 1.62,-4.95 -0.52,-8.8 2.71,-11.64 1.71,3.89 1.44,7.35 2.95,11.68 1.34,3.83 1.18,8.03 2.07,12.01 0.43,1.93 1.29,3.43 1.76,5.29 0.47,1.87 0.36,4.65 0.54,6.43 0.51,5.01 1.86,7.53 2.42,11.69 0.82,6.02 -0.05,6.97 2.2,11.85 1.48,3.2 0.84,8.36 1.81,12.22 0.56,2.24 1.53,3.01 1.9,5.1 0.37,2.09 0.03,4.47 0.31,6.73 0.84,6.88 3.81,7.59 2.26,16.83 -6.14,2.02 -16.12,1.38 -23.33,1.04 -6.35,-0.3 -8.72,1.4 -14.08,-1.17l-0.36 -5.13zm56.2 94.28c3.88,1.72 23.37,0.89 29.53,0.87 4.8,-0.01 10.49,0.44 15.07,0.12 3.4,-0.23 12.23,1.12 13.58,-1.32 1.33,-2.39 -0.86,-10.08 -1.76,-12.39 -1.54,-3.97 -0.83,-9.25 -2.76,-12.29 -2.55,-4.01 -1.27,-7.66 -2.97,-12.12 -1.25,-3.3 -5.27,-22.52 -6.02,-24.08 -1.16,-2.42 -4.5,-20.08 -5.97,-24.19 -1.71,-4.82 -0.19,-7.32 -2.96,-12.11 -1.6,-2.75 -3.63,-19.7 -5.75,-24.35 -1.36,-2.99 -3.96,-20.03 -5.94,-24.21 -1.45,-3.07 -1.53,-8.4 -3.13,-12.43 -1.74,-4.39 0.23,-3.64 -2.91,-12.12 -1.4,-3.78 -1.22,-8.84 -2.68,-12.41 -2.09,-5.12 0.09,-4.66 -3.11,-11.96 -0.83,-1.92 -1.04,-3.8 -1.46,-6.03 -0.2,-1.1 -0.34,-2.39 -0.55,-3.46 -0.5,-2.45 -0.31,-1.08 -0.98,-2.58 -0.99,-2.19 -0.55,-3.87 -1.04,-6.47 -0.47,-2.43 -1.17,-3.59 -1.76,-5.78l-5.57 -24.52c-2.26,-4.04 -5.75,-2.37 -11.53,-2.38l-45.19 0c-14.5,0 -15.72,-3.81 -18.25,10.73 -0.92,5.31 -5.16,21.23 -5.46,24.63 -0.37,4.2 -1.15,3.4 -1.86,6.17 -0.46,1.82 -0.69,4.58 -0.99,6.52 -1.02,6.71 -1.8,2.42 -3.17,11.96 -0.35,2.41 -1.26,3.36 -1.72,5.8 -0.38,1.98 -0.6,4.27 -0.97,6.6 -0.93,5.69 -1.77,1.63 -3.02,11.85 -0.22,1.78 -1.94,6.07 -2.96,12.22 -0.51,3.12 -0.97,3.16 -1.93,5.59 -0.95,2.45 -0.64,3.89 -1.13,6.45 -0.39,2.02 -1.27,3.8 -1.76,5.74 -0.54,2.14 -0.74,4.16 -1.12,6.42 -0.48,2.84 -1.24,3.26 -1.95,5.55 -0.69,2.19 -0.55,4.4 -0.93,6.6 -0.4,2.19 -1.24,3.65 -1.75,5.78 -0.51,2.15 -0.56,4.5 -1.1,6.42 -0.72,2.5 -1.74,2.79 -2.34,5.17 -0.53,2.1 -0.53,4.47 -0.89,6.65 -0.39,2.31 -0.99,3.69 -1.61,5.95 -0.54,1.96 -0.84,4.35 -1.26,6.25 -1.46,6.68 -1.04,-0.61 -2.62,12.43 -0.35,2.88 -1.29,3.24 -2.04,5.47 -0.73,2.19 -0.65,4.17 -1.05,6.5 -0.48,2.72 -1.45,3.28 -2.08,5.41 -0.54,1.83 -0.74,4.49 -1.09,6.47 -0.48,2.64 -1.32,3.48 -1.74,5.83 -0.39,2.19 -0.38,4.31 -0.9,6.65 -0.69,3.06 -1.63,2.73 -2.29,5.23 -0.55,2.04 -0.5,4.65 -0.85,6.66 -0.41,2.32 -1.31,4.04 -1.93,6.07 -0.55,1.84 -0.81,4.27 -1.24,6.27 -0.65,3.02 -0.88,4.45 1.89,4.92l37.47 0.08c16.97,0 15.94,1.43 16.99,-4.29 0.62,-3.33 1.75,-2.09 2.42,-5.15 0.43,-1.91 0.38,-4.92 0.57,-6.93 0.41,-4.15 0.87,-2.96 1.82,-5.76 1.3,-3.86 0.61,-8.01 2.45,-12.61 2.91,-7.26 -0.79,-9.4 4.95,-10.1 4.2,-0.52 39.61,-0.28 45.12,-0.25 9.14,0.07 5.81,1.5 7.68,7.47 2.8,8.92 1.2,2.48 2.92,12.17 0.56,3.1 1.31,3.54 1.82,5.73 0.57,2.44 0.36,4.38 0.65,6.87 0.26,2.25 1.26,3.8 1.84,5.72 0.64,2.1 0.62,4.54 1.25,6.25z"/>
     <path class="fil0" d="M2396.22 553.98c1.7,15.46 4.57,33.39 11.74,45.27 2.39,3.96 10.66,13 14.52,14.07 4.06,1.14 7.36,2.47 11.69,2.51 3.27,0.03 8.8,-1.37 11.73,-2.45 1.89,-0.69 1.13,-0.91 4.44,-3.08 2.43,-1.58 8.3,-9.02 9.8,-11.29 4.81,-7.26 1.99,-4.17 3.61,-7.43 0.68,-1.36 0.73,-0.75 1.44,-2.11 0.43,-0.83 2.73,-9.81 2.88,-11.09 0.28,-2.38 0.24,-4.51 0.79,-6.76 0.65,-2.61 1.43,-2.62 2.21,-4.86 1.46,-4.16 0.9,-35.56 0.92,-41.39 0.01,-4.03 -0.02,-10.23 -1.23,-13.51 -3.83,-10.38 -1.76,-16.47 -6.22,-22.37 -1.52,-2.01 -1.1,-2.59 -1.94,-5.08 -0.73,-2.19 -1.6,-2.13 -2.59,-4.47 -2.2,-5.18 -3.37,-5.55 -6.04,-8.53 -3.78,-4.24 -12.91,-8.25 -20.32,-7.81 -1.99,0.11 -4.24,0.6 -6.2,0.8 -3.84,0.42 -2.88,-0.14 -5.33,1.74 -2.11,1.61 -4.6,2.61 -8.27,6.28 -1.69,1.7 -5.31,5.67 -6.22,7.87 -0.62,1.51 -0.36,1.26 -1.3,2.69 -0.55,0.82 -0.83,1.07 -1.27,2.26 -0.8,2.21 -0.5,3 -1.86,5.15 -1.74,2.75 -2.11,7.59 -3.23,10.83 -1.44,4.21 -1.01,8.39 -2.01,12.53 -0.45,1.86 -1.15,3.6 -1.38,5.6 -0.9,8.11 -1.22,26.9 -0.38,34.62z"/>
    </g>
    <path class="fil0" d="M401.63 918.08c0.43,3.16 3.53,3.91 7.03,4.96 7.67,2.3 10.09,6.78 8.67,-8.66 -0.39,-4.32 0.67,-7.38 -1.76,-10.07 -1.58,0.77 -8.9,8.22 -10.54,10.33 -2.57,3.3 -1.86,1.44 -3.4,3.44zm-108.55 -687.59c3.2,0.38 3.33,0.62 7.55,-2.99 2.48,-2.12 3.53,-3.44 6.39,-4.88 -0.05,-5.15 -6.12,-5.76 -11.1,-8.98 -9.3,-6.01 -7.14,-0.64 -5.37,5.9 0.91,3.38 1.96,7.66 2.53,10.95zm115.28 -65.17c-1.03,-1.44 -2.15,-2.36 -3.35,-3.54l-3.21 -3.75c-0.89,-1.01 -6.37,-6.13 -7.77,-6.72 -1.78,2.75 -1.42,5.9 -1.42,9.97 -0.01,2.74 -1.46,8.91 0.33,10.64 1.93,1.88 5.92,-1.31 8.29,-2.04 4.15,-1.28 5.08,-1.21 7.13,-4.56zm-105.83 705.57l4.96 3.99c11.41,8.23 10.2,3.49 11.5,-6.46 0.55,-4.15 1.45,-4.9 1.45,-9.57 -2.43,0.23 -3.98,1.01 -5.48,2.06 -1.54,1.07 -2.83,1.9 -4.5,2.97 -5.55,3.55 -6.82,3.55 -7.93,7.02zm320.39 51.7c2.48,0.31 12.34,-2.58 14.77,-3.64 6.06,-2.67 8.87,-4.1 8.87,-11.23 0,-4.53 -2.78,-10.16 -7.52,-11.05 -6.18,-1.17 -9.73,1.42 -15.13,2.52 -9.71,1.99 -7.02,4.07 -5.6,9.25 1.31,4.82 2.11,10.44 4.61,14.15zm-5 -780.59c1.59,0.5 1.73,0.97 3.91,1.5 9.22,2.25 16.52,5.41 22.92,-0.79 1.9,-1.85 5.02,-10.34 0.08,-15.24 -4.3,-4.27 -15.48,-5.62 -21.43,-7.05 -2.53,4.97 -5.55,15.86 -5.49,21.58zm-152.57 3.22c4.55,1.55 10.51,-0.81 14.87,-1.84 3.91,-0.92 3.33,-0.53 5.87,-3.09 3.89,-3.92 3.53,-10.46 1.96,-15.24 -3.13,-9.5 -15.74,-6.04 -21.96,-5.38 -4.67,0.5 -5.19,1.68 -4.55,6.37l3.81 19.17zm82.66 773.95c1.82,13.17 -1.83,18.17 8.77,16.78 7.97,-1.04 16.34,-0.67 17.8,-8.97 1,-5.73 -0.4,-13.53 -4.65,-15.45 -5.11,-2.3 -12.21,-1.86 -17.57,-1.27 -5.22,0.58 -5.14,3.19 -4.35,8.91zm-6.69 -788.77c0,4.18 -0.38,5.1 1.39,8.56 6.1,0.14 17.02,1.51 21.78,-2.88 2.46,-2.26 3.61,-7.87 3.61,-12.15 0,-4.5 -3.51,-7.49 -6.58,-9.2 -3.12,-1.75 -11.44,-1.91 -15.66,-1.91 -5,0 -4.26,2.75 -4.23,7.13 0.02,3.61 -0.32,7.3 -0.32,10.45zm-38.12 789.26c0,-2.13 -0.86,-3.98 -1.82,-5.26 -1.38,-1.87 -1.42,-2.3 -3.72,-3.25 -3.84,-1.57 -12.5,-4 -16.88,-3.35 -4.37,0.66 -3.74,7.3 -4.49,15.33 -0.45,4.82 -1.99,9.48 2.33,10.52 2.39,0.58 9.39,1.28 12,1.25 9.11,-0.13 12.57,-6.34 12.57,-15.25zm388.64 -164.07c1.14,-0.91 1.67,-2.49 3.22,-4.78 3.79,-5.6 6.74,-12.12 6.74,-19.26 0,-3.63 -2.56,-8.69 -4.13,-10.44l-11.11 -8.78c-1.13,-0.6 -2.43,-0.84 -3.79,-1.19 -5.74,-1.44 -10.22,-2.11 -15.83,1.1 -5.25,3.03 -7.14,5.9 -9.82,10.08 -0.89,1.38 -1.15,1.2 -1.95,2.57 -5.13,8.8 -3.93,7.68 1.95,11.36 1.25,0.77 1.38,1.16 2.99,2.02l25.1 14.72c2.13,1.14 4.39,3.15 6.63,2.6zm-32.46 -423.65c0.34,3.73 3.85,9.23 5.99,11.92 7.77,9.82 15.68,14.65 28.23,8.37 2.96,-1.48 3.97,-1.31 7.52,-4.42 4.37,-3.83 8.29,-9.24 7.86,-15.72 -0.2,-2.93 -0.69,-7.41 -2.01,-9.95 -0.85,-1.67 -1.17,-2.27 -1.93,-4.03l-4.5 -7.48c-1.06,-1.02 -2.43,-1.68 -3.93,-1.21 -1.53,0.49 -2.75,1.49 -3.76,2.23 -1.29,0.94 -2.5,1.46 -3.74,2.24 -1.17,0.73 -2.54,1.32 -3.87,2.09 -1.4,0.82 -1.45,1.48 -3.54,2.42 -4.08,1.83 -19.82,11.19 -22.31,13.51zm-648.9 -56.11l6.63 5.69c3.16,3.01 24.94,22.39 27.23,23.09 2.2,0.69 3.97,-2.12 6.53,-4.94 3.39,-3.76 8.76,-11.02 8.76,-16.5 0,-9.53 -0.88,-11.72 -7.79,-18.46 -3.51,-3.44 -8.91,-7.37 -15.02,-7.87 -4.87,-0.41 -5.41,0.29 -9.12,1.74 -1.71,0.67 -2.24,0.68 -3.7,1.79 -1.12,0.86 -2.32,1.6 -3.38,2.58 -1.88,1.74 -3.97,3.94 -5.72,5.73 -2.6,2.67 -3.44,2.9 -4.42,7.16zm12.61 549.77c0,2.05 2.87,4.09 4.26,5.03 1.7,1.15 3.36,3.06 4.97,4.49 8.29,7.33 20.84,7.38 28.78,-0.2 7.06,-6.73 13.78,-16.28 8.08,-26.72 -1.68,-3.09 -1.34,-3.25 -3.6,-5.85 -3.23,-3.69 -5.83,-6.73 -9.72,-9.75 -2.49,-1.94 -4.43,0.6 -5.71,2l-23.39 24.87c-1.82,1.94 -3.67,2.96 -3.67,6.13zm490.98 39.64c-15.33,0 -25.28,11.08 -23.35,26.48 1.29,10.26 6.98,16.36 15.05,20.81 8.02,4.42 19.35,2.14 26.12,-5.39 4.01,-4.46 6.33,-11.35 6,-17.81 -0.08,-1.67 -2.11,-7.51 -2.76,-9.14 -0.53,-1.33 -3.61,-5.78 -4.85,-7.1 -3.43,-3.67 -10.84,-7.84 -16.21,-7.84zm-25.6 -691.56c0,7.43 2.07,15.39 7.33,19.27 5.11,3.78 8.38,6.32 16.79,5.93 6.51,-0.3 11.64,-4.06 15.19,-7.49 9.61,-9.26 10.74,-26.37 0.93,-35.86 -2.18,-2.11 -3.16,-2.98 -6.27,-4.18 -4.34,-1.67 -5.01,-2.31 -9.87,-2.31 -8.19,0 -17.39,6.92 -21.27,14.83 -0.91,1.88 -2.83,7.45 -2.83,9.81zm-77.19 539.19c2.84,-1.09 8.44,-0.46 12.22,-0.46 4.6,0 9.15,1.01 11.19,-2.03 1.7,-2.54 4.96,-17.19 6.94,-19.92 4.22,3.03 3,2.08 4.81,8.67 0.59,2.14 1.31,3.26 1.92,5.06 0.53,1.57 0.79,4.06 1.49,5.47 2.89,5.88 17.75,0.8 24.04,3.24 0.1,0.33 0.14,0.15 0.02,0.95 -0.01,0.14 -0.11,0.56 -0.15,0.69 0,0.01 -0.64,1.37 -0.64,1.37 -0.68,0.99 -14.99,9.72 -15.96,12.07 -1.62,3.96 6.21,17.9 5.49,22.91 -4.47,-0.4 -5.2,-1.96 -10.42,-5.81 -11.82,-8.72 -9.01,-7.28 -14.96,-3.29 -2.13,1.43 -12.31,10 -13.76,9.19 -2.49,-1.39 0.4,-5.88 1.99,-12.01 0.7,-2.72 4.52,-8.81 2.22,-11.66 -0.58,-0.7 -8.14,-6.09 -9.22,-6.7 -3.15,-1.78 -7.47,-4.28 -7.2,-7.77zm-86.31 -0.46c2.68,0 4.1,-1.6 4.73,-4.05l3.81 -13.09c0.38,-1.47 0.65,-1.95 1.54,-2.93l2.36 -1.65c1.71,2.13 5.81,18.23 6.93,19.99 3.42,5.35 28.21,-3.02 22.83,5.25 -1.11,1.71 -3.88,2.18 -7.37,5.14 -11.78,10.01 -10.31,3.65 -5.72,20.14 1.28,4.64 3.46,5.38 1.88,10.26 -1.93,-0.41 -13.23,-8.88 -16.64,-11.39 -1.77,-1.3 -3.35,-2 -5.78,0.02l-11.49 8.42c-3.09,2.52 -1.08,1.46 -5.51,2.32 -0.7,-2.85 0.04,-2.29 0.96,-4.87 0.64,-1.76 0.89,-3.6 1.55,-5.42 2.65,-7.43 5.08,-11.48 0.81,-14.38 -1.33,-0.9 -1.08,-0.79 -2.2,-1.76l-9.55 -6.88c-2.87,-1.52 -1.97,-1.8 -3.41,-4.42 2.57,-1.5 16.74,-0.71 20.26,-0.71zm-126.08 0.53c2.91,-1.02 9.73,-0.53 13.13,-0.53 5.56,0 9.57,0.97 10.95,-2.31 2.57,-6.13 3.92,-14.45 6.98,-19.74 2.42,1.05 4.06,6.02 4.75,9.03 0.77,3.38 2.01,6.98 3.22,10.22 2.7,7.26 25.8,-1.55 23.87,4.96 -0.57,1.89 -1.65,2.22 -3.31,3.21l-9.81 7.1c-0.85,0.67 -1.44,1.15 -2.53,1.97 -0.87,0.66 -1.54,0.69 -1.54,2.2 0,4.89 6.6,16.62 5.67,21.41 -3.36,0.76 -3.22,-0.58 -5.31,-2.09l-4.69 -3.27c-1.13,-0.92 -8.41,-6.22 -9.53,-6.35 -1.72,-0.22 -5.71,3.49 -7.34,4.68 -1.84,1.34 -10.89,7.97 -11.5,7.75 -3.11,-2.61 0.9,-8.17 1.65,-11.57 0.59,-2.64 0.82,-3.96 1.92,-6.13 3.04,-6.05 -0.7,-7.32 -8.93,-12.88 -1.28,-0.87 -1.41,-1.2 -2.18,-1.79 -1.33,-0.99 -4.73,-1.54 -5.46,-5.88zm236.65 -90.88c0,-3.45 -0.22,-6.75 4.34,-7.03l130.93 0.35c0.75,0 10.03,-1.72 4.99,4.73l-6.77 11.16c-3.57,5.34 -3.41,8.05 -9.68,8.05l-119.92 0c-5.52,0 -3.88,-9.85 -3.88,-17.26zm-319.56 17.26c-5.29,0 -4.04,-5.32 -4.04,-10.29l-0.01 -70.67c-0.04,-8.77 0.36,-7.27 19.54,-7.27l50.69 0c3,0 6.33,0.34 9.38,0.24 11.6,-0.38 10.51,-0.99 10.51,12.51 0,5 1.01,11.22 -2.1,11.93 -0.14,0.03 -0.28,0.07 -0.44,0.1 -0.16,0.03 -0.29,0.05 -0.46,0.07l-5.41 0.31c-2.03,-0.06 -4.49,-0.28 -7.03,-0.28 -4.67,0.01 -9.41,0.33 -14.41,0.33 -9.63,0 -19.73,-0.32 -28.37,-0.32 -7.72,0 -8.06,0.07 -7.96,8.26l0 48.77c0,8.01 -1.34,6.3 -19.91,6.3zm245.07 -0.58c-0.44,-3.75 2.41,-6.43 4.15,-9.29 0.69,-1.16 0.88,-1.96 1.5,-2.97 1.22,-2.04 2.44,-3.98 3.66,-5.81l6.94 -11.45c2.33,-4.24 4.58,-7.19 6.78,-11.64l20.77 -34.48c1.6,-3.11 3.48,-5.16 5.09,-8.33 0.59,-1.14 0.82,-1.84 1.54,-2.94l27.73 -45.94c0.99,-1.31 0.87,-1.38 1.61,-2.86 0.63,-1.24 0.95,-1.5 1.77,-2.71l5.31 -8.62c0.75,-1.03 0.91,-1.59 1.57,-2.93l17.27 -28.5c1.49,-3.27 0.76,-3.46 5.03,-4.02 0.54,1.22 1.24,2.73 2.06,4.01l8.54 14.34c0.79,1.52 1.23,1.48 2.25,3.25 4.9,8.45 10.4,16.56 15.12,25.17l8.67 14.22c0.87,1.68 1.05,2.05 2.07,3.44 1.2,1.66 1.09,2.18 2.21,3.71 3.14,4.23 23.1,38.26 28.01,46.16l15.23 25.09c1.51,2.65 6.85,8.97 1.89,9.96 -2.92,0.58 -91.21,0.02 -101.96,0.02 -19.69,0 -21.93,3.43 -20.16,-14.67 0.4,-4.02 -1.12,-8.07 2.93,-8.92 5.27,-1.1 71.27,0.81 76.18,-0.52 1.19,-2.83 0.56,-2.85 -1.01,-5.42 -1.01,-1.66 -1.74,-3.01 -2.76,-4.73l-15.39 -25.89c-5.72,-8.21 -9.96,-17.63 -15.75,-25.59 -1.19,-1.65 -1.45,-3.18 -2.62,-4.84 -1.23,-1.75 -1.81,-3.1 -2.81,-4.65 -0.62,-0.95 -0.85,-1.19 -1.54,-2.42 -1.06,-1.92 0.02,-0.92 -1.6,-2.06 -2.2,-0.06 -3.3,0.78 -4.2,3.01 -1.59,3.94 -3.76,6.32 -5.63,9.79l-11.1 19.77c-1.95,2.85 -3.46,6.92 -5.59,9.83 -2.19,2.98 -3.51,6.89 -5.52,9.92l-30.64 53.43c-4.37,5.91 -12.23,26.5 -18.12,27.58 -3.36,0.62 -26.71,0.27 -29.47,-0.51zm-245.57 -97.1c-4.04,0 -3.56,-3.82 -3.54,-7.16l0 -52.25c0,-7.85 -1.54,-17.16 3.42,-17.16l180.26 0c2.85,0 11.61,1.93 14.49,2.66 15.18,3.88 30.23,15.37 38.94,28.25 5.54,8.2 2.9,5 6.08,10.83 3.31,6.08 6.07,18.94 6.07,27.16 0,20.42 -7.04,37.12 -20.62,50.92 -4.28,4.35 -5.58,4.68 -7.17,6.25 -3.41,3.36 -14.9,9.29 -19.35,10.5 -2.19,0.6 -4.11,1.61 -6.33,2.14 -12.01,2.91 -42.74,1.81 -56.37,1.81 -2.59,0 -4.85,-0.61 -4.85,-3.46l0 -82.11c0,-1.37 0.8,-1.95 1.46,-2.85 7.55,-0.64 11.69,-0.45 19.3,-0.45 2.8,0 3.94,1.31 4.14,4.26 0.64,9.25 -1.1,55.83 0.19,58.27 0.61,0.69 -0.22,0.08 1.1,1.02 1.55,1.09 2.29,0.92 4,0.85 15.16,-0.7 25.9,2 39.38,-7.82 9.27,-6.76 4.42,-2.82 10.87,-10.03 1.33,-1.48 1.64,-1.86 2.63,-3.84 0.99,-1.99 1.77,-2.74 2.6,-4.37 0.82,-1.61 1.02,-3.28 1.62,-4.84 4.22,-11.08 3.29,-25.63 -2.35,-35.67 -8.02,-14.28 -21.72,-24.93 -40.66,-24.93l-151.89 0c-4.94,0 -2.61,14.03 -2.84,21.31 -0.1,3.15 -0.21,4.23 2.33,5.79l51.26 0c7.57,0 12.44,-1.13 12.43,4.29 -0.01,8.16 0.53,12.68 -0.78,20.13 -8.9,1.15 -71.73,0.47 -85.79,0.47zm430.91 -30.04c1.06,1.6 0.94,2.08 1.7,3.29l8.91 14.49c5.24,8.86 13.19,20.35 17.98,29.28l7.27 11.65c0.7,1.1 0.95,1.97 1.82,3.16l5.3 8.63c2.74,5.06 5.89,6.73 1.71,12.98l-11.01 17.39c-2.8,4.79 -3.78,-0.81 -3.97,-1.15l-7.37 -12.06c-0.76,-1.27 -0.86,-2.05 -1.72,-3.25 -1.03,-1.46 -0.82,-0.76 -1.74,-2.73l-19.41 -32.85c-0.99,-1.36 -0.92,-1.3 -1.69,-2.79 -0.99,-1.93 -2.25,-3.61 -3.56,-5.89l-14.09 -23.72c-1.21,-2.48 -2.12,-3.61 -3.42,-6.06 -0.81,-1.55 -1.06,-1.63 -1.96,-3.03l-8.68 -14.71c-1.38,-2.1 -2.6,-3.94 -3.59,-5.84l-14.1 -23.75c-5.81,-9.17 -11.22,-20.05 -17.55,-29.7 -12.54,-19.1 0.45,-9.69 16.1,-11.99 2.54,-0.37 4.57,0.36 6.23,2.59l25.26 40.92c1.42,1.85 2.36,3.7 3.68,5.77l3.48 5.97c0.73,1.19 1.07,2.12 1.82,3.16l8.97 14.43c1.16,1.58 2.42,4.02 3.63,5.83zm-464.25 127.72c-4.6,0 -2.97,-12.13 -2.97,-16.25l0 -170.2c0,-19.94 -2.23,-20.92 7.45,-20.87l160.73 0c29.4,0 52.82,-2.57 78.96,6.09 4.71,1.55 8.57,4.08 13.12,5.8 4.11,1.56 13.72,8.2 17.15,11.23 10.62,9.4 12.27,11.16 20.53,22.26 3.43,4.6 5.8,9.81 8.42,14.97 3.02,5.97 4.71,18.13 8.74,19.69 1.74,-3.53 4.73,-7.3 6.58,-10.65 4.24,-7.62 8.96,-13.99 13.14,-21.7 3.94,-7.29 8.85,-14.46 13.37,-21.47 1.22,-1.91 2.13,-3.87 3.28,-5.69l3.24 -5.2c2.13,-3.83 4.43,-7 6.52,-10.9 2.37,-4.43 7.14,-3.47 12.47,-3.47 5.44,0 20.52,-1.81 15.28,4.34l-10.31 17.08c-0.76,1.65 -1.19,1.9 -1.96,3.04 -0.84,1.24 -0.82,1.88 -1.49,2.97 -0.66,1.07 -1.12,1.26 -1.89,2.6 -4.88,8.48 -12.17,21.47 -17.32,28.96 -0.61,0.87 -0.99,2.12 -1.49,2.99 -0.84,1.47 -0.99,1.17 -1.85,2.62l-15.38 25.92c-1.19,2.06 -2.13,3.9 -3.37,6.11l-6.98 11.42c-0.96,1.56 -2.32,4.17 -3.33,5.63 -0.9,1.31 -1.11,1.63 -1.92,3.08 -0.67,1.23 -0.98,1.44 -1.74,2.72 -1.2,2.04 -2.32,3.84 -3.29,5.68l-17.32 28.96c-0.72,0.99 -0.9,1.73 -1.55,2.93 -3.7,6.87 -14.06,17.35 -19.18,22.13 -5.08,4.75 -9.97,8.03 -15.95,11.92 -6.05,3.93 -12.2,6.08 -18.3,9.05 -17.67,8.65 -64.59,5.93 -86.16,5.93 -26.74,0 -25.88,2.93 -25.88,-9.98 0,-7.08 -0.59,-108.63 0.25,-110.32 1.59,-3.22 13.14,-1.91 17.18,-1.64 2.62,0.17 6.28,-0.8 7.53,2.1 1.06,2.46 0.29,72.88 0.26,86.96 -0.01,4.52 -0.8,8.61 4.16,8.61 16.96,0 34.2,-0.3 51.27,-0.31 5.54,0 11.78,-0.54 17.25,-1.96 1.83,-0.48 2.75,-1.2 4.77,-1.72 7.47,-1.91 15.36,-5.95 21.6,-10.25 8.88,-6.12 15.94,-13.56 22.01,-22.79 4.22,-6.39 7.92,-14.5 9.91,-22.44 5.48,-22.01 1.41,-47.69 -12.18,-65.77 -1.77,-2.35 -6.46,-8.42 -8.63,-10.29 -0.95,-0.81 -0.36,-0.14 -1.31,-1.18 -0.71,-0.78 -0.15,-0.43 -1.19,-1.3 -6.37,-5.36 -12.75,-9.58 -20.2,-13.15 -8.39,-4.01 -20.62,-7.67 -30.04,-7.67l-186.6 0c-5.61,0 -4.19,5.8 -4.09,12.35l-0.31 161.73c-0.28,4.53 2.12,9.29 -5.07,9.29l-15.91 0zm348.82 -296.49c4.58,0 5.43,-6.11 6.43,-9.94l3.88 -12c5,1.63 4.16,7.1 6.04,11.6 2.16,5.15 2.01,10.35 7.03,10.35l17.91 0c0.79,0.13 0.6,0.09 1.19,0.37 3.12,1.46 -3.8,5.28 -5.27,6.54 -2.66,2.27 -10.82,7.13 -11.45,9.07 0.24,5.49 6.51,19.47 5.91,22.26 -3.91,0.35 -3.62,-0.79 -5.76,-2.39 -1.52,-1.14 -3.05,-2.28 -4.65,-3.33 -6.62,-4.31 -8.56,-8.08 -12.56,-4.85l-6.97 4.95c-4.62,2.64 -8.81,8.31 -10.08,4.58 -0.44,-1.28 0.22,-2.28 0.98,-4.2l4.69 -16.03c0,-2.45 -2.54,-3.33 -4.11,-4.68l-4.79 -3.66c-3.33,-2.51 -8.28,-4.6 -8.78,-8.02 2.51,-1.28 17,-0.62 20.34,-0.62zm-106.99 0c1.47,0 2.31,-0.13 3.58,-0.81 2.9,-1.59 1.57,-3.44 4.07,-9.41 0.99,-2.36 1.18,-4.5 1.96,-6.96 0.85,-2.72 2.33,-3.54 3.78,-4.99 1.24,1.78 1.24,2.31 1.88,5.01 0.48,2.01 1.11,3.04 1.78,5.14 2.59,8.26 2.21,12.07 8.3,12.04 5.28,-0.02 16.18,-0.86 19.15,0.82 -0.7,3.49 -12.77,10.63 -16.14,13.15 -0.98,0.72 -1.56,0.95 -1.56,2.49 0,7.19 10.97,25.63 2.61,21.42 -1.72,-0.86 -1.99,-1.58 -4.66,-3.37 -1.06,-0.71 -1.05,-0.93 -2.18,-1.8 -12.14,-9.29 -9.36,-6.98 -19.25,-0.51 -4.55,2.98 -6.87,6.55 -9.8,5.89 -1.54,-0.36 -1.62,-0.53 -1.1,-2.24 0.23,-0.73 0.83,-1.92 1.16,-2.91 1.37,-4.11 5.81,-15.53 4.21,-17.75l-11.22 -8.68c-0.75,-0.54 -1.65,-1.02 -2.42,-1.55 -1.57,-1.06 -2.9,-2.2 -3.71,-3.93 2.51,-1.7 2.86,-1.05 5.64,-1.05l13.93 0zm-125.39 0.64c7.91,-2.73 21.97,2.35 24.33,-3.13 1.32,-3.06 5.04,-18.09 7.54,-19.77 3.96,3.96 5.17,14.96 7.67,20.07 2.4,4.9 19.64,0.19 24.79,3.25l-1.24 1.4c-2.86,3.43 -10.8,8.07 -15.27,12.08 -3.61,3.25 -1.39,3.28 -0.09,7.97 0.53,1.9 0.68,3.08 1.45,5 0.95,2.39 2.97,7.76 2.51,10.33 -3.51,1.15 -2.93,-0.38 -5.39,-1.99l-9.51 -6.92c-5.68,-3.78 -5.03,-3.11 -10.56,0.83 -1.61,1.14 -2.92,2.06 -4.74,3.25 -5.59,3.67 -6.18,6.3 -9.23,5 -0.9,-3.46 1.91,-7.75 2.72,-11.06 3.98,-16.17 6.39,-7.8 -9.06,-20.39 -1.16,-0.94 -1.36,-0.76 -2.42,-1.55 -1.33,-0.98 -3.23,-2.72 -3.49,-4.38zm456.94 195c0.64,-4.6 -0.25,-13.97 -0.38,-19.42 -0.3,-12.19 -1.86,-23.81 -3.74,-35.86 -1,-6.45 -4.85,-25.93 -7.19,-32.61 -1.74,-4.99 -3.19,-10.35 -4.63,-15.21 -0.83,-2.83 -1.92,-4.83 -2.71,-7.28 -0.4,-1.25 -0.69,-2.69 -1.18,-3.83l-2.72 -7.21c-1.61,-4.26 -10.84,-24.49 -12.88,-27.43l-22.47 -37.24c-2.86,-4.75 -7.37,-9.92 -10.79,-14.12 -4.44,-5.45 -8.73,-11.13 -13.62,-16.21 -1.03,-1.07 -1.42,-1.61 -2.34,-2.64l-17.83 -17.5c-17,-16.43 -36.67,-30.6 -57.16,-42.35 -8.46,-4.86 -17.28,-9.5 -26.37,-13.46 -9.59,-4.18 -18.62,-8.2 -28.44,-11.37 -2.73,-0.87 -3.76,-1.77 -7.4,-2.57l-15.12 -4.71c-2.19,-0.75 -5.9,-1.22 -8.23,-1.75 -22.61,-5.18 -45.6,-8.58 -70.93,-8.58 -11.35,0 -28.14,-0.19 -38.25,1.93 -5.6,1.16 -11.75,0.96 -17.58,2.37 -5.62,1.36 -11.2,1.6 -16.57,3.27 -2.56,0.79 -5.28,1.24 -8.1,1.86 -5.14,1.12 -18.69,4.82 -23.22,6.64 -4.43,1.8 -10.01,3.87 -14.55,5.36 -4.68,1.54 -9.57,4.39 -14.11,5.78l-6.84 3.11c-3.96,1.73 -16.52,7.89 -19.62,10.26 -1.88,1.43 -19.58,11.12 -24.58,15.23 -1.09,0.9 -1.81,1.23 -2.93,2.04l-8.71 6.23c-1.91,1.49 -3.86,3.2 -5.49,4.49l-8.27 6.64c-1.05,0.95 -1.32,1.46 -2.56,2.39 -3.82,2.89 -6.74,6.1 -10.64,9.28l-12.7 12.68c-4.52,4.47 -24.25,27.84 -27.06,32.63l-10.03 14.87c-2.68,4.12 -4.97,8.33 -7.45,12.46 -2.37,3.98 -5.5,8.41 -7.15,12.78l-5.03 9.88c-0.69,1.32 -0.73,2.08 -1.34,3.61 -0.75,1.86 -1.09,1.61 -1.82,3.16l-14.81 39.95c-2.88,10.97 -5.62,21.3 -7.35,32.49 -1.66,10.76 -4.22,24.06 -4.61,35.09 -0.64,18.52 -1.95,40.13 1.36,57.84 1.08,5.84 0.92,11.44 2.37,17.5l3.35 16.54c2.19,8.81 5.25,23.07 8.52,31.28l5.21 14.71c1.61,4.56 3.87,9.15 5.83,14.1 0.61,1.54 1.17,1.82 1.91,3.53l3.19 6.78c0.61,1.44 0.7,2 1.6,3.37 2.05,3.13 3.45,6.56 5.06,9.86l5.41 9.53c2.73,5.32 6.72,9.92 9.58,15.29 1.68,3.15 4.32,5.55 6.2,8.76l31.35 36.8c0.07,0.07 0.17,0.18 0.24,0.25 0.07,0.08 0.16,0.2 0.23,0.27l4.17 4.3c0.92,0.92 0.57,0.39 1.4,1.09l4.98 4.96c1.54,1.58 3.46,3.11 5.18,4.77 1.31,1.27 1.37,1.16 2.8,2.17 1.58,1.12 1.48,1.35 2.61,2.37l5.53 4.43c8.25,7.55 31.7,23.6 41.2,28.46l6.43 3.53c1.78,0.76 4.43,2.33 6.47,3.44 1.27,0.69 2,1.22 3.21,1.78l17.17 7.73c5.12,2.89 15.77,6.41 21.56,8.28 7.01,2.24 15.48,5.37 22.66,7.25l50.73 8.96c3.12,0.35 6.09,0.58 9.43,0.71 18.34,0.74 39.41,1.72 57.15,-1.35 5.78,-1 11.86,-1.21 17.52,-2.32 11.17,-2.21 21.59,-4.28 32.56,-7.33l22.77 -7.09c7.07,-2.38 14.11,-5.62 21.23,-8.64 8.95,-3.8 18.19,-8.19 26.45,-13.37 1.9,-1.18 4.57,-2.6 6.35,-3.58l12.31 -7.59c1.95,-1.35 3.96,-2.6 5.95,-4.03l14.46 -10.4c1.19,-0.86 1.43,-1.45 2.66,-2.34 9.15,-6.67 14.05,-12.32 21.47,-18.32 4.31,-3.48 11.03,-11.65 13.74,-14.13 5.48,-5.02 10.37,-11.37 15.18,-17.18 6.22,-7.5 14.11,-17.79 18.94,-25.84l5.82 -9.1c1.43,-2.64 2.17,-3.55 3.52,-6.43l3.55 -6.4c6.22,-10.71 11.32,-22.08 16.24,-33.53l5.32 -14.57c1.8,-4.38 3.61,-10.65 4.77,-15.16 0.73,-2.85 1.7,-4.74 2.28,-7.63 0.61,-3 1.11,-5.24 1.97,-8.01 3.92,-12.81 7.38,-38.71 7.66,-51.99l0.69 -19.4zm-305.58 468.26l0.01 0 0 0c12.55,-0.27 24.99,-1.03 37.28,-2.27 0.4,-0.43 1,-0.49 1.45,-0.16 7.37,-0.76 14.68,-1.7 21.94,-2.8l0.01 -0.08c0.38,-0.06 0.69,-0.09 0.96,-0.08 9.78,-1.51 19.47,-3.33 29.04,-5.43 0.15,-0.45 0.62,-0.65 1.57,-0.35 4.57,-1.02 9.11,-2.1 13.63,-3.26 0.2,-0.25 0.56,-0.36 1.06,-0.28 2.38,-0.62 4.75,-1.25 7.11,-1.9l-0.01 -0.11c0.96,-0.69 1.57,-0.73 1.92,-0.42 4.41,-1.24 8.8,-2.53 13.17,-3.88 0.2,-0.15 0.51,-0.16 1.13,-0.39l0.02 0.02c1.83,-0.58 3.65,-1.16 5.47,-1.76 0.31,-0.47 0.75,-0.65 1.48,-0.5 2.17,-0.72 4.35,-1.46 6.5,-2.21 0.18,-0.85 1.26,-1.08 1.98,-0.69 1.61,-0.57 3.22,-1.14 4.82,-1.73 -0.15,-1.14 0.56,-1.58 1.87,-0.69 2.17,-0.8 4.34,-1.63 6.49,-2.46 0.06,-0.19 0.13,-0.38 0.22,-0.59l1.35 -0.21 0.08 0.16c1.64,-0.65 3.28,-1.3 4.91,-1.97 0.08,-0.31 0.2,-0.66 0.37,-1.07 0.68,0.01 1.11,0.15 1.36,0.37 2.03,-0.82 4.03,-1.67 6.05,-2.53l-0.04 -0.05c0.47,-0.73 0.94,-0.74 1.87,-0.73 1.59,-0.69 3.17,-1.38 4.75,-2.08 0.03,-0.63 0.49,-0.84 0.51,-0.87 0.1,-0.03 -0.58,-1.12 1.47,-0.09l0.09 0.04c1.51,-0.68 3.02,-1.37 4.52,-2.07 -0.03,-0.2 -0.01,-0.42 0.09,-0.67 0.38,-0.23 0.78,-0.66 2.23,-0.42 1.77,-0.83 3.52,-1.68 5.28,-2.53l-0.03 -0.04c0.65,-0.66 1.19,-0.84 1.75,-0.8 1.84,-0.89 3.66,-1.81 5.48,-2.73l0.73 -0.76c0.16,0.07 0.29,0.14 0.42,0.19 4.43,-2.26 8.83,-4.61 13.17,-7.01 0.06,-1.01 0.34,-0.82 1.42,-0.78 1.55,-0.86 3.1,-1.74 4.65,-2.61 -0.11,-1.27 0.75,-1.72 1.8,-1.03 1.5,-0.86 3,-1.74 4.49,-2.62 0.09,-0.69 0.63,-0.85 1.29,-0.77 4.31,-2.57 8.57,-5.19 12.78,-7.89 0.47,-0.68 1.06,-0.99 1.59,-1.03 1.73,-1.11 3.44,-2.23 5.15,-3.38l0.36 -1.59c1.23,0.53 0.79,-0.38 1.13,0.6 1.39,-0.93 2.78,-1.88 4.16,-2.83 -0.05,-0.08 -0.11,-0.17 -0.16,-0.27 0.35,-0.82 0.33,-1.32 1.42,-1.32 0.4,0 0.69,0.04 0.89,0.11 1.5,-1.04 3,-2.09 4.49,-3.15l0.12 -1.31c0.91,0.5 0.85,0.24 0.99,0.51 1.61,-1.16 3.22,-2.32 4.82,-3.49 -0.04,-0.2 -0.07,-0.46 -0.14,-0.78 0.41,-0.4 1.19,-0.68 2.06,-0.64 1.83,-1.36 3.64,-2.72 5.45,-4.1 -0.25,-0.18 -0.57,-0.37 -0.97,-0.58 0.37,-0.54 1.41,-0.56 2.39,-0.53 3.49,-2.7 6.95,-5.45 10.37,-8.24 -0.09,-0.12 -0.18,-0.24 -0.27,-0.37 0.16,-0.69 0.78,-0.72 1.39,-0.9 0.24,-0.06 0.44,-0.12 0.62,-0.16 1.68,-1.38 3.34,-2.78 4.99,-4.19l-0.2 -0.84 1.56 -0.33c3.22,-2.75 6.38,-5.54 9.52,-8.37l-0.11 -0.14c0.52,-0.61 1.06,-0.99 1.56,-1.17 1.54,-1.41 3.08,-2.83 4.6,-4.26 -0.13,-0.16 -0.25,-0.35 -0.37,-0.54 0.83,-0.46 1.39,-0.74 1.83,-0.83 1.33,-1.26 2.66,-2.53 3.98,-3.81 -0.48,-0.3 -0.48,-0.74 -0.56,-1.6 1.05,-0.16 1.71,-0.3 2.41,-0.19 1.17,-1.14 2.33,-2.3 3.49,-3.46 0,-0.72 0.14,-1.6 0.14,-2.2 0.77,0.36 0.88,-0.14 1.3,0.75 1.43,-1.44 2.85,-2.9 4.27,-4.36 0.09,-0.55 0.26,-1.17 0.46,-1.79 0.61,0.45 0.45,0.23 0.74,0.54 1.37,-1.42 2.72,-2.84 4.06,-4.28 0.06,-1.08 1.07,-1.57 1.65,-1.76 1.42,-1.53 2.83,-3.08 4.23,-4.63 0.22,-0.37 0.34,-0.51 0.61,-0.68 1.22,-1.36 2.43,-2.72 3.63,-4.09 -0.05,-0.03 -0.1,-0.06 -0.16,-0.1 0.27,-0.59 0.81,-1.11 1.44,-1.36 1.34,-1.54 2.68,-3.1 4.01,-4.66 -0.33,-0.7 -0.15,-0.56 0.54,-1.71 0.31,0.04 0.57,0.08 0.77,0.15 1.33,-1.58 2.65,-3.17 3.96,-4.77 -0.09,-0.71 0.35,-0.86 1.39,-1.71 1.07,-1.32 2.13,-2.65 3.19,-3.98 0.02,-0.07 0,-0.15 -0.11,-0.26 0.33,-0.31 0.62,-0.55 0.89,-0.73 1.36,-1.71 2.7,-3.43 4.03,-5.16 -0.04,-0.39 0.19,-1.04 1.1,-2.12 0.18,0.1 0.29,0.16 0.37,0.19 2.72,-3.59 5.4,-7.23 8.02,-10.91 -0.02,-0.2 -0.02,-0.42 0,-0.68 0.19,-2.82 -0.18,-0.41 0.58,-1.46 0.26,0.14 0.48,0.29 0.64,0.44 1.27,-1.79 2.52,-3.59 3.76,-5.4 -0.07,-0.22 -0.14,-0.5 -0.23,-0.83 0.02,-0.04 0.66,-0.52 1.3,-0.72 0.94,-1.4 1.89,-2.8 2.82,-4.2l-0.69 -0.87 1.42 -1.42 0.59 0.32c1.06,-1.61 2.1,-3.22 3.15,-4.85l-0.07 -0.08c0.14,-0.17 0.28,-0.33 0.42,-0.47 1.24,-1.95 2.46,-3.9 3.68,-5.87 0.1,-0.49 0.36,-1.18 0.87,-2.19 0.11,0.1 0.21,0.18 0.31,0.27 2.43,-3.99 4.81,-8.01 7.13,-12.07 -0.12,-0.27 -0.24,-0.61 -0.39,-1.05 0.56,-0.16 0.92,-0.3 1.2,-0.39 0.89,-1.57 1.77,-3.14 2.63,-4.72 -0.23,-0.58 0.05,-0.9 0.71,-2.19l0.41 0.17c0.91,-1.69 1.82,-3.37 2.71,-5.06l0.17 -1.87c0.2,0.12 0.39,0.28 0.58,0.46 1.04,-2 2.08,-4 3.09,-6.02 -0.23,-0.16 -0.46,-0.36 -0.69,-0.62 0.53,-0.35 0.99,-0.62 1.41,-0.79 0.82,-1.65 1.64,-3.3 2.44,-4.94l-0.1 -0.07c0.14,-0.18 0.26,-0.34 0.37,-0.47 2.2,-4.56 4.35,-9.16 6.41,-13.8 -0.14,-0.32 -0.24,-0.76 -0.41,-1.47 0.45,-0.33 0.91,-0.54 1.34,-0.63 0.72,-1.65 1.43,-3.29 2.13,-4.94 0,-0.3 0.18,-0.62 0.51,-1.17 0.93,-2.21 1.85,-4.45 2.75,-6.68 -0.17,-0.62 -0.06,-1.23 0.64,-1.64l0.03 -0.02c0.7,-1.76 1.4,-3.53 2.09,-5.31 -0.04,-0.38 0.1,-0.6 0.4,-1.03 0.98,-2.56 1.94,-5.13 2.88,-7.71 0,-0.02 0.01,-0.05 0.03,-0.08 2.4,-6.62 4.66,-13.31 6.77,-20.08 -0.04,-0.1 -0.1,-0.24 -0.31,-0.43 0,-0.62 0.34,-1.01 0.81,-1.21 0.69,-2.26 1.37,-4.54 2.04,-6.82 -0.25,-1.69 -0.06,-0.91 0.43,-1.8l0.09 0.02c0.47,-1.61 0.91,-3.23 1.36,-4.85l-0.08 -0.04c0.11,-0.28 0.21,-0.52 0.29,-0.7 1.32,-4.84 2.56,-9.69 3.73,-14.58l-0.18 -0.24 0.58 -1.44c0.58,-2.44 1.13,-4.88 1.67,-7.35 -0.03,-0.11 -0.07,-0.23 -0.12,-0.35 0.08,-0.07 0.16,-0.13 0.24,-0.19 1.06,-4.9 2.05,-9.84 2.95,-14.8 -0.01,-0.09 -0.03,-0.18 -0.04,-0.27l0.1 -0.06c1.41,-7.73 2.63,-15.53 3.65,-23.39l-0.01 -0.06c0.01,-0.01 0.02,-0.01 0.02,-0.02 0.25,-1.89 0.49,-3.77 0.7,-5.67 -0.05,-0.06 -0.09,-0.12 -0.14,-0.19 0.08,-0.06 0.11,-0.21 0.21,-0.36 0.87,-7.5 1.57,-15.05 2.08,-22.66l-0.02 -0.01c0.02,-0.21 0.04,-0.38 0.06,-0.53 0.19,-2.9 0.36,-5.81 0.5,-8.72l-0.14 -0.45c0.05,-0.06 0.11,-0.12 0.17,-0.16 0.35,-7.41 0.54,-14.86 0.54,-22.35 0,-129.35 -52.43,-246.44 -137.19,-331.2 -84.76,-84.76 -201.85,-137.18 -331.19,-137.18 -129.35,0 -246.44,52.42 -331.2,137.18 -84.76,84.76 -137.19,201.85 -137.19,331.2 0,129.34 52.43,246.43 137.19,331.19 84.76,84.76 201.85,137.19 331.2,137.19 3.47,0 6.94,-0.05 10.39,-0.13zm-190.13 -67.13c0.89,-3.65 -0.03,-2.52 2.5,-4.93l21.16 -22.14c7.58,-8.65 16.28,-17.43 24.34,-25.91 9.35,-9.84 7.14,-10.31 17.62,-6.28 4.13,1.59 7.43,1.16 7.79,6.5 1.23,18.27 1.67,37.17 3.22,54.65 0.45,4.98 2.14,22.63 0.23,25.73 -2.87,0.25 -12.62,-3.86 -14.79,-5.19 -4.16,-2.54 -0.59,-13.82 -3.01,-17.42 -1.25,-1.85 -12.04,-5.94 -13.99,-6.41 -3.3,-0.78 -13.18,-5.19 -14.78,-5.19 -3.39,0 -4.97,2.97 -7.01,5.03 -8.01,8.11 -5.58,9.15 -23.28,1.58zm93.61 26.79c0.27,-3.36 1.03,-6.33 1.34,-9.9l3.39 -29.87c0.63,-7.05 1.23,-13.43 2.27,-20.22 0.51,-3.33 0.71,-6.53 1.03,-9.85 0.4,-4.13 0.42,-6.1 4.78,-6.1 4.35,0 30.97,3.9 35.42,5.23 8.21,2.45 13.65,5.83 17.36,13.48 3.64,7.49 2.95,22.98 -1.98,29.47 -2.64,3.48 -4.48,6.65 -9,8.42 -5.48,2.14 -7.77,2.98 -14.45,2.96 -21.42,-0.07 -19.54,-4.75 -21.19,7.2 -1.92,13.92 -1.13,13.39 -10.39,11.87 -4.13,-0.69 -5.87,0.02 -8.61,-2.69zm76.37 -69.1c3.54,-1.59 15.79,-1.76 20.99,-2.14 10.86,-0.8 27.92,-2.49 36.06,7.91 3.28,4.2 1.67,1.72 4.18,7.27 3.18,6.99 2.94,21.73 -2.08,29.05 -1.21,1.77 -0.83,0.69 -2.19,2.28 -1.23,1.44 -0.05,0.72 -2,1.99 -1.39,0.9 -3.88,2.69 -5.24,3.21 -5.4,2.08 -7.36,2.72 -13.28,3.57 -21.43,3.09 -14.16,-2.12 -14.55,21.88 -2.47,1.93 -1.19,1.46 -5.22,1.74 -9.53,0.65 -11.83,2.08 -12.43,-5.12 -0.68,-8.1 -1.02,-16.16 -1.62,-24.32 -0.56,-7.8 -4.43,-42.65 -2.61,-47.31zm87.71 69.02c-5.02,-5.1 -2.86,-7.1 -5.33,-13.46l-4.32 -14.54c-2.7,-10.11 -4.93,-19.74 -8.14,-29.72 -6.24,-19.41 -4.42,-17.33 1.35,-18.82 2.69,-0.7 4,-1.56 7.25,-2.24 11.91,-2.48 38.67,-14.5 49.68,0.62 3.19,4.38 6.51,10.55 6.51,17.58 0,7.65 -0.25,12.68 -5.44,18.17 -4.73,5 1.43,6.13 10,13.87 4.45,4.01 9.37,6.72 11.31,10.76 -1.86,1.23 -10.06,3.67 -12.81,4.25 -7.08,1.47 -7.62,0.46 -12.02,-2.99l-8.85 -7.57c-1.22,-1.19 -1.25,-1.08 -2.46,-2.01 -1,-0.75 -1.03,-1.02 -2.11,-1.87 -1.94,-1.52 -3.46,-2.84 -5.2,-2.84 -2.57,0 -8.51,1.94 -9.33,3.55 -0.73,4.52 3.42,14.34 4.42,19.41 0.42,2.08 0.15,2.55 -1.23,3.8 -2.17,1.98 -11.88,3.98 -13.26,4.03zm91.65 -116.91c14.98,-2.31 30.82,4.82 38.84,17.4 1.92,3.01 4.34,6.74 5.21,10.21 0.65,2.51 1.51,5.47 1.95,7.99 2.66,15.43 -6.04,28.11 -15.1,36.29 -5.82,5.24 -14.04,7.53 -21.15,9.23 -6.92,1.67 -12.05,-0.18 -18.22,-1.51 -3.02,-0.66 -4.64,-1.85 -7.31,-3.13 -5.59,-2.67 -12.5,-9.89 -15.2,-15.68 -0.71,-1.53 -1.38,-2.05 -2.04,-3.4 -5.49,-11.35 -4.31,-27.02 2.21,-37.28 0.93,-1.47 0.99,-1.7 2.03,-2.95 0.93,-1.14 1.26,-1.98 2.07,-2.91 5.46,-6.41 15.99,-12.62 26.71,-14.28zm-451.82 30.45c1.38,-2.73 1.62,-2.53 4.44,-4.42 1.94,-1.29 2.98,-2.07 5.13,-3.35 1.31,-0.77 1.37,-0.92 2.64,-1.84l49.13 -32.5c1.22,-0.85 1.83,-0.99 2.82,-1.67 1.08,-0.73 4.76,-5.01 9.2,-1.33 3.69,3.06 8.79,4.56 9.56,7.4 1.07,3.93 -10.16,62.89 -12.1,73.75 -1.67,9.31 0.32,11.84 -11.86,3.44 -9,-6.22 -3.11,-6.46 -3.11,-19.08 0,-3.57 -0.4,-3.27 -2.43,-4.74l-17.41 -11.46c-2.1,-1.31 -4.66,-3.97 -8.08,-3.14 -1.58,0.38 -5.37,3.23 -7.07,4.43 -1.78,1.25 -4.85,3.89 -7.09,3.57 -3.06,-0.44 -12.6,-7.42 -13.76,-9.07zm31.27 -61.22c0,3.82 -0.79,6.54 -1.89,9.58 -2.38,6.63 0.25,1.09 -3.34,7.6 -0.9,1.64 -1.15,2.54 -2.2,3.78l-6.82 7.11c-0.54,0.48 -0.7,0.72 -1.25,1.24 -0.88,0.83 -2.28,2.18 -3.13,2.86 -7.5,5.98 -21.13,9.01 -30.48,6l-11.48 -5.45c-4.82,-2.95 -8.23,-6.54 -12.2,-10.21l-8.9 -8.02c-1.15,-1.11 -1.69,-1.67 -2.85,-2.63 -2.73,-2.28 -4.94,-4.07 -4.86,-6.49 0.05,-1.52 1.06,-2.16 2.04,-3.12 3.8,-3.71 2.78,-3.22 5.09,-5.85l27.34 -28.91c2.75,-2.51 14.32,-15.52 16.43,-16.95 3.69,-2.52 7.84,4.79 12.33,8.43 11.22,9.12 19.6,17.63 24.53,31.2 1.11,3.06 1.63,6.29 1.63,9.83zm496.05 33.67c2.98,-1.86 1.7,-3.77 0.63,-7.37 -0.79,-2.68 -1.89,-5.21 -2.44,-8.05 -0.65,-3.33 -1.66,-4.5 -2.45,-7.91l-4.87 -16.57c-0.71,-2.08 -2.26,-6.34 -1.89,-8.69 0.71,-4.43 10.75,-8.52 13.44,-13.07l4.73 -6.24c0.92,-1.05 1.48,-1.46 2.31,-2.64l7.16 -8.78c0.97,-1.24 0.24,-0.37 1.17,-1.31l13.54 -15.83c1.85,-2.7 4.92,-6.57 7.67,-7.83l5.09 4.16c6.41,5.56 8.18,3.97 -1.77,15.18l-12.57 14.79c-1.33,1.53 -0.88,0.29 -2.08,2.42 -0.56,1 -0.98,2.12 -1.18,3.21 2.62,2.51 7.18,8.13 10.87,8.13 2.59,0 7.15,-6.72 9.21,-8.88l7.66 -9.24c1.17,-1.27 1.45,-1.83 2.56,-2.92 1.28,-1.24 1.52,-1.36 2.43,-2.91 3.81,0.44 4.5,1.52 6.93,3.91 1.47,1.45 4.93,3.19 4.12,6.1 -0.58,2.07 -7.66,9.28 -9.65,11.65 -11.17,13.31 -13.17,12.38 -6.16,18.35 7.9,6.72 6.51,5.51 13.14,-1.9l15.97 -18.37c2.31,-2.52 3.91,-5.15 7.47,-1.39 1.08,1.15 0.94,0.94 2.41,2.06 7.72,5.82 3.82,6.37 0.42,11.15l-22.34 26.41c-6.47,7.34 -8.78,13.15 -13.78,8.12 -4.06,-4.07 -17.2,-13.84 -21,-17.83l-17.02 -14.33c-4.55,-3.65 -8.9,-9.17 -14.3,-11.12 -0.94,2.28 -0.91,2.58 0.18,5.35 2.14,5.45 3.55,10.86 5.01,16.85l10.1 34.2c0.98,2.44 1.09,3.23 1.72,5.75 0.53,2.13 1.26,3.23 1.85,5.12 1.06,3.41 2.67,8.84 0.87,11.57 -0.25,0.38 -7.38,6.31 -7.9,6.57 -2.7,1.28 -3.45,0.4 -5.37,-0.75 -1.85,-1.1 -2.77,-1.17 -4.87,-2.61 -2.53,-1.73 -6.35,-3.46 -9.19,-5.21 -2.04,-1.25 -2.59,-1.46 -4.86,-2.62 -6.23,-3.15 -12.27,-7.84 -18.47,-10.91 -7.02,-3.47 -16.55,-9.11 -23.2,-13.1 -3.12,-1.87 -7.18,-2.61 -7.41,-6.94 1.04,-0.96 1.92,-1.68 3.1,-2.78 1.35,-1.27 1.71,-1.09 3.17,-2.3 1.77,-1.47 4.31,-4.32 6.59,-4.51 3.46,-0.3 20.12,11.26 25.59,13.88 1.59,0.76 1.92,0.82 3.52,1.95l7.23 4.2c2.35,1.22 4.63,2.86 6.9,3.82zm-629.29 -88.31c0.95,-1.59 7.4,-6.18 9.62,-7.74 1.34,-0.93 1.71,-1.55 3.09,-2.41 6.85,-4.31 25.22,-17.79 32.84,-23.39 2.85,-2.09 10.84,-7.17 13.11,-9.26 5.9,-5.46 8.15,2.66 11.78,6.99l4.65 6.27c1.82,2.51 3.26,4.21 4.83,6.62l9.24 13.14c0.86,1.28 1.5,1.8 2.35,3.16 1.19,1.9 0.93,1.68 2.34,2.96 -1.04,3.55 -2.44,3.87 -5.28,5.7 -2.97,1.91 -3,3.7 -7.66,3.27 -1.78,-2.98 -2.81,-3.62 -3.78,-5.01 -0.66,-0.94 -0.49,-0.98 -1.12,-1.87 -1.31,-1.79 -3.86,-4.61 -4.97,-6.47l-9.74 -13.57c-3.71,0.51 -12.01,7.08 -13.13,9.6l11.78 17.05c3.86,5.88 2.46,2.18 6.5,9.83 -5.02,4.85 -5.98,6.21 -11.83,8.25 -2.87,-2.23 -3.94,-4.38 -6.28,-7.47l-5.82 -8.09c-9.65,-12.89 -5.09,-13.24 -22.17,-1.07 -1.71,1.22 -2.7,1.78 -4.08,2.86 -4.81,3.77 -6.45,6.24 -11.05,-1.32l-5.2 -8zm674.27 -23.6c0.02,-4.05 1.5,-5.03 3.12,-7.56l10 -17.37c0.92,-1.91 1.07,-1.68 2.27,-3.22 0.87,-1.11 1.32,-1.94 2.29,-3.16 6.1,-7.62 10.97,-13.19 22.42,-15.92 9.88,-2.34 17.48,-0.42 26.1,3.86 4.34,2.15 12.43,8.18 15.14,12.24 1.04,1.56 1.56,1.94 2.34,3.13 2.24,3.4 5.14,11.73 5.14,16.16 0,4.09 -0.6,7.22 -1.41,11.43 -1.19,6.1 -5.34,13.62 -8.53,18.86l-6.17 10.24c-8.32,14.83 -5.52,10.08 -21.36,2 -1.7,-0.86 -1.85,-1.29 -3.33,-2.14 -1.24,-0.72 -2.57,-1.05 -3.68,-1.79l-17.08 -10.31c-2.79,-1.55 -4.18,-2.5 -6.91,-4.03l-20.37 -12.43zm-701.86 -98.46c1.59,-5.69 11.93,-3.61 14.39,-6.55 1.63,-1.96 1.15,-6.39 1.16,-9.34 0.03,-4.82 -0.1,-7.16 2.14,-6.24 3.09,1.25 3,3.07 4.9,5.64 1.59,2.15 2.02,4.84 4.64,5.87 4.58,1.82 10.23,-3.71 16.37,-2.09 -1,2.69 -2.8,4.68 -4.85,7.17 -6.26,7.6 -5.24,5.87 1.98,16.73 0.4,0.61 0.81,1.57 0.9,2.1 0.62,3.89 -2.34,2.03 -4.15,1.13 -2.77,-1.37 -3.54,-0.84 -7.48,-3.01 -1.29,-0.71 -1.98,-0.95 -3.58,-0.51 -1.77,0.49 -6.25,6.33 -7.78,8.23 -1.2,1.49 -0.73,1.6 -2.03,2.73 -3.6,-0.87 -2.36,-2.54 -2.31,-6.87 0.03,-2.9 1,-7.16 -0.61,-9.16 -0.93,-1.17 -11.24,-4.65 -13.69,-5.82zm775.47 -9.57c-5.8,-7.74 8.91,-0.42 13.32,-0.73 4.9,-0.36 6.94,-10.31 10.93,-12.44 4.15,3.06 -0.17,12.99 3.62,16.17 3.91,3.32 11.26,0.91 14,6.12 -0.56,0.72 -0.05,0.22 -0.81,0.84 -0.15,0.13 -0.72,0.51 -0.93,0.62 -1.17,0.6 -3.01,0.65 -6.29,2.17 -7.98,3.71 -5.95,1.7 -5.67,14.78l-0.88 4.17c-2.16,0.13 -4.14,-3.22 -5.31,-4.87 -6.74,-9.61 -8.41,-6.09 -12.09,-4.71 -1.42,0.53 -2.92,0.73 -4.18,1.3 -2.05,0.89 -3.45,2.36 -5.83,1.13 -0.71,-2.52 7.69,-9.39 7.46,-16.12l-7.33 -8.43zm-698.79 -107.83c0,-5.71 0.6,-13.57 1.06,-19.31 0.93,-11.55 3.34,-23.92 5.29,-35.03 1.5,-8.52 3.8,-16.44 5.97,-24.41 0.89,-3.27 0.89,-4.62 2.17,-7.78 1.06,-2.59 1.29,-5.24 2.27,-7.7 1.06,-2.65 1.6,-4.29 2.6,-7.36 2.9,-8.82 10.39,-25.97 15.09,-35.18 0.83,-1.63 2.51,-5.01 3.49,-6.44 3.19,-4.67 5.76,-11.24 9.12,-16.27l9.73 -15.14c3.27,-4.92 9.12,-13.38 12.78,-17.56 1.08,-1.25 1.49,-1.47 2.25,-2.71 2.56,-4.15 7.98,-9.99 11.35,-13.55l8.21 -9.18c0.67,-0.66 0.56,-0.45 1.26,-1.25l37.25 -33.41 36.17 -24.03c4.54,-2.99 22.8,-12.07 26.35,-13.47 1.56,-0.62 2.23,-1.33 3.52,-1.96l10.72 -4.2c4.75,-1.83 9.25,-4.19 14.36,-5.57 4.43,-1.19 10.25,-3.64 14.81,-5.08l15.82 -4.08c2.92,-0.55 5.26,-1.59 8.22,-2.17 7.44,-1.45 27.47,-5.21 33.95,-5.79l18.75 -1.29c9.65,-0.74 18.71,-0.71 28.3,-0.71 18.52,0 45.25,4.18 63.57,7.82l23.99 6.26 26.27 9.1c1.5,0.58 2.01,1.13 3.3,1.67 1.48,0.62 2.22,0.65 3.68,1.31l43.31 22.38c1.11,0.73 2.03,0.98 3.23,1.74l21.04 14.31c4.03,2.78 7.31,6.01 11.07,8.84 1.61,1.2 4.17,2.93 5.59,4.35 2.12,2.11 3.91,3.29 5.72,4.74 1.73,1.39 3.08,3.18 5.03,4.9 9.64,8.45 21.18,20.86 29.8,30.92 4.75,5.55 9.23,11.09 13.31,17.05 2.75,4.02 6.01,7.82 8.4,12.02 1.01,1.77 0.89,1.55 2.02,2.93l20.05 35.22c3.96,6.59 6,14.14 9.49,20.85 2.69,5.15 11.6,31.37 12.88,37.4 0.68,3.19 1.25,5.02 2.06,7.89 0.86,3.04 1.16,5.63 1.77,8.66 0.6,3.05 1.39,5.25 1.95,8.03l2.89 17.07c0.9,6.35 0.91,12.18 1.79,18.61 1.68,12.25 1.47,25.09 1.47,37.5 0,7.1 -2.35,30.09 -3.36,37.58 -0.43,3.17 -1.3,5.93 -1.65,8.81 -0.36,3.03 -0.62,5.95 -1.24,8.76 -0.6,2.69 -1.5,4.96 -1.99,7.99 -0.46,2.86 -0.87,5.49 -1.69,8.27 -4.14,14.2 -9,32.38 -15.22,45.49l-14.43 30.85c-0.92,1.53 -1.03,1.34 -1.81,3.19 -2.32,5.5 -6.39,10.71 -9.3,16.07 -1.09,2 -1.04,1.1 -2.11,2.84 -4.41,7.16 -9.52,14.24 -14.53,20.83l-6.55 8.35c-6.45,9.26 -16.05,18.49 -23.92,26.36 -3.45,3.44 -11.7,12.22 -15.44,14.91 -1.67,1.19 -3.58,2.8 -5.38,4.58 -3.04,3.02 -16.08,12.97 -19.81,15.54l-50.66 29.95c-1.35,0.69 -2.22,0.79 -3.59,1.36 -1.54,0.63 -2.18,1.29 -3.56,1.91 -1.12,0.5 -2.31,0.7 -3.68,1.32 -1.59,0.69 -1.48,1.06 -3.2,1.77 -1.26,0.51 -2.15,0.6 -3.66,1.28 -5.94,2.69 -22.87,8.91 -29.69,10.69 -6.4,1.68 -17.78,5.03 -24.04,6.22 -14.65,2.77 -28.75,5.43 -43.74,6.46 -24.5,1.69 -32.98,1.82 -57.64,-0.03 -12.14,-0.91 -23.47,-2.7 -35.21,-5.05 -5.94,-1.19 -19.21,-3.83 -24.56,-5.78l-15.34 -4.54c-2.65,-0.73 -4.36,-1.84 -7.34,-2.63 -5.26,-1.41 -9.44,-3.92 -14.32,-5.59 -7.55,-2.57 -20.71,-9.23 -27.67,-12.65 -1.55,-0.75 -1.52,-1.21 -2.97,-1.99 -1.16,-0.61 -2.09,-0.76 -3.46,-1.52l-19.01 -11.34 -34.58 -25.64c-1.77,-1.49 -3.7,-2.97 -5.52,-4.44 -1.3,-1.05 -0.37,-0.3 -1.24,-1.23 -0.94,-0.99 -0.12,-0.29 -1.31,-1.19 -3.66,-2.79 -7.23,-6.31 -10.3,-9.61l-12.49 -12.89c-1.01,-1.07 -1.58,-1.4 -2.43,-2.54 -3.75,-5.02 -7.57,-8.58 -11.73,-13.64l-4.28 -5.69c-2.44,-2.73 -4.03,-5.74 -6.28,-8.63 -1.05,-1.35 -1.11,-1.08 -2.17,-2.82l-10.06 -15.3c-3.88,-5.46 -17.25,-29.31 -19.46,-35.32 -1.09,-2.98 -2.21,-4.32 -3.23,-7.22 -2.38,-6.87 -6.51,-14.37 -8.55,-21.28 -0.87,-2.95 -1.69,-4.67 -2.62,-7.37l-4.41 -15.49c-0.79,-2.68 -1.62,-4.59 -2.29,-7.7 -1.13,-5.32 -4.69,-19.65 -5.43,-24.93 -1.25,-9 -2.72,-17.44 -3.37,-26.48 -1,-14.01 -1.02,-27.81 -1.02,-41.76zm711.6 2.94c14.08,0 10.84,0.68 13.58,-7.27 0.51,-1.47 1.1,-2.21 1.6,-3.87 0.49,-1.61 0.73,-3.05 1.1,-4.37 0.37,-1.32 0.86,-2.79 1.52,-3.96 0.82,-1.45 1.27,-1.76 2.78,-2.47 0.73,2.03 1.07,2.85 1.66,5.22l5.29 15.1c2.58,4.33 17.29,-0.54 23.98,2.41 -0.38,2 -1.85,3.73 -3.73,4.73l-9.97 6.95c-2.84,2.16 -6.1,2.94 -2.34,10.83 0.94,1.99 1.03,3.26 1.62,5.4 0.95,3.52 3.88,6.29 1.56,10.5 -1.7,0 -11.7,-8.41 -13.86,-9.7 -5.88,-3.49 -2.98,-6.21 -18.88,6.29 -3.2,2.51 -2.65,3.13 -6.65,2.36 0.03,-2.1 1.07,-3.47 1.6,-5.9 2.85,-13.15 9.29,-14.44 -1.16,-20.98 -1.81,-1.12 -2.11,-1.77 -4.27,-3.16 -3.21,-2.06 -7.34,-4.14 -7.8,-7.49 3.83,-1 8.34,-0.65 12.39,-0.65zm-792.68 0c9.02,0 5.81,-2.71 8.84,-9.52 2.39,-5.4 1.22,-10.36 6.09,-12.09 1.19,1.31 1.45,3.16 1.87,4.87l5.25 15.15c3.43,4.66 18.71,-1.03 23.81,2.63 -0.81,2.21 -1.85,3.49 -3.96,4.58 -2.16,1.1 -2.45,1.83 -4.67,3.28 -13.38,8.72 -8.92,7.17 -5.8,19.41 1.32,5.17 3.4,5.75 2.02,10.67 -1.22,-0.29 -2.13,-0.6 -3.36,-1.36 -1.47,-0.93 -0.64,-0.67 -2.14,-1.82 -1.74,-1.34 -3.05,-2 -4.72,-3.25 -2.19,-1.66 -7.15,-6.16 -9.42,-5.87 -1.68,0.22 -12.2,7.84 -14.44,9.56 -2.77,2.13 -0.87,1.47 -5.2,2.45 -0.96,-2.57 0.16,-3.43 0.92,-5.75 0.67,-2.04 0.94,-3.92 1.86,-6.12 1.15,-2.77 4.15,-9.29 1.77,-12.07l-13.6 -9.77c-1.52,-0.93 -2.69,-2.7 -2.95,-4.33 5.85,-1.37 11.91,-0.67 17.84,-0.67zm775.97 -94.01c2.92,-2.35 10.42,-1.92 13.6,-4.6 1.71,-1.43 1.33,-4.5 1.43,-7.33 0.11,-3.3 -0.03,-5.48 0.83,-8.45 4.39,0.77 3.63,2.05 5.64,5.13 1.19,1.83 2.92,5.13 4.63,6.33 2.79,1.97 5.15,-0.02 8.15,-0.89 2.56,-0.74 7.81,-2.35 8.46,0.34 -0.01,1.37 -8.49,8.7 -8.47,12.44 0.02,2.51 2.82,5.59 3.74,7.08 2.8,4.55 3.91,4.97 2.68,6.94 -0.75,1.2 -1.27,0.31 -3.24,-0.39 -15.11,-5.33 -10.68,-5.29 -17.5,2.55 -3.2,3.66 -2.69,4.69 -6.03,4.04 -1.19,-4.04 1.84,-13.19 -0.98,-15.44 -3.42,-2.72 -8.35,-3.07 -12.41,-5.02l-0.54 -2.74zm-766.82 -11.23c2.08,0.84 5.67,0.96 8.2,1.83 2.63,0.89 5.14,2.61 7.32,0.23 2.03,-2.22 5.94,-9.75 8.17,-11.71 4.38,2.6 0.11,12.02 3.34,15.57 2.37,2.61 10.01,3.73 14.34,4.72 -1.29,6.83 -4.99,2.95 -13.62,8.67 -1,5.55 1.18,11.32 -0.76,16.12 -4.28,-1.85 -4.1,-3.26 -5.6,-4.96 -5.29,-6.03 -3.45,-8.23 -13.4,-4.09 -4.66,1.93 -6.77,1.87 -8.07,2.35 0.22,-4.23 1.63,-4.63 3.45,-7.49 7.33,-11.48 2.76,-7.11 -4.84,-19.02 0.34,-1.2 0.79,-1.45 1.49,-2.21zm-35.84 -66.33c-0.05,-0.1 -0.1,-0.2 -0.16,-0.31l0.29 0c12,-29.03 26.78,-56.61 43.99,-82.44 0,-1.91 0.01,-0.29 0.61,-0.98l0.06 -0.01c2.61,-3.89 5.27,-7.75 7.99,-11.57l-0.1 -0.27 0.89 -0.83c13.49,-18.78 28.32,-36.56 44.32,-53.18l0.02 -0.02c1.88,-1.96 3.77,-3.89 5.69,-5.82l-0.01 -0.1 0.18 -0.07c0.15,-0.15 0.3,-0.31 0.45,-0.46 1.74,-1.73 3.48,-3.45 5.24,-5.15 0.04,-0.15 0.09,-0.33 0.15,-0.52l0.33 0.06c1.82,-1.76 3.64,-3.5 5.49,-5.23 0.02,-0.04 0.05,-0.07 0.09,-0.09 11.28,-10.56 23.06,-20.58 35.33,-30.03 0.02,-0.09 0.04,-0.19 0.06,-0.29 0.22,-0.14 0.43,-0.22 0.64,-0.25 80.71,-61.94 181.71,-98.76 291.31,-98.76 132.24,0 251.95,53.6 338.62,140.26 86.66,86.66 140.27,206.38 140.27,338.63 0,132.24 -53.6,251.95 -140.27,338.62 -86.66,86.66 -206.38,140.26 -338.62,140.26 -132.25,0 -251.96,-53.59 -338.63,-140.26 -86.66,-86.66 -140.26,-206.38 -140.26,-338.62 0,-64.65 12.82,-126.32 36.04,-182.58zm786.52 16.55c-14.83,0 -24.58,-10.87 -30.71,-19.25l-7.07 -11.83c-0.87,-1.81 -1.4,-2.25 -2.28,-3.7 -1.77,-2.9 -2.7,-5.03 -4.4,-8.05 -4.14,-7.4 -1.68,-5.44 8.55,-11.7 2.69,-1.65 4.96,-3.28 7.65,-4.77l10.02 -5.91c0.81,-0.41 1.52,-0.63 2.08,-0.91 1.65,-0.82 2.16,-1.52 3.65,-2.32 1.99,-1.07 2.63,-1.66 4.01,-2.46 5.19,-3.02 10,-5.15 15.78,-9.08 1.3,-0.87 2.38,-1.32 3.82,-2.18 6.01,-3.56 5.75,-4.3 9.79,-4.06 0.95,1.55 2.48,3.44 3.36,5.04 0.72,1.33 0.59,1.77 1.42,3.08 3.88,6.1 11.17,18.01 13.47,24.34 5.36,14.74 4.89,25.69 -5.13,38.32 -2.3,2.89 -2.77,2.72 -4.86,4.6 -6.85,6.12 -17.72,10.85 -29.15,10.85zm-734.52 -30.05c0,-3.03 1.81,-3.67 3.05,-5.98l12.69 -22.13c1.18,-1.88 1.8,-3.56 3.03,-5.45l6.52 -10.7c5.57,0.75 8.29,4.02 12.55,6.26 0.45,2.69 0.4,3.1 -1.11,5.01l-10.47 18.36c-1.07,2.12 -3.27,5.04 -4.45,7.16 1.02,2.75 6.86,6.18 9.62,7.44 6.16,2.8 6.25,-2.18 8.9,-6l9.29 -16.07c1.04,-1.57 1.63,-4.25 3.69,-4.25 4.25,0 0.91,0.15 6.54,2.87 1.73,0.84 4.26,2.56 5.38,3.37 0.05,2.36 -0.13,2.84 -1.22,4.44l-6.13 10.29c-0.77,1.12 -1.16,2.19 -1.9,3.61 -0.91,1.74 -1.29,1.56 -2.14,3.3 -1.04,2.13 -0.73,1.84 -2.01,3.49 -1.72,2.22 -1.5,2.72 -1.35,5.8 1.35,0.99 4.4,2.89 5.82,3.63l12.08 6.8c2.05,1.1 3.54,2.49 5.89,3.53 0.24,4.82 -1.1,4.57 -2.8,7.81 -2.19,4.17 -4.4,9.26 -9.58,5.57 -3.56,-2.55 -17.48,-10.12 -21.23,-12.09l-16.77 -10.11c-1.8,-1.15 -2.55,-1.02 -4.54,-2.42 -1.47,-1.04 -2.62,-1.5 -4.11,-2.36l-8.37 -5.05c-1.7,-0.81 -2.85,-1.58 -4.15,-2.32 -1.91,-1.08 -2.73,-1.17 -2.73,-3.8zm89.13 -103.24c7.37,0 18.13,4.83 23.8,10.26 7.38,7.07 10,9.59 13.87,19.45 1.84,4.7 2.03,14.7 0.1,19.23 -1.86,4.37 -2.46,6.88 -5.23,11.69 -1.49,2.58 -5.25,7.73 -7.34,9.58l-7.73 9.18c-1.35,1.47 -1.33,1.32 -2.55,2.94 -1.57,2.08 -3.57,4.1 -5.25,5.7 -2.87,2.74 -5.01,-0.02 -7,-1.89l-5.95 -4.99c-1.14,-1.08 -2.1,-1.86 -3.12,-2.86l-15.05 -12.81c-4.59,-4.73 -6.97,-5.96 -9.01,-7.91l-14.83 -13.06c-1.32,-1.08 -5.06,-3.33 -5.16,-5.39 -0.17,-3.33 12.61,-15.67 14.93,-18.7 4.03,-5.24 6.72,-7.22 11.21,-11.18 3.54,-3.13 10.07,-6.49 14.69,-7.7 2.93,-0.77 6,-1.54 9.62,-1.54zm555.23 36.73c1.44,-3.02 3.82,-5.47 6.38,-7.34 2.31,-1.68 1.53,-1.64 3.34,-3.12 1.11,-0.91 0.95,-0.68 1.9,-1.6 2.5,-2.47 2.88,-2.06 5.19,-4.25l25.47 -21.82c0.76,-0.65 0.33,-0.25 0.77,-0.7l5.04 -4.41c2.37,-2.25 4.67,-3.79 6.88,-6.08 3.65,-3.79 5.46,-1.05 7.56,1.64 0.65,0.82 2.25,2.41 3.12,3.34l20.96 24.33c2.76,2.81 3.57,4.26 6.05,6.89 4.13,4.38 0.74,5.21 -4.79,10.63 -1.08,1.06 -2.6,1.85 -4.17,2.41 -1.33,-0.77 -2.44,-1.88 -3.67,-3.41l-12.73 -14.63c-2.65,-3.6 -5.9,-8.62 -10.72,-9.47 -4.32,4.94 -6.88,4.97 -9.31,9.49 0.98,2.69 3.33,4.7 5.12,6.92l8.44 9.48c7.87,9.95 9.96,9.21 1.88,15.34 -2.28,1.73 -2.2,3.01 -6.48,3.15l-5.16 -6.23c-1.54,-1.5 -1.38,-1.65 -2.45,-3.02 -1.29,-1.62 -12.33,-14.51 -13.17,-14.66 -3.23,-0.61 -2.95,0.8 -4.44,1.98 -3.09,2.43 -5.36,3.99 -7.46,7.45l7.67 9.68c0.21,0.27 0.52,0.71 0.86,1.12 1.41,1.63 3,3.76 4.33,5.14l8.93 10c1.8,2.06 3,3.75 1.09,6.41 -1.13,1.57 -1.48,1.3 -2.74,2.26 -2.1,1.61 -5.31,6.15 -8.27,3.75l-24.54 -28.25c-0.94,-1.26 -0.74,-1.27 -1.96,-2.51 -1.84,-1.88 -2.81,-2.99 -4.47,-4.99 -0.44,-0.53 -0.38,-0.45 -0.72,-0.76 -3.8,-3.53 -1.17,-2.27 -3.71,-4.17zm-447.09 -42.82c-1.59,1.26 -4.43,4.46 -7.46,3.76 -1.54,-0.35 -6.2,-3.38 -7.87,-4.18 -4.54,-2.16 -5.43,-4.01 -8.4,-2.47l-19.89 15.51c-4.85,4.6 -4.17,4.36 -0.84,16.6 1.78,6.53 -3.27,7.59 -9.49,12.9 -1.26,1.07 -1.74,2.01 -3.79,0.97 -1.48,-0.74 -1.58,-1.5 -1.99,-3.59 -0.75,-3.84 -1.17,-6.04 -2.35,-9.55l-16.66 -64.51c-0.5,-4.02 0.82,-4.29 4.64,-7.19 7.57,-5.75 6.99,-7.07 15.24,-2.19l37.65 20.58c2.08,1.24 5.8,3.34 7.69,4.23l11.3 6.14c1.34,0.69 2.41,1.42 3.43,2.04 3.6,2.18 5.4,0.97 5.64,5.91l-6.84 5.06zm409.28 10.3c0,-2.17 1.73,-8.62 2.48,-10.53l14.38 -48.84c1.86,-5.76 3.46,-13.97 5.96,-18.85 4.51,0.86 4.07,2.23 7.04,4.16 7.21,4.71 8.67,5.65 5.9,13.7l-10.05 33.22c-4.61,14.67 4.3,6.23 7.16,4.67l33.92 -19.36c1.57,-0.83 1.38,-0.95 3.5,-0.08l10.46 7.54c1.73,1.43 1.03,1.87 1.5,4.17 -10.72,5.51 -22.95,13.54 -34.49,19.64 -1.35,0.71 -1.21,0.81 -2.4,1.6l-25.97 14.84c-4.77,2.83 -7.66,5.45 -11.26,3.03 -0.69,-0.47 -1.53,-1.47 -2.39,-2.09 -4.46,-3.21 -5.73,-3.43 -5.73,-6.8zm-381.78 -30.14c-0.3,-2.88 0.31,-3.95 0.35,-6.23 0.04,-1.95 -0.18,-3.87 0.1,-6.1 1.22,-9.82 0.66,-62.66 2.11,-68.24 1.01,-3.88 4.92,-3.91 8.44,-5.42 3.6,-1.54 6.33,-3.92 10.01,-0.74 5.26,4.54 18.36,19.21 24.55,24.72l31.49 31.93c-1.34,4.26 -3.63,3.48 -10.59,6.53 -7.54,3.29 -8.68,-2.53 -15.17,-8.35 -2.05,-1.84 -2.68,-2.41 -4.66,-2.07 -1.16,0.2 -4.08,1.8 -6.08,2.41l-17.91 7c-11.47,5.27 1.59,18.8 -10.71,22.61 -3.99,1.23 -8.35,4.72 -11.93,1.94zm297.02 -42.02c0,-7.13 6.41,-20.86 11.89,-26.18 1.92,-1.86 3.48,-3.23 5.45,-4.52 3.89,-2.56 8.11,-5.01 12.82,-6.09 14.79,-3.37 26.59,0.31 38.29,8.89l4.91 5.04c2.3,2.91 2.24,2.27 4.07,5.89 0.72,1.43 1.15,1.64 1.83,3.13 6.91,15.11 2.93,35.17 -7.51,45.04l-5.25 4.72c-1.34,1.15 -1.55,1.08 -3.06,1.9 -13.51,7.26 -24.5,7.89 -38.84,2.04 -5.43,-2.22 -13.09,-8.17 -16.33,-13.04 -3.39,-5.05 -4.79,-7.25 -6.57,-13.32 -2.16,-7.36 -1.71,-5.84 -1.71,-13.49zm-62.97 -65.74c1.25,-5.74 5.23,-3.27 9.65,-2.15 10.4,2.63 23.84,4.67 33.35,8.98 2.83,1.28 6.95,3.32 9.09,5.36 10.98,10.51 5.83,32.58 -4.54,39.86 -3.24,2.26 -6.56,2.89 -9.14,4.73 0.34,1.71 0.11,2.71 0.91,4.53l4.52 10.39c1.98,4.83 5.16,10.1 4.63,15.07 -2.57,0.28 -12.34,-1.92 -15.42,-2.74 -5.5,-1.46 -5.71,-5.95 -7.97,-10.98l-5.28 -13.62c-1.72,-5.12 -6.32,-6.66 -12.45,-6.7 -1.98,0.7 -2.35,5.91 -3.38,8.99 -2.98,9.03 -0.19,16.77 -10.9,12.97 -6.82,-2.43 -8.88,-0.28 -8.88,-4.94l15.81 -69.72zm-76.1 70.36c-12.82,0 -8.68,-4.03 -8.7,-14.06 -0.02,-8.06 0.58,-15.3 0.61,-23.41l0.96 -34.83c0.03,-9.85 3.74,-5.79 25.55,-5.85 7.53,-0.02 18.54,1.07 24.65,5.06 1.37,0.88 4.71,3.32 5.61,4.34 3.16,3.57 5.53,9.52 5.9,13.94 0.75,9.13 -0.62,17.83 -5.78,24.35 -0.67,0.83 -1.34,1.47 -2.53,2.42 -4.11,3.33 -12.74,6.29 -18.39,6.58 -7.19,0.37 -14.3,-1.09 -18.5,1.31 -1.83,20.79 1.98,20.13 -9.38,20.13zm-62.57 -13.49c-0.41,2.94 0.95,8.36 1.66,13.12 1.44,9.86 0.19,7.7 -10.65,9.83 -6.83,1.33 -6.57,-4.05 -7.83,-13.38 -0.55,-4.08 -1.85,-7.75 -2.51,-12.39 -1.63,-11.44 -5.21,-25.67 -6.46,-36.7 -1.46,-12.97 -7.16,-13.63 9.17,-15.94 8.83,-1.24 13.32,-2.79 24.83,-3.97 12.39,-1.26 21.72,3.22 26.59,12.96 1.99,3.96 3.95,9.36 3.95,14.04 0,8.75 0.1,10.76 -4.41,17.54 -1.34,2.03 -2.23,3.1 -4.2,4.28 -1.55,0.93 -3.51,2.49 -4.86,3.11 -10.43,4.73 -19.86,4.76 -25.27,7.51zm-468.88 356.31l0 34.03c2.54,0.28 1.42,-0.77 2.83,5.35 0.56,2.37 1.07,4.11 1.98,6.49l4.84 12.08 22.06 31.67c0.77,1.2 0.72,1.81 1.32,3.16 1.27,2.88 1.24,0.72 2.72,5.71 0.7,2.35 1.77,3.96 2.41,6.1 6.56,21.69 5.85,36.71 -0.28,58.64 -0.69,2.45 -1.5,3.61 -1.94,6.48 -2.42,16.06 -3.31,27.82 1.98,44.09 1.39,4.27 2.06,7.57 4.6,12.32 6.53,12.23 10.8,19.24 21.48,28.79 14.73,13.17 22.81,12.01 39.37,27.3 15.76,14.55 25.48,34.64 27.74,56.49 0.77,7.51 1.59,13.51 3.78,20.97 1.4,4.73 3.78,9.02 4.85,12.08l7.8 13.1c5.36,7.14 7.5,9.28 13.86,15.49 2.64,2.57 11.43,8.66 14.91,10.46l11.08 5.4c8.54,2.82 2.22,1.16 13.07,3.81 11.06,2.69 3.81,1.02 14.07,2.21 2.72,0.32 5.23,0.3 7.67,0.85 2.6,0.6 3.91,1.33 6.7,1.83 17.43,3.13 37.16,17.46 47.92,31.68 3.06,4.03 6.21,8.3 8.5,12.9l6.01 10.41c0.66,1.04 0.87,1.7 1.47,2.51 4.63,6.29 8.73,9.9 14.41,15.45 2.51,2.45 11.47,8.41 14.7,10.18l11.43 5.5c1.86,0.9 4.45,1.22 6.5,1.95 6.25,2.19 21.43,4.63 29.4,3.95 23.24,-2 35.25,-10.86 58.7,-8.41 14.22,1.49 9.12,1.12 20.8,4.07 2.95,0.74 3.29,1.5 6.11,2.35 1.19,0.37 1.97,0.51 2.94,1.02l5.57 2.87c1.07,0.63 1.27,1.05 2.7,1.79 2.54,1.29 8.56,5.15 10.23,6.69 6.82,6.3 11.62,9.59 19.58,13.76l11.96 4.95c2.34,0.85 3.93,1.35 6.57,1.91 3.46,0.73 3.75,0.21 5.36,2.84l33.74 0c1.89,-3.53 5.44,-2.14 11.92,-4.85 2.21,-0.93 4.2,-1.18 6.23,-2.21 8.91,-4.58 15.81,-7.78 23.3,-14.53 7.4,-6.66 20.04,-13.89 29.98,-16.79 2.41,-0.7 4.54,-0.99 6.68,-1.75 8.9,-3.17 22.53,-2.69 31.79,-1.84 6.27,0.58 8.8,1.81 14.01,2.92 5.07,1.09 8.33,2.63 13.44,3.43 12.52,1.94 18.96,2.39 31.24,0.36 10.08,-1.67 6.85,-1.69 13.61,-3.3 8.74,-2.08 18.09,-7.73 25.34,-13 12.61,-9.15 21.2,-21.44 28.45,-35.24 2.78,-5.27 6.54,-10.42 10.59,-14.78 2.54,-2.73 5.6,-6 8.68,-8.25l9.66 -7.27c5.37,-3.61 17.13,-9.5 23.45,-10.87 10.13,-2.19 10.84,-2.39 21.91,-3.46 4.53,-0.44 9.89,-2.02 14.42,-3.02 5.16,-1.15 18.87,-7.59 23.09,-10.74 1.06,-0.78 1.57,-0.91 2.47,-1.48l7.18 -5.76c4.95,-4.32 10.55,-9.79 14.4,-15.47 0.76,-1.12 0.98,-1.88 1.69,-2.81 7.21,-9.52 12.81,-25.05 14.06,-36.78 2.39,-22.48 5.88,-33.98 17.37,-50.68 1.46,-2.12 2,-2.87 3.71,-4.78 0.78,-0.86 1.24,-1.18 1.9,-2.08l6.22 -6.71c3.46,-3.39 7.93,-6.31 11.95,-8.96 5.89,-3.86 13.07,-7.37 18.94,-11.42 1.3,-0.89 1.15,-0.87 2.23,-1.74 1.2,-0.97 1.62,-0.98 2.65,-1.82 4.78,-3.84 8.74,-8.04 12.52,-12.88 0.7,-0.89 1.1,-0.99 1.96,-2.02 3.4,-4.1 5.68,-8.7 8.53,-13.38 1.94,-3.19 6.24,-14.55 7,-18.35 0.48,-2.35 0.92,-4.39 1.57,-6.87 3.46,-13.4 1,-32.44 -3.49,-45.1 -5.13,-14.5 -4.61,-31.58 -1.52,-45.54 0.55,-2.49 0.7,-4.53 1.64,-6.83 0.93,-2.3 1.4,-4.02 2.18,-6.26 1.43,-4.07 3.73,-7.48 5.49,-11.41 2.32,-5.19 6.88,-10.45 10.56,-14.84 19.7,-23.47 25.65,-57.19 15.8,-86.13 -2.16,-6.33 -5.75,-14.43 -9.79,-19.57l-5.31 -7.63c-4.86,-6.07 -6.78,-7.52 -10.7,-14.67 -1.02,-1.85 -2.35,-3.81 -3.06,-5.41l-2.67 -5.76c-0.98,-2.34 -0.99,-3.92 -2.12,-6.35 -2.13,-4.6 -3.92,-16.4 -4.26,-21.75 -0.96,-15.31 3.01,-29.79 7.17,-44.24 1.83,-6.33 2.06,-24.58 0.4,-31.32 -5.04,-20.45 -11.3,-35.18 -26.77,-49.92 -0.8,-0.76 -1.13,-1.27 -2.01,-1.96 -4.02,-3.15 -7.87,-6.97 -12.72,-9.18l-7.87 -4.57c-1.25,-0.86 -1.59,-0.88 -2.88,-1.6 -1.84,-1.01 -2.92,-2.03 -5.16,-3.29 -6.09,-3.4 -13.14,-10.67 -17.85,-16 -1.39,-1.57 -2.81,-3.45 -3.92,-5.02 -3.75,-5.28 -10.15,-15.47 -11.86,-21.98 -0.66,-2.48 -1.38,-4.11 -2.11,-6.34 -4.37,-13.48 -2.27,-33.88 -11.39,-48.34 -1.91,-3.03 -3.02,-6.89 -5.95,-10.95 -3.7,-5.14 -7.28,-9.9 -11.62,-14.28 -1.69,-1.71 -2.87,-2.24 -4.54,-3.92 -2.97,-2.98 -6.32,-5.08 -9.59,-7.34 -4.6,-3.17 -11.01,-6.98 -16.77,-8.61 -2.76,-0.78 -3.15,-1.67 -6.16,-2.3 -5.12,-1.08 -8.43,-2.41 -13.9,-3 -11.77,-1.27 -11.28,-1.18 -21.99,-3.4 -6.71,-1.39 -23.41,-9.19 -28.79,-14.01 -1.58,-1.42 -3.03,-2.21 -4.7,-3.75 -3.09,-2.86 -6.12,-4.88 -8.62,-8.31 -1.11,-1.52 -2.42,-2.86 -3.96,-4.49l-5.19 -7.74c-0.75,-1.41 -0.93,-1.34 -1.82,-2.67 -4.63,-6.96 -7.57,-14.39 -13.13,-20.71 -4.53,-5.15 -9.54,-10.44 -15.1,-14.75 -4.74,-3.67 -19.71,-11.68 -25.27,-13.07 -7.05,-1.76 -4.29,-1.64 -13.56,-3.33 -11.66,-2.12 -19.2,-1.91 -30.77,0.09 -10.54,1.82 -18.28,5.52 -27.27,6.37 -19.52,1.86 -39.31,-0.44 -56.06,-10.82l-20 -14.34c-3.09,-2.5 -6.96,-4.6 -10.45,-6.46l-5.54 -2.89c-2.63,-1.48 -15.61,-4.82 -16.23,-5.18 -1.05,-0.63 -0.23,-0.21 -1.11,-0.92 -0.08,-0.06 -0.19,-0.17 -0.27,-0.23 -0.08,-0.06 -0.21,-0.16 -0.29,-0.21 -0.04,-0.03 -0.87,-0.5 -0.9,-0.52l-34.51 0 -1.03 0.76c-2.73,2.2 -13.71,3.9 -22.99,8.94 -1.49,0.8 -3.68,2.06 -5.35,3.09 -2.46,1.52 -8.3,5.13 -10.04,6.88 -8.2,8.22 -21.21,14.75 -31.85,18.41 -2.38,0.82 -4.38,0.97 -6.75,1.74 -9.07,2.9 -20.84,2.77 -30.32,1.98 -13.59,-1.14 -21.71,-6.44 -41.99,-8.26 -9.51,-0.85 -27.28,2.77 -35.62,5.79 -1.21,0.44 -1.96,1.05 -2.96,1.53 -7.94,3.8 -8.08,3.31 -16.05,8.86 -3.75,2.61 -11,8.52 -13.62,11.75 -3.07,3.79 -5.58,5.19 -9.35,11.58 -1.19,2.03 -1.89,2.91 -3.22,5.2 -2.87,4.98 -4.61,8.93 -7.74,13.17l-8.79 11.11c-10.23,11.57 -28.62,22.91 -42.53,25.64 -5.4,1.06 -8.57,2.11 -14.2,2.64 -7.84,0.72 -13.95,1.64 -21.28,3.69 -4.23,1.18 -13.24,5.28 -17.31,7.6l-8.05 4.85c-4.83,3.45 -15.63,13.75 -18.91,18.41 -2.22,3.15 -8.29,12.1 -9.65,15.76 -0.86,2.3 -1.83,3.8 -2.58,5.9 -1.46,4.04 -2.85,7.95 -3.72,12.61 -0.51,2.7 -1.24,4.32 -1.7,6.87 -0.44,2.43 -0.32,5.21 -0.63,7.68 -1.4,11.03 -0.58,4.91 -2.65,14.37 -2.38,10.8 -7.3,20.07 -13.19,28.6l-11.73 13.66c-1.72,1.46 -2.76,2.15 -4.58,3.88 -5.22,4.93 -10.57,6.96 -14.92,9.95 -1.81,1.25 -3.8,1.88 -5.51,2.97 -12.18,7.78 -6.36,4 -16.75,12.61 -1.22,1.01 -0.91,0.46 -2.07,1.9 -0.73,0.92 -0.3,0.58 -1.14,1.37l-6.81 7.61c-0.65,0.86 -1,1.59 -1.53,2.46l-4.91 7.52c-0.62,1.07 -0.88,1.86 -1.49,3 -2.52,4.69 -2.11,4.84 -3.91,8.52 -1.03,2.1 -1.18,4.08 -1.98,6.5 -5.36,16.41 -5.19,33.83 -0.19,50.63 9.37,31.53 5.21,59.59 -14.23,85.73 -0.99,1.33 -1.31,1.26 -2.14,2.33 -3.61,4.66 -9.04,11.86 -11.69,17.18 -2.44,4.89 -5.55,13.1 -6.82,18.56 -0.23,0.96 -0.4,2.24 -0.73,3.29 -0.72,2.27 -0.11,1.65 -2.16,1.86z"/>
   </g>
   <g>
    <g>
     <path class="fil1" d="M4001.22 40.86c-114.68,29.5 -226.81,54.97 -338.88,80.42 -130.61,29.67 -261.24,59.34 -395.26,95.24 -26.01,6.97 -61.28,24.28 -85.85,63.13 -17.61,27.86 -29.87,66.88 -29.65,121.16l1.11 262.97c0.31,72.96 22.09,117.38 51.98,145.66 30.04,28.37 68.82,41.07 102.31,50.04 108.43,29.04 221.11,57.27 332.73,85.21 117.85,29.5 234.56,58.72 343.31,88.16l0.65 0.21c3.77,1.34 6.84,2.12 9.49,2.54 2.66,0.42 5.08,0.52 7.46,0.52 2.51,0 5.05,-0.18 7.96,-0.64 2.91,-0.46 6.33,-1.28 10.61,-2.56l0.24 -0.07c108.75,-29.44 225.44,-58.66 343.26,-88.15 111.63,-27.95 224.34,-56.17 332.78,-85.22 33.52,-8.97 72.32,-21.67 102.3,-50.03 29.9,-28.28 51.7,-72.71 51.99,-145.67l1.11 -262.97c0.23,-54.28 -12.03,-93.3 -29.65,-121.16 -24.57,-38.85 -59.84,-56.16 -85.85,-63.13 -134.02,-35.9 -264.66,-65.58 -395.28,-95.24 -112.08,-25.46 -224.2,-50.92 -338.89,-80.42zm-342.66 63.6c112.6,-25.57 225.22,-51.16 339.12,-80.47l0.99 -0.24c1.89,-0.56 3.55,-0.84 6.69,0.39 113.69,29.25 226.13,54.79 338.52,80.32 131.13,29.78 262.27,59.57 395.95,95.38 29.06,7.78 68.47,27.14 95.98,70.64 19.18,30.34 32.53,72.41 32.29,130.39l-1.11 262.97c-0.33,78.5 -24.38,126.88 -57.4,158.1 -32.91,31.13 -74.16,44.72 -109.67,54.22 -108.14,28.96 -221.12,57.26 -333.04,85.27 -117.54,29.43 -233.97,58.58 -342.96,88.08 -4.8,1.42 -8.89,2.38 -12.65,2.98 -3.81,0.61 -7.23,0.82 -10.66,0.83 -3.2,0.01 -6.47,-0.14 -10.16,-0.71 -3.57,-0.57 -7.53,-1.55 -12.11,-3.15 -108.93,-29.5 -225.31,-58.64 -342.83,-88.04 -111.89,-28.01 -224.85,-56.29 -332.99,-85.26 -35.51,-9.51 -76.79,-23.09 -109.67,-54.19 -33.01,-31.24 -57.06,-79.63 -57.4,-158.13l-1.11 -262.97c-0.24,-57.98 13.11,-100.05 32.29,-130.39 27.51,-43.5 66.92,-62.86 95.98,-70.64 133.69,-35.81 264.81,-65.61 395.93,-95.38z"/>
     <path class="fil0" d="M4153.65 291.58c0,0 -0.66,4.1 -7.78,5.18 -7.14,1.08 -22.27,-1.08 -33.08,-2.37 -5.2,-0.63 -9.7,-0.95 -13.23,0.01 2.65,-6.4 6.3,-15.12 10.7,-22.36 7.1,-11.71 16.12,-20.54 19.58,-19.19 3.46,1.34 6.33,2.49 19,1.92 12.67,-0.58 12.87,0.76 18.81,-0.58 5.95,-1.34 11.33,-3.84 11.33,-5.95 0,-2.11 0.76,-11.53 -0.77,-13.44 -1.53,-1.92 -4.22,-2.49 -7.49,-5.76 -3.26,-3.27 -9.01,-14.97 -7.1,-18.81 1.92,-3.83 11.33,-13.05 12.48,-17.46 1.15,-4.42 -4.99,-7.68 -8.26,-6.33 -3.26,1.34 -9.79,6.91 -13.82,5.37 -4.03,-1.54 -11.52,-11.33 -16.89,-10.55 -5.38,0.76 -8.64,4.8 -11.14,5.95 -2.49,1.15 -4.98,-3.64 -8.64,-3.27 -3.64,0.39 -3.83,6.15 -5.95,8.84 -2.11,2.69 -6.91,2.69 -19,4.61 -12.09,1.92 -22.27,4.42 -29.94,4.42 -7.68,0 -17.47,-2.11 -38.39,0.58 -20.93,2.68 -74.29,1.15 -108.27,-1.54 -33.97,-2.69 -63.92,-4.99 -74.28,-0.58 -10.37,4.42 -19.01,12.67 -19.01,31.1 0,18.43 1.54,46.27 -2.3,62.77 -3.83,16.51 -10.17,23.23 -11.32,27.45 -1.15,4.23 4.61,-3.07 4.03,1.15 -0.58,4.23 0.19,3.84 -3.08,8.26 -3.26,4.41 -4.03,14.58 -4.8,18.24 -0.76,3.64 4.42,-1.93 4.99,-3.65 0.58,-1.73 3.07,9.6 3.07,13.24 0,3.65 2.88,-2.68 3.27,-7.86 0.38,-5.19 3.26,5.18 3.26,7.67 0,2.49 2.5,-2.88 1.73,-7.49 -0.76,-4.61 2.11,-6.91 2.11,-6.91 0,0 1.15,1.15 2.11,3.64 0.95,2.5 1.92,-9.21 1.15,-16.31 -0.77,-7.11 2.68,-2.88 3.27,-4.81 0.58,-1.92 1.53,-10.55 -0.96,-16.89 -2.5,-6.33 -2.3,-12.86 -2.3,-20.15 0,-7.3 0,-10.37 0,-10.37 0,0 7.1,13.62 10.75,23.22 3.64,9.6 1.53,17.28 0.58,19 -0.96,1.73 -8.45,9.99 -8.45,14.59 0,4.61 -0.39,26.3 -2.5,43.76 -2.1,17.46 -4.41,24.96 -3.26,25.72 1.02,0.69 1.44,1.82 1.11,3.81l-0.11 0.07c-1.3,0.87 -2.17,1.74 -3.47,-0.86 -1.3,-2.61 -1.74,-2.39 -2.17,-0.66 -0.43,1.74 -0.65,2.82 -2.38,2.61 -1.74,-0.22 -3.69,-0.44 -3.69,-0.44l-2.6 0.44c0,0 0.22,0.86 -0.66,2.82 -0.86,1.96 3.26,0.44 5.21,0.86 1.96,0.44 2.82,-0.43 4.78,1.09 1.96,1.52 3.91,0.21 3.91,0.21 0,0 1.73,-0.43 2.82,0.44 1.08,0.87 2.82,0.22 4.34,0 1.52,-0.22 2.82,-0.44 2.82,-0.44 0,0 0.22,0 1.31,0 1.08,0 0,0 1.95,0 1.96,0 1.09,0 2.61,0 1.52,0 1.08,0.22 2.6,-0.21 1.52,-0.44 0.22,-1.09 3.04,-0.22 2.83,0.86 2.61,1.3 4.56,-0.22 1.96,-1.52 3.69,-0.87 4.79,-0.44 1.08,0.44 1.95,0.44 1.95,0.44l1.96 0.65 2.17 -1.08 1.52 0.22 1.52 0.86c0,0 0.22,1.09 1.74,0 1.52,-1.08 2.38,-1.73 2.38,-1.73 0,0 0.22,-0.44 1.31,-0.44 1.08,0 1.95,0 1.95,0 0,0 0,-0.22 1.31,0.22 1.3,0.43 3.26,0.65 3.26,0.65 0,0 0,0.87 1.52,0 1.52,-0.86 4.56,-1.3 4.56,-1.3 0,0 2.17,-1.52 3.47,-1.52 1.3,0 3.26,-0.22 5.21,0.44 1.95,0.65 3.04,0 4.34,-0.44 1.3,-0.44 2.38,-0.44 2.38,-0.44l1.52 0.87c0,0 1.09,0.43 2.17,0.43 1.08,0 0.87,0 2.17,0 1.3,0 0.44,0.22 1.52,0 1.08,-0.21 1.08,-0.43 2.82,-0.43 1.74,0 2.39,-0.22 3.91,-0.66 1.52,-0.44 1.95,-0.44 3.47,-0.44 1.52,0 1.3,-0.65 2.6,0 1.3,0.66 2.6,1.09 3.69,1.09 1.08,0 1.95,0 1.95,0l1.96 -0.44 1.3 -0.22 1.96 0 2.39 0.66c0,0 0.65,-1.09 2.16,0.22 1.53,1.3 3.69,0.21 3.69,0.21l3.26 -0.43c0,0 1.09,0.43 2.17,0.43 1.08,0 0.86,0 1.96,0 1.08,0 1.52,-0.21 1.52,-0.21l1.74 0c0,0 0.22,-0.22 1.74,0 1.52,0.21 1.52,0.21 2.6,0.21 1.08,0 0.22,0 2.6,-0.21 2.39,-0.22 3.05,-0.22 3.05,-0.22 0,0 1.08,-0.22 2.16,0.22 1.09,0.43 1.3,0.65 3.04,0.21 1.74,-0.43 4.78,-0.65 4.78,-0.65l1.74 0 1.31 0c0,0 2.16,0.22 3.46,0.22 1.31,0 1.09,0.43 2.39,0 1.3,-0.44 1.96,-0.66 1.96,-0.66l2.38 0c0,0 0.66,-0.22 2.83,-0.22 2.16,0 2.82,0 3.9,0 1.08,0 0.22,0.66 2.39,0 2.16,-0.65 2.38,-1.08 3.68,-1.08 1.31,0 2.61,-0.22 3.91,-0.22 1.3,0 1.52,-0.22 3.26,-0.22 1.74,0 5.21,0 5.21,0 0,0 2.6,-0.65 5.42,0.22 2.83,0.87 4.78,1.74 6.3,1.08 1.52,-0.65 3.26,-1.74 4.12,-0.65 0.86,1.08 3.26,-0.44 3.26,-0.44 0,0 0.86,-0.86 2.82,-0.66 1.96,0.22 1.74,-1.08 3.04,0.44 1.31,1.52 4.35,1.3 5.21,2.82 0.87,1.53 2.61,0.44 3.69,0.44 1.08,0 2.6,-1.3 4.12,0.44 1.52,1.74 2.83,0.86 2.83,0.86 0,0 3.47,-3.04 3.68,-1.3 0.22,1.74 3.05,-0.65 3.05,-0.65 0,0 3.68,-1.96 4.78,-1.09 1.08,0.87 3.46,0 3.46,0l5.65 -0.43c0,0 3.26,0.86 4.34,0.86 1.09,0 3.26,-0.22 3.26,-0.22l3.04 -0.44 3.05 0.22 2.82 1.09 3.69 -0.22c0,0 -0.22,-0.22 1.73,-0.44 1.96,-0.22 4.13,-0.86 5.21,-0.22 1.09,0.66 1.3,0.22 4.35,-0.44 3.04,-0.65 3.68,-1.3 4.99,0 1.3,1.31 1.73,0.44 2.82,-0.43 1.08,-0.87 3.26,0 3.26,0l2.6 -0.87c0,0 1.96,-1.96 3.26,-0.86 1.3,1.08 2.82,0 2.82,0 0,0 4.79,-0.87 6.3,0.65 1.52,1.52 3.46,0.44 3.46,0.44 0,0 3.69,0.87 5.43,1.52 1.74,0.66 2.6,1.08 4.34,0.22 1.74,-0.86 3.91,-1.08 5.21,-0.44 1.3,0.66 4.78,1.09 4.78,1.09l2.61 0 1.3 -0.22 1.96 0c0,0 3.47,1.74 4.34,0.43 0.86,-1.3 3.69,-1.3 3.69,-1.3 0,0 1.08,1.09 2.6,0.22 1.52,-0.86 6.08,-0.86 7.39,-0.86 1.3,0 1.95,0.22 3.68,-0.66 1.74,-0.86 5.65,-0.86 7.82,-0.86 2.16,0 3.26,0.21 5.42,0 2.17,-0.22 3.04,-0.22 3.04,-0.22 0,0 2.61,0 4.57,0 1.95,0 0,0 2.82,0 2.82,0 3.47,0 6.29,0 2.82,0 6.29,-0.44 4.56,-0.87 -1.74,-0.43 -4.99,-0.86 -6.08,-0.86 -1.08,0 -1.52,-2.39 -2.82,-1.96 -1.31,0.44 -2.39,1.3 -3.47,-0.44 -1.09,-1.74 -1.09,-2.6 -1.74,-1.52 -0.66,1.09 -1.74,1.74 -2.82,1.3 -1.09,-0.43 -1.96,-0.43 -1.96,-0.43 0,0 -3.26,2.16 -4.13,0.43 -0.86,-1.74 -2.38,-1.95 -2.38,-1.95 0,0 -1.52,2.16 -2.61,1.08 -1.08,-1.08 -2.6,-0.87 -2.6,-0.87 0,0 -0.44,1.74 -2.39,1.31 -0.77,-0.18 -1.62,-0.25 -2.35,-0.27 -0.36,-5.05 -1.42,-14.06 -2.17,-28.17 -1.08,-20.32 4.11,-30.7 5.62,-36.96 1.52,-6.27 -1.29,-17.51 -1.08,-26.38 0.22,-8.87 1.52,-8.87 1.74,-15.13 0.21,-6.26 -0.44,-2.81 2.15,-4.54 2.6,-1.73 9.95,-5.19 11.89,-9.95 1.95,-4.76 1.51,-4.76 1.51,-4.76 0,0 -4.1,-3.03 -9.94,0.65 -5.84,3.68 -8,1.3 -8,1.3 0,0 -4.11,-6.26 -10.81,-5.84 -6.7,0.44 -7.78,6.48 -9.94,6.7 -2.16,0.22 -2.38,-4.32 -7.78,-4.76 -5.4,-0.43 -7.35,0.22 -7.35,2.38 0,2.15 4.1,9.07 6.48,10.59 2.37,1.51 7.78,1.07 6.92,2.81zm-312.55 116.32c-0.02,-7.08 0.12,-23.73 1.76,-32.2 2.11,-10.94 9.98,-27.26 9.98,-24.96 0,2.3 -3.46,10.94 -2.68,14.78 0.76,3.84 6.91,16.89 7.67,24.76 0.51,5.17 0.43,12.42 0.32,16.78 -0.59,-0.17 -1.22,-0.15 -1.82,0.3 -1.73,1.3 -1.52,2.6 -2.82,0.43 -1.3,-2.16 -3.47,-2.38 -3.69,-4.34 -0.21,-1.96 -0.86,1.96 -2.38,4.12 -1.52,2.17 -3.69,-1.08 -3.69,-1.08l-2.64 1.41zm34.74 -3.6c-1.64,-3.24 -3.51,-8.63 -4.77,-17.46 -2.69,-19 -2.49,-42.04 -1.73,-43.58 0.76,-1.54 3.27,-1.15 3.46,-3.07 0.19,-1.93 1.73,-7.11 4.42,-7.11 2.68,0 2.68,0.58 2.68,0.58l0.77 6.33c0,0 7.67,0.96 7.67,-1.15 0,-2.1 0.39,-7.29 0.39,-7.29 0,0 6.52,-4.03 10.18,-5.18 3.64,-1.15 6.14,-2.69 6.14,-2.69 0,0 0.77,-2.49 5.96,1.15 5.18,3.64 14.2,5.37 17.46,5.57 3.27,0.19 3.64,0.38 3.64,0.38 0,0 -3.64,1.35 4.81,3.84 8.45,2.49 24,2.69 41.07,-1.92 17.09,-4.61 21.89,-4.99 24.38,-5.76 2.49,-0.77 21.12,-3.27 22.65,1.34 1.54,4.61 0.58,17.28 0.39,23.61 -0.19,6.33 0.19,8.64 0.39,14.4 0.19,5.76 -1.73,5.76 -2.5,11.72 -0.67,5.17 -1.48,15.29 -2.94,20.74 -0.55,0.44 -1.12,0.82 -1.63,1.01 -1.74,0.66 -3.47,-5.21 -3.69,-3.47 -0.22,1.74 -0.22,4.78 -0.87,6.51 -0.65,1.74 -3.26,-0.86 -4.34,-2.6 -1.08,-1.74 -1.3,1.52 -1.52,3.69 -0.22,2.16 -2.6,0 -3.47,-1.74 -0.86,-1.74 -0.44,2.16 -1.74,3.26 -1.3,1.08 -3.69,-1.74 -4.34,-3.91 -0.66,-2.17 -1.08,1.52 -1.52,3.04 -0.44,1.52 -1.74,-0.43 -3.04,-1.96 -1.31,-1.52 -0.22,3.26 -1.74,4.13 -1.52,0.86 -4.78,0.44 -5.65,-1.08 -0.86,-1.52 -0.22,-4.99 -1.3,-1.96 -1.08,3.04 -2.38,3.69 -4.56,3.69 -2.17,0 -3.47,-1.74 -3.47,-1.74 0,0 0.22,1.08 -0.86,2.16 -1.09,1.09 -4.35,-1.52 -4.35,-1.52 0,0 -0.86,2.39 -3.04,1.96 -2.17,-0.44 -2.82,-2.39 -4.12,-2.6 -1.31,-0.22 -2.17,1.52 -3.26,1.52 -1.09,0 -0.44,-2.39 -1.52,-1.52 -1.09,0.86 -1.09,1.3 -3.05,0.86 -1.95,-0.44 -3.04,-2.17 -3.26,-0.86 -0.21,1.3 0.44,1.3 -1.74,1.3 -2.16,0 -3.9,-1.74 -4.12,-0.66 -0.22,1.09 -1.52,1.09 -2.82,0.22 -1.3,-0.86 -3.91,-0.22 -3.91,-0.22 0,0 -1.96,1.96 -2.6,-0.22 -0.66,-2.16 -3.04,-0.22 -4.78,1.09 -1.74,1.3 -2.17,-1.74 -2.17,-1.74 0,0 -0.86,1.52 -2.82,1.74 -1.96,0.22 -3.26,-1.31 -4.13,-2.61 -0.86,-1.3 -4.56,3.04 -4.56,3.04 0,0 -5.64,-1.52 -7.17,-2.6 -1.52,-1.08 -2.16,0 -3.46,1.52 -1.31,1.52 -3.69,-0.66 -4.99,-1.74 -1.3,-1.08 -3.04,1.3 -4.13,1.74 -1.08,0.44 -3.04,-2.38 -4.34,-1.08 -1.3,1.3 -3.47,1.3 -3.69,-1.09 -0.22,-2.38 0.22,-4.34 0.22,-4.34 0,0 -1.74,5.65 -4.12,6.51 -2.39,0.87 -0.87,-2.6 -2.39,-5.21 -1.52,-2.6 -2.17,3.69 -4.99,5.21 -2.82,1.52 -4.99,-2.82 -4.99,-2.82 0,0 -0.13,0.27 -0.47,0.63zm162.28 -4.63c-0.43,-8.13 -1.52,-20.56 -1.77,-25.32 -0.39,-7.49 2.5,-10.55 5.18,-14.58 2.69,-4.03 1.73,-7.87 2.88,-4.8 1.15,3.07 1.73,12.86 2.3,24.56 0.58,11.72 -0.38,14.02 1.35,18.43 0.35,0.91 0.66,1.81 0.92,2.65l-1.61 2.4c-1.3,1.96 -2.17,-0.86 -2.17,-0.86 0,0 -2.38,-0.87 -2.38,0.22 0,1.08 -1.52,-2.83 -1.52,-4.99 0,-2.17 -2.39,0 -2.61,1.52 -0.05,0.34 -0.27,0.59 -0.58,0.77zm25.32 4.78c-1.14,-2.4 -2.56,-6.24 -2.9,-10.89 -0.58,-8.06 -4.61,-20.35 -0.95,-26.49 3.64,-6.15 4.98,-7.49 5.18,-15.75 0.19,-8.25 2.3,-15.74 4.98,-25.15 2.69,-9.4 4.42,-10.55 4.42,-9.01 0,1.53 -0.58,4.41 -1.15,9.21 -0.58,4.8 1.73,3.64 10.18,-3.84 3.31,-2.94 5.65,-6.08 7.4,-9.01 -0.69,11.04 -0.55,25.24 -3.09,32.55 -3.46,9.94 -5.41,23.78 -6.06,35.67 -0.65,11.88 -1.73,17.72 -3.89,20.31 -1.26,1.52 -4.06,3.25 -5.89,4.56 -1.18,-0.03 -2.23,-0.35 -2.79,-1.19 -1.3,-1.96 -2.17,-0.87 -2.17,-0.87l-2.17 0.22 -1.09 -0.31zm23.44 1.61c0.12,-5.63 0.68,-19.44 3.22,-26.06 3.24,-8.43 6.48,-14.05 9.73,-22.7 3.24,-8.65 7.57,-11.88 9.29,-11.88 1.73,0 3.03,1.51 0,7.13 -3.03,5.62 -6.7,5.84 -4.76,12.54 1.95,6.7 3.67,12.97 4.54,22.05 0.86,9.07 2.81,11.89 4.11,13.4 0.35,0.41 0.71,0.92 1.06,1.47 -0.73,0.47 -2.47,1.33 -5.03,1.01 -3.47,-0.44 -3.69,-0.22 -3.69,0.87 0,1.08 -3.26,3.04 -3.26,3.04 0,0 -1.74,-3.04 -3.04,-1.3 -1.3,1.74 -1.3,1.08 -3.47,0.86 -2.16,-0.22 -2.16,-1.3 -3.47,-0.22 -1.3,1.09 -4.12,0.66 -4.12,0.66l-1.08 -0.87 -0.02 0zm32.18 -4.85c-1.29,-7.61 -3.84,-25.19 -1.51,-34.18 3.03,-11.68 8.43,-15.57 9.73,-14.49 1.3,1.08 1.73,1.51 1.73,1.51 0,0 2.6,2.38 3.89,0.44 1.3,-1.95 2.16,-3.89 4.76,-0.86 2.6,3.03 6.92,9.51 6.27,14.05 -0.66,4.55 3.24,10.17 4.32,13.4 1.08,3.25 1.52,8 1.52,16.65 0,4.21 -0.16,6.94 -0.32,8.62 -0.22,0 -0.33,0.01 -3.5,0.59 -4.78,0.86 -3.68,-1.52 -4.56,-0.22 -0.86,1.3 -2.6,-3.91 -3.26,-2.17 -0.65,1.74 1.08,1.52 -1.08,2.61 -2.17,1.08 -3.04,-3.47 -3.91,-2.39 -0.86,1.08 -1.74,1.52 -1.74,1.52 0,0 -2.16,0.44 -2.82,-2.82 -0.66,-3.26 -1.08,-0.44 -1.74,0.66 -0.65,1.08 -2.6,-0.22 -2.6,-0.22 0,0 0.43,-4.13 -0.87,-2.17 -1.3,1.96 -3.04,0.66 -3.04,0.66l-0.86 -1.52 -0.41 0.36zm38.49 5.18c-0.85,-4.44 -2.61,-14.82 -1.95,-21.64 0.86,-8.86 2.37,-13.83 0.65,-19.45 -1.73,-5.62 -1.73,-8 -0.22,-8.65 1.51,-0.66 4.11,-0.66 3.25,1.29 -0.86,1.95 0.43,10.59 3.46,19.03 3.03,8.43 3.67,9.29 3.46,14.91 -0.16,4.28 0.43,11.57 0.71,14.79 -0.18,0.02 -0.36,0.03 -0.55,0.03 -1.3,0 -3.04,-2.17 -3.04,-2.17 0,0 -0.44,1.3 -2.17,1.74 -1.74,0.44 -1.08,-0.44 -2.17,-0.44 -0.59,0 -0.97,0.26 -1.42,0.56z"/>
     <path class="fil1" d="M3492.2 677.1l-54.18 -175.33 0 175.33 -43.67 0 0 -214.98 81.13 0 38.73 128.65 40.96 -128.65 81.24 0 0 214.98 -52.35 0 0 -175.33 -55.8 175.33 -36.07 0zm306.63 -214.98l69.19 214.98 -55.97 0 -13.73 -44.48 -71.68 0 -14.07 44.48 -45.62 0 71.19 -214.98 60.69 0zm-59.75 130.86l47.01 0 -23.28 -75.32 -23.73 75.32zm314.85 -83.59l-44.35 14.29c-6,-16.98 -18.68,-25.47 -38.02,-25.47 -20.66,0 -31.01,6.45 -31.01,19.34 0,5.16 1.96,9.51 5.79,13.06 3.89,3.54 12.56,6.66 26.17,9.4 22.68,4.51 39.3,9.02 49.85,13.53 10.55,4.47 19.44,11.72 26.73,21.76 7.23,9.99 10.83,21.17 10.83,33.52 0,19.39 -7.72,36.15 -23.22,50.28 -15.51,14.13 -38.45,21.23 -68.85,21.23 -22.85,0 -42.24,-5 -58.3,-15.04 -16,-10.05 -26.56,-24.93 -31.67,-44.7l48.34 -10.53c5.45,19.99 20.51,29.98 45.24,29.98 11.94,0 20.84,-2.2 26.68,-6.66 5.83,-4.46 8.78,-9.78 8.78,-15.95 0,-6.34 -2.67,-11.18 -8.01,-14.66 -5.28,-3.45 -15.56,-6.66 -30.73,-9.73 -28.34,-5.64 -48.51,-13.32 -60.56,-23.15 -12.06,-9.77 -18.07,-24.12 -18.07,-43.03 0,-19.06 7.17,-35.19 21.56,-48.29 14.4,-13.11 33.95,-19.66 58.57,-19.66 43.68,0 71.75,16.81 84.25,50.5zm48.08 -47.27l103.42 0c18.51,0 32.46,2.19 41.79,6.6 9.28,4.46 17.01,10.74 23.07,18.96 6.05,8.16 9.1,18.16 9.1,29.92 0,23.9 -13.34,39.8 -40.01,47.81 15.45,3.34 27.06,10 34.79,19.99 7.72,9.94 11.57,20.79 11.57,32.56 0,16.06 -6.29,29.92 -18.9,41.63 -12.56,11.66 -33.01,17.51 -61.35,17.51l-103.48 0 0 -214.98zm52.01 38.03l0 47.06 39.24 0c14.4,0 23.46,-2.74 27.17,-8.27 3.73,-5.48 5.62,-10.74 5.62,-15.8 0,-5.48 -1.56,-10.16 -4.61,-14.08 -3.12,-3.97 -6.45,-6.44 -10.19,-7.41 -3.66,-1.02 -10.88,-1.51 -21.72,-1.51l-35.51 0zm0 85.74l0 51.24 39.8 0c13.61,0 23.22,-2.3 28.84,-6.87 5.61,-4.57 8.39,-10.96 8.39,-19.12 0,-6.88 -2.72,-12.79 -8.11,-17.78 -5.39,-4.99 -14.34,-7.47 -26.86,-7.47l-42.07 0zm225.42 -123.77l0 214.98 -52 0 0 -214.98 52 0zm162.3 0l69.19 214.98 -55.97 0 -13.72 -44.48 -71.69 0 -14.06 44.48 -45.62 0 71.19 -214.98 60.68 0zm-59.74 130.86l47.01 0 -23.29 -75.32 -23.72 75.32z"/>
    </g>
    <path class="fil1" d="M3420.51 753.28l6.98 0.77c-0.45,4.19 -2.07,7.63 -4.85,10.34 -2.79,2.7 -6.44,4.05 -10.98,4.06 -3.81,-0.01 -6.92,-0.96 -9.29,-2.88 -2.38,-1.92 -4.22,-4.53 -5.5,-7.81 -1.29,-3.29 -1.93,-6.91 -1.93,-10.87 0,-6.36 1.51,-11.56 4.53,-15.55 3.02,-3.99 7.18,-5.99 12.46,-5.99 4.15,0 7.61,1.27 10.37,3.83 2.75,2.55 4.49,6.21 5.2,10.96l-6.98 0.74c-1.29,-6.31 -4.13,-9.46 -8.52,-9.46 -2.82,0 -5.01,1.3 -6.57,3.92 -1.56,2.63 -2.34,6.43 -2.34,11.41 0,5.07 0.84,8.89 2.51,11.47 1.68,2.59 3.89,3.88 6.65,3.88 2.2,0 4.08,-0.86 5.63,-2.6 1.55,-1.74 2.43,-3.8 2.64,-6.23zm45.38 15.17c-5.55,-0.01 -9.88,-2.08 -12.97,-6.24 -3.09,-4.18 -4.64,-9.32 -4.64,-15.45 0,-6.09 1.64,-11.17 4.92,-15.26 3.3,-4.1 7.63,-6.15 13.02,-6.15 5.44,0 9.73,2.05 12.88,6.15 3.16,4.09 4.74,9.21 4.74,15.36 0,6.44 -1.64,11.67 -4.91,15.64 -3.28,3.97 -7.62,5.95 -13.04,5.96zm0.07 -6.08c2.71,0 5,-1.11 6.89,-3.37 1.88,-2.24 2.82,-6.31 2.82,-12.22 0,-4.8 -0.78,-8.56 -2.33,-11.28 -1.55,-2.73 -3.96,-4.08 -7.22,-4.08 -6.46,0 -9.69,5.19 -9.69,15.59 0,5.03 0.82,8.87 2.47,11.47 1.64,2.6 3.99,3.89 7.06,3.89zm73.5 5.43l-7.32 0 -15.87 -26.71c-0.24,-0.41 -0.64,-1.07 -1.19,-1.99 -0.25,-0.42 -0.63,-1.06 -1.13,-1.94l0 30.63 -6.07 0 0 -41.81 8.33 0 14.64 24.62c0.11,0.21 1,1.71 2.66,4.51l0 -29.13 5.94 0 0 41.81zm21.84 -10.08l7.32 -1.56c0.88,4.14 4.25,6.21 10.11,6.21 2.67,0 4.73,-0.52 6.18,-1.59 1.44,-1.05 2.15,-2.37 2.15,-3.95 0,-1.13 -0.33,-2.19 -0.97,-3.17 -0.67,-0.97 -2.07,-1.73 -4.21,-2.27l-7.98 -2.09c-2.74,-0.7 -4.76,-1.53 -6.07,-2.42 -1.3,-0.91 -2.36,-2.19 -3.15,-3.85 -0.78,-1.65 -1.18,-3.42 -1.18,-5.29 0,-3.73 1.39,-6.74 4.17,-9 2.78,-2.26 6.32,-3.39 10.65,-3.39 3.6,0 6.81,0.79 9.64,2.36 2.83,1.57 4.64,3.79 5.41,6.68l-7.18 1.78c-1.09,-3.17 -3.66,-4.75 -7.71,-4.75 -2.35,0 -4.14,0.48 -5.37,1.46 -1.23,0.98 -1.85,2.22 -1.85,3.74 0,2.38 1.93,4.06 5.81,5.01l7.11 1.78c4.31,1.08 7.2,2.68 8.67,4.8 1.47,2.11 2.2,4.45 2.2,7 0,4.1 -1.55,7.34 -4.64,9.69 -3.1,2.36 -7.1,3.53 -12.02,3.54 -4.14,-0.01 -7.77,-0.87 -10.88,-2.61 -3.12,-1.74 -5.19,-4.43 -6.21,-8.11zm84.41 10.08l-27.16 0 0 -41.81 26.9 0 0 6.23 -19.37 0 0 11.33 15.56 0 0 6.07 -15.56 0 0 11.7 19.64 0 0 6.49zm56.13 0l-7.97 0 -6.49 -17.19 -10.6 0 0 17.19 -7.53 0 0 -41.81 18.13 0c5.04,0 8.76,1.14 11.12,3.42 2.37,2.27 3.55,5.22 3.55,8.84 0,5.36 -2.51,9.06 -7.55,11.08l7.34 18.48zm-25.07 -23.22l9.38 0c2.71,0 4.74,-0.57 6.07,-1.71 1.32,-1.14 1.99,-2.72 1.99,-4.72 0,-1.85 -0.65,-3.33 -1.96,-4.46 -1.31,-1.14 -3.14,-1.71 -5.49,-1.71l-9.99 0 0 12.59zm65.27 23.22l-7.66 0 -12.89 -41.81 7.95 0 9.59 32.03 9.8 -32.03 6.28 0 -13.08 41.81zm65.38 0l-8.05 0 -3.35 -9.95 -16.08 0 -3.27 9.95 -6.43 0 13.87 -41.81 9.27 0 14.04 41.81zm-13.41 -15.98l-6.1 -18.67 -6.1 18.67 12.19 0zm46.67 15.98l-8.08 0 0 -35.34 -11.12 0 0 -6.46 30.32 0 0 6.46 -11.12 0 0 35.34zm40.27 0l-7.53 0 0 -41.81 7.53 0 0 41.81zm41.63 0.65c-5.55,-0.01 -9.88,-2.08 -12.97,-6.24 -3.09,-4.18 -4.64,-9.32 -4.64,-15.45 0,-6.09 1.64,-11.17 4.92,-15.26 3.3,-4.1 7.63,-6.15 13.02,-6.15 5.44,0 9.73,2.05 12.88,6.15 3.16,4.09 4.74,9.21 4.74,15.36 0,6.44 -1.64,11.67 -4.91,15.64 -3.28,3.97 -7.62,5.95 -13.04,5.96zm0.07 -6.08c2.71,0 5,-1.11 6.89,-3.37 1.88,-2.24 2.82,-6.31 2.82,-12.22 0,-4.8 -0.78,-8.56 -2.33,-11.28 -1.55,-2.73 -3.96,-4.08 -7.22,-4.08 -6.46,0 -9.69,5.19 -9.69,15.59 0,5.03 0.82,8.87 2.47,11.47 1.64,2.6 3.99,3.89 7.06,3.89zm73.5 5.43l-7.32 0 -15.87 -26.71c-0.24,-0.41 -0.64,-1.07 -1.19,-1.99 -0.25,-0.42 -0.63,-1.06 -1.13,-1.94l0 30.63 -6.07 0 0 -41.81 8.33 0 14.64 24.62c0.11,0.21 1,1.71 2.66,4.51l0 -29.13 5.94 0 0 41.81zm92.1 -41.81l-11.18 41.81 -7.9 0 -8.33 -30.75 -7.57 30.75 -7.75 0 -11.42 -41.81 7.99 0 8.09 30.48 7.53 -30.48 7.63 0 8.33 30.48 7.92 -30.48 6.65 0zm29.77 41.81l-7.53 0 0 -41.81 7.53 0 0 41.81zm40.84 0l-8.08 0 0 -35.34 -11.12 0 0 -6.46 30.32 0 0 6.46 -11.12 0 0 35.34zm63.77 0l-7.54 0 0 -18.16 -15.96 0 0 18.16 -7.53 0 0 -41.81 7.53 0 0 17.19 15.96 0 0 -17.19 7.54 0 0 41.81zm41.62 0.65c-5.55,-0.01 -9.88,-2.08 -12.97,-6.24 -3.09,-4.18 -4.64,-9.32 -4.64,-15.45 0,-6.09 1.64,-11.17 4.92,-15.26 3.3,-4.1 7.63,-6.15 13.02,-6.15 5.44,0 9.73,2.05 12.88,6.15 3.16,4.09 4.74,9.21 4.74,15.36 0,6.44 -1.64,11.67 -4.91,15.64 -3.28,3.97 -7.62,5.95 -13.04,5.96zm0.07 -6.08c2.71,0 5,-1.11 6.89,-3.37 1.88,-2.24 2.82,-6.31 2.82,-12.22 0,-4.8 -0.78,-8.56 -2.33,-11.28 -1.55,-2.73 -3.96,-4.08 -7.22,-4.08 -6.46,0 -9.69,5.19 -9.69,15.59 0,5.03 0.82,8.87 2.47,11.47 1.64,2.6 3.99,3.89 7.06,3.89zm70.63 -36.38l0 26.86c0,3.64 -0.41,6.43 -1.23,8.4 -0.82,1.96 -2.4,3.64 -4.73,5.06 -2.34,1.43 -5.2,2.12 -8.57,2.13 -3.41,-0.01 -6.21,-0.62 -8.4,-1.84 -2.2,-1.22 -3.78,-2.91 -4.74,-5.04 -0.96,-2.12 -1.45,-4.85 -1.45,-8.16l0 -27.41 7.69 0 0 26.86c0,3.68 0.76,6.1 2.31,7.25 1.54,1.16 3.34,1.74 5.37,1.74 2.35,0 4.23,-0.62 5.64,-1.87 1.41,-1.23 2.1,-3.6 2.1,-7.12l0 -26.86 5.99 0zm40.23 41.81l-8.08 0 0 -35.34 -11.12 0 0 -6.46 30.32 0 0 6.46 -11.12 0 0 35.34zm71.79 -14.53l6.98 0.77c-0.45,4.19 -2.07,7.63 -4.85,10.34 -2.79,2.7 -6.44,4.05 -10.98,4.06 -3.81,-0.01 -6.92,-0.96 -9.29,-2.88 -2.38,-1.92 -4.22,-4.53 -5.5,-7.81 -1.29,-3.29 -1.93,-6.91 -1.93,-10.87 0,-6.36 1.51,-11.56 4.53,-15.55 3.02,-3.99 7.18,-5.99 12.46,-5.99 4.15,0 7.61,1.27 10.37,3.83 2.75,2.55 4.49,6.21 5.2,10.96l-6.98 0.74c-1.29,-6.31 -4.13,-9.46 -8.52,-9.46 -2.82,0 -5.01,1.3 -6.57,3.92 -1.56,2.63 -2.34,6.43 -2.34,11.41 0,5.07 0.84,8.89 2.51,11.47 1.68,2.59 3.89,3.88 6.65,3.88 2.2,0 4.08,-0.86 5.63,-2.6 1.55,-1.74 2.43,-3.8 2.64,-6.23zm45.38 15.17c-5.55,-0.01 -9.88,-2.08 -12.97,-6.24 -3.09,-4.18 -4.64,-9.32 -4.64,-15.45 0,-6.09 1.64,-11.17 4.92,-15.26 3.3,-4.1 7.63,-6.15 13.02,-6.15 5.44,0 9.73,2.05 12.88,6.15 3.16,4.09 4.74,9.21 4.74,15.36 0,6.44 -1.64,11.67 -4.91,15.64 -3.28,3.97 -7.62,5.95 -13.04,5.96zm0.07 -6.08c2.71,0 5,-1.11 6.89,-3.37 1.88,-2.24 2.82,-6.31 2.82,-12.22 0,-4.8 -0.78,-8.56 -2.33,-11.28 -1.55,-2.73 -3.96,-4.08 -7.22,-4.08 -6.46,0 -9.69,5.19 -9.69,15.59 0,5.03 0.82,8.87 2.47,11.47 1.64,2.6 3.99,3.89 7.06,3.89zm67.65 5.43l-25.72 0 0 -41.81 7.92 0 0 34.98 17.8 0 0 6.83zm22.36 0l0 -41.81 15.41 0c5.7,0 10.27,2.02 13.72,6.06 3.45,4.02 5.17,9 5.17,14.92 0,5.92 -1.78,10.88 -5.33,14.86 -3.54,3.98 -8.64,5.97 -15.25,5.97l-13.72 0zm7.74 -6.16l6.28 0c3.37,0 6.23,-1.27 8.58,-3.79 2.35,-2.53 3.52,-6.3 3.52,-11.31 0,-4.08 -1.03,-7.54 -3.08,-10.37 -2.06,-2.83 -4.77,-4.25 -8.13,-4.25l-7.18 0 0 29.72z"/>
   </g>
  </g>
 </g>
</svg>
