<?xml version="1.0" encoding="UTF-8"?>
<!DOCTYPE svg PUBLIC "-//W3C//DTD SVG 1.1//EN" "http://www.w3.org/Graphics/SVG/1.1/DTD/svg11.dtd">
<!-- Creator: CorelDRAW 2019 (64-Bit) -->
<svg xmlns="http://www.w3.org/2000/svg" xml:space="preserve" width="21.0261mm" height="12.492mm" version="1.1" style="shape-rendering:geometricPrecision; text-rendering:geometricPrecision; image-rendering:optimizeQuality; fill-rule:evenodd; clip-rule:evenodd"
viewBox="0 0 1986.15 1180.01"
 xmlns:xlink="http://www.w3.org/1999/xlink"
 xmlns:xodm="http://www.corel.com/coreldraw/odm/2003">
 <defs>
  <style type="text/css">
   <![CDATA[
    .fil0 {fill:#142142}
    .fil2 {fill:#DBAD6B}
    .fil3 {fill:#FEFEFE;fill-rule:nonzero}
    .fil1 {fill:white;fill-rule:nonzero}
   ]]>
  </style>
    <mask id="id0">
  <linearGradient id="id1" gradientUnits="userSpaceOnUse" x1="1635.54" y1="90.29" x2="1635.54" y2="1674.67">
   <stop offset="0" style="stop-opacity:1; stop-color:white"/>
   <stop offset="1" style="stop-opacity:0; stop-color:white"/>
  </linearGradient>
     <rect style="fill:url(#id1)" x="9.86" y="10" width="1966.43" height="1160.14"/>
    </mask>
 </defs>
 <g id="Capa_x0020_1">
  <metadata id="CorelCorpID_0Corel-Layer"/>
  <g id="_921592016">
   <path class="fil0" style="mask:url(#id0)" d="M991.44 10.37c-283.58,72.99 -556.82,125.06 -841.93,201.45 -53.86,14.42 -140.29,65.36 -139.63,220.7l1.28 301.26c0.74,173.55 104.98,212.51 184.07,233.7 254.72,68.25 531.29,132.77 774.46,198.61 9.8,3.48 16.29,4.07 22.71,4.05 6.82,-0.03 13.56,-0.89 24.1,-4.05 243.17,-65.84 519.73,-130.37 774.45,-198.61 79.09,-21.19 183.33,-60.14 184.07,-233.7l1.28 -301.26c0.65,-155.34 -85.77,-206.27 -139.63,-220.7 -285.12,-76.39 -558.35,-128.46 -841.94,-201.45 -1.77,-0.77 -1.91,-0.11 -3.27,0z"/>
   <path class="fil1" d="M992.92 20.17c-131.13,33.72 -259.56,62.9 -387.95,92.06 -149.62,33.98 -299.22,67.96 -452.91,109.14 -29.8,7.98 -70.18,27.81 -98.35,72.33 -20.19,31.92 -34.23,76.61 -33.97,138.78l1.28 301.26c0.35,83.6 25.32,134.49 59.56,166.88 34.35,32.49 78.81,47.02 117.2,57.31 124.09,33.25 253.33,65.6 381.3,97.64 134.89,33.76 268.47,67.22 393.16,100.97l0.74 0.23c4.36,1.55 7.86,2.45 10.84,2.91 3.09,0.49 5.85,0.6 8.55,0.6 2.87,-0.01 5.8,-0.21 9.13,-0.74 3.34,-0.53 7.26,-1.46 12.17,-2.93l0.27 -0.08c124.68,-33.75 258.24,-67.2 393.1,-100.96 128,-32.04 257.24,-64.4 381.35,-97.65 38.41,-10.29 82.86,-24.82 117.21,-57.31 34.24,-32.38 59.2,-83.28 59.55,-166.88l1.28 -301.26c0.26,-62.17 -13.78,-106.86 -33.97,-138.78 -28.17,-44.53 -68.55,-64.35 -98.35,-72.33 -153.69,-41.18 -303.31,-75.16 -452.92,-109.14 -128.43,-29.16 -256.89,-58.36 -388.06,-92.09l-0.2 0.03zm-392.28 72.81c128.87,-29.26 257.78,-58.56 388.36,-92.16l1.14 -0.26c2.13,-0.63 4.02,-0.99 7.67,0.43 130.34,33.53 259.03,62.77 387.69,91.99 150.31,34.14 300.62,68.28 453.7,109.29 33.3,8.92 78.43,31.08 109.95,80.91 21.98,34.75 37.26,82.95 36.99,149.38l-1.28 301.26c-0.38,89.93 -27.93,145.34 -65.74,181.1 -37.72,35.67 -84.95,51.21 -125.63,62.11 -124.1,33.24 -253.49,65.65 -381.65,97.73 -134.63,33.7 -267.95,67.09 -392.57,100.83 -5.58,1.67 -10.32,2.77 -14.67,3.46 -4.35,0.69 -8.26,0.94 -12.17,0.96 -3.71,0.01 -7.45,-0.16 -11.68,-0.83 -4.18,-0.66 -8.76,-1.79 -14.02,-3.64 -124.58,-33.73 -257.87,-67.11 -392.46,-100.79 -128.14,-32.08 -257.52,-64.48 -381.6,-97.72 -40.67,-10.9 -87.91,-26.43 -125.62,-62.11 -37.81,-35.76 -65.38,-91.17 -65.75,-181.1l-1.28 -301.26c-0.27,-66.43 15.01,-114.63 36.99,-149.38 31.52,-49.81 76.66,-71.99 109.95,-80.91 153.07,-41.02 303.38,-75.15 453.69,-109.29z"/>
   <g>
    <path class="fil2" d="M1167.67 307.35c0,0 -0.75,4.7 -8.92,5.94 -8.17,1.25 -25.51,-1.24 -37.89,-2.72 -5.96,-0.72 -11.12,-1.09 -15.17,0.02 3.04,-7.34 7.23,-17.32 12.26,-25.62 8.14,-13.41 18.48,-23.53 22.43,-21.99 3.96,1.54 7.25,2.86 21.76,2.2 14.52,-0.66 14.74,0.88 21.56,-0.66 6.82,-1.54 12.97,-4.4 12.97,-6.82 0,-2.42 0.89,-13.19 -0.88,-15.39 -1.76,-2.2 -4.84,-2.86 -8.58,-6.6 -3.73,-3.73 -10.33,-17.14 -8.13,-21.55 2.2,-4.4 12.98,-14.95 14.29,-20.02 1.32,-5.05 -5.71,-8.79 -9.46,-7.25 -3.74,1.54 -11.21,7.92 -15.83,6.16 -4.62,-1.76 -13.2,-12.97 -19.36,-12.09 -6.15,0.88 -9.89,5.5 -12.75,6.81 -2.85,1.32 -5.71,-4.18 -9.89,-3.73 -4.18,0.43 -4.4,7.04 -6.82,10.11 -2.42,3.08 -7.92,3.08 -21.77,5.28 -13.85,2.2 -25.5,5.06 -34.3,5.06 -8.8,0 -20.02,-2.42 -43.98,0.65 -23.97,3.08 -85.11,1.32 -124.03,-1.76 -38.93,-3.08 -73.23,-5.71 -85.11,-0.66 -11.87,5.06 -21.76,14.52 -21.76,35.63 0,21.11 1.76,52.99 -2.64,71.9 -4.39,18.91 -11.65,26.61 -12.97,31.45 -1.32,4.84 5.28,-3.51 4.62,1.32 -0.66,4.84 0.22,4.4 -3.52,9.46 -3.74,5.05 -4.62,16.71 -5.5,20.89 -0.88,4.18 5.06,-2.2 5.72,-4.18 0.65,-1.97 3.51,11 3.51,15.18 0,4.18 3.3,-3.08 3.74,-9.02 0.43,-5.93 3.74,5.94 3.74,8.79 0,2.86 2.85,-3.3 1.97,-8.58 -0.88,-5.27 2.42,-7.92 2.42,-7.92 0,0 1.32,1.32 2.42,4.18 1.11,2.85 2.2,-10.56 1.32,-18.69 -0.88,-8.14 3.08,-3.3 3.74,-5.5 0.65,-2.2 1.76,-12.1 -1.11,-19.36 -2.85,-7.25 -2.64,-14.74 -2.64,-23.09 0,-8.36 0,-11.87 0,-11.87 0,0 8.13,15.61 12.32,26.61 4.18,11 1.76,19.79 0.65,21.76 -1.1,1.98 -9.67,11.44 -9.67,16.72 0,5.27 -0.43,30.12 -2.86,50.13 -2.42,20.02 -5.05,28.59 -3.73,29.47 1.17,0.78 1.64,2.08 1.28,4.36l-0.13 0.09c-1.49,0.99 -2.48,1.99 -3.98,-0.99 -1.49,-2.98 -1.99,-2.74 -2.48,-0.75 -0.5,1.98 -0.75,3.23 -2.74,2.98 -1.98,-0.26 -4.22,-0.5 -4.22,-0.5l-2.98 0.5c0,0 0.25,0.99 -0.75,3.23 -1,2.24 3.73,0.5 5.97,0.99 2.24,0.5 3.23,-0.49 5.47,1.25 2.24,1.74 4.48,0.25 4.48,0.25 0,0 1.98,-0.49 3.23,0.5 1.25,0.99 3.23,0.25 4.98,0 1.74,-0.25 3.23,-0.5 3.23,-0.5 0,0 0.25,0 1.49,0 1.24,0 0,0 2.24,0 2.24,0 1.24,0 2.98,0 1.74,0 1.24,0.26 2.98,-0.25 1.74,-0.5 0.25,-1.25 3.48,-0.25 3.23,0.99 2.98,1.48 5.22,-0.26 2.24,-1.74 4.23,-0.99 5.47,-0.49 1.25,0.49 2.24,0.49 2.24,0.49l2.24 0.75 2.49 -1.24 1.74 0.25 1.74 0.99c0,0 0.25,1.25 1.99,0 1.74,-1.24 2.73,-1.98 2.73,-1.98 0,0 0.26,-0.5 1.49,-0.5 1.25,0 2.24,0 2.24,0 0,0 0,-0.25 1.49,0.25 1.49,0.5 3.73,0.75 3.73,0.75 0,0 0,1 1.74,0 1.75,-0.99 5.22,-1.49 5.22,-1.49 0,0 2.49,-1.74 3.99,-1.74 1.49,0 3.73,-0.25 5.97,0.5 2.23,0.75 3.48,0 4.97,-0.5 1.49,-0.5 2.74,-0.5 2.74,-0.5l1.74 1c0,0 1.25,0.49 2.48,0.49 1.25,0 1,0 2.49,0 1.49,0 0.49,0.26 1.74,0 1.25,-0.25 1.25,-0.49 3.23,-0.49 1.99,0 2.74,-0.26 4.48,-0.75 1.74,-0.5 2.24,-0.5 3.98,-0.5 1.75,0 1.49,-0.75 2.98,0 1.49,0.75 2.98,1.25 4.23,1.25 1.24,0 2.24,0 2.24,0l2.24 -0.5 1.49 -0.25 2.24 0 2.73 0.75c0,0 0.75,-1.25 2.49,0.25 1.74,1.49 4.22,0.25 4.22,0.25l3.73 -0.49c0,0 1.25,0.49 2.48,0.49 1.25,0 1,0 2.24,0 1.25,0 1.75,-0.25 1.75,-0.25l1.98 0c0,0 0.26,-0.25 1.99,0 1.74,0.25 1.74,0.25 2.98,0.25 1.24,0 0.25,0 2.98,-0.25 2.73,-0.25 3.48,-0.25 3.48,-0.25 0,0 1.25,-0.26 2.49,0.25 1.24,0.5 1.49,0.75 3.48,0.25 1.99,-0.49 5.47,-0.75 5.47,-0.75l1.99 0 1.49 0c0,0 2.48,0.26 3.98,0.26 1.49,0 1.25,0.49 2.74,0 1.49,-0.5 2.24,-0.75 2.24,-0.75l2.73 0c0,0 0.75,-0.26 3.24,-0.26 2.48,0 3.23,0 4.48,0 1.24,0 0.25,0.75 2.73,0 2.49,-0.75 2.74,-1.24 4.23,-1.24 1.49,0 2.98,-0.26 4.48,-0.26 1.49,0 1.74,-0.25 3.73,-0.25 1.98,0 5.97,0 5.97,0 0,0 2.98,-0.75 6.22,0.25 3.23,1 5.47,1.99 7.21,1.25 1.75,-0.75 3.73,-1.99 4.73,-0.75 0.99,1.25 3.72,-0.5 3.72,-0.5 0,0 1,-0.99 3.24,-0.75 2.24,0.26 1.98,-1.24 3.48,0.5 1.49,1.74 4.98,1.49 5.97,3.23 1,1.75 2.98,0.5 4.23,0.5 1.24,0 2.98,-1.49 4.72,0.5 1.74,1.98 3.23,0.99 3.23,0.99 0,0 3.99,-3.49 4.23,-1.49 0.25,1.99 3.48,-0.75 3.48,-0.75 0,0 4.23,-2.24 5.48,-1.25 1.24,1 3.98,0 3.98,0l6.47 -0.49c0,0 3.72,0.99 4.97,0.99 1.25,0 3.73,-0.25 3.73,-0.25l3.49 -0.5 3.48 0.25 3.23 1.25 4.23 -0.25c0,0 -0.25,-0.26 1.99,-0.5 2.24,-0.25 4.72,-0.99 5.97,-0.25 1.24,0.75 1.49,0.25 4.97,-0.5 3.49,-0.75 4.23,-1.49 5.72,0 1.49,1.49 1.98,0.5 3.23,-0.5 1.25,-0.99 3.73,0 3.73,0l2.98 -0.99c0,0 2.24,-2.24 3.73,-0.99 1.49,1.24 3.23,0 3.23,0 0,0 5.47,-1 7.22,0.75 1.74,1.74 3.98,0.49 3.98,0.49 0,0 4.22,1 6.22,1.75 1.99,0.75 2.98,1.24 4.98,0.25 1.98,-0.99 4.47,-1.25 5.96,-0.5 1.49,0.75 5.48,1.25 5.48,1.25l2.98 0 1.49 -0.25 2.24 0c0,0 3.98,1.98 4.97,0.49 0.99,-1.49 4.23,-1.49 4.23,-1.49 0,0 1.24,1.25 2.98,0.26 1.74,-1 6.96,-1 8.45,-1 1.49,0 2.24,0.26 4.22,-0.75 1.99,-0.99 6.47,-0.99 8.95,-0.99 2.48,0 3.73,0.25 6.22,0 2.49,-0.25 3.49,-0.25 3.49,-0.25 0,0 2.98,0 5.22,0 2.24,0 0,0 3.23,0 3.23,0 3.98,0 7.22,0 3.23,0 7.21,-0.5 5.22,-1 -1.99,-0.49 -5.72,-0.99 -6.97,-0.99 -1.24,0 -1.74,-2.74 -3.23,-2.24 -1.49,0.5 -2.73,1.49 -3.98,-0.5 -1.25,-1.98 -1.25,-2.98 -1.99,-1.74 -0.75,1.25 -1.98,1.99 -3.23,1.49 -1.25,-0.5 -2.24,-0.5 -2.24,-0.5 0,0 -3.73,2.49 -4.72,0.5 -1,-1.99 -2.74,-2.24 -2.74,-2.24 0,0 -1.74,2.48 -2.98,1.25 -1.24,-1.25 -2.98,-1 -2.98,-1 0,0 -0.49,1.99 -2.73,1.49 -0.89,-0.19 -1.86,-0.27 -2.7,-0.29 -0.42,-5.79 -1.63,-16.11 -2.49,-32.27 -1.24,-23.28 4.7,-35.17 6.44,-42.36 1.74,-7.18 -1.48,-20.05 -1.24,-30.21 0.25,-10.15 1.73,-10.15 1.98,-17.33 0.25,-7.19 -0.5,-3.22 2.47,-5.2 2.97,-1.98 11.39,-5.94 13.62,-11.39 2.23,-5.45 1.73,-5.45 1.73,-5.45 0,0 -4.7,-3.47 -11.39,0.75 -6.69,4.21 -9.16,1.48 -9.16,1.48 0,0 -4.7,-7.18 -12.38,-6.69 -7.67,0.5 -8.91,7.43 -11.39,7.68 -2.47,0.25 -2.72,-4.95 -8.91,-5.45 -6.2,-0.49 -8.43,0.26 -8.43,2.73 0,2.47 4.7,10.4 7.43,12.13 2.72,1.74 8.91,1.24 7.93,3.22zm-358.05 133.26c-0.03,-8.1 0.13,-27.18 2,-36.89 2.42,-12.53 11.44,-31.23 11.44,-28.58 0,2.64 -3.96,12.53 -3.08,16.93 0.88,4.4 7.92,19.36 8.79,28.37 0.58,5.93 0.49,14.24 0.37,19.23 -0.67,-0.2 -1.41,-0.18 -2.08,0.33 -1.99,1.49 -1.74,2.98 -3.23,0.49 -1.49,-2.48 -3.99,-2.73 -4.23,-4.97 -0.25,-2.24 -0.99,2.24 -2.74,4.72 -1.74,2.48 -4.22,-1.25 -4.22,-1.25l-3.02 1.62zm39.8 -4.12c-1.89,-3.71 -4.03,-9.89 -5.46,-20.02 -3.08,-21.76 -2.86,-48.16 -1.98,-49.91 0.88,-1.76 3.74,-1.32 3.96,-3.52 0.22,-2.19 1.98,-8.13 5.05,-8.13 3.08,0 3.08,0.66 3.08,0.66l0.89 7.25c0,0 8.79,1.11 8.79,-1.32 0,-2.42 0.43,-8.35 0.43,-8.35 0,0 7.48,-4.62 11.66,-5.94 4.18,-1.31 7.04,-3.08 7.04,-3.08 0,0 0.88,-2.85 6.82,1.32 5.93,4.18 16.27,6.16 20.01,6.38 3.74,0.22 4.18,0.44 4.18,0.44 0,0 -4.18,1.54 5.5,4.39 9.67,2.86 27.48,3.08 47.05,-2.2 19.57,-5.27 25.07,-5.71 27.93,-6.59 2.86,-0.88 24.19,-3.74 25.95,1.54 1.76,5.28 0.66,19.79 0.44,27.04 -0.23,7.26 0.22,9.9 0.43,16.49 0.22,6.6 -1.97,6.6 -2.86,13.42 -0.77,5.92 -1.69,17.51 -3.37,23.76 -0.62,0.51 -1.28,0.94 -1.86,1.16 -1.99,0.75 -3.99,-5.97 -4.23,-3.98 -0.25,1.99 -0.25,5.47 -0.99,7.46 -0.75,1.98 -3.73,-1 -4.98,-2.98 -1.25,-1.99 -1.49,1.74 -1.74,4.22 -0.25,2.49 -2.98,0 -3.98,-1.98 -1,-1.99 -0.5,2.48 -1.99,3.73 -1.49,1.24 -4.23,-1.99 -4.98,-4.48 -0.75,-2.48 -1.24,1.74 -1.74,3.48 -0.5,1.75 -1.99,-0.49 -3.49,-2.24 -1.48,-1.74 -0.25,3.73 -1.98,4.73 -1.74,0.99 -5.47,0.49 -6.47,-1.25 -0.99,-1.74 -0.25,-5.71 -1.49,-2.24 -1.24,3.49 -2.73,4.23 -5.22,4.23 -2.48,0 -3.98,-1.99 -3.98,-1.99 0,0 0.26,1.25 -0.99,2.48 -1.25,1.25 -4.98,-1.74 -4.98,-1.74 0,0 -0.99,2.74 -3.48,2.24 -2.49,-0.5 -3.24,-2.74 -4.73,-2.98 -1.48,-0.25 -2.48,1.74 -3.72,1.74 -1.25,0 -0.5,-2.73 -1.75,-1.74 -1.24,0.99 -1.24,1.49 -3.48,0.99 -2.24,-0.49 -3.49,-2.48 -3.73,-0.99 -0.26,1.49 0.49,1.49 -1.99,1.49 -2.48,0 -4.48,-1.99 -4.72,-0.75 -0.25,1.25 -1.74,1.25 -3.23,0.25 -1.49,-0.99 -4.48,-0.25 -4.48,-0.25 0,0 -2.24,2.24 -2.98,-0.25 -0.75,-2.49 -3.49,-0.26 -5.47,1.24 -1.99,1.49 -2.49,-1.98 -2.49,-1.98 0,0 -0.99,1.74 -3.23,1.98 -2.24,0.26 -3.73,-1.49 -4.72,-2.98 -1,-1.49 -5.22,3.49 -5.22,3.49 0,0 -6.47,-1.74 -8.21,-2.98 -1.74,-1.25 -2.48,0 -3.98,1.74 -1.49,1.75 -4.23,-0.75 -5.72,-1.98 -1.49,-1.25 -3.48,1.49 -4.72,1.98 -1.25,0.5 -3.49,-2.73 -4.98,-1.24 -1.49,1.49 -3.98,1.49 -4.22,-1.25 -0.26,-2.74 0.25,-4.97 0.25,-4.97 0,0 -1.98,6.46 -4.72,7.45 -2.74,1 -0.99,-2.98 -2.74,-5.96 -1.74,-2.98 -2.48,4.22 -5.71,5.96 -3.24,1.75 -5.72,-3.23 -5.72,-3.23 0,0 -0.15,0.31 -0.53,0.73zm185.89 -5.31c-0.48,-9.31 -1.74,-23.55 -2.02,-29 -0.43,-8.58 2.86,-12.09 5.94,-16.71 3.08,-4.62 1.98,-9.02 3.3,-5.5 1.32,3.51 1.98,14.74 2.64,28.15 0.65,13.41 -0.44,16.05 1.54,21.11 0.41,1.04 0.76,2.06 1.06,3.02l-1.84 2.76c-1.49,2.24 -2.48,-0.99 -2.48,-0.99 0,0 -2.74,-0.99 -2.74,0.25 0,1.25 -1.74,-3.23 -1.74,-5.71 0,-2.49 -2.74,0 -2.98,1.74 -0.06,0.39 -0.31,0.67 -0.67,0.89zm29.01 5.47c-1.3,-2.75 -2.94,-7.13 -3.32,-12.48 -0.66,-9.24 -5.28,-23.3 -1.11,-30.34 4.18,-7.04 5.72,-8.58 5.94,-18.03 0.22,-9.46 2.64,-18.03 5.71,-28.81 3.08,-10.78 5.06,-12.09 5.06,-10.33 0,1.76 -0.66,5.05 -1.32,10.55 -0.66,5.5 1.97,4.18 11.66,-4.39 3.79,-3.36 6.47,-6.96 8.47,-10.33 -0.79,12.65 -0.63,28.91 -3.54,37.28 -3.96,11.39 -6.19,27.24 -6.93,40.86 -0.75,13.62 -1.98,20.31 -4.46,23.28 -1.45,1.74 -4.66,3.72 -6.74,5.22 -1.36,-0.04 -2.56,-0.41 -3.21,-1.37 -1.49,-2.24 -2.48,-1 -2.48,-1l-2.48 0.26 -1.26 -0.36zm26.86 1.85c0.14,-6.46 0.77,-22.27 3.68,-29.86 3.71,-9.65 7.42,-16.1 11.14,-26.01 3.72,-9.9 8.67,-13.62 10.66,-13.62 1.98,0 3.47,1.74 0,8.18 -3.47,6.43 -7.68,6.68 -5.45,14.36 2.23,7.68 4.21,14.86 5.2,25.26 0.98,10.41 3.21,13.62 4.7,15.36 0.4,0.46 0.82,1.06 1.22,1.68 -0.84,0.54 -2.83,1.53 -5.77,1.16 -3.98,-0.5 -4.22,-0.25 -4.22,0.99 0,1.25 -3.73,3.49 -3.73,3.49 0,0 -1.99,-3.49 -3.49,-1.49 -1.49,1.99 -1.49,1.25 -3.98,0.99 -2.48,-0.25 -2.48,-1.49 -3.98,-0.25 -1.49,1.25 -4.73,0.75 -4.73,0.75l-1.24 -0.99 -0.02 0zm36.86 -5.55c-1.48,-8.71 -4.39,-28.86 -1.73,-39.16 3.47,-13.38 9.66,-17.83 11.15,-16.59 1.48,1.24 1.98,1.73 1.98,1.73 0,0 2.97,2.72 4.46,0.5 1.48,-2.23 2.47,-4.46 5.45,-0.99 2.97,3.47 7.92,10.89 7.18,16.1 -0.75,5.2 3.71,11.64 4.95,15.35 1.24,3.72 1.74,9.16 1.74,19.07 0,4.83 -0.18,7.94 -0.36,9.88 -0.26,0 -0.38,0 -4.01,0.66 -5.47,0.99 -4.23,-1.74 -5.22,-0.25 -0.99,1.49 -2.98,-4.48 -3.73,-2.49 -0.75,1.99 1.25,1.75 -1.24,2.98 -2.49,1.25 -3.49,-3.98 -4.48,-2.73 -1,1.24 -1.99,1.74 -1.99,1.74 0,0 -2.48,0.5 -3.23,-3.23 -0.75,-3.73 -1.25,-0.5 -1.99,0.75 -0.75,1.24 -2.98,-0.26 -2.98,-0.26 0,0 0.5,-4.72 -0.99,-2.48 -1.49,2.24 -3.49,0.75 -3.49,0.75l-0.99 -1.74 -0.46 0.42zm44.09 5.94c-0.97,-5.09 -2.99,-16.99 -2.23,-24.8 0.98,-10.15 2.72,-15.85 0.74,-22.29 -1.98,-6.43 -1.98,-9.16 -0.25,-9.9 1.74,-0.75 4.7,-0.75 3.71,1.48 -0.99,2.23 0.5,12.14 3.97,21.79 3.47,9.66 4.2,10.66 3.96,17.09 -0.19,4.9 0.48,13.24 0.82,16.96 -0.21,0.02 -0.42,0.03 -0.63,0.03 -1.49,0 -3.49,-2.49 -3.49,-2.49 0,0 -0.49,1.49 -2.48,1.99 -1.99,0.5 -1.25,-0.5 -2.48,-0.5 -0.67,0 -1.12,0.29 -1.63,0.64z"/>
    <g>
     <path class="fil3" d="M409.99 749l-62.06 -200.84 0 200.84 -50.03 0 0 -246.26 92.93 0 44.37 147.38 46.92 -147.38 93.06 0 0 246.26 -59.96 0 0 -200.84 -63.91 200.84 -41.32 0zm351.23 -246.26l79.25 246.26 -64.1 0 -15.73 -50.95 -82.12 0 -16.1 50.95 -52.27 0 81.55 -246.26 69.5 0zm-68.43 149.9l53.85 0 -26.67 -86.27 -27.19 86.27zm360.64 -95.75l-50.79 16.37c-6.89,-19.45 -21.4,-29.17 -43.55,-29.17 -23.68,0 -35.53,7.39 -35.53,22.15 0,5.9 2.23,10.89 6.62,14.95 4.46,4.06 14.4,7.63 29.99,10.77 25.96,5.17 45,10.33 57.09,15.5 12.1,5.11 22.28,13.42 30.61,24.93 8.28,11.44 12.41,24.24 12.41,38.39 0,22.22 -8.84,41.42 -26.61,57.6 -17.75,16.18 -44.04,24.3 -78.87,24.3 -26.17,0 -48.37,-5.72 -66.77,-17.23 -18.33,-11.51 -30.43,-28.56 -36.28,-51.2l55.37 -12.06c6.24,22.9 23.49,34.34 51.82,34.34 13.69,0 23.88,-2.52 30.56,-7.63 6.69,-5.1 10.06,-11.19 10.06,-18.27 0,-7.26 -3.06,-12.8 -9.17,-16.8 -6.05,-3.94 -17.82,-7.62 -35.2,-11.14 -32.47,-6.46 -55.57,-15.26 -69.39,-26.52 -13.81,-11.2 -20.69,-27.63 -20.69,-49.29 0,-21.85 8.21,-40.31 24.69,-55.32 16.5,-15.02 38.91,-22.53 67.1,-22.53 50.05,0 82.18,19.26 96.51,57.85zm55.09 -54.15l118.47 0c21.19,0 37.17,2.52 47.86,7.58 10.63,5.1 19.48,12.3 26.42,21.72 6.93,9.35 10.44,20.8 10.44,34.27 0,27.38 -15.27,45.6 -45.83,54.77 17.69,3.82 30.99,11.45 39.85,22.89 8.84,11.38 13.23,23.81 13.23,37.29 0,18.4 -7.2,34.27 -21.64,47.68 -14.39,13.36 -37.82,20.06 -70.28,20.06l-118.53 0 0 -246.26zm59.59 43.57l0 53.91 44.94 0c16.49,0 26.86,-3.14 31.12,-9.47 4.27,-6.28 6.43,-12.31 6.43,-18.1 0,-6.27 -1.78,-11.63 -5.28,-16.12 -3.56,-4.55 -7.39,-7.39 -11.65,-8.49 -4.2,-1.17 -12.48,-1.73 -24.89,-1.73l-40.67 0zm0 98.21l0 58.7 45.58 0c15.6,0 26.61,-2.64 33.03,-7.87 6.43,-5.23 9.62,-12.55 9.62,-21.91 0,-7.88 -3.13,-14.65 -9.29,-20.38 -6.17,-5.71 -16.43,-8.55 -30.75,-8.55l-48.18 0zm258.21 -141.78l0 246.26 -59.58 0 0 -246.26 59.58 0zm185.91 0l79.24 246.26 -64.1 0 -15.73 -50.95 -82.11 0 -16.11 50.95 -52.27 0 81.55 -246.26 69.51 0zm-68.44 149.9l53.85 0 -26.67 -86.27 -27.19 86.27z"/>
     <path class="fil1" d="M327.8 836.28l8 0.88c-0.52,4.79 -2.37,8.75 -5.57,11.84 -3.18,3.1 -7.37,4.64 -12.56,4.66 -4.37,-0.02 -7.93,-1.11 -10.65,-3.31 -2.73,-2.19 -4.83,-5.19 -6.3,-8.95 -1.46,-3.76 -2.2,-7.92 -2.2,-12.45 0,-7.29 1.73,-13.22 5.19,-17.8 3.46,-4.58 8.23,-6.87 14.27,-6.87 4.75,0 8.7,1.46 11.86,4.39 3.15,2.93 5.13,7.1 5.96,12.55l-8 0.85c-1.47,-7.24 -4.72,-10.83 -9.76,-10.83 -3.22,0 -5.73,1.49 -7.52,4.5 -1.78,3 -2.68,7.37 -2.68,13.06 0,5.81 0.96,10.17 2.88,13.13 1.91,2.96 4.45,4.44 7.61,4.44 2.52,0 4.67,-0.99 6.45,-2.98 1.77,-1.99 2.78,-4.36 3.01,-7.12zm51.97 17.37c-6.36,-0.02 -11.31,-2.4 -14.85,-7.16 -3.53,-4.78 -5.31,-10.66 -5.31,-17.68 0,-6.97 1.88,-12.8 5.64,-17.48 3.77,-4.69 8.74,-7.05 14.91,-7.05 6.22,0 11.15,2.35 14.75,7.05 3.62,4.68 5.42,10.54 5.42,17.58 0,7.39 -1.88,13.37 -5.62,17.91 -3.76,4.55 -8.73,6.81 -14.93,6.83zm0.08 -6.96c3.12,0 5.73,-1.28 7.89,-3.85 2.15,-2.57 3.23,-7.23 3.23,-13.99 0,-5.5 -0.9,-9.81 -2.66,-12.92 -1.78,-3.13 -4.54,-4.68 -8.27,-4.68 -7.4,0 -11.09,5.95 -11.09,17.84 0,5.77 0.94,10.15 2.83,13.14 1.88,2.98 4.57,4.46 8.08,4.46zm84.16 6.22l-8.38 0 -18.17 -30.59c-0.27,-0.46 -0.73,-1.22 -1.36,-2.28 -0.29,-0.46 -0.72,-1.21 -1.29,-2.21l0 35.07 -6.94 0 0 -47.87 9.52 0 16.78 28.2c0.13,0.24 1.15,1.95 3.05,5.16l0 -33.35 6.8 0 0 47.87zm25 -11.54l8.38 -1.79c1,4.74 4.86,7.11 11.57,7.11 3.05,0 5.41,-0.6 7.07,-1.81 1.65,-1.21 2.47,-2.72 2.47,-4.52 0,-1.31 -0.37,-2.52 -1.11,-3.63 -0.76,-1.11 -2.35,-1.99 -4.81,-2.62l-9.15 -2.39c-3.14,-0.81 -5.44,-1.75 -6.94,-2.78 -1.49,-1.04 -2.7,-2.51 -3.6,-4.41 -0.9,-1.89 -1.35,-3.91 -1.35,-6.06 0,-4.28 1.59,-7.71 4.77,-10.3 3.19,-2.59 7.25,-3.88 12.2,-3.88 4.12,0 7.79,0.92 11.03,2.71 3.23,1.79 5.31,4.35 6.2,7.65l-8.22 2.03c-1.26,-3.63 -4.2,-5.43 -8.83,-5.43 -2.69,0 -4.74,0.55 -6.16,1.67 -1.41,1.12 -2.12,2.55 -2.12,4.29 0,2.73 2.22,4.65 6.66,5.74l8.14 2.04c4.93,1.23 8.23,3.06 9.92,5.48 1.69,2.43 2.53,5.1 2.53,8.02 0,4.69 -1.78,8.41 -5.32,11.1 -3.54,2.7 -8.13,4.04 -13.77,4.06 -4.73,-0.02 -8.89,-1.01 -12.46,-2.99 -3.57,-1.99 -5.93,-5.08 -7.09,-9.29zm96.64 11.54l-31.1 0 0 -47.87 30.78 0 0 7.12 -22.17 0 0 12.98 17.82 0 0 6.94 -17.82 0 0 13.39 22.48 0 0 7.43zm64.26 0l-9.12 0 -7.43 -19.68 -12.14 0 0 19.68 -8.61 0 0 -47.87 20.75 0c5.77,0 10.02,1.3 12.72,3.91 2.72,2.6 4.07,5.98 4.07,10.12 0,6.14 -2.87,10.38 -8.62,12.7l8.39 21.15zm-28.7 -26.59l10.74 0c3.1,0 5.42,-0.64 6.94,-1.96 1.52,-1.3 2.28,-3.11 2.28,-5.39 0,-2.11 -0.75,-3.81 -2.24,-5.1 -1.5,-1.3 -3.59,-1.96 -6.29,-1.96l-11.43 0 0 14.41zm74.74 26.59l-8.78 0 -14.76 -47.87 9.12 0 10.98 36.68 11.23 -36.68 7.19 0 -14.97 47.87zm74.86 0l-9.22 0 -3.83 -11.4 -18.41 0 -3.75 11.4 -7.36 0 15.88 -47.87 10.62 0 16.07 47.87zm-15.36 -18.31l-6.98 -21.37 -6.97 21.37 13.95 0zm53.45 18.31l-9.26 0 0 -40.48 -12.73 0 0 -7.4 34.71 0 0 7.4 -12.72 0 0 40.48zm46.11 0l-8.61 0 0 -47.87 8.61 0 0 47.87zm47.67 0.75c-6.36,-0.02 -11.31,-2.4 -14.85,-7.16 -3.53,-4.78 -5.31,-10.66 -5.31,-17.68 0,-6.97 1.88,-12.8 5.64,-17.48 3.77,-4.69 8.74,-7.05 14.91,-7.05 6.22,0 11.15,2.35 14.75,7.05 3.62,4.68 5.42,10.54 5.42,17.58 0,7.39 -1.88,13.37 -5.62,17.91 -3.76,4.55 -8.73,6.81 -14.93,6.83zm0.08 -6.96c3.12,0 5.73,-1.28 7.89,-3.85 2.15,-2.57 3.23,-7.23 3.23,-13.99 0,-5.5 -0.9,-9.81 -2.66,-12.92 -1.78,-3.13 -4.54,-4.68 -8.27,-4.68 -7.4,0 -11.09,5.95 -11.09,17.84 0,5.77 0.94,10.15 2.83,13.14 1.88,2.98 4.57,4.46 8.08,4.46zm84.16 6.22l-8.38 0 -18.17 -30.59c-0.27,-0.46 -0.73,-1.22 -1.36,-2.28 -0.29,-0.46 -0.72,-1.21 -1.29,-2.21l0 35.07 -6.94 0 0 -47.87 9.52 0 16.78 28.2c0.13,0.24 1.15,1.95 3.05,5.16l0 -33.35 6.8 0 0 47.87zm105.45 -47.87l-12.8 47.87 -9.05 0 -9.54 -35.21 -8.65 35.21 -8.88 0 -13.07 -47.87 9.14 0 9.27 34.89 8.61 -34.89 8.74 0 9.54 34.89 9.08 -34.89 7.61 0zm34.09 47.87l-8.61 0 0 -47.87 8.61 0 0 47.87zm46.76 0l-9.26 0 0 -40.48 -12.73 0 0 -7.4 34.71 0 0 7.4 -12.72 0 0 40.48zm73.01 0l-8.62 0 0 -20.79 -18.28 0 0 20.79 -8.61 0 0 -47.87 8.61 0 0 19.68 18.28 0 0 -19.68 8.62 0 0 47.87zm47.66 0.75c-6.36,-0.02 -11.31,-2.4 -14.85,-7.16 -3.53,-4.78 -5.31,-10.66 -5.31,-17.68 0,-6.97 1.88,-12.8 5.64,-17.48 3.77,-4.69 8.74,-7.05 14.91,-7.05 6.22,0 11.15,2.35 14.75,7.05 3.62,4.68 5.42,10.54 5.42,17.58 0,7.39 -1.88,13.37 -5.62,17.91 -3.76,4.55 -8.73,6.81 -14.93,6.83zm0.08 -6.96c3.12,0 5.73,-1.28 7.89,-3.85 2.15,-2.57 3.23,-7.23 3.23,-13.99 0,-5.5 -0.9,-9.81 -2.66,-12.92 -1.78,-3.13 -4.54,-4.68 -8.27,-4.68 -7.4,0 -11.09,5.95 -11.09,17.84 0,5.77 0.94,10.15 2.83,13.14 1.88,2.98 4.57,4.46 8.08,4.46zm80.87 -41.66l0 30.76c0,4.17 -0.46,7.36 -1.41,9.61 -0.94,2.24 -2.74,4.18 -5.41,5.81 -2.68,1.62 -5.95,2.43 -9.81,2.45 -3.9,-0.02 -7.11,-0.71 -9.63,-2.11 -2.51,-1.41 -4.32,-3.33 -5.42,-5.77 -1.11,-2.45 -1.65,-5.57 -1.65,-9.35l0 -31.39 8.81 0 0 30.76c0,4.21 0.87,6.98 2.64,8.29 1.76,1.33 3.82,1.98 6.15,1.98 2.7,0 4.84,-0.7 6.46,-2.13 1.62,-1.42 2.42,-4.13 2.42,-8.15l0 -30.76 6.84 0zm46.08 47.87l-9.26 0 0 -40.48 -12.73 0 0 -7.4 34.71 0 0 7.4 -12.72 0 0 40.48zm82.2 -16.63l8 0.88c-0.52,4.79 -2.37,8.75 -5.57,11.84 -3.18,3.1 -7.37,4.64 -12.56,4.66 -4.37,-0.02 -7.93,-1.11 -10.65,-3.31 -2.73,-2.19 -4.83,-5.19 -6.3,-8.95 -1.46,-3.76 -2.2,-7.92 -2.2,-12.45 0,-7.29 1.73,-13.22 5.19,-17.8 3.46,-4.58 8.23,-6.87 14.27,-6.87 4.75,0 8.7,1.46 11.86,4.39 3.15,2.93 5.13,7.1 5.96,12.55l-8 0.85c-1.47,-7.24 -4.72,-10.83 -9.76,-10.83 -3.22,0 -5.73,1.49 -7.52,4.5 -1.78,3 -2.68,7.37 -2.68,13.06 0,5.81 0.96,10.17 2.88,13.13 1.91,2.96 4.45,4.44 7.61,4.44 2.52,0 4.67,-0.99 6.45,-2.98 1.77,-1.99 2.78,-4.36 3.01,-7.12zm51.97 17.37c-6.36,-0.02 -11.31,-2.4 -14.85,-7.16 -3.53,-4.78 -5.31,-10.66 -5.31,-17.68 0,-6.97 1.88,-12.8 5.64,-17.48 3.77,-4.69 8.74,-7.05 14.91,-7.05 6.22,0 11.15,2.35 14.75,7.05 3.62,4.68 5.42,10.54 5.42,17.58 0,7.39 -1.88,13.37 -5.62,17.91 -3.76,4.55 -8.73,6.81 -14.93,6.83zm0.08 -6.96c3.12,0 5.73,-1.28 7.89,-3.85 2.15,-2.57 3.23,-7.23 3.23,-13.99 0,-5.5 -0.9,-9.81 -2.66,-12.92 -1.78,-3.13 -4.54,-4.68 -8.27,-4.68 -7.4,0 -11.09,5.95 -11.09,17.84 0,5.77 0.94,10.15 2.83,13.14 1.88,2.98 4.57,4.46 8.08,4.46zm77.46 6.22l-29.44 0 0 -47.87 9.07 0 0 40.05 20.38 0 0 7.82zm25.61 0l0 -47.87 17.65 0c6.53,0 11.76,2.31 15.71,6.93 3.95,4.61 5.92,10.31 5.92,17.09 0,6.78 -2.03,12.45 -6.1,17.01 -4.06,4.56 -9.89,6.84 -17.47,6.84l-15.71 0zm8.87 -7.05l7.2 0c3.85,0 7.12,-1.45 9.81,-4.35 2.69,-2.89 4.03,-7.22 4.03,-12.93 0,-4.69 -1.17,-8.63 -3.52,-11.88 -2.35,-3.23 -5.45,-4.86 -9.31,-4.86l-8.21 0 0 34.02z"/>
    </g>
   </g>
  </g>
 </g>
</svg>
