<?xml version="1.0" encoding="UTF-8"?>
<!DOCTYPE svg PUBLIC "-//W3C//DTD SVG 1.1//EN" "http://www.w3.org/Graphics/SVG/1.1/DTD/svg11.dtd">
<!-- Creator: CorelDRAW 2019 (64-Bit) -->
<svg xmlns="http://www.w3.org/2000/svg" xml:space="preserve" width="9.1377mm" height="9.1406mm" version="1.1" style="shape-rendering:geometricPrecision; text-rendering:geometricPrecision; image-rendering:optimizeQuality; fill-rule:evenodd; clip-rule:evenodd"
viewBox="0 0 149.54 149.59"
 xmlns:xlink="http://www.w3.org/1999/xlink"
 xmlns:xodm="http://www.corel.com/coreldraw/odm/2003">
 <defs>
  <style type="text/css">
   <![CDATA[
    .fil0 {fill:#142142}
   ]]>
  </style>
 </defs>
 <g id="Capa_x0020_1">
  <metadata id="CorelCorpID_0Corel-Layer"/>
  <g id="_987352864">
   <path class="fil0" d="M106.38 130.48c-0.27,0.16 -0.52,0.23 -0.87,0.45 -0.76,0.47 -1.63,0.81 -2.4,1.23 -1.12,0.62 -2.09,1.01 -3.21,1.52l-3.16 1.26c-0.28,0.08 -0.45,0.11 -0.76,0.24 -0.81,0.35 -3.03,1.07 -3.92,1.27 -1.7,0.39 -3.5,1 -5.26,1.26 -0.29,0.04 -0.06,-0.03 -0.36,0.02 -1.1,0.19 -2.2,0.43 -3.32,0.54l-8.7 0.55c-0.28,-0.03 -0.42,-0.04 -0.71,-0.01 -0.63,0.06 -2.75,-0.06 -3.51,-0.15 -2.31,-0.25 -4.67,-0.44 -6.94,-0.88 -0.51,-0.1 -0.9,-0.27 -1.35,-0.3 -0.7,-0.04 -2.79,-0.53 -3.43,-0.75 -0.3,-0.1 -0.35,-0.18 -0.65,-0.25 -1.35,-0.33 -2.65,-0.78 -3.98,-1.15l-1.3 -0.5c-1.32,-0.42 -2.68,-1.13 -3.88,-1.57 -1.3,-0.48 -5.85,-2.84 -6.99,-3.63 -0.19,-0.13 -0.12,-0.1 -0.31,-0.2 -1.44,-0.79 -2.72,-1.74 -4.04,-2.67l-2.4 -1.82c-0.4,-0.29 -0.82,-0.7 -1.19,-0.98 -2.28,-1.7 -4.88,-4.56 -6.91,-6.67 -0.78,-0.82 -1.49,-1.91 -2.2,-2.65l-2.16 -2.84c-0.71,-1.04 -1.36,-2.09 -2.05,-3.22 -1.65,-2.7 -2.25,-3.98 -3.66,-6.62 -0.27,-0.5 -0.38,-0.96 -0.66,-1.55 -0.57,-1.2 -0.84,-2.12 -1.3,-3.16 -0.25,-0.56 -0.32,-0.98 -0.54,-1.53 -0.43,-1.08 -0.65,-2.12 -1.01,-3.15 -0.33,-0.95 -0.57,-2.08 -0.82,-3.03 -0.32,-1.25 -0.51,-2.46 -0.72,-3.72 -0.13,-0.74 -0.34,-1.47 -0.41,-2.23l-0.42 -4.42 -0.15 -5.71c-0,-0.96 0.16,-1.86 0.14,-2.81l0.44 -4.16c0.05,-1.3 0.42,-2.51 0.6,-3.76 0.28,-1.93 0.89,-3.89 1.37,-5.76 0.04,-0.15 0.16,-0.48 0.22,-0.66 0.06,-0.18 0.06,-0.14 0.1,-0.33l0.5 -1.65c0.57,-1.71 2.41,-6.39 3.23,-7.8l1.33 -2.52c0.53,-1.08 1.21,-2.07 1.79,-3.11l0.64 -0.97c0.1,-0.16 0.1,-0.2 0.18,-0.31l2.58 -3.64c0.21,-0.25 0.25,-0.33 0.46,-0.61l1.93 -2.36c0.65,-0.83 1.45,-1.54 2.1,-2.33 0.64,-0.77 1.56,-1.56 2.34,-2.28l5.18 -4.45c0.59,-0.42 0.92,-0.65 1.44,-1.05 1.6,-1.27 6.3,-4.11 8.2,-5.02 0.57,-0.27 0.98,-0.49 1.6,-0.8 1.04,-0.53 4.24,-1.86 5.5,-2.32 0.23,-0.08 0.45,-0.12 0.68,-0.21 1.08,-0.4 2,-0.69 3.05,-1.06l3.03 -0.82 7.3 -1.36 5.73 -0.47c0.3,-0 0.44,0.03 0.71,-0l7.91 0.3c0.02,0 0.04,0.01 0.06,0.01 0.02,0 0.04,0.01 0.06,0.01l2.3 0.26c0.96,0.03 2.36,0.37 3.35,0.58l0.96 0.2c0.63,0.04 3.07,0.67 3.63,0.86l0.67 0.18c1.07,0.43 3.03,0.76 3.91,1.21l3.19 1.24c0.27,0.1 0.36,0.14 0.64,0.29 0.59,0.32 1.26,0.49 1.87,0.82l1.91 0.91c0.26,0.12 0.39,0.22 0.63,0.33 0.95,0.43 2.77,1.47 3.64,2.05l2.41 1.54c0.39,0.25 0.88,0.53 1.23,0.78 0.41,0.29 0.72,0.59 1.2,0.91 1.68,1.11 3.1,2.47 4.65,3.78 0.84,0.71 1.45,1.38 2.26,2.15l2.26 2.31c1.54,1.81 3.01,3.32 4.32,5.33 0.29,0.45 0.7,0.91 1.06,1.38 1.03,1.32 3.26,5 3.98,6.53 0.25,0.53 0.51,1.11 0.78,1.58 0.65,1.12 1,2.05 1.54,3.22l0.91 2.35c0.12,0.31 0.28,0.54 0.38,0.82 0.1,0.3 0.09,0.45 0.21,0.74l0.77 2.26c0.2,0.6 0.29,0.95 0.48,1.52 0.35,1.08 0.85,3.37 1.1,4.47 0.26,1.16 0.7,3.4 0.77,4.44l0.18 1.41c0.22,1.45 0.35,4.35 0.35,5.7l0.04 2.84c0.05,1.15 -0.32,5.51 -0.55,6.9 -0.04,0.22 -0.09,0.47 -0.12,0.68l-0.4 2.68c-0.04,0.23 -0.07,0.45 -0.12,0.68l-0.68 2.97c-0.07,0.22 -0.05,0.05 -0.07,0.34l-1.32 4.65c-0.09,0.31 -0.18,0.38 -0.28,0.64 -0.09,0.24 -0.11,0.41 -0.2,0.66 -0.3,0.88 -1.09,3.06 -1.51,3.83 -0.4,0.73 -0.71,1.84 -1.13,2.57l-0.68 1.26c-0.21,0.33 -0.37,0.86 -0.58,1.22 -0.46,0.8 -1.08,1.66 -1.46,2.49l-0.16 0.31c-0.5,0.81 -1.23,2.06 -1.74,2.72l-2.41 3.32c-0.41,0.68 -2.62,3.25 -3.19,3.78l-1.63 1.7c-0.6,0.57 -1.1,1.18 -1.74,1.7 -0.29,0.24 -0.29,0.33 -0.52,0.57l-2.54 2.2c-0.82,0.65 -4.58,3.57 -5.66,4.23l-3.67 2.25zm-83.5 -101.85c-0.41,0.28 -4.92,1.26 -5.89,1.44 -0.19,0.04 -0.35,0.13 -0.58,0.18 -0.29,0.07 -0.23,0.01 -0.48,0.07 -0.21,0.05 -0.41,0.1 -0.57,0.14 -0.72,0.19 -1.3,0.06 -1.19,0.82 0.22,1.53 0.28,3.88 0.44,5.49 0.03,0.26 0.06,0.37 0.07,0.61l0.18 2.23c-1.82,1.12 -7.06,3.14 -8.09,3.85 0.03,0.71 0.43,1.73 0.67,2.47 0.07,0.2 0.06,0.29 0.11,0.49 0.09,0.35 0.22,0.72 0.3,1.03l1.19 4.06c0.26,0.8 -0.28,0.87 -1.19,1.57l-3 2.09c-0.24,0.16 -0.31,0.18 -0.49,0.36 -0.67,0.64 -1.7,1.25 -2.45,1.78 0.3,0.65 0.72,1.45 1.1,2.07 0.34,0.56 0.64,1.41 1.1,2.19 0.63,1.07 1.02,2.16 1.64,3.19 0.47,0.78 -0.04,0.83 -1.49,2.4l-2.15 2.32c-0.37,0.37 -2.07,2.09 -2.1,2.32 0.03,0.33 2.23,3.1 2.63,3.53 0.54,0.57 0.88,1.17 1.42,1.8 0.54,0.64 0.83,0.97 1.36,1.84l-4.08 6.59c-0.13,0.22 -0.14,0.26 -0.27,0.47 -0.18,0.29 -0.14,0.29 -0.25,0.53l0.89 0.82c0.3,0.24 0.68,0.49 0.89,0.7 0.2,0.2 0.22,0.26 0.44,0.41 0.51,0.36 0.87,0.75 1.33,1.14l2.66 2.21c0.83,0.82 0.49,0.69 0.03,1.96 -0.35,0.97 -2.51,6.41 -2.54,6.91 0.41,0.44 4.05,2.26 4.9,2.79 0.27,0.17 0.71,0.42 0.99,0.56 1.73,0.86 2.06,0.7 1.68,2.3l-0.32 2.17c-0.05,0.36 -0.14,0.73 -0.2,1.08l-0.54 3.24c-0.22,1.54 -0.62,0.91 2.95,2.13l0.33 0.09c0.13,0.03 0.04,-0 0.17,0.04 0.2,0.06 0.27,0.15 0.54,0.22 1.06,0.3 2.05,0.55 3.07,0.99 0.32,0.14 0.82,0.16 1.05,0.31 0.44,0.29 0.31,0.69 0.31,1.03l0.19 5.07c-0,0.48 -0.07,2.66 0.1,2.88 0.22,0.29 1.24,0.17 1.56,0.23 0.22,0.04 0.27,0.07 0.51,0.1l4.15 0.44c0.43,0.03 0.65,0.09 1.03,0.16 2.13,0.35 1.4,-0.78 2.6,4.25 0.21,0.88 0.9,4.09 1.13,4.61l1.08 -0.05c1.82,-0.08 3.72,-0.42 5.55,-0.45 0.73,-0.01 1.49,-0.22 2.22,-0.15 0.65,1.05 1.04,2.06 1.55,3.15 0.26,0.55 0.38,0.99 0.66,1.5 0.27,0.49 0.49,1.04 0.72,1.61 0.2,0.49 0.5,1.12 0.73,1.53 0.19,0.35 0.3,0.3 0.65,0.19l6.72 -1.93c2.02,-0.46 1.04,-0.76 2.52,1.16 0.67,0.87 1.41,1.93 2.06,2.88 0.26,0.38 0.28,0.34 0.53,0.63 0.35,0.41 1.17,2.11 1.59,2.17l3.96 -1.98c0.61,-0.28 3.53,-2.06 3.99,-2.01 0.2,0.08 1.37,1.19 1.59,1.41 0.75,0.77 4.26,4.09 4.94,4.57 0.44,-0.24 0.6,-0.4 0.95,-0.64 0.43,-0.29 0.47,-0.39 0.82,-0.69 0.28,-0.24 0.64,-0.51 0.91,-0.69 0.43,-0.29 0.51,-0.41 0.87,-0.72 0.31,-0.27 3.22,-2.6 3.54,-2.63 0.45,-0.05 1.54,0.87 1.93,1.09l3.81 2.37c0.32,0.2 0.63,0.41 0.93,0.56l1 0.54c0.28,-0.32 0.45,-0.57 0.75,-0.9l3.77 -4.48c1.37,-1.63 0.92,-1.62 2.66,-0.9 1.01,0.42 3.15,1.09 3.96,1.48 0.61,0.3 1.35,0.44 1.95,0.75 1.16,0.61 1.13,0.22 1.68,-0.7 0.76,-1.28 1.37,-2.68 2.17,-3.92 0.18,-0.28 0.3,-0.65 0.52,-0.99 0.24,-0.39 0.31,-0.62 0.54,-1 0.45,-0.74 0.38,-0.91 1.25,-0.75l1.6 0.22c0.86,0.11 1.77,0.45 2.66,0.49l1.08 0.15c0.29,0.03 0.37,0.07 0.57,0.11 2.67,0.47 2.14,0.79 2.92,-1.81 0.22,-0.73 0.34,-1.34 0.67,-2.09l1.36 -4.24c0.25,-0.23 2.7,-0.11 3.31,-0.17 0.49,-0.05 0.72,0.01 1.14,-0.02 0.36,-0.03 4.3,-0.03 4.52,-0.27 0.18,-0.19 0.12,-0.85 0.15,-1.11 0.04,-0.36 0.1,-0.74 0.15,-1.09 0.21,-1.46 0.28,-2.96 0.5,-4.43 0.06,-0.44 0.12,-2.05 0.35,-2.24 0.28,-0.09 0.24,-0.02 0.5,-0.07 0.91,-0.19 1.79,-0.55 2.71,-0.69l1.56 -0.34c0.57,-0.06 2.03,-0.47 2.7,-0.63 0.34,-0.08 0.81,-0.16 1.12,-0.33 0.08,-1.34 -0.19,-2.67 -0.29,-4.04l-0.35 -4.04c-0.09,-1.09 0.37,-1.02 1.31,-1.46 1.16,-0.54 6.04,-2.61 6.78,-3.17l-0.47 -1.58c-0.05,-0.21 -0.05,-0.32 -0.13,-0.57l-0.94 -3.24c-0.22,-0.54 -0.86,-2.74 -0.83,-3.21 0.67,-0.41 1.21,-0.9 1.75,-1.3 0.59,-0.44 1.29,-0.82 1.87,-1.26 0.51,-0.39 1.16,-0.86 1.75,-1.31 0.51,-0.39 1.42,-0.87 1.82,-1.32 -0.16,-0.63 -2.77,-5.34 -3.26,-6.33 -0.2,-0.41 -0.28,-0.71 -0.51,-1.1 -0.25,-0.43 -0.35,-0.55 -0.02,-0.93 0.46,-0.52 1.05,-0.95 1.45,-1.48 0.39,-0.51 1.02,-1.03 1.44,-1.54 0.54,-0.64 0.91,-0.98 1.43,-1.55 0.49,-0.54 0.98,-0.99 1.44,-1.54 -0.51,-1.03 -2.21,-2.81 -3.01,-3.89l-2.26 -2.93c-0.28,-0.4 -0.08,-0.61 0.12,-0.94l3.23 -5.13c0.34,-0.62 0.74,-1.14 1.04,-1.74 -0.23,-0.66 -1.24,-1.14 -1.72,-1.61 -1.38,-1.34 -3.06,-2.42 -4.43,-3.78 -0.39,-0.39 -0.66,-0.38 -0.5,-0.96 0.09,-0.32 0.3,-0.62 0.43,-0.96l1.25 -3.43c0.09,-0.3 0.07,-0.21 0.21,-0.48l0.91 -2.44c0.32,-0.81 0,-0.78 -0.77,-1.24 -0.33,-0.19 -0.68,-0.31 -1,-0.52 -0.36,-0.23 -0.61,-0.32 -0.99,-0.55 -0.36,-0.21 -0.67,-0.36 -1,-0.54 -0.65,-0.36 -1.36,-0.74 -1.98,-1.11 -0.44,-0.26 -1.76,-0.73 -1.85,-1.35 -0.08,-0.55 0.66,-3.41 0.68,-4.28 0.01,-0.26 0.01,-0.27 0.06,-0.52l0.5 -2.72c0.06,-0.44 0.15,-0.68 0.08,-1.09l-3.01 -0.93c-0.18,-0.05 -0.36,-0.09 -0.5,-0.15 -0.81,-0.34 -1.73,-0.56 -2.58,-0.82l-2.08 -0.71c-0.48,-0.28 -0.33,-0.73 -0.34,-1.05 -0,-0.18 -0.04,-0.39 -0.04,-0.54l-0.05 -1.73c0,-0.3 -0.03,-0.82 -0.06,-1.14l-0.05 -2.73c0.03,-0.34 0.04,-1.55 -0.12,-1.77 -0.27,-0.37 -1.15,-0.21 -1.56,-0.29 -0.18,-0.03 -0.31,-0.07 -0.51,-0.09 -0.97,-0.11 -2.18,-0.16 -3.11,-0.34l-3.17 -0.33c-0.78,-0.07 -0.83,-1.34 -0.97,-1.93 -0.1,-0.4 -0.15,-0.69 -0.28,-1.14 -0.07,-0.23 -0.18,-0.84 -0.23,-1.12 -0.05,-0.26 -0.1,-0.33 -0.16,-0.57 -0.09,-0.35 0.01,-0.26 -0.07,-0.55l-0.55 -2.26c-0.04,-0.27 -0.21,-0.98 -0.41,-1.24 -1.15,-0.05 -2.34,0.27 -3.5,0.3l-4.58 0.37c-1.01,0.11 -1.02,-0.51 -1.42,-1.34 -0.36,-0.73 -0.68,-1.49 -1.05,-2.28 -0.17,-0.36 -0.3,-0.77 -0.46,-1.09l-1.3 -2.81c-0.45,-0.91 -0.83,-0.42 -3.38,0.29l-4 1.15c-0.83,0.21 -1.34,0.7 -1.81,0.01 -0.72,-1.04 -1.42,-1.89 -2.14,-2.99l-2.81 -3.8c-0.33,-0.01 -1.67,0.79 -2.05,1.01 -0.62,0.37 -1.42,0.63 -2.19,1.1 -1.14,0.69 -2.38,1.15 -3.26,1.68 -0.84,0.51 -1.3,-0.69 -2.39,-1.52l-1.16 -1.07c-0.16,-0.16 -0.23,-0.28 -0.37,-0.41 -0.19,-0.18 -0.58,-0.49 -0.79,-0.67 -0.28,-0.24 -0.45,-0.47 -0.76,-0.75 -0.41,-0.36 -1.15,-1.17 -1.55,-1.42l-3.52 2.73c-0.69,0.63 -2.76,2.22 -3.59,2.73 -0.65,-0.28 -1.25,-0.75 -1.86,-1.12l-2.84 -1.73c-0.61,-0.4 -1.25,-0.88 -1.89,-1.22l-1 -0.54c-0.31,0.21 -1.17,1.37 -1.44,1.68 -0.13,0.15 -0.26,0.26 -0.36,0.38 -0.13,0.15 -0.18,0.3 -0.33,0.46l-3.6 4.25c-0.15,-0.04 -0.29,-0.05 -0.48,-0.09 -0.27,-0.07 -0.3,-0.14 -0.54,-0.23l-4.24 -1.56c-0.4,-0.19 -0.67,-0.27 -1.09,-0.42 -0.39,-0.14 -0.67,-0.25 -1.02,-0.42 -1.33,-0.65 -1.18,-0.23 -1.7,0.63 -0.75,1.23 -1.35,2.71 -2.1,3.88 -0.19,0.29 -0.41,0.7 -0.57,0.98 -0.2,0.36 -0.33,0.66 -0.54,0.99 -0.22,0.36 -0.22,0.71 -0.71,0.96l-5.36 -0.87c-0.21,-0.05 -0.36,-0.05 -0.51,-0.07l-1.64 -0.29c-0.26,-0.04 -0.87,-0.24 -1.09,-0.17 -0.3,0.09 -0.34,0.7 -0.44,0.98 -0.66,1.9 -1.13,3.83 -1.79,5.72 -0.94,2.67 -0.28,1.66 -3.92,1.93 -0.22,0.02 -0.28,0.04 -0.54,0.04l-3.99 0.1c-0.28,0.02 -0.93,-0.06 -1.12,0.17 -0.1,0.13 -0.18,0.94 -0.18,1.09l-0.59 5.48c-0.05,0.38 -0.11,0.68 -0.17,1.08l-0.11 1.08z"/>
   <path class="fil0" d="M26.19 102.19c-0.58,-0.95 -2.29,-4.63 -2.72,-5.59 -0.38,-0.84 -0.68,-1.84 -1.04,-2.67 -0.37,-0.86 -0.62,-1.8 -0.9,-2.63l-1.06 -3.92c-0.23,-0.82 -0.31,-1.72 -0.52,-2.54 -0.08,-0.31 -0.05,-0.34 -0.11,-0.63 -0.05,-0.26 -0.07,-0.4 -0.1,-0.61 -0.13,-1.06 -0.4,-2.13 -0.4,-3.17 0,-0.26 -0.05,-0.34 -0.07,-0.61l-0.23 -3.72c-0.1,-3.16 0.18,-6.5 0.62,-9.55 0.05,-0.38 0.18,-0.84 0.23,-1.19 0.03,-0.22 0,-0.36 0.05,-0.58 0.19,-1 1.17,-5.48 1.57,-6.36 0.12,-0.27 0.14,-0.31 0.2,-0.54l0.05 -0.17c0,-0.02 0.01,-0.04 0.02,-0.06 0.31,-0.99 1.1,-3.39 1.54,-4.25l1.76 -3.83c0.13,-0.31 0.11,-0.23 0.3,-0.52 0.17,-0.26 0.09,-0.23 0.26,-0.54 0.37,-0.7 0.78,-1.39 1.22,-2.12l0.68 -1.08c0.57,-1.04 2.1,-3.36 2.81,-4.18l1.63 -2.03c0.72,-0.85 1.82,-2.17 2.65,-2.96l1.53 -1.47c0.3,-0.36 0.71,-0.62 1.05,-0.99l1.56 -1.4c0.96,-0.8 3.88,-3.12 4.85,-3.71l3.88 -2.38c0.97,-0.6 2.05,-0.97 2.91,-1.47 1.12,-0.64 2.29,-1.17 3.51,-1.56 0.26,-0.09 0.39,-0.2 0.66,-0.32l4.09 -1.41c0.36,-0.13 0.91,-0.25 1.38,-0.38 0.8,-0.23 1.8,-0.54 2.63,-0.66l1.32 -0.28c0.29,-0.07 0.32,-0.01 0.66,-0.09 1.65,-0.39 5.41,-0.83 7.07,-0.85 0.47,-0 0.8,-0.03 1.26,-0.05 0.44,-0.02 0.85,-0.01 1.25,-0.03l3.71 0.08 6.1 0.71c0.23,0.05 0.4,0.11 0.62,0.12 0.59,0.03 1.16,0.23 1.75,0.33 0.82,0.14 2.78,0.56 3.58,0.89 0.31,0.12 0.34,0.06 0.61,0.14 0.29,0.09 0.22,0.14 0.54,0.23 0.76,0.22 2.26,0.61 2.9,0.94 0.23,0.12 0.28,0.14 0.54,0.22 0.91,0.28 1.8,0.79 2.59,1.06l1.97 0.89c0.31,0.17 0.31,0.16 0.59,0.27 0.57,0.24 1.08,0.56 1.63,0.88l1.09 0.61c2.3,1.21 4.4,2.78 6.47,4.33 1.63,1.22 3.2,2.56 4.65,4.01l1.48 1.51c0.59,0.52 3.39,3.84 3.93,4.58l1.85 2.51c1.15,1.66 3.65,5.96 4.5,7.96 0.11,0.25 0.15,0.47 0.24,0.67 0.24,0.54 0.44,0.85 0.65,1.38 0.17,0.42 0.39,0.88 0.58,1.38l0.96 2.72c0.09,0.39 0.29,0.96 0.42,1.4 0.07,0.23 0.15,0.44 0.21,0.69 0.08,0.31 0.06,0.33 0.17,0.64 0.5,1.49 0.79,3.07 1.06,4.62 0.18,1.01 0.4,2.15 0.49,3.2l0.17 1.99c0.02,0.28 0.07,0.35 0.08,0.61 0.13,2.04 0.2,4.2 0.07,6.23l-0.1 1.87c-0.03,0.27 -0.02,0.39 -0.02,0.64l-0.24 2.43 -1.42 7.17c-0.33,1.23 -0.97,3.55 -1.45,4.62 -0.23,0.53 -0.26,0.67 -0.42,1.14 -0.35,1.03 -0.97,2.4 -1.47,3.43 -1.09,2.25 -2.21,4.5 -3.59,6.59 -0.16,0.24 -0.15,0.29 -0.36,0.57 -0.19,0.24 -0.17,0.27 -0.33,0.51 -0.98,1.49 -2.02,2.92 -3.16,4.26l-2.25 2.6 -3.53 3.46c-0.5,0.54 -1.69,1.48 -2.32,1.91 -0.32,0.22 -0.28,0.28 -0.57,0.54l-3.12 2.28c-2.24,1.38 -3.52,2.41 -6.1,3.55 -0.68,0.3 -1.44,0.9 -2.14,1.03 -0.11,0.02 -2.61,1.18 -3.41,1.4 -0.48,0.13 -0.8,0.41 -1.37,0.54 -0.29,0.07 -0.35,0.11 -0.66,0.24l-8.48 2.12c-0.45,0.1 -0.83,0.09 -1.28,0.17l-3.77 0.41 -5 0.14c-1.06,0.08 -2.51,-0.21 -3.61,-0.21 -0.61,0 -1.23,-0.17 -1.85,-0.19l-4.73 -0.71c-1.5,-0.38 -3.17,-0.72 -4.63,-1.14 -0.31,-0.09 -0.25,-0.14 -0.54,-0.23l-0.78 -0.2c-1.67,-0.52 -3.3,-1.11 -4.88,-1.84l-1.12 -0.5c-0.22,-0.11 -0.36,-0.16 -0.59,-0.26 -2.38,-1.02 -7.61,-4.06 -9.67,-5.78l-4.6 -3.79c-0.17,-0.17 -0.29,-0.35 -0.47,-0.5 -1.14,-1 -2.5,-2.39 -3.46,-3.61 -0.24,-0.3 -0.26,-0.28 -0.46,-0.48 -0.51,-0.52 -0.96,-1.16 -1.43,-1.71l-1.42 -1.91c-1.28,-1.63 -2.35,-3.53 -3.43,-5.29zm77.62 23.63l2.57 -1.57c0.93,-0.57 1.9,-1.41 2.8,-1.96 0.53,-0.32 0.83,-0.61 1.29,-0.98 0.35,-0.27 1.04,-0.73 1.33,-1 0.42,-0.38 0.72,-0.65 1.2,-1 0.52,-0.38 0.65,-0.67 1.16,-1.04 0.78,-0.56 1.42,-1.38 2.2,-2.05 0.52,-0.45 1.44,-1.6 1.97,-2.14l1.16 -1.34c0.74,-0.9 1.79,-2.08 2.44,-3 0.73,-1.03 2.82,-4.03 3.36,-5.11 0.12,-0.23 0.13,-0.34 0.29,-0.58 0.61,-0.93 1.12,-1.92 1.62,-2.87l1.33 -2.93c0.11,-0.26 0.16,-0.33 0.25,-0.59 0.1,-0.27 0.14,-0.36 0.23,-0.6 0.1,-0.25 0.12,-0.36 0.24,-0.59 0.11,-0.21 0.17,-0.34 0.25,-0.59l1.58 -4.82c0.06,-0.26 0.09,-0.39 0.2,-0.6 0.19,-0.4 0.08,-0.19 0.16,-0.61l0.88 -3.76c0.07,-0.81 0.3,-1.69 0.43,-2.5l0.64 -7c0,-0.28 0.02,-0.36 0.04,-0.64 0.14,-3.1 -0.23,-6.21 -0.57,-9.3l-0.18 -1.17c-0.03,-0.18 -0.01,-0.03 -0.02,-0.19l-1.31 -6.16c-0.07,-0.25 -0.2,-0.42 -0.25,-0.72 -0.11,-0.66 -0.42,-1.45 -0.67,-2.11 -0.23,-0.62 -0.43,-1.56 -0.69,-2.11l-1.19 -2.88c-0.19,-0.45 -0.51,-0.99 -0.74,-1.5 -1.04,-2.33 -2.97,-5.99 -4.54,-7.99 -0.25,-0.32 -0.47,-0.74 -0.74,-1.09 -0.93,-1.23 -2.7,-3.75 -3.81,-4.77 -0.29,-0.27 -0.54,-0.69 -0.77,-0.94l-2.38 -2.41c-0.65,-0.74 -3.31,-2.98 -4.1,-3.58 -0.25,-0.19 -0.54,-0.43 -0.8,-0.64 -0.79,-0.66 -1.72,-1.25 -2.55,-1.88 -0.85,-0.64 -2.48,-1.66 -3.44,-2.18l-1.25 -0.71c-0.28,-0.19 -0.22,-0.14 -0.47,-0.27l-4.44 -2.21c-1.13,-0.63 -2.82,-1.05 -4.05,-1.61 -0.73,-0.33 -1.54,-0.48 -2.3,-0.74l-2.76 -0.83c-0.35,-0.11 -0.6,-0.11 -0.96,-0.2l-2.82 -0.57c-0.26,-0.04 -0.22,-0.02 -0.45,-0.09l-2.44 -0.45 -7.79 -0.52c-0.62,0.05 -1.28,0.01 -1.97,0.05l-2.03 0.07c-1.24,0.08 -5.16,0.49 -6.09,0.73l-7.85 1.89 -2.76 0.96c-0.48,0.22 -0.58,0.26 -1.05,0.41l-3.38 1.49c-0.9,0.45 -4.79,2.37 -5.58,2.98 -0.71,0.54 -1.57,0.93 -2.29,1.46 -0.36,0.27 -0.68,0.55 -1.04,0.78 -1.22,0.77 -2.92,2.05 -3.95,3l-1.75 1.53c-0.54,0.42 -1.14,1.09 -1.66,1.6l-3.04 3.23c-0.64,0.63 -1.1,1.38 -1.68,2.02l-1.31 1.69c-0.09,0.13 -0.2,0.27 -0.3,0.41l-3.33 5.17c-0.42,0.78 -1.34,2.31 -1.63,3.04 -0.4,1.02 -1.07,2.07 -1.46,3.14l-0.73 1.83c-0.56,1.74 -1.4,3.68 -1.82,5.47l-0.5 1.9c-0.08,0.29 -0.14,0.6 -0.22,0.9 -0.11,0.4 -0.11,0.6 -0.18,0.96 -0.07,0.35 -0.19,0.61 -0.2,0.96 -0.06,1.12 -0.43,2.18 -0.55,3.29 -0.03,0.27 0.03,0.29 0,0.54l-0.32 2.88c-0.01,0.11 -0.01,0.13 -0.02,0.23l-0.05 7.68c0.01,1.01 0.15,2 0.26,3.02 0.02,0.2 0.07,0.33 0.09,0.49l0.21 1.58c0.03,0.24 0.02,0.25 0.06,0.5l0.69 3.65c0.04,0.18 0.1,0.32 0.15,0.51 0.08,0.32 0,0.3 0.08,0.55 0.3,1.01 0.53,2.18 0.89,3.17l0.69 2.13c0.18,0.46 0.18,0.67 0.35,1.08l0.93 2.24c0.34,1 2.63,5.71 3.22,6.7 0.89,1.51 1.9,3.05 2.93,4.42 1.09,1.45 1.74,2.54 3,4 0.93,1.08 3.82,4.36 4.75,5.06l5.31 4.44c3.05,2.07 5.71,3.94 9.08,5.52l5.41 2.33c0.26,0.09 0.19,0.02 0.45,0.13l5.05 1.61c0.3,0.08 0.66,0.21 0.95,0.26 0.33,0.05 0.58,0.12 0.95,0.21 1.28,0.32 2.09,0.34 2.83,0.53 1.2,0.3 2.56,0.45 3.82,0.56l5.88 0.4c0.93,0.05 3,-0.12 3.99,-0.13 1.78,-0.02 3.7,-0.38 5.51,-0.54 0.26,-0.02 0.28,-0.08 0.57,-0.12 1.21,-0.15 2.67,-0.46 3.84,-0.79 0.35,-0.1 0.05,-0.02 0.32,-0.06 0.67,-0.11 1.51,-0.37 2.14,-0.54 0.2,-0.05 0.36,-0.12 0.53,-0.17 0.16,-0.04 0.31,-0.05 0.48,-0.1 1.12,-0.32 2.15,-0.75 3.28,-1.09l3.27 -1.33c0.78,-0.28 2.67,-1.21 3.35,-1.62 0.39,-0.23 0.7,-0.36 1.15,-0.62 0.36,-0.21 0.82,-0.34 1.18,-0.56z"/>
   <path class="fil0" d="M117.13 89.11c-0.63,-1.02 0.24,-2.55 0.85,-3.38 0.62,-0.82 1.24,1.94 1.22,2.43 -0.01,0.27 0.13,1.32 -0.86,1.46 -0.63,0.09 -0.84,0.08 -1.21,-0.52zm-33.22 3.25c0.52,-0.57 1.38,-0.72 1.84,-0.05l1.76 4.89c0.12,0.3 0.15,0.48 0.22,0.72 0.06,0.22 0.2,0.49 0.23,0.7 0.34,2.02 -1.44,4.16 -2.98,1.69 -0.91,-1.46 -0.63,-1.34 -1,-2.16 -0.12,-0.27 -0.16,-0.35 -0.24,-0.66 -0.3,-1.19 -0.7,-2.73 -0.35,-3.99 0.11,-0.41 0.16,-0.74 0.52,-1.14zm9.16 5.34c-1.29,0.79 -1.63,-0.12 -2.16,-1.31 -0.22,-0.51 -0.29,-0.92 -0.47,-1.36 -0.38,-0.9 -0.59,-1.79 -0.97,-2.72l-0.98 -2.72c-0.1,-0.29 -0.22,-1.21 -0.65,-1.28 -0.19,-0.1 0,-0.03 -0.25,0.15 -0.79,0.55 -1.91,1 -2.62,1.7 0.11,0.32 0.25,0.52 0.29,0.84 -0.35,0.02 -0.52,-0.29 -0.9,-0.29 -1.05,-0.01 -2.47,0.99 -3.02,1.88 -0.69,1.1 -1.02,2.26 -1.07,3.53 -0.02,0.66 0,1.02 0.07,1.73l0.64 2.64c0.2,0.64 0.69,1.36 1,1.94 0.7,1.32 -1.26,3.44 -1.98,2.26 -0.43,-0.71 -0.63,-1.17 -0.91,-1.95l-1.08 -3.03c-0.09,-0.24 -0.08,-0.37 -0.18,-0.65 -0.29,-0.76 -0.73,-1.69 -0.91,-2.46 -0.42,-1.85 -0.78,-1.1 -1.92,-0.4 -1.58,0.97 -1.74,0.45 -1.19,2.08l1.54 4.4c0.3,1.03 0.64,1.71 0.96,2.88 0.44,1.64 -0.72,3.68 -1.83,2.4 -0.45,-0.52 -0.34,-0.63 -0.58,-1.18 -0.37,-0.87 -0.63,-1.7 -0.95,-2.61 -0.15,-0.43 -0.31,-0.82 -0.45,-1.27 -0.07,-0.24 -0.17,-0.42 -0.26,-0.67 -0.32,-0.93 -0.91,-2.93 -1.32,-3.58l-2.07 1.27c-0.43,0.25 -0.16,0.18 -0.89,0.53l1.5 4.26c0.11,0.29 0.16,0.57 0.25,0.84 0.1,0.3 0.25,0.52 0.33,0.84 0.09,0.37 0.13,0.49 0.32,0.92 0.54,1.2 0.6,2.26 1.67,3.42 0.4,0.43 0.89,0.77 1.34,0.85 0.68,0.12 1.47,-0.15 2.11,-0.54 1.13,-0.69 1.5,-1.61 1.71,-2.74 0.08,-0.44 -0.07,-0.7 0.29,-1 0.36,0.13 1.51,1.6 3.07,0.65 1.2,-0.73 1.32,-0.98 1.96,-2.15 0.31,-0.56 0.35,-1.63 0.6,-1.9 0.32,0.07 0.45,0.27 0.77,0.4 0.33,0.14 0.57,0.2 0.88,0.27 0.68,0.16 0.28,0.05 0.91,-0.06 1.74,-0.31 2.7,-1.63 3.09,-3.25 0.07,-0.29 -0.02,-0.84 0.25,-0.98 0.36,-0.07 0.36,0.11 0.65,0.4 0.57,0.57 1.77,0.59 2.46,0.17 1.52,-0.93 2.1,-1.93 2.31,-3.55 0.11,-0.85 0.6,-0.13 0.99,0.06 0.98,0.48 1.72,0.42 2.73,-0.2 1.18,-0.72 1.74,-1.72 2.04,-2.9 0.09,-0.38 0.04,-0.74 0.31,-1.04 0.57,0.17 1.58,1.55 3.2,0.55 0.75,-0.46 0.9,-0.59 1.44,-1.21l0.6 -0.93c0.29,-0.54 0.18,-0.46 0.34,-0.92 0.13,-0.38 0.08,-0.11 0.11,-0.51 0.02,-0.33 0.01,-0.3 0.15,-0.52 1.04,0.17 1.24,1.71 3.8,0.14 0.43,-0.26 0.69,-0.6 0.91,-0.87 0.27,-0.33 0.72,-1.07 0.81,-1.41 0.05,-0.21 0.05,-0.29 0.12,-0.5 0.07,-0.24 0.08,-0.88 0.26,-0.98 0.34,-0.19 0.58,0.5 1.51,0.73 1.25,0.31 2.75,-0.67 3.35,-1.77 0.21,-0.39 0.33,-0.94 0.63,-1.31 0.47,0.43 0.43,1.1 -0.13,1.61 -0.37,0.34 -0.91,1.03 -1.14,1.43 -0.33,0.58 -0.74,1.66 -0.58,2.34 0.27,1.18 0.96,2.24 2.31,2.37 0.34,0.03 0.65,0.1 1,0.02 0.85,-0.2 1.88,-0.87 2.4,-1.55 0.5,-0.66 0.85,-1.4 0.89,-2.21 0.04,-0.85 -0.12,-1.75 -0.41,-2.52 -0.2,-0.54 -0.27,-0.81 -0.49,-1.37 -0.15,-0.37 -0.01,-0.29 -0.14,-0.6l-1.24 -3.33c-0.09,-0.27 -0.07,-0.37 -0.18,-0.64 -0.11,-0.29 -0.23,-0.45 -0.32,-0.73 -0.08,-0.23 -0.06,-0.35 -0.16,-0.62 -0.1,-0.26 -0.2,-0.39 -0.3,-0.65 -0.14,-0.37 -0.01,-0.25 -0.17,-0.65 -0.1,-0.24 -0.22,-0.47 -0.3,-0.71l-1.44 -4.01c-0.18,-0.59 -0.18,-0.83 -0.6,-1.28 -0.75,0.59 -0.57,0.36 -1.05,0.66l-1.13 0.72c-0.64,0.36 -0.76,0.45 -0.48,1.18 0.1,0.26 0.13,0.42 0.21,0.69 0.09,0.28 0.21,0.49 0.32,0.75 0.13,0.33 0.07,0.34 0.19,0.68 0.07,0.2 0.22,0.49 0.3,0.72 0.07,0.21 0.14,0.52 0.22,0.72 0.29,0.69 1.35,3.5 1.47,4.25 0.04,0.23 0.06,1.09 0.02,1.3 -0.15,0.89 -1.23,2.07 -1.99,0.84 -0.47,-0.76 -0.75,-1.75 -1.02,-2.55 -0.24,-0.72 -0.62,-1.49 -0.83,-2.21 -0.07,-0.26 -0.01,-0.25 -0.12,-0.52 -0.08,-0.21 -0.17,-0.31 -0.25,-0.53l-0.74 -2.18c-0.15,-0.35 -0.23,-0.87 -0.43,-1.09 -0.57,-0.02 -1.39,0.76 -1.89,1.06 -1,0.59 -1.23,0.35 -0.98,1.13 0.08,0.27 0.14,0.47 0.25,0.75 0.08,0.21 0.18,0.51 0.23,0.72 0.07,0.27 0.2,0.51 0.32,0.78 0.14,0.35 0.12,0.39 0.2,0.71l0.84 2.27c0.3,0.99 0.81,1.97 0.9,2.92 0.04,0.45 -0.01,0.94 -0.11,1.34 -0.27,1.01 -1.56,2.22 -2.2,1.17 -0.48,-0.78 -0.74,-1.71 -1.09,-2.56 -0.1,-0.26 -0.07,-0.3 -0.12,-0.49 -0.03,-0.14 -0.16,-0.39 -0.21,-0.52l-1.55 -4.35c-0.3,-0.82 0.13,-0.71 1.05,-1.34 -0,-0.19 -0.01,-0.5 -0.19,-0.7 -0.51,-0.52 -0.89,1.13 -1.54,0.07 -0.2,-0.33 -0.37,-1.11 -0.54,-1.51 -0.23,-0.55 -0.43,-1.42 -0.69,-1.77 -0.11,0.01 -0.06,-0.02 -0.21,0.07l-0.31 0.28c-0.71,0.69 -1.68,1.17 -2.28,1.93 0.09,0.3 0.21,0.54 0.27,0.78l0.84 2.44c-0.43,0.73 -0.95,0.46 -0.35,1.45 0.34,-0.15 0.38,-0.41 0.78,-0.23 0.16,0.11 0.53,1.51 0.62,1.82 0.07,0.25 0.2,0.45 0.3,0.72l0.45 1.3c0.18,0.43 0.31,0.89 0.46,1.33 0.41,1.22 1.04,2.47 0.64,3.77 -0.27,0.87 -1.27,1.98 -2.2,1.11 -0.44,-0.41 -1.09,-2.66 -1.29,-3.31 -0.06,-0.2 -0.21,-0.5 -0.3,-0.72 -0.36,-0.87 -0.93,-2.44 -1.17,-3.36 -0.07,-0.28 -0.22,-0.45 -0.3,-0.72 -0.18,-0.6 -0.09,-0.75 -0.53,-1.25 -0.59,0.36 -2.62,1.46 -2.86,1.86 0,0.21 1.81,5.33 2.05,5.88 0.19,0.43 0.11,0.35 0.2,0.69 0.2,0.75 0.6,1.09 0.63,2.16 0.05,2.11 -1.66,3.55 -2.46,2.24l-1.09 -2.85c-0.14,-0.31 -0.22,-0.61 -0.31,-0.92l-0.9 -2.58c-0.1,-0.34 -0.23,-0.54 -0.32,-0.9 -0.23,-0.89 -0.68,-1.72 -0.95,-2.55 -0.12,-0.37 -0.09,-0.44 -0.27,-0.87 -0.27,-0.64 -1.03,-3.17 -1.35,-3.43 -0.15,0.05 -1.69,1.31 -2.02,1.62 -0.18,0.17 -0.27,0.24 -0.48,0.41 -0.55,0.43 -0.11,0.53 0.25,1.71 0.49,1.63 1.67,4.49 2.14,6.01 0.44,1.44 1.04,2.87 1.49,4.28 0.26,0.8 0.57,1.73 0.43,2.58 -0,0.02 -0.01,0.04 -0.01,0.06 -0.09,0.41 -0.21,0.94 -0.61,1.19z"/>
   <path class="fil0" d="M50.79 43.38c1.04,0.24 1.35,-0.33 2.68,0.52 0.93,0.6 1.63,1.71 1.65,2.84 0.02,0.93 -0.28,1.87 -1.09,2.63 -0.47,0.43 -0.93,0.65 -1.49,0.82 -0.26,0.08 -0.46,0.16 -0.74,0.13l-0.76 -0.05c-0.3,-0.05 -1.02,-0.32 -1.29,-0.52 -0.5,-0.37 -0.81,-0.65 -1.18,-1.32 -0.33,-0.6 -0.24,-1.06 -0.37,-1.53 -0.27,-0.96 -3.17,-1.1 -4.08,-1.04 -0.67,0.05 -2.49,0.41 -3.02,0.94 0.26,0.38 2.65,1.55 3.12,1.83 0.45,0.27 1.07,0.61 1.57,0.85 0.81,0.39 2,-0.15 3.27,1.33 1.34,1.56 1.46,3.75 -0.1,5.28 -0.98,0.95 -2.22,1.32 -3.58,1 -0.21,-0.05 -0.64,-0.19 -0.82,-0.28 -0.17,-0.09 -0.25,-0.17 -0.36,-0.25 -0.22,-0.16 -0.21,-0.09 -0.4,-0.26 -0.42,-0.35 -1.09,-1.46 -1.21,-2 -0.14,-0.65 -0.53,-0.59 -1.39,-0.72 -1.57,-0.23 -1.99,-0.23 -3.61,0.03 -0.59,0.09 -1.45,0.29 -2.02,0.67 0.45,0.54 1.03,0.58 1.63,0.96 0.57,0.37 1.13,0.63 1.65,1l3.96 2.74c1.09,0.81 3.07,2.23 3.93,3.09l0.78 0.64c0.29,0.22 0.54,0.51 0.8,0.61 0.68,-0.18 28.03,-17.09 28.14,-17.23 0.15,-0.32 -0.03,-0.53 -0.1,-0.92l-1.49 -7.81 -0.42 -3.88c-0.07,-0.38 0,-0.62 -0.05,-0.96l-0.06 -1.43c0.02,-0.29 0.11,-0.15 -0.08,-0.49 -1.05,0.47 -2.33,2.61 -2.87,3.73 -0.24,0.49 -0.38,1.1 -0.53,1.65 -0.29,1.03 0.8,1 1.4,2.71 0.38,1.07 0.02,2.58 -0.68,3.44l-0.71 0.71c-0.67,0.65 -2.53,0.89 -3.65,0.44 -0.62,-0.25 -1.13,-0.56 -1.54,-1.14 -0.68,-0.94 -0.97,-1.8 -0.82,-2.88 0.09,-0.62 0.47,-1.38 0.49,-1.65l-0.05 -1.85c-0.03,-0.68 -0.01,-3.17 -0.19,-3.67 -0.62,0.2 -1.88,1.65 -2.2,2.21 -0.45,0.77 -0.92,1.79 -1.06,2.64 -0.25,1.58 -0.06,1.35 0.63,1.89 0.18,0.15 0.46,0.42 0.63,0.63 0.4,0.48 0.51,1.04 0.62,1.54 0.47,2 -1.7,5.04 -4.95,3.62 -0.98,-0.43 -1.65,-1.44 -1.88,-2.61 -0.09,-0.49 -0.06,-0.97 0.06,-1.4 0.2,-0.74 1.06,-1.22 0.3,-1.7 -1.24,-0.76 -3.24,-2.27 -4.58,-3.11l-1.02 -0.68c-0.52,-0.37 -1.05,-0.65 -1.52,-1.06 -0.31,-0.27 -0.18,-0.19 -0.52,-0.16 -0.11,0.32 0.11,0.76 0.12,1.12l0.85 7.12c0.04,0.23 0.06,0.35 0.08,0.61 0.02,0.26 0.06,0.34 0.11,0.61z"/>
   <path class="fil0" d="M60.47 64.98l11.38 18.58c0.13,0.21 0.24,0.13 0.45,-0l2.04 -1.27c-0.13,-0.66 -3.96,-6.73 -4.88,-8.23 -0.13,-0.21 -0.21,-0.33 -0.36,-0.52l-1.64 -2.74c-0.6,-0.84 -0.57,-0.75 -1.1,-1.73 0.64,-0.08 0.68,0.28 1.39,1.21 0.1,0.13 0.21,0.3 0.32,0.41 0.13,0.14 0.14,0.09 0.33,0.28l2.59 3.09c0.15,0.2 0.49,0.53 0.69,0.74 0.2,0.22 0.45,0.53 0.66,0.83 0.33,0.48 0.35,0.34 0.64,0.66 0.24,0.27 0.4,0.55 0.63,0.81 0.29,0.33 0.43,0.41 0.72,0.78l2.25 2.63c0.2,0.21 0.16,0.32 0.43,0.15 3.4,-2.08 2.56,-1.08 1.81,-3.22 -0.23,-0.66 -0.6,-1.25 -0.78,-1.85 -0.12,-0.39 -1.22,-2.76 -1.55,-3.69 -0.21,-0.6 -0.62,-1.18 -0.82,-1.84 -0.23,-0.77 -1.3,-2.87 -1.58,-3.71 -0.19,-0.55 -0.92,-1.59 -0.57,-1.7 0.21,-0.01 0.11,-0.04 0.27,0.15 0.02,0.02 0.19,0.31 0.22,0.35 0.15,0.26 0.26,0.57 0.36,0.73l2.76 4.51c0.13,0.21 0.16,0.18 0.26,0.33 0.18,0.26 0.09,0.26 0.2,0.43l3.82 6.24c0.34,0.56 0.54,0.23 1.55,-0.39 0.59,-0.36 1.63,-0.69 1.32,-1.18l-11.21 -18.3c-0.23,-0.37 -0.31,-0.41 -0.65,-0.2l-3.53 2.17c-0.26,0.47 0.36,1.3 0.57,1.79 0.15,0.37 0.2,0.63 0.34,0.93l1.25 2.79c0.16,0.37 0.16,0.51 0.34,0.9l3.18 7.4c0.18,0.31 0.33,0.6 0.29,0.94 -0.54,-0.09 -0.92,-0.76 -1.34,-1.3 -0.25,-0.32 -0.38,-0.42 -0.64,-0.69 -0.23,-0.24 -0.46,-0.62 -0.66,-0.86l-4.59 -5.34c-0.22,-0.27 -0.45,-0.45 -0.7,-0.75l-1.99 -2.35c-0.12,-0.12 -0.23,-0.25 -0.33,-0.35 -0.18,-0.19 -0.24,-0.32 -0.44,-0.2l-3.52 2.16c-0.29,0.18 -0.38,0.15 -0.21,0.44z"/>
   <path class="fil0" d="M102.95 64.79l2.33 -1.42c-0.4,-1.54 -8.02,-12.49 -7.91,-13.43 0.61,0.5 1.4,1.51 1.9,2.18 0.32,0.44 0.4,0.43 0.68,0.73 0.23,0.25 0.4,0.56 0.63,0.79 0.14,0.15 0.12,0.08 0.33,0.32l2.91 3.45c0.22,0.28 0.43,0.45 0.65,0.68 0.21,0.21 0.4,0.55 0.64,0.83 0.74,0.86 0.39,0.36 1.28,1.51l1.32 1.41 2.06 -1.21c0.51,-0.31 0.95,0 -0.08,-2.19 -0.49,-1.05 -1.09,-2.77 -1.6,-3.72 -0.41,-0.78 -0.96,-2.42 -1.13,-2.75 -0.18,-0.36 -0.28,-0.56 -0.45,-0.93 -0.06,-0.12 -0.17,-0.32 -0.23,-0.46 -0.12,-0.28 -0.05,-0.2 -0.11,-0.45l-1.85 -4.34c-0.01,-0.19 -0.01,-0.11 0.05,-0.27 1.01,1.24 1.04,1.36 1.77,2.76l5.43 8.88c0.36,0.58 0.66,1.18 1.12,1.68 3.19,-1.83 2.65,-1.54 2.24,-2.21l-0.59 -0.97c-1.42,-2.33 -10.31,-17 -10.66,-17.33 -0.38,0.01 -3.84,2.26 -3.96,2.39l0.65 1.77c0.16,0.34 0.32,0.59 0.47,0.93 0.14,0.33 0.14,0.54 0.31,0.88l1.23 2.79c0.09,0.31 0,0.18 0.13,0.46l0.69 1.39c0.17,0.37 0.13,0.48 0.35,0.92l2.15 5.04c0.15,0.44 0.14,0.16 -0,0.45 -0.31,-0.05 -1.63,-1.8 -1.93,-2.15 -0.24,-0.28 -0.44,-0.41 -0.68,-0.7 -0.26,-0.31 -0.32,-0.52 -0.62,-0.82l-3.24 -3.75c-0.4,-0.5 -0.83,-0.99 -1.28,-1.51 -0.25,-0.28 -0.39,-0.38 -0.66,-0.71 -0.22,-0.27 -0.42,-0.58 -0.62,-0.81 -0.22,-0.25 -0.49,-0.48 -0.67,-0.73 -0.22,-0.29 -0.36,-0.53 -0.63,-0.79 -0.5,0.12 -3.32,1.94 -4.03,2.39 0.24,0.85 4.89,8.19 5.73,9.57 0.8,1.31 5.33,9.05 5.92,9.42z"/>
   <path class="fil0" d="M48.19 84.03c-0.08,0.05 -0.67,0.72 -1.08,0l-2.66 -4.37c-0.43,-0.71 -0.82,-1.03 -0.43,-1.37 0.14,-0.12 1.23,-0.72 1.47,-0.85 0.47,-0.25 0.82,-0.25 1.25,-0.15 0.98,0.22 2.11,2.52 2.75,3.57 0.34,0.55 0.38,1.27 0.15,1.87 -0.25,0.67 -1.02,1.02 -1.46,1.29zm2.76 12.62c0.54,-0.33 2.52,-1.38 2.74,-1.76 0.04,-0.21 -3.6,-6.03 -4.28,-7.11 -0.48,-0.75 -0.51,-0.59 1.07,-1.55 0.33,-0.2 0.83,-0.27 1.1,-0.28 1.04,-0.03 2.1,1.63 2.56,2.37 0.49,0.81 0.99,1.62 1.49,2.43 0.53,0.86 0.9,1.68 1.64,2.02l2.72 -1.66c-0.26,-0.58 -0.36,-0.44 -0.87,-1.09l-2.59 -4.21c-0.54,-0.89 -1.17,-1.64 -1.92,-2.1 -0.91,-0.56 -1.37,-0.58 -2.3,-0.53 -0.15,-0.66 0.55,-0.96 0.41,-2.42 -0.17,-1.74 -1.51,-3.77 -2.54,-5.16 -0.17,-0.23 -0.36,-0.35 -0.58,-0.58 -0.22,-0.22 -0.26,-0.35 -0.53,-0.5l-1.22 -0.55c-0.38,-0.11 -0.37,-0.14 -0.69,-0.12 -0.44,0.03 -1,0.02 -1.46,0.19 -1.79,0.66 -1.5,0.61 -3.13,1.61 -1.09,0.67 -2.18,1.34 -3.28,2.01l8.72 14.23c0.93,1.53 1.93,3.32 2.93,4.77z"/>
   <path class="fil0" d="M62.67 115.29c0.32,-0.4 0.71,-0.74 1.21,-0.82 1.71,-0.3 1.05,1.2 -0.02,1.32 -0.37,0.04 -0.92,-0.17 -1.19,-0.49zm-7.53 -3.87c0.18,-0.11 0.21,-0.16 0.28,-0.28 -0.15,-0.49 -0.19,-0.17 -0.39,-0.49 -1.09,-1.79 -1.51,-2.63 -1.23,-4.86 0.17,-1.37 0.7,-2.16 1.45,-3.26 0.67,-0.99 3.44,-3.47 5.31,-2.47 1.39,0.74 2.13,2.34 2.91,3.62 0.25,0.42 0.91,2.02 1.01,2.43 0.13,0.55 0.42,1.23 0.7,2.42 0.2,0.85 0.32,1.49 0.37,2.34 0.22,3.69 -0.11,1.61 -1.93,2.72 -0.83,0.51 -1.33,1.13 -1.65,0.97 -0.54,-0.41 -1.63,-2.84 -1.87,-3.52 -0.66,-1.86 -1.02,-3.11 -1.38,-5 -0.14,-0.77 -0.21,-2.4 -0.17,-3.17 0.04,-0.59 0.21,-0.92 0.31,-1.48 -0.84,-0.19 -2.43,1.37 -2.75,2.55 -0.25,0.91 -0.44,1.15 -0.45,2.43 -0.02,2.27 0.25,3.18 0.84,5.29 0.41,1.45 1.07,2.89 1.88,4.21 0.42,0.69 0.54,0.73 0.98,1.23 0.18,0.21 0.28,0.34 0.48,0.47l0.56 0.39c0.17,0.11 0.92,0.38 1.19,0.44 0.68,0.16 2.02,-0.08 2.68,-0.48l0.9 -0.55c0.65,-0.4 1,-0.94 1.52,-1.25 0.2,0.12 0.28,0.13 0.47,0.28 0.84,0.65 1.37,1.13 2.46,1.08 1.27,-0.06 2.44,-0.83 2.68,-2.14 0,-0.02 0.01,-0.04 0.01,-0.06 0.27,-1.82 -0.6,-0.97 -0.76,-0.91 -1.14,0.43 -1.6,0.4 -2.68,0.05 -0.21,-0.07 -0.81,-0.09 -0.87,-0.59 -0.02,-0.21 0.19,-0.44 0.36,-1.16 0.07,-0.32 0.02,-0.29 0.05,-0.58 0.13,-1.32 0.28,-1.65 0.11,-3.17 -0.15,-1.27 -0.07,-1.26 -0.47,-2.65 -0.76,-2.7 -2.1,-6.07 -4.65,-7.47 -1.03,-0.57 -1.14,-0.6 -2.39,-0.63 -2.13,-0.05 -4.31,1.53 -5.81,2.98l-1.07 1.17c-0.63,0.91 -0.63,0.82 -1.33,1.99 -0.17,0.29 -0.88,2.17 -0.93,2.55 -0.02,0.13 -0.01,0.12 -0.02,0.23l-0.01 0.11c-0.15,1.42 0.05,3.53 1.43,4.23 0.52,0.26 0.27,0.23 0.9,0.2 0.22,-0.01 0.83,-0.12 0.99,-0.22z"/>
   <path class="fil0" d="M86.47 48.9c-0.06,0.33 1.03,1.88 1.21,2.19l7.01 11.44c0.44,0.72 1.51,2.21 1.01,3.14 -0.44,0.82 -1.71,1.54 -2.74,0.89 -0.58,-0.36 -1.05,-1.27 -1.48,-1.97l-8.19 -13.39c-0.4,-0.5 -0.66,-0.09 -1.61,0.49 -0.43,0.26 -1.08,0.57 -1.4,0.92 0.23,0.61 7.07,11.61 7.6,12.47 0.48,0.79 1.39,2.47 1.92,3.09 0.87,1.02 2.25,1.88 3.5,1.92l1.4 -0.19c0.69,-0.25 0.76,-0.19 1.47,-0.63 0.62,-0.38 1.01,-0.54 1.43,-1.04 0.74,-0.88 0.42,-0.33 0.98,-1.35 0.71,-1.28 0.54,-2.35 0.05,-3.71 -0.35,-0.98 0.11,-0.19 -0.69,-1.49l-6.71 -10.95c-0.63,-1.03 -1.26,-2.13 -1.91,-3.13 -0.36,-0.55 -0.42,-0.33 -1.41,0.27 -0.39,0.24 -1.35,0.64 -1.44,1.03z"/>
   <path class="fil0" d="M34.17 85.86c-0.41,-0.66 -0.99,-0.88 -0.19,-1.36 0.79,-0.48 1.32,-1.01 2.03,-0.95 0.42,0.04 0.98,0.27 1.29,0.78l2.46 4.02c0.27,0.45 0.15,1.31 -0.1,1.63 -0.05,0.06 -1.52,1.08 -1.7,1.19 -0.67,0.41 -0.64,-0.15 -0.95,-0.66l-2.84 -4.64zm-4.9 -1.48l11.41 18.54 2.8 -1.7c-0.5,-1.43 -3.44,-5.51 -4.18,-6.97 -0.23,-0.45 0.05,-0.41 1.21,-1.12 1.96,-1.2 3.34,-3.02 2.56,-5.34 -0.09,-0.27 -0.06,-0.28 -0.12,-0.51 -0.17,-0.69 -2.17,-3.8 -2.61,-4.53 -0.84,-1.37 -2.54,-2.54 -4.14,-2.45 -1.54,0.09 -2.52,0.78 -3.82,1.58 -1.09,0.67 -2.19,1.34 -3.28,2.01 0.05,0.18 0.05,0.28 0.18,0.49z"/>
   <path class="fil0" d="M69.98 84.96c-0.31,-0.55 -0.67,-1.1 -1,-1.64 -0.62,-1.01 -0.37,-1.02 -1.36,-0.4 -1.13,0.7 -2.27,1.38 -3.4,2.08 -1.15,0.71 -0.69,1.04 -2.45,-1.84 -0.49,-0.8 -1.84,-2.7 -1.95,-3.42l3.09 -1.9c1.07,-0.54 1.18,-0.26 -0.37,-2.7 -0.03,-0.04 -0.1,-0.15 -0.13,-0.19 -0.32,-0.37 -0.45,-0.02 -1.06,0.37 -0.39,0.24 -0.79,0.49 -1.19,0.73 -0.42,0.26 -0.67,0.31 -0.98,0.53 -1.29,0.93 -0.98,0.77 -2.81,-2.23l-1.28 -2.08c-0.22,-0.37 -0.19,-0.33 -0.18,-0.63 0.39,-0.33 4.84,-2.81 4.93,-3.07 -0.01,-0.4 -1.2,-2.27 -1.53,-2.48 -0.09,0.01 -0.01,-0.03 -0.21,0.05 -0.1,0.04 -0.19,0.09 -0.28,0.15 -1.34,0.8 -7.17,4.33 -7.42,4.62 0.21,0.57 2.51,4.17 3.13,5.19 0.39,0.63 0.58,1.15 1,1.77l7.11 11.55c0.31,0.69 0.4,0.43 1.51,-0.24 1.02,-0.63 6.49,-3.83 6.83,-4.2z"/>
   <path class="fil0" d="M86.81 74.68c0.43,-0.26 2.62,-1.53 2.71,-1.63 0.01,-0.12 0.04,-0.03 -0.02,-0.26 -0.09,-0.39 -0.31,-0.49 -0.5,-0.78 -0.21,-0.31 -0.37,-0.74 -0.62,-1.14l-4.46 -7.28c-1.92,-3.13 -3.94,-6.72 -5.97,-9.62l-2.65 1.62c-0.18,0.46 0.82,1.77 1.13,2.29l4.46 7.28c1.94,3.17 3.84,6.53 5.92,9.52z"/>
   <path class="fil0" d="M91.12 112.22c0.31,0.26 2.78,0.63 3.37,0.84 0.71,0.25 1.18,2.28 1.4,2.7 0.16,0.31 0.13,0.27 0.24,0.58 0.11,0.32 0.07,0.4 0.33,0.29 0.23,-0.09 1.56,-2.91 2.07,-3.15 0.45,-0.21 3.53,-0.21 3.68,-0.31 -0.01,-0.07 0.05,0.01 -0.06,-0.21l-0.55 -0.76c-0.26,-0.31 -0.38,-0.33 -0.69,-0.72 -1.38,-1.7 -1.27,-0.87 -0.62,-3.39 0.08,-0.33 0.42,-1.46 0.37,-1.71 -0.36,0.04 -0.56,0.22 -0.9,0.32 -0.42,0.13 -0.57,0.24 -0.99,0.44 -2.18,1.04 -1.78,0.6 -2.57,0.12 -0.21,-0.13 -0.16,-0.06 -0.37,-0.19 -0.66,-0.41 -1.3,-0.77 -1.88,-1.26l-0.27 0.12 0.35 3.49c-0.01,0.6 -1.7,1.58 -2.17,2.09 -0.26,0.28 -0.53,0.41 -0.73,0.71z"/>
   <path class="fil0" d="M82.28 117.9c-0.44,0.27 -1.17,0.88 -1.49,1.28 0.17,0.14 0.55,0.15 0.94,0.26 1.4,0.38 1.06,0.01 1.47,1.09l0.51 1.03c0.22,0.3 0.63,-0.75 0.63,-0.75 0.11,-0.2 0.47,-0.8 0.69,-0.9 0.4,-0.18 1.76,-0.13 1.82,-0.14 0.49,-0.12 0.12,0.01 0.2,-0.15 -0,-0.48 -1.28,-1.17 -1.25,-1.82l0.36 -1.4c0.1,-0.28 0.15,-0.25 0.02,-0.53 -0.58,0.05 -1.73,0.86 -2.12,0.7 -0.17,-0.07 -0.22,-0.18 -0.4,-0.28 -0.19,-0.1 -0.23,-0.05 -0.48,-0.21 -0.37,-0.23 -0.46,-0.54 -0.89,-0.5 -0.07,0.14 -0.01,0.38 0,0.54 0.02,0.24 0.01,0.38 0.02,0.6 0.03,0.42 0.17,0.81 -0.04,1.18z"/>
   <path class="fil0" d="M106.1 103.69c0.21,0.16 1.47,0.39 1.81,0.5 0.69,0.21 0.66,1.4 1.18,2.02 0.34,-0.22 0.32,-0.5 0.54,-0.84 0.68,-1.07 0.5,-1.08 2.17,-1.08 0.19,0 0.35,-0.01 0.57,-0.13 -0.08,-0.28 -0.42,-0.62 -0.66,-0.96 -0.3,-0.41 -0.66,-0.41 -0.62,-0.92 0.03,-0.36 0.43,-1.43 0.47,-1.9 -0.27,0.01 -0.67,0.2 -0.96,0.29 -1.17,0.38 -0.65,0.75 -1.95,-0.01 -0.39,-0.23 -0.73,-0.57 -0.99,-0.63 -0.24,0.31 -0.13,0.14 -0.04,1.01 0.14,1.41 0.26,1.07 -0.69,1.84 -0.18,0.14 -0.7,0.62 -0.83,0.8z"/>
   <path class="fil0" d="M95.16 79.59c0.16,0.26 0.29,0.33 0.51,0.53 1.22,1.15 2.92,0.06 3.18,-1.05 0.39,-1.72 -1.61,-2.94 -2.66,-2.29 -1.02,0.63 -0.85,0.44 -1.18,1.49 -0.14,0.45 -0.2,0.16 -0.05,0.65 0.02,0.07 0.18,0.64 0.2,0.68z"/>
  </g>
 </g>
</svg>
